<svg width="129" height="30" viewBox="0 0 129 30" fill="none" xmlns="http://www.w3.org/2000/svg">
<path d="M52.45 22.5399H49.2223L47.716 19.7964L44.1656 13.1796L40.6689 19.7964L39.1627 22.5399H35.935L37.3874 19.7964L44.1656 7.10083L50.9437 19.7964L52.45 22.5399Z" fill="#4E4E4E"/>
<path d="M59.0129 11.2431V12.6956H69.3953V15.4391H59.0129V18.344C59.0129 19.151 59.6585 19.7427 60.5192 19.7427H72.3003V22.4862H60.5192C58.0984 22.4862 56.1618 20.6034 56.1618 18.2902V11.2431C56.1618 8.92994 58.0984 7.04712 60.5192 7.04712H72.3003V9.79066H60.5192C59.6585 9.79066 59.0129 10.4362 59.0129 11.2431Z" fill="#4E4E4E"/>
<path d="M86.018 13.2334L93.0113 22.4861H89.4608L83.8662 15.1162L79.7778 18.6666V22.4861H76.8728V7.04696H79.7778V14.9548L82.1447 12.8568L84.2965 10.974L88.8153 6.99316H93.0651L86.018 13.2334Z" fill="#E93A4E"/>
<path d="M110.279 14.7936C110.279 19.0434 106.675 22.54 102.21 22.54C97.7452 22.54 94.141 19.0972 94.141 14.7936C94.141 10.5438 97.7452 7.04712 102.21 7.04712C106.675 7.04712 110.279 10.5438 110.279 14.7936ZM107.374 14.7936C107.374 12.05 105.061 9.79066 102.156 9.79066C99.2515 9.79066 96.9383 12.05 96.9383 14.7936C96.9383 17.5371 99.2515 19.7965 102.156 19.7965C105.061 19.7965 107.374 17.5371 107.374 14.7936Z" fill="#E93A4E"/>
<path d="M129 7.04712V9.79066H122.383V22.4862H119.478V9.84445H112.862V7.10091H129V7.04712Z" fill="#E93A4E"/>
<path d="M29.5872 29.5872H0V0H29.5872V29.5872ZM2.68974 26.8974H26.8974V2.68974H2.68974V26.8974Z" fill="#E93A4E"/>
<path d="M20.2269 22.8628H23.4007L14.7398 6.72437L6.1864 22.8628H18.9358L14.7398 15.1164L13.1797 18.0213L14.2018 19.9041H10.9741L14.7398 12.8032L20.2269 22.8628Z" fill="#E93A4E"/>
</svg>
