<?xml version="1.0" encoding="UTF-8"?>
<svg version="1.1" xmlns="http://www.w3.org/2000/svg" width="569" height="531" viewBox="0 0 569 531">
<path d="M0 0 C1.68222656 -0.05607422 1.68222656 -0.05607422 3.3984375 -0.11328125 C13.40629726 -0.21728903 22.25837373 1.98729581 29.6875 9 C30.21730469 9.56976563 30.74710938 10.13953125 31.29296875 10.7265625 C39.8050102 17.08422885 50.85581793 15.80936373 60.92773438 15.81445312 C69.27218221 15.94003122 75.06358436 16.46958391 81.5234375 22.15625 C81.96945312 22.7234375 82.41546875 23.290625 82.875 23.875 C83.56722656 24.72578125 83.56722656 24.72578125 84.2734375 25.59375 C85.55226497 27.45090072 86.51092144 29.35186099 87.5 31.375 C88.29433945 31.37864563 89.08867889 31.38229126 89.90708923 31.38604736 C97.42450545 31.42404921 104.94143273 31.48103867 112.45853329 31.55890274 C116.32238807 31.59826805 120.1860187 31.63050962 124.05004883 31.64599609 C127.78508822 31.66123564 131.51951092 31.69580795 135.25427437 31.74330902 C136.67302628 31.75804823 138.09186628 31.7660367 139.5106945 31.76688385 C147.72737498 31.77671619 154.32717428 32.17413015 161.5 36.375 C163.0778125 37.24125 163.0778125 37.24125 164.6875 38.125 C171.14504935 43.29103948 174.59350383 49.39111427 176.5 57.375 C176.92536643 61.66965762 176.93067613 65.93774561 176.91992188 70.25097656 C176.92839142 71.51222351 176.93686096 72.77347046 176.94558716 74.07293701 C176.96765618 77.50657447 176.97074173 80.93997099 176.96883965 84.37366962 C176.9687194 87.24671078 176.97730426 90.11970185 176.98561716 92.99272895 C177.00479389 99.76895016 177.00775409 106.54504817 177.00097656 113.32128906 C176.99432093 120.30447004 177.01727372 127.28712482 177.05429029 134.27019906 C177.08498225 140.27893239 177.09634848 146.28749623 177.09245348 152.29630637 C177.09038756 155.87968842 177.09584211 159.4626596 177.12034607 163.0459671 C177.14673925 167.03638941 177.13288911 171.02611913 177.11523438 175.01660156 C177.12849762 176.20008179 177.14176086 177.38356201 177.15542603 178.60290527 C177.06366099 187.50782409 177.06366099 187.50782409 174.09484863 190.61956787 C171.4394764 192.41594461 170.48554446 193.00012676 167.375 192.5 C166.38113281 192.38011719 166.38113281 192.38011719 165.3671875 192.2578125 C162.58340229 190.94162953 161.87135707 189.08665164 160.5 186.375 C160.12641239 183.79311466 160.12641239 183.79311466 160.12818909 180.99269104 C160.11805283 179.39249115 160.11805283 179.39249115 160.10771179 177.75996399 C160.1192907 176.01975227 160.1192907 176.01975227 160.13110352 174.24438477 C160.1254538 172.39969101 160.1254538 172.39969101 160.11968994 170.51773071 C160.11325527 167.84821551 160.11214595 165.17931149 160.11987495 162.50985909 C160.13148023 158.28609006 160.11927691 154.06259432 160.10325623 149.83885193 C160.06710018 139.3485579 160.06083121 128.85827061 160.06335449 118.36791992 C160.06506668 110.21297264 160.05791877 102.05824927 160.02337593 93.9033646 C160.00660475 89.70751296 160.00835628 85.51220796 160.02419865 81.31635869 C160.03136921 78.08918864 160.01275241 74.86214437 159.99829102 71.63500977 C160.01290627 69.8978344 160.01290627 69.8978344 160.02781677 68.12556458 C159.97195527 61.88681579 159.70877615 58.10498663 155.5 53.375 C149.89247903 47.86759278 142.94971987 48.77258149 135.5703125 48.765625 C134.21123292 48.75063043 132.85217148 48.7339006 131.49313354 48.71551514 C127.93232347 48.6719715 124.37175914 48.65187186 120.81072998 48.63677979 C117.17054796 48.61716137 113.53062953 48.57519691 109.890625 48.53515625 C102.76051735 48.45999556 95.63042918 48.40961884 88.5 48.375 C88.52094727 49.17196289 88.54189453 49.96892578 88.56347656 50.79003906 C88.64663322 54.40156434 88.69866034 58.01288824 88.75 61.625 C88.78351563 62.87925781 88.81703125 64.13351563 88.8515625 65.42578125 C88.86445313 66.63105469 88.87734375 67.83632812 88.890625 69.078125 C88.91157227 70.18833008 88.93251953 71.29853516 88.95410156 72.44238281 C88.3948008 76.0543832 87.35791338 77.16995532 84.5 79.375 C81.1180461 80.50231797 78.55107971 80.50654775 74.98477173 80.51544189 C74.32011725 80.51841302 73.65546277 80.52138414 72.97066724 80.5244453 C70.73905844 80.53313079 68.50750328 80.5346404 66.27587891 80.53613281 C64.67765691 80.54076105 63.07943603 80.54578572 61.48121643 80.55117798 C57.13615603 80.56430244 52.79111108 80.57074689 48.44603395 80.57518864 C45.73215177 80.57811896 43.01827382 80.58222367 40.30439377 80.58669281 C31.81534584 80.60036715 23.32630758 80.61003442 14.8372494 80.6138947 C5.0338209 80.61837705 -4.76946827 80.63593342 -14.5728544 80.6648953 C-22.1483048 80.68649948 -29.72371596 80.69659829 -37.29919684 80.69793582 C-41.82488904 80.69898465 -46.35045027 80.70490913 -50.87611008 80.72275543 C-55.13277863 80.73921456 -59.38921745 80.74140219 -63.64590645 80.73261642 C-65.20799563 80.73184492 -66.77009705 80.73620372 -68.33215523 80.74607468 C-70.46531271 80.75876382 -72.59765275 80.75293472 -74.73080444 80.74249268 C-75.92431707 80.74395924 -77.1178297 80.7454258 -78.34750938 80.7469368 C-81.82789109 80.33631479 -83.71197881 79.46270944 -86.5 77.375 C-87.88308781 74.60882437 -87.61210196 72.36482 -87.59765625 69.2734375 C-87.59282227 67.45585937 -87.59282227 67.45585937 -87.58789062 65.6015625 C-87.57532227 63.69503906 -87.57532227 63.69503906 -87.5625 61.75 C-87.55798828 60.47125 -87.55347656 59.1925 -87.54882812 57.875 C-87.53701203 54.70828708 -87.52053815 51.54166644 -87.5 48.375 C-95.48048873 48.41311011 -103.46041705 48.47254772 -111.44051552 48.55890274 C-115.14639634 48.59834168 -118.85204084 48.63054734 -122.55810547 48.64599609 C-126.13753427 48.6611869 -129.71631324 48.69567373 -133.29545212 48.74330902 C-134.65806796 48.75809816 -136.0207766 48.76603961 -137.38347244 48.76688385 C-147.31251614 48.55328032 -147.31251614 48.55328032 -155.5 53.375 C-159.53121475 58.65728139 -159.62454578 64.387952 -159.62863445 70.83813286 C-159.6318589 72.12703513 -159.63508335 73.4159374 -159.6384055 74.74389732 C-159.63693449 76.16706405 -159.63536678 77.59023069 -159.63371277 79.01339722 C-159.63558152 80.53080112 -159.63788248 82.04820453 -159.64057809 83.56560719 C-159.64669452 87.73239085 -159.64656268 91.89915445 -159.64538372 96.06594157 C-159.64517967 100.5609218 -159.65069879 105.05589558 -159.65544128 109.5508728 C-159.66374734 118.35595468 -159.6664961 127.16102987 -159.66705366 135.96611534 C-159.66752881 143.12265579 -159.66958347 150.27919404 -159.67275429 157.4357338 C-159.68156043 177.72397117 -159.68617368 198.01220326 -159.68542381 218.30044256 C-159.68538386 219.39416273 -159.6853439 220.48788289 -159.68530273 221.61474609 C-159.68526185 222.70980084 -159.68522097 223.80485558 -159.68517885 224.9330938 C-159.68477231 242.68439859 -159.69434414 260.43568217 -159.7084411 278.18698083 C-159.72280017 296.41205092 -159.72971156 314.63711066 -159.72884732 332.86218655 C-159.72851521 343.09495065 -159.73126861 353.32769251 -159.74202538 363.56045151 C-159.75112416 372.27182799 -159.75331071 380.98317216 -159.74651595 389.69455133 C-159.74324772 394.13904156 -159.74320503 398.58346975 -159.7518692 403.0279541 C-159.75972159 407.09786813 -159.75831568 411.16767083 -159.74958507 415.2375821 C-159.74804731 416.70859911 -159.74987662 418.17962438 -159.75544515 419.65063165 C-160.21569286 432.23492128 -160.21569286 432.23492128 -155.125 443.25 C-151.14267988 446.47378296 -148.51007589 447.62422792 -143.37059212 447.63226891 C-141.80711829 447.64194224 -141.80711829 447.64194224 -140.21205914 447.651811 C-139.06830063 447.6487138 -137.92454212 447.6456166 -136.74612427 447.64242554 C-134.92199991 447.64922221 -134.92199991 447.64922221 -133.06102455 447.65615618 C-129.68390617 447.6666398 -126.30700046 447.66812376 -122.92988086 447.66576743 C-119.28834168 447.66535969 -115.64683441 447.67639428 -112.00531006 447.68588257 C-104.87035842 447.70250264 -97.73543982 447.70799256 -90.60047044 447.70910732 C-84.80160355 447.71005729 -79.00274757 447.714165 -73.20388412 447.72050858 C-56.76732169 447.73812347 -40.33078539 447.74734702 -23.89421345 447.74584763 C-22.56478336 447.74572776 -22.56478336 447.74572776 -21.20849609 447.74560547 C-19.87744509 447.74548283 -19.87744509 447.74548283 -18.51950417 447.74535771 C-4.13574551 447.74454466 10.24790847 447.76368636 24.63163684 447.7918822 C39.39654195 447.82059716 54.16139598 447.83442327 68.92632973 447.83269465 C77.21743001 447.83203028 85.50842054 447.83754298 93.7994957 447.85905075 C100.85825998 447.87724429 107.91686476 447.88162498 114.97564231 447.8680319 C118.57744904 447.86149301 122.17894961 447.86141781 125.78072739 447.8787384 C129.68467976 447.89731914 133.58818296 447.88493858 137.49215698 447.86947632 C138.63145405 447.87976344 139.77075111 447.89005057 140.94457233 447.90064943 C147.11383068 447.84648177 150.8321098 447.5497556 155.5 443.375 C159.30149067 438.86152445 159.9963145 435.58764233 160.125 429.75 C160.33603485 421.61704165 160.33603485 421.61704165 162.5 418.375 C165.17633026 416.2934098 166.61753668 416.37912409 170.0625 416.5 C173.5 417.375 173.5 417.375 175.1875 418.890625 C177.12484369 422.55773984 176.99077389 425.91007553 176.9375 430 C176.92920166 430.80743652 176.92090332 431.61487305 176.91235352 432.44677734 C176.6430656 441.97822781 173.94212621 448.65856844 167.359375 455.62109375 C159.01713986 463.49013488 151.578046 464.67256295 140.30474854 464.64242554 C138.44554232 464.64922221 138.44554232 464.64922221 136.54877639 464.65615618 C133.11549067 464.6666187 129.68241461 464.66812735 126.24912786 464.66576743 C122.54347074 464.66535892 118.83784473 464.67640177 115.13220215 464.68588257 C107.87452824 464.70248638 100.61688682 464.70799185 93.3591955 464.70910732 C87.45838953 464.71005815 81.55759427 464.71417019 75.65679169 464.72050858 C58.92028314 464.7381198 42.18380023 464.74734771 25.44728234 464.74584763 C24.09424184 464.74572776 24.09424184 464.74572776 22.71386719 464.74560547 C21.81073641 464.74552371 20.90760563 464.74544195 19.97710726 464.74535771 C5.34398421 464.74454498 -9.28903586 464.76367948 -23.92212912 464.7918822 C-38.95379966 464.82062406 -53.98541999 464.83442176 -69.01711869 464.83269465 C-77.45363352 464.83203117 -85.89004041 464.83750508 -94.32653046 464.85905075 C-101.51029552 464.87727976 -108.69390373 464.88159586 -115.87768194 464.8680319 C-119.54075432 464.86151069 -123.20352592 464.86135399 -126.86656952 464.8787384 C-130.84345617 464.89741759 -134.81990581 464.88489227 -138.79681396 464.86947632 C-139.94644111 464.87976344 -141.09606826 464.89005057 -142.2805326 464.90064943 C-152.33299227 464.8146546 -160.32581298 462.3409874 -167.7421875 455.375 C-173.46495386 448.86376361 -175.61869552 442.43985471 -175.6398077 433.90364075 C-175.64275912 433.25259666 -175.64571055 432.60155257 -175.64875141 431.93077987 C-175.65744233 429.74005512 -175.65902304 427.54938316 -175.66062927 425.35864258 C-175.66536027 423.77569326 -175.67051119 422.19274514 -175.67604691 420.60979843 C-175.6899574 416.25240003 -175.69753785 411.89500999 -175.7040199 407.53759503 C-175.71039032 403.80189675 -175.72046052 400.0662122 -175.73058056 396.33052248 C-175.76390761 384.02196453 -175.78542682 371.71339823 -175.80378041 359.40480995 C-175.80857562 356.19961652 -175.81355892 352.99442342 -175.81858563 349.78923035 C-175.84955755 329.8844672 -175.87624235 309.97970115 -175.89300442 290.07492065 C-175.89695391 285.46417231 -175.9009569 280.85342402 -175.9050293 276.24267578 C-175.90603766 275.09669883 -175.90704602 273.95072187 -175.90808494 272.77001834 C-175.92508851 254.20968253 -175.96619416 235.64948013 -176.01705229 217.08920944 C-176.06884103 198.03249614 -176.09794836 178.97585142 -176.1052013 159.91906834 C-176.109862 149.21992615 -176.12459709 138.52100241 -176.1649456 127.82192993 C-176.1992704 118.70908568 -176.21317495 109.5964993 -176.20052146 100.48359412 C-176.19470033 95.83590896 -176.19852001 91.18876902 -176.2286911 86.54116631 C-176.25612248 82.28072127 -176.25550366 78.021207 -176.23318065 73.76074064 C-176.22996726 72.22497682 -176.23677017 70.6891499 -176.25497787 69.15349066 C-176.37413962 58.44851698 -174.82078421 49.47150019 -167.5562982 41.14792633 C-159.83352477 33.56783331 -150.9644107 31.91937307 -140.45675659 31.92181396 C-139.07272703 31.94222966 -137.68870402 31.96309346 -136.3046875 31.984375 C-134.86167187 31.99185212 -133.41864595 31.99753808 -131.97561646 32.00152588 C-128.21072459 32.01666689 -124.44646779 32.05584554 -120.68182373 32.1003418 C-116.82703233 32.14154661 -112.9721365 32.15959022 -109.1171875 32.1796875 C-101.57783811 32.22235405 -94.03900864 32.29046112 -86.5 32.375 C-86.20053467 31.4264917 -85.90106934 30.4779834 -85.5925293 29.50073242 C-84.51027413 26.40439433 -83.6153191 24.94816222 -81.3125 22.6875 C-80.76207031 22.12675781 -80.21164063 21.56601562 -79.64453125 20.98828125 C-72.45202613 15.57752603 -65.40857112 15.93889063 -56.6875 15.875 C-42.70494317 15.97059742 -42.70494317 15.97059742 -30.0546875 10.69140625 C-29.22324219 9.82322266 -29.22324219 9.82322266 -28.375 8.9375 C-19.87283026 0.79675853 -11.3359685 0.1394806 0 0 Z M-18.4921875 21.78515625 C-20.47654815 23.35643015 -22.49433847 24.75991837 -24.625 26.125 C-25.22570312 26.51171875 -25.82640625 26.8984375 -26.4453125 27.296875 C-31.31779631 29.85353951 -35.78991267 30.63007238 -41.25390625 30.71875 C-43.15366211 30.76322266 -43.15366211 30.76322266 -45.09179688 30.80859375 C-47.74283745 30.85292989 -50.39387912 30.89720053 -53.04492188 30.94140625 C-54.31013672 30.97105469 -55.57535156 31.00070313 -56.87890625 31.03125 C-58.0294751 31.04994141 -59.18004395 31.06863281 -60.36547852 31.08789062 C-65.47701733 31.55608672 -67.858146 32.733146 -71.5 36.375 C-71.5 45.615 -71.5 54.855 -71.5 64.375 C-23.98 64.375 23.54 64.375 72.5 64.375 C72.5 55.465 72.5 46.555 72.5 37.375 C66.91435252 31.78935252 65.54434804 31.27149978 58.21484375 31.19921875 C56.96123047 31.17537109 55.70761719 31.15152344 54.41601562 31.12695312 C51.79117404 31.08442992 49.16612743 31.05294081 46.54101562 31.03320312 C36.65851373 30.81628246 28.41241212 29.45028724 20.75 22.8125 C9.04072887 13.18533518 -6.52604159 12.18877649 -18.4921875 21.78515625 Z " fill="#F4C430" transform="translate(175.5,-0.375)"/>
<path d="M0 0 C0.94875 0.43957031 1.8975 0.87914062 2.875 1.33203125 C27.18941115 13.59525897 44.08494185 35.39848714 53.3125 60.58203125 C56.86375396 71.5883073 58.37146963 82.19878941 58.3125 93.75 C58.30512817 95.46461426 58.30512817 95.46461426 58.29760742 97.21386719 C57.96978352 120.91805687 49.14719833 142.21075221 35 161 C38.27662627 168.07786184 44.4826901 174.7408517 51 179 C55.64752362 179.82472796 59.42929142 178.93943417 64 178 C74.91497826 178.34162686 82.57870241 187.27823729 89.82714844 194.53662109 C90.55194901 195.25470444 91.27674957 195.97278778 92.02351379 196.71263123 C94.39072092 199.06101601 96.75048173 201.41670377 99.109375 203.7734375 C100.76590848 205.42353504 102.42258819 207.0734858 104.07940674 208.72329712 C107.5390788 212.17103799 110.99463714 215.62284271 114.44775391 219.07714844 C118.86130795 223.4909061 123.28848677 227.89071863 127.7192955 232.28714561 C131.1406107 235.68617618 134.55274905 239.09430645 137.96240997 242.50502396 C139.59059134 244.13085422 141.22199611 245.75346337 142.85674286 247.37269211 C145.14430465 249.64055173 147.41872083 251.92086499 149.69042969 254.20458984 C150.35961929 254.86254044 151.0288089 255.52049103 151.71827698 256.19837952 C158.02513546 262.58990064 162.71739757 269.17921892 162.6875 278.4375 C162.35743687 286.88373077 160.09179443 292.21299473 153.90234375 297.94140625 C147.90802279 302.25451532 142.14503318 302.70245609 134.90625 302.796875 C125.91974397 300.96362777 119.16036536 294.75319678 112.87573242 288.39331055 C111.75905182 287.28714386 111.75905182 287.28714386 110.61981201 286.15863037 C108.1882797 283.74454763 105.77149265 281.31631471 103.35546875 278.88671875 C101.6559633 277.18991163 99.95586476 275.49369836 98.25520325 273.79804993 C94.70437035 270.25309424 91.16082189 266.70105636 87.62231445 263.14379883 C83.09897712 258.59765646 78.55789333 254.06973371 74.01119518 249.54696941 C70.50112011 246.05138506 67.00067282 242.54628414 63.50301552 239.03827858 C61.83268631 237.36529208 60.15941113 235.69524127 58.48308372 234.028265 C56.13797479 231.69337685 53.80617141 229.34593781 51.47729492 226.99487305 C50.79097488 226.31664993 50.10465485 225.63842682 49.39753723 224.93965149 C43.01852244 218.44826827 38.68159115 211.96948922 37.9453125 202.75 C38 200 38 200 38.48803711 197.98681641 C39.27054945 194.33719461 39.62967967 192.04249493 37.64746094 188.76074219 C35.6458852 186.48068635 33.5464426 184.42739893 31.3125 182.375 C30.57837891 181.64410156 29.84425781 180.91320312 29.08789062 180.16015625 C26.2182838 177.35746162 26.2182838 177.35746162 23 175 C19.30589073 175.3697525 17.27887722 177.20135776 14.4375 179.5 C-7.54295185 195.8165971 -34.88639972 200.76657454 -61.7578125 197.68359375 C-80.07350007 194.7266724 -97.89461391 187.10120353 -112 175 C-113.19882813 174.00033203 -113.19882813 174.00033203 -114.421875 172.98046875 C-134.4542306 155.71655981 -147.59189032 131.445522 -150 105 C-152.01707991 76.20878075 -144.84193239 49.30349825 -126 27 C-125.31035156 26.17628906 -124.62070313 25.35257813 -123.91015625 24.50390625 C-93.26343974 -10.88254849 -41.71646501 -19.529996 0 0 Z M-112 35 C-128.7213754 54.85854807 -135.73800079 78.22833701 -134 104 C-131.04256257 128.24617807 -118.39416049 149.65555215 -99.3125 164.75 C-79.21458231 179.07594133 -55.45026978 185.06076133 -30.90234375 181.50390625 C-7.77513905 176.88889472 13.966348 163.70810321 27.20703125 143.953125 C39.89185878 123.0604679 45.67328028 99.79632549 40.8125 75.4375 C34.70815518 51.61635906 20.79038838 31.07546897 -0.375 18.1875 C-37.44828102 -3.48611045 -82.61971482 3.87348688 -112 35 Z M56 197 C54.25 199.75 54.25 199.75 54 203 C55.640165 207.7275344 58.35102131 210.64688445 62 214 C65.45201639 212.52278578 67.64961936 210.56205999 70.25 207.875 C71.30960938 206.78832031 71.30960938 206.78832031 72.390625 205.6796875 C72.92171875 205.12539063 73.4528125 204.57109375 74 204 C71.89745541 199.30431709 68.62737787 196.31368894 64 194 C60.66819564 194 58.72995496 195.16024775 56 197 Z M82.6171875 217.1875 C81.25980469 218.5796875 81.25980469 218.5796875 79.875 220 C78.96492187 220.928125 78.05484375 221.85625 77.1171875 222.8125 C76.41851562 223.534375 75.71984375 224.25625 75 225 C76.59937278 228.9625852 79.35191941 231.62750722 82.3359375 234.57885742 C83.15085663 235.39662407 83.15085663 235.39662407 83.98223877 236.23091125 C85.77497999 238.02735009 87.57480748 239.81649927 89.375 241.60546875 C90.62324872 242.85252517 91.87112779 244.09995169 93.11865234 245.34773254 C95.73161809 247.95913526 98.34790659 250.56714653 100.96679688 253.17260742 C104.32799997 256.51679461 107.68255625 259.86755332 111.03488159 263.22063732 C113.60987031 265.79535453 116.18745389 268.36746032 118.76593018 270.93868446 C120.00413043 272.1736974 121.24172142 273.40932148 122.47869873 274.64555931 C124.20465088 276.36935009 125.93385151 278.08981153 127.6640625 279.80932617 C128.17737122 280.32308807 128.69067993 280.83684998 129.21954346 281.36618042 C132.39402826 284.51192288 133.84805669 285.89333858 138.375 286.3125 C141.9702465 286.28581203 141.9702465 286.28581203 144.4375 284.4375 C146.70159958 280.90550465 146.7587407 279.13858566 146 275 C140.80515794 267.54560268 133.42872882 261.26499512 127.01171875 254.84375 C125.8605901 253.68940257 124.70953443 252.53498237 123.55854797 251.38049316 C121.16245921 248.97845596 118.7643529 246.57845422 116.36499023 244.1796875 C113.28527415 241.10007389 110.2125451 238.01358634 107.14145184 234.92537689 C104.77461847 232.54746369 102.40329344 230.1740701 100.03064919 227.80195618 C98.89469685 226.66482175 97.7603704 225.52606075 96.62769127 224.38566589 C95.05294011 222.80117736 93.47205316 221.22307881 91.8894043 219.64648438 C90.99118454 218.7468396 90.09296478 217.84719482 89.16752625 216.92028809 C86.06884501 214.1750569 85.67278693 214.38235954 82.6171875 217.1875 Z " fill="#F4C430" transform="translate(350,210)"/>
<path d="M0 0 C1.13179687 -0.00708984 2.26359375 -0.01417969 3.4296875 -0.02148438 C12.88024379 0.05129835 12.88024379 0.05129835 16.375 3.4375 C17.53879881 7.00648301 17.68420437 8.72144777 16.1875 12.1875 C14.375 14.4375 14.375 14.4375 10.375 16.4375 C4.765 16.4375 -0.845 16.4375 -6.625 16.4375 C-6.625 119.3975 -6.625 222.3575 -6.625 328.4375 C49.09708923 328.31869803 49.09708923 328.31869803 104.8190918 328.16723633 C115.58752441 328.15368652 115.58752441 328.15368652 120.62605286 328.15116882 C124.15089056 328.14836984 127.6755932 328.1371115 131.20039368 328.12077332 C135.6949613 328.10021563 140.18933216 328.09402287 144.68394244 328.09828317 C146.3344122 328.09739215 147.98488876 328.09143157 149.63531816 328.07985461 C151.86375162 328.06494798 154.0914192 328.06852349 156.31987 328.07673645 C157.56889949 328.07397107 158.81792898 328.07120569 160.10480785 328.06835651 C163.65375606 328.46896634 165.54316903 329.30004864 168.375 331.4375 C169.22265625 333.3046875 169.22265625 333.3046875 169.4375 335.3125 C169.53160156 335.96992188 169.62570313 336.62734375 169.72265625 337.3046875 C169.18420069 340.60802164 167.73280548 342.10125001 165.375 344.4375 C162.11967659 345.06391239 162.11967659 345.06391239 158.17678833 345.06568909 C157.45073171 345.07278347 156.72467508 345.07987786 155.97661674 345.08718723 C153.54262984 345.10479568 151.11023396 345.08664957 148.67626953 345.06860352 C146.93173494 345.07374138 145.18720554 345.08102165 143.44268799 345.09028625 C138.70280889 345.10882827 133.96349106 345.09584301 129.2236352 345.07619596 C124.26430754 345.05982601 119.30501589 345.06862028 114.34567261 345.07371521 C106.01469955 345.07823886 97.6839508 345.06235157 89.35302734 345.03442383 C79.72357065 345.00239173 70.09451903 345.00237865 60.46503365 345.0196386 C51.202273 345.03550936 41.93966075 345.02876521 32.67690659 345.01170158 C28.73522869 345.0048318 24.79366977 345.00586288 20.85199356 345.01324654 C16.20779267 345.02091433 11.56405195 345.00876711 6.9199295 344.98139763 C5.21637462 344.97451709 3.51277673 344.97441229 1.80922318 344.98161316 C-0.51863654 344.99031818 -2.84507961 344.97433582 -5.17282104 344.9521637 C-6.47472822 344.94935678 -7.7766354 344.94654985 -9.11799431 344.94365788 C-14.47413448 344.17061877 -17.2858352 341.83118889 -20.96825409 337.99884033 C-23.49984293 332.55693799 -23.17565205 327.38811726 -23.13293457 321.45605469 C-23.13754551 320.11871029 -23.14389973 318.78137096 -23.15184355 317.44404221 C-23.16853387 313.77493377 -23.16029212 310.10624177 -23.14789867 306.43713188 C-23.1388492 302.47795675 -23.15281739 298.51885328 -23.16381836 294.55969238 C-23.1816093 286.80600453 -23.17776106 279.05247151 -23.1661678 271.29877758 C-23.157136 264.99747128 -23.15590837 258.69620838 -23.16026306 252.39489746 C-23.16087599 251.4982257 -23.16148893 250.60155393 -23.16212043 249.67771029 C-23.16339933 247.85616587 -23.16469618 246.03462146 -23.1660108 244.21307707 C-23.17741828 227.13052804 -23.16430026 210.04806486 -23.14280933 192.96552992 C-23.12493819 178.30640403 -23.12804225 163.64740485 -23.14648438 148.98828125 C-23.16788812 131.96706175 -23.17631962 114.94591751 -23.16403532 97.92468643 C-23.16276112 96.10982515 -23.16150363 94.29496385 -23.16026306 92.48010254 C-23.15933741 91.14066625 -23.15933741 91.14066625 -23.15839306 89.77417064 C-23.15493867 83.48008465 -23.16077041 77.18604637 -23.17018127 70.89196777 C-23.18139713 63.22205658 -23.17836996 55.55230915 -23.1570583 47.88241673 C-23.14654225 43.96872507 -23.14243532 40.05530649 -23.15565491 36.14161682 C-23.16757345 32.55893219 -23.1610258 28.97677378 -23.1397447 25.39413691 C-23.1331593 23.48412554 -23.14621968 21.57407766 -23.15997362 19.66410446 C-23.10154169 13.29564861 -22.98713621 9.23815053 -18.625 4.4375 C-13.15193706 -0.7836283 -7.12891013 -0.12671801 0 0 Z " fill="#F4C430" transform="translate(54.625,63.5625)"/>
<path d="M0 0 C2.5625 2.0625 2.5625 2.0625 4 5 C4.11980998 10.87068914 1.48938686 15.71047808 -0.7890625 21.03125 C-6.20706178 34.31408694 -5.16560968 48.9899137 0.2890625 62.09765625 C7.50460469 77.35833505 18.0952497 87.08362451 34 93 C47.45943466 97.79617914 62.90576878 95.64365086 75.58984375 89.80859375 C76.36457031 89.43863281 77.13929688 89.06867188 77.9375 88.6875 C81.64837481 86.95802807 84.01277716 86.57599184 88 88 C90.59191186 89.69814915 90.96408796 90.8820033 91.875 93.875 C92.02824627 97.70615685 91.24676456 98.93884317 89 102 C74.32799138 112.34096793 53.94177626 114.3045877 36.6640625 111.33984375 C17.83884309 107.45897999 2.00130203 96.87915032 -9 81.2265625 C-19.61436572 64.1026053 -24.0848493 44.69702952 -19.91772461 24.74975586 C-17.88836235 16.29906635 -14.53204377 8.42317515 -10 1 C-6.78133011 -0.60933494 -3.4810198 -0.59733476 0 0 Z " fill="#F4C430" transform="translate(253,264)"/>
<path d="M0 0 C15.23274163 11.62217594 25.3337989 28.96403344 27.97265625 47.9375 C29.58741409 65.04145858 26.96769691 81.08283285 17.97265625 95.9375 C15.32756666 98.58258959 13.67293861 98.71983633 9.97265625 98.9375 C6.44359558 97.33338152 5.14492717 96.19590638 2.97265625 92.9375 C3.09109949 87.25222455 5.20135233 82.92121621 7.71875 77.87890625 C12.92938934 65.65581771 12.67820988 50.28129385 7.97265625 37.9375 C0.85990688 22.40081262 -9.01578844 12.25142807 -24.96484375 5.9375 C-38.74976921 0.91846266 -52.41372003 2.22509179 -66.02734375 6.9375 C-67.54709966 7.66861286 -69.05216361 8.43267046 -70.52734375 9.25 C-74.66505401 11.24496745 -76.65936088 11.22220084 -81.02734375 9.9375 C-82.96484375 8.875 -82.96484375 8.875 -84.02734375 6.9375 C-84.63792067 1.44230769 -84.63792067 1.44230769 -84.02734375 -1.0625 C-64.40200956 -24.85212632 -21.30154157 -14.51253413 0 0 Z " fill="#F4C430" transform="translate(348.02734375,246.0625)"/>
<path d="M0 0 C1.75183594 -0.04253906 1.75183594 -0.04253906 3.5390625 -0.0859375 C9.54726719 -0.09956155 14.07239913 0.0439837 18.89160156 3.83789062 C23.49754444 9.47363094 23.69152064 14.69833282 23.66992188 21.64868164 C23.67839142 22.65589767 23.68686096 23.66311371 23.69558716 24.70085144 C23.71893268 28.0207491 23.71998008 31.34018282 23.71875 34.66015625 C23.72585157 36.97131027 23.73355056 39.28246253 23.74182129 41.59361267 C23.75525943 46.43298244 23.75683713 51.27218907 23.75097656 56.11157227 C23.74507246 62.31484788 23.77570542 68.51734303 23.81609344 74.72046757 C23.84192901 79.49112673 23.84485175 84.26159673 23.84120178 89.03231621 C23.84289601 91.31968591 23.85256746 93.60706407 23.87034607 95.89436531 C23.89245962 99.09034865 23.88287252 102.28473543 23.86523438 105.48071289 C23.87849762 106.42578705 23.89176086 107.37086121 23.90542603 108.34457397 C23.84658577 112.92880106 23.73757852 114.87188971 20.84484863 118.59837341 C18.25 120.5 18.25 120.5 16.1171875 120.9453125 C15.45976562 120.83960938 14.80234375 120.73390625 14.125 120.625 C13.46242188 120.54507813 12.79984375 120.46515625 12.1171875 120.3828125 C9.21335054 119.00986866 8.59552514 117.4146199 7.25 114.5 C6.82522179 111.30994602 6.87083844 108.15021547 6.90942383 104.9362793 C6.90876671 103.50140923 6.90876671 103.50140923 6.90809631 102.03755188 C6.91018254 98.88289825 6.93350614 95.72877929 6.95703125 92.57421875 C6.96262778 90.38418366 6.96689761 88.19414481 6.96989441 86.00410461 C6.98133859 80.24516395 7.01080234 74.48645093 7.04400635 68.7276001 C7.07471628 62.84903035 7.08840174 56.97042375 7.10351562 51.09179688 C7.13567225 39.561098 7.18686365 28.03056794 7.25 16.5 C6.08082031 16.52320312 4.91164063 16.54640625 3.70703125 16.5703125 C2.15886058 16.58907821 0.61068297 16.60727755 -0.9375 16.625 C-2.09088867 16.65013672 -2.09088867 16.65013672 -3.26757812 16.67578125 C-7.53523731 16.71241352 -10.89752681 16.57782143 -14.75 14.5 C-16.91719206 11.8402643 -16.74534863 10.41162404 -16.5625 6.9375 C-14.50706828 -1.7585573 -7.55882664 -0.01646803 0 0 Z " fill="#F4C430" transform="translate(296.75,63.5)"/>
<path d="M0 0 C1.08655884 -0.00861557 2.17311768 -0.01723114 3.29260254 -0.02610779 C6.88801827 -0.04883029 10.4826586 -0.04201728 14.078125 -0.03295898 C16.5738956 -0.03819154 19.06966421 -0.04446666 21.56542969 -0.05174255 C26.79760032 -0.06215822 32.02956891 -0.05789643 37.26171875 -0.04296875 C43.30817771 -0.0260408 49.35391509 -0.04189103 55.40029526 -0.07419163 C61.22026582 -0.10410364 67.03995665 -0.1060734 72.85998535 -0.09669304 C75.33517394 -0.09587152 77.81037734 -0.10277296 80.28552246 -0.11746407 C83.74297043 -0.13483936 87.19886521 -0.12042413 90.65625 -0.09765625 C91.68286743 -0.10934845 92.70948486 -0.12104065 93.76721191 -0.13308716 C100.68324156 -0.04019376 100.68324156 -0.04019376 103.96777344 2.88148499 C105.6192575 6.10100085 105.86029968 7.9602744 105.328125 11.53344727 C103.54828095 14.66936297 102.80504293 15.37447462 99.328125 16.53344727 C97.85469327 16.62828751 96.37737975 16.66830968 94.90090942 16.67388916 C93.54246918 16.68245438 93.54246918 16.68245438 92.15658569 16.69119263 C91.16534698 16.69231049 90.17410828 16.69342834 89.15283203 16.69458008 C87.58414368 16.70202744 87.58414368 16.70202744 85.98376465 16.70962524 C82.51781562 16.72425245 79.05191235 16.73104948 75.5859375 16.73657227 C73.18081663 16.74232283 70.77569578 16.74808057 68.37057495 16.75384521 C63.32501003 16.7643565 58.27946105 16.77019848 53.23388672 16.77368164 C46.76506566 16.77916955 40.29645476 16.80320358 33.82769966 16.83165359 C28.85891094 16.85026538 23.89017302 16.85548478 18.92135239 16.85701752 C16.53630295 16.86004738 14.15125447 16.86808706 11.76623917 16.8812027 C8.43139842 16.89823387 5.09707347 16.89638999 1.76220703 16.88989258 C0.77501678 16.89910736 -0.21217346 16.90832214 -1.22927856 16.91781616 C-6.1597364 16.88768395 -9.71952109 16.8493105 -13.671875 13.53344727 C-15.21774376 10.44170975 -14.96547021 7.93915174 -14.671875 4.53344727 C-11.26461633 -0.99162409 -5.80488288 -0.03689979 0 0 Z " fill="#F4C430" transform="translate(166.671875,127.466552734375)"/>
<path d="M0 0 C0.84111328 -0.00861557 1.68222656 -0.01723114 2.54882812 -0.02610779 C5.32786883 -0.04880133 8.10590384 -0.04202255 10.88500977 -0.03295898 C12.81787923 -0.03819333 14.75074614 -0.04446911 16.68360901 -0.05174255 C20.73467019 -0.0621532 24.78538026 -0.05757612 28.83642578 -0.04296875 C34.02647209 -0.02578586 39.21541083 -0.04926657 44.40533352 -0.08445835 C48.39711333 -0.10642601 52.38862792 -0.1049923 56.3804493 -0.09669304 C58.29380571 -0.09587306 60.20718151 -0.1027454 62.12048149 -0.11746407 C64.79715769 -0.13489714 67.47184125 -0.12037857 70.1484375 -0.09765625 C71.33231804 -0.11519455 71.33231804 -0.11519455 72.54011536 -0.13308716 C76.5654291 -0.06360893 78.42739901 0.36715585 81.63050842 2.88539124 C83.63891602 5.53344727 83.63891602 5.53344727 84.26391602 8.53344727 C83.40816896 12.64103313 81.92000447 13.94700034 78.63891602 16.53344727 C75.65242623 17.02820711 73.23749926 17.21918895 70.25610352 17.18041992 C69.42459778 17.18918152 68.59309204 17.19794312 67.73638916 17.20697021 C64.99502982 17.22892965 62.25529099 17.21442438 59.51391602 17.19750977 C57.60489595 17.20087891 55.69587797 17.20573235 53.78686523 17.21200562 C49.78877307 17.21937225 45.79123999 17.20867821 41.79321289 17.18530273 C36.67153421 17.15681505 31.55116554 17.17322015 26.42953491 17.20316505 C22.48834382 17.22124371 18.54746269 17.2154774 14.60626221 17.20252609 C12.71803634 17.19919365 10.82978222 17.20327348 8.94158936 17.21492386 C6.30087896 17.2276421 3.66228171 17.2082435 1.02172852 17.18041992 C0.24339661 17.19054108 -0.5349353 17.20066223 -1.33685303 17.21109009 C-5.3118946 17.13360174 -7.1723516 16.67980852 -10.34985352 14.21566772 C-12.36108398 11.53344727 -12.36108398 11.53344727 -12.92358398 7.97094727 C-11.67701633 0.35303381 -6.82287643 -0.05627007 0 0 Z " fill="#F4C430" transform="translate(164.361083984375,191.466552734375)"/>
<path d="M0 0 C2.375 1.0625 2.375 1.0625 4 3 C5 6.3125 5 6.3125 5 10 C2.29553936 14.71983509 -1.11083493 18.40538875 -4.9375 22.203125 C-5.49945068 22.76698914 -6.06140137 23.33085327 -6.64038086 23.9118042 C-7.82127496 25.09405122 -9.00466614 26.27380883 -10.19042969 27.45117188 C-12.00171731 29.25170712 -13.80203285 31.06272164 -15.6015625 32.875 C-16.75456728 34.02668381 -17.90819197 35.17774741 -19.0625 36.328125 C-19.5980249 36.86769836 -20.1335498 37.40727173 -20.68530273 37.9631958 C-24.39859925 41.63034884 -26.87310493 43.86989031 -32.12890625 44.19140625 C-37.99146768 43.11595106 -41.94170095 38.00014892 -45.9375 33.9375 C-46.81212891 33.10283203 -47.68675781 32.26816406 -48.58789062 31.40820312 C-55.55894311 24.42626687 -55.55894311 24.42626687 -55.6640625 19.53515625 C-55 16 -55 16 -53.4375 13.5 C-49.89383548 11.31928337 -48.10900306 11.24668277 -44 12 C-41.79868206 13.53590054 -39.9169046 15.20931255 -37.9921875 17.078125 C-35.7760992 19.21599842 -33.41345626 21.09007058 -31 23 C-30.06933716 22.06148193 -30.06933716 22.06148193 -29.11987305 21.10400391 C-26.81280853 18.77987881 -24.50349527 16.45803595 -22.19262695 14.13769531 C-21.19367099 13.13371622 -20.19561513 12.12884068 -19.19848633 11.12304688 C-17.76360007 9.67600662 -16.32548866 8.23224009 -14.88671875 6.7890625 C-14.02264404 5.91975098 -13.15856934 5.05043945 -12.26831055 4.15478516 C-8.10597034 0.20076356 -5.69428738 -0.49949889 0 0 Z " fill="#F4C430" transform="translate(127,116)"/>
<path d="M0 0 C2.64764845 1.67684402 2.95477045 2.85138861 3.875 5.875 C4.04618862 10.15471547 2.47390976 12.33612352 -0.34182739 15.51477051 C-1.98365777 17.23133473 -3.65780016 18.90882474 -5.34765625 20.578125 C-6.26640785 21.49618927 -6.26640785 21.49618927 -7.20372009 22.43280029 C-8.49322691 23.71929725 -9.78515208 25.00337424 -11.0793457 26.28515625 C-13.06457666 28.25205749 -15.04161558 30.22691714 -17.01757812 32.203125 C-18.27296531 33.45359922 -19.5288089 34.70361546 -20.78515625 35.953125 C-21.37788834 36.54474426 -21.97062042 37.13636353 -22.58131409 37.74591064 C-25.7458587 40.87379718 -27.61737633 42.7119534 -32 43.625 C-38.03504086 43.54971882 -42.046755 37.98408154 -46 34 C-46.77472656 33.24976563 -47.54945312 32.49953125 -48.34765625 31.7265625 C-55.8436157 24.40745872 -55.8436157 24.40745872 -56.4375 19.0625 C-56.34045937 15.7752486 -56.10781294 15.13394941 -53.9375 12.4375 C-49.93015055 10.47645665 -48.25506447 10.629725 -44 12 C-41.09318767 14.1038255 -38.53984653 16.47119628 -36 19 C-35.42765625 19.56976563 -34.8553125 20.13953125 -34.265625 20.7265625 C-33.84796875 21.14679688 -33.4303125 21.56703125 -33 22 C-29.34968275 20.46728453 -27.06060249 18.27846123 -24.3046875 15.46484375 C-23.42425781 14.57345703 -22.54382813 13.68207031 -21.63671875 12.76367188 C-20.72535156 11.83103516 -19.81398437 10.89839844 -18.875 9.9375 C-17.06210385 8.09027833 -15.24710642 6.24511579 -13.4296875 4.40234375 C-12.22675049 3.17245728 -12.22675049 3.17245728 -10.99951172 1.91772461 C-7.27284601 -1.65650728 -4.94725754 -1.0415279 0 0 Z " fill="#F4C430" transform="translate(128,309)"/>
<path d="M0 0 C2.3125 1.0625 2.3125 1.0625 4 3 C5.00136419 6.60491107 5.53388876 8.87554941 3.90063477 12.31542969 C1.46188468 15.76006629 -1.3507924 18.61771574 -4.34765625 21.578125 C-5.26640785 22.49618927 -5.26640785 22.49618927 -6.20372009 23.43280029 C-7.49322691 24.71929725 -8.78515208 26.00337424 -10.0793457 27.28515625 C-12.06457666 29.25205749 -14.04161558 31.22691714 -16.01757812 33.203125 C-17.27296531 34.45359922 -18.5288089 35.70361546 -19.78515625 36.953125 C-20.37788834 37.54474426 -20.97062042 38.13636353 -21.58131409 38.74591064 C-26.63367827 43.73974824 -26.63367827 43.73974824 -30.625 44.5 C-35.86235213 43.72409598 -38.30858556 40.62623697 -42 37 C-43.13228832 35.97194332 -44.26655069 34.94605834 -45.40234375 33.921875 C-46.60307496 32.80370527 -47.8022884 31.68390355 -49 30.5625 C-49.5885376 30.03760986 -50.1770752 29.51271973 -50.78344727 28.97192383 C-53.83401884 26.03391947 -55.38287979 24.07742236 -55.5078125 19.74609375 C-55 16 -55 16 -52.875 13.5 C-49.3405323 11.6559299 -47.92618718 11.15317531 -44 12 C-41.07275288 14.07794912 -38.54279421 16.47343639 -36 19 C-34.7625 20.2065625 -34.7625 20.2065625 -33.5 21.4375 C-33.005 21.953125 -32.51 22.46875 -32 23 C-28.34968275 21.46728453 -26.06060249 19.27846123 -23.3046875 16.46484375 C-22.42425781 15.57345703 -21.54382813 14.68207031 -20.63671875 13.76367188 C-19.72535156 12.83103516 -18.81398437 11.89839844 -17.875 10.9375 C-16.06210385 9.09027833 -14.24710642 7.24511579 -12.4296875 5.40234375 C-11.22675049 4.17245728 -11.22675049 4.17245728 -9.99951172 2.91772461 C-6.71255574 -0.23478323 -4.49587737 -0.35967019 0 0 Z " fill="#F4C430" transform="translate(127,244)"/>
<path d="M0 0 C2.375 1.0625 2.375 1.0625 4 3 C5 6.3125 5 6.3125 5 10 C2.29553936 14.71983509 -1.11083493 18.40538875 -4.9375 22.203125 C-5.49945068 22.76698914 -6.06140137 23.33085327 -6.64038086 23.9118042 C-7.82127496 25.09405122 -9.00466614 26.27380883 -10.19042969 27.45117188 C-12.00171731 29.25170712 -13.80203285 31.06272164 -15.6015625 32.875 C-16.75456728 34.02668381 -17.90819197 35.17774741 -19.0625 36.328125 C-19.5980249 36.86769836 -20.1335498 37.40727173 -20.68530273 37.9631958 C-24.39859925 41.63034884 -26.87310493 43.86989031 -32.12890625 44.19140625 C-37.99146768 43.11595106 -41.94170095 38.00014892 -45.9375 33.9375 C-46.81212891 33.10283203 -47.68675781 32.26816406 -48.58789062 31.40820312 C-55.55894311 24.42626687 -55.55894311 24.42626687 -55.6640625 19.53515625 C-55 16 -55 16 -53.4375 13.5 C-49.89383548 11.31928337 -48.10900306 11.24668277 -44 12 C-41.02630905 14.03989641 -38.52845595 16.43863573 -36 19 C-34.7625 20.2065625 -34.7625 20.2065625 -33.5 21.4375 C-33.005 21.953125 -32.51 22.46875 -32 23 C-28.24319696 21.45507598 -26.01957808 19.15516449 -23.26171875 16.2109375 C-22.35873047 15.26992187 -21.45574219 14.32890625 -20.52539062 13.359375 C-19.10195261 11.8678969 -17.68467491 10.37196265 -16.28051758 8.86230469 C-14.91577943 7.40040922 -13.52646358 5.9615814 -12.13671875 4.5234375 C-11.31905029 3.65638184 -10.50138184 2.78932617 -9.65893555 1.89599609 C-6.22912992 -0.54968112 -4.12639478 -0.43295506 0 0 Z " fill="#F4C430" transform="translate(127,180)"/>
<path d="M0 0 C0.93714844 -0.00257813 1.87429687 -0.00515625 2.83984375 -0.0078125 C11.71659461 0.11809886 11.71659461 0.11809886 15.5 3.5 C16.3828125 5.3671875 16.3828125 5.3671875 16.625 7.375 C16.73070312 8.03242188 16.83640625 8.68984375 16.9453125 9.3671875 C16.16466947 13.10605674 14.59404171 14.30823048 11.5 16.5 C7.6310015 17.21223373 3.86043329 17.1527104 -0.0625 17.0625 C-1.10341797 17.07345703 -2.14433594 17.08441406 -3.21679688 17.09570312 C-10.84243618 17.0221439 -10.84243618 17.0221439 -13.79272461 14.67944336 C-15.5 12.5 -15.5 12.5 -16.0625 9.0625 C-14.59976003 -0.20151979 -7.80274656 -0.23612163 0 0 Z " fill="#F4C430" transform="translate(167.5,319.5)"/>
<path d="M0 0 C0.99322266 -0.00257813 1.98644531 -0.00515625 3.00976562 -0.0078125 C11.41624954 0.10540614 11.41624954 0.10540614 14.9375 3.5 C16.04123378 7.47344161 16.35293583 9.58999772 14.625 13.375 C12.9375 15.5 12.9375 15.5 10.9375 16.5 C7.33985402 16.79382599 3.73324606 16.77796031 0.125 16.8125 C-0.87337891 16.84150391 -1.87175781 16.87050781 -2.90039062 16.90039062 C-7.40440431 16.9393994 -10.25353415 16.9619805 -14.22265625 14.6953125 C-16.0625 12.5 -16.0625 12.5 -16.6875 9.0625 C-15.02352839 -0.42213817 -8.0147974 -0.22974012 0 0 Z " fill="#F4C430" transform="translate(168.0625,255.5)"/>
<path d="M0 0 C0.7115625 -0.02384766 1.423125 -0.04769531 2.15625 -0.07226562 C5.96667114 -0.06160213 7.67054935 0.25874753 10.50390625 2.87109375 C12.54359209 6.54039804 12.10693828 8.57752218 11 12.5625 C9.10466125 15.14705285 8.11173483 15.52525506 5 16.5625 C-1.00591751 17.10003479 -5.82941935 17.00955377 -11 13.5625 C-12.54586876 10.47076248 -12.29359521 7.96820448 -12 4.5625 C-8.82201017 -0.02066786 -5.20105316 -0.08008868 0 0 Z " fill="#F4C430" transform="translate(176,31.4375)"/>
<defs>
    <linearGradient id="paint0_linear_745_902" x1="569" y1="59" x2="-2.90956e-05" y2="381" gradientUnits="userSpaceOnUse">
    <stop stop-color="#F4C430"/>
    <stop offset="1" stop-color="#F4C430" stop-opacity="0"/>
    </linearGradient>
    </defs>
</svg>
