<svg width="553" height="562" viewBox="0 0 691 535" fill="none" xmlns="http://www.w3.org/2000/svg">
<path d="M636.477 145.933C606.681 145.933 582.539 170.087 582.539 199.872C582.539 205.988 583.779 211.76 585.645 217.24L454.164 330.457C444.94 323.111 433.43 318.537 420.722 318.537C406.062 318.537 392.804 324.427 383.094 333.92L280.104 282.355C278.098 254.382 255.023 232.235 226.542 232.235C196.758 232.235 172.604 256.389 172.604 286.174C172.604 294.329 174.546 301.978 177.782 308.903L72.7741 429.985C66.884 427.784 60.5947 426.414 53.9387 426.414C24.1537 426.414 0 450.568 0 480.353C0 510.138 24.1537 534.292 53.9387 534.292C83.7236 534.292 107.877 510.138 107.877 480.353C107.877 473.179 106.41 466.351 103.864 460.094L210.577 337.437C215.658 339.012 220.944 340.112 226.542 340.112C242.239 340.112 256.24 333.295 266.1 322.582L366.836 373.09C367.193 402.584 391.141 426.414 420.722 426.414C450.518 426.414 474.66 402.261 474.66 372.476C474.66 371.515 474.434 370.62 474.38 369.671L614.685 249.139C621.363 252.095 628.698 253.81 636.477 253.81C666.273 253.81 690.415 229.668 690.415 199.872C690.415 170.087 666.273 145.933 636.477 145.933H636.477Z" fill="url(#paint0_linear_745_1361)"/>
<path d="M391.952 93.4937L376.67 134.247L335.916 149.53L376.67 164.813L391.952 205.566L407.235 164.813L447.989 149.53L407.235 134.247L391.952 93.4937Z" fill="url(#paint1_linear_745_1361)"/>
<path d="M204.965 0L189.682 40.7537L148.929 56.0363L189.682 71.3189L204.965 112.073L220.248 71.3189L261.001 56.0363L220.248 40.7537L204.965 0Z" fill="url(#paint2_linear_745_1361)"/>
<path d="M61.1281 145.933L45.8455 186.687L5.0918 201.969L45.8455 217.252L61.1281 258.006L76.4107 217.252L117.164 201.969L76.4107 186.687L61.1281 145.933Z" fill="url(#paint3_linear_745_1361)"/>
<defs>
<linearGradient id="paint0_linear_745_1361" x1="519.5" y1="216.439" x2="185.164" y2="590.101" gradientUnits="userSpaceOnUse">
<stop stop-color="#F4C430"/>
<stop offset="1" stop-color="#F4C430" stop-opacity="0"/>
</linearGradient>
<linearGradient id="paint1_linear_745_1361" x1="420.245" y1="113.84" x2="332.759" y2="168.839" gradientUnits="userSpaceOnUse">
<stop stop-color="#F4C430"/>
<stop offset="1" stop-color="#F4C430" stop-opacity="0"/>
</linearGradient>
<linearGradient id="paint2_linear_745_1361" x1="233.257" y1="20.3466" x2="145.772" y2="75.3455" gradientUnits="userSpaceOnUse">
<stop stop-color="#F4C430"/>
<stop offset="1" stop-color="#F4C430" stop-opacity="0"/>
</linearGradient>
<linearGradient id="paint3_linear_745_1361" x1="89.4203" y1="166.28" x2="1.93487" y2="221.279" gradientUnits="userSpaceOnUse">
<stop stop-color="#F4C430"/>
<stop offset="1" stop-color="#F4C430" stop-opacity="0"/>
</linearGradient>
</defs>
</svg>
