<svg width="553" height="562" viewBox="0 0 569 531" fill="none" xmlns="http://www.w3.org/2000/svg">
<path d="M303.467 455.143V493.071H379.333V531H189.667V493.071H265.533V455.143H0V113.786H303.467L265.237 151.714H37.9333V417.214H531.067V189.643L569 151.714V455.143H303.467ZM151.733 341.357C157.068 341.357 162.007 340.369 166.551 338.394C171.095 336.419 175.047 333.752 178.405 330.393C181.764 327.035 184.53 322.985 186.703 318.244C188.876 313.503 189.864 308.565 189.667 303.429C189.667 293.749 191.346 284.563 194.705 275.871C198.063 267.179 202.805 259.475 208.93 252.758C215.054 246.042 222.167 240.511 230.267 236.165C238.368 231.819 247.357 229.053 257.235 227.868L467.943 17.1864C473.475 11.6551 479.896 7.40792 487.206 4.44475C494.516 1.48158 502.024 0 509.729 0C517.83 0 525.436 1.48158 532.548 4.44475C539.661 7.40792 545.983 11.6551 551.515 17.1864C557.047 22.7176 561.196 28.9403 563.962 35.8544C566.728 42.7684 568.309 50.5714 568.704 59.2634C568.704 66.9676 567.222 74.4743 564.258 81.7835C561.295 89.0926 557.047 95.5128 551.515 101.044L340.807 311.725C339.819 321.208 337.152 330.097 332.806 338.394C328.459 346.691 322.927 353.802 316.21 359.729C309.493 365.655 301.787 370.396 293.094 373.952C284.401 377.508 275.214 379.286 265.533 379.286H75.8667V341.357H151.733ZM509.729 37.9286C504 37.9286 499.06 40.0028 494.911 44.1512L363.034 176.012C374.295 184.704 384.273 194.68 392.966 205.94L524.843 74.0792C528.992 69.9308 531.067 64.9922 531.067 59.2634C531.067 53.3371 528.992 48.2997 524.843 44.1512C520.694 40.0028 515.656 37.9286 509.729 37.9286ZM308.801 230.238C320.853 238.14 330.83 248.116 338.733 260.166L365.997 233.201C357.699 221.349 347.623 211.274 335.769 202.977L308.801 230.238ZM303.467 303.429C303.467 298.095 302.479 293.156 300.503 288.613C298.527 284.069 295.86 280.118 292.502 276.76C289.143 273.402 285.093 270.636 280.351 268.463C275.609 266.29 270.67 265.302 265.533 265.5C260.199 265.5 255.26 266.488 250.716 268.463C246.172 270.439 242.22 273.105 238.861 276.464C235.503 279.822 232.737 283.872 230.564 288.613C228.39 293.354 227.402 298.292 227.6 303.429C227.6 316.862 224.241 329.504 217.524 341.357H265.533C270.67 341.357 275.511 340.369 280.055 338.394C284.599 336.419 288.649 333.752 292.205 330.393C295.761 327.035 298.527 322.985 300.503 318.244C302.479 313.503 303.467 308.565 303.467 303.429Z" fill="url(#paint0_linear_745_902)"/>
<defs>
<linearGradient id="paint0_linear_745_902" x1="569" y1="59" x2="-2.90956e-05" y2="381" gradientUnits="userSpaceOnUse">
<stop stop-color="#F4C430"/>
<stop offset="1" stop-color="#F4C430" stop-opacity="0"/>
</linearGradient>
</defs>
</svg>
