<svg width="553" height="562" viewBox="0 0 553 562" fill="none" xmlns="http://www.w3.org/2000/svg">
<path d="M272.497 400.993C248.665 400.993 225.368 393.926 205.552 380.686C185.737 367.445 170.292 348.626 161.172 326.609C152.052 304.591 149.666 280.363 154.315 256.989C158.965 233.615 170.441 212.144 187.293 195.293C204.144 178.441 225.615 166.965 248.989 162.315C272.363 157.666 296.591 160.052 318.609 169.172C340.626 178.292 359.445 193.737 372.686 213.552C385.926 233.368 392.993 256.665 392.993 280.497C393.165 296.368 390.166 312.114 384.171 326.811C378.177 341.508 369.307 354.86 358.084 366.084C346.86 377.307 333.508 386.177 318.811 392.171C304.114 398.166 288.368 401.165 272.497 400.993ZM272.497 200.166C261.881 199.924 251.327 201.837 241.472 205.788C231.616 209.74 222.664 215.648 215.156 223.156C207.648 230.664 201.74 239.616 197.788 249.472C193.837 259.327 191.924 269.881 192.166 280.497C191.924 291.112 193.837 301.666 197.788 311.521C201.74 321.377 207.648 330.329 215.156 337.837C222.664 345.345 231.616 351.253 241.472 355.205C251.327 359.156 261.881 361.069 272.497 360.827C283.112 361.069 293.666 359.156 303.521 355.205C313.377 351.253 322.329 345.345 329.837 337.837C337.345 330.329 343.253 321.377 347.205 311.521C351.156 301.666 353.069 291.112 352.827 280.497C353.069 269.881 351.156 259.327 347.205 249.472C343.253 239.616 337.345 230.664 329.837 223.156C322.329 215.648 313.377 209.74 303.521 205.788C293.666 201.837 283.112 199.924 272.497 200.166Z" fill="url(#paint0_linear_745_237)"/>
<path d="M539.631 181.526L492.248 99.474C487.61 91.429 480.322 85.2424 471.63 81.97C462.937 78.6975 453.378 78.5421 444.584 81.5301L395.715 98.0489C387.294 92.3806 378.492 87.2972 369.374 82.8348L359.275 32.2749C357.455 23.1713 352.535 14.9799 345.352 9.09516C338.17 3.21046 329.169 -0.00367398 319.883 3.15161e-06H225.117C215.831 -0.00367398 206.83 3.21046 199.648 9.09516C192.465 14.9799 187.545 23.1713 185.725 32.2749L175.626 82.8348C166.405 87.2483 157.503 92.2984 148.983 97.9486L100.396 81.5301C91.6069 78.5525 82.057 78.7134 73.3732 81.9853C64.6894 85.2572 57.409 91.4377 52.7722 99.474L5.3894 181.526C0.747716 189.56 -0.966717 198.954 0.537691 208.11C2.0421 217.265 6.67245 225.617 13.6412 231.745L52.4108 265.806C52.0695 270.864 51.6479 275.882 51.6479 281C51.6479 286.178 51.8487 291.297 52.2101 296.375L13.6613 330.255C6.68603 336.378 2.04797 344.727 0.536202 353.883C-0.975568 363.039 0.732323 372.435 5.36932 380.474L52.7521 462.526C57.3873 470.575 64.6732 476.765 73.3659 480.042C82.0587 483.318 91.6194 483.476 100.416 480.49L149.285 463.951C157.703 469.63 166.505 474.72 175.626 479.185L185.725 529.725C187.545 538.829 192.465 547.02 199.648 552.905C206.83 558.79 215.831 562.004 225.117 562H312.655V521.857H225.117L210.862 450.604C191.143 443.28 172.837 432.606 156.753 419.051L87.5464 442.455L40.1636 360.403L94.8747 312.332C91.1315 291.575 91.084 270.321 94.7341 249.548L40.1636 201.597L87.5464 119.545L156.352 142.828C172.55 129.255 190.998 118.617 210.862 111.396L225.117 40.1429H319.883L334.138 111.396C353.857 118.721 372.162 129.395 388.247 142.949L457.454 119.545L504.836 201.597L448.66 250.813L475.122 281L531.339 231.745C538.314 225.622 542.952 217.273 544.464 208.117C545.976 198.961 544.268 189.565 539.631 181.526Z" fill="url(#paint1_linear_745_237)"/>
<path d="M413 485.332L361.2 433.285L333 461.619L413 542L553 401.334L524.8 373L413 485.332Z" fill="url(#paint2_linear_745_237)"/>
<defs>
<linearGradient id="paint0_linear_745_237" x1="372.735" y1="199.881" x2="169.401" y2="331.72" gradientUnits="userSpaceOnUse">
<stop stop-color="#F0B538"/>
<stop offset="1" stop-color="#F0B538" stop-opacity="0"/>
</linearGradient>
<linearGradient id="paint1_linear_745_237" x1="499.173" y1="93" x2="31.0969" y2="387.314" gradientUnits="userSpaceOnUse">
<stop stop-color="#F0B538"/>
<stop offset="1" stop-color="#F0B538" stop-opacity="0"/>
</linearGradient>
<linearGradient id="paint2_linear_745_237" x1="534.501" y1="400.966" x2="380.538" y2="530.919" gradientUnits="userSpaceOnUse">
<stop stop-color="#F0B538"/>
<stop offset="1" stop-color="#F0B538" stop-opacity="0"/>
</linearGradient>
</defs>
</svg>
