<svg width="553" height="562" viewBox="0 0 662 662" fill="none" xmlns="http://www.w3.org/2000/svg">
<path fill-rule="evenodd" clip-rule="evenodd" d="M0 0H41.375V620.625H662V662H0V0ZM413.75 144.812C413.75 139.326 415.93 134.064 419.809 130.184C423.689 126.305 428.951 124.125 434.438 124.125H599.938C605.424 124.125 610.686 126.305 614.566 130.184C618.445 134.064 620.625 139.326 620.625 144.812V310.312C620.625 315.799 618.445 321.061 614.566 324.941C610.686 328.82 605.424 331 599.938 331C594.451 331 589.189 328.82 585.309 324.941C581.43 321.061 579.25 315.799 579.25 310.312V202.738L429.762 385.491C427.932 387.725 425.655 389.55 423.077 390.851C420.498 392.151 417.677 392.898 414.793 393.042C411.909 393.186 409.026 392.725 406.331 391.688C403.636 390.651 401.188 389.062 399.145 387.022L292.107 279.985L140.841 487.977C137.531 492.184 132.72 494.946 127.418 495.68C122.115 496.415 116.735 495.065 112.406 491.916C108.078 488.766 105.139 484.061 104.208 478.79C103.276 473.518 104.423 468.091 107.409 463.648L272.91 236.086C274.666 233.666 276.927 231.656 279.535 230.193C282.143 228.731 285.038 227.852 288.018 227.616C290.999 227.38 293.996 227.793 296.802 228.827C299.608 229.86 302.156 231.49 304.272 233.603L412.219 341.592L556.287 165.5H434.438C428.951 165.5 423.689 163.32 419.809 159.441C415.93 155.561 413.75 150.299 413.75 144.812Z" fill="url(#paint0_linear_841_6)"/>
<defs>
<linearGradient id="paint0_linear_841_6" x1="662" y1="330.436" x2="-3.60062e-06" y2="330.436" gradientUnits="userSpaceOnUse">
<stop offset="0.260417" stop-color="#F4E330"/>
<stop offset="1" stop-color="#F4E330" stop-opacity="0"/>
</linearGradient>
</defs>
</svg>
