<svg width="78" height="78" viewBox="0 0 78 78" fill="none" xmlns="http://www.w3.org/2000/svg">
<path d="M39 68.25V73.125H48.75V78H24.375V73.125H34.125V68.25H0V24.375H39L34.0869 29.25H4.875V63.375H68.25V34.125L73.125 29.25V68.25H39ZM19.5 53.625C20.1855 53.625 20.8203 53.498 21.4043 53.2441C21.9883 52.9902 22.4961 52.6475 22.9277 52.2158C23.3594 51.7842 23.7148 51.2637 23.9941 50.6543C24.2734 50.0449 24.4004 49.4102 24.375 48.75C24.375 47.5059 24.5908 46.3252 25.0225 45.208C25.4541 44.0908 26.0635 43.1006 26.8506 42.2373C27.6377 41.374 28.5518 40.6631 29.5928 40.1045C30.6338 39.5459 31.7891 39.1904 33.0586 39.0381L60.1377 11.959C60.8486 11.248 61.6738 10.7021 62.6133 10.3213C63.5527 9.94043 64.5176 9.75 65.5078 9.75C66.5488 9.75 67.5264 9.94043 68.4404 10.3213C69.3545 10.7021 70.167 11.248 70.8779 11.959C71.5889 12.6699 72.1221 13.4697 72.4775 14.3584C72.833 15.2471 73.0361 16.25 73.0869 17.3672C73.0869 18.3574 72.8965 19.3223 72.5156 20.2617C72.1348 21.2012 71.5889 22.0264 70.8779 22.7373L43.7988 49.8164C43.6719 51.0352 43.3291 52.1777 42.7705 53.2441C42.2119 54.3105 41.501 55.2246 40.6377 55.9863C39.7744 56.748 38.7842 57.3574 37.667 57.8145C36.5498 58.2715 35.3691 58.5 34.125 58.5H9.75V53.625H19.5ZM65.5078 14.625C64.7715 14.625 64.1367 14.8916 63.6035 15.4248L46.6553 32.373C48.1025 33.4902 49.3848 34.7725 50.502 36.2197L67.4502 19.2715C67.9834 18.7383 68.25 18.1035 68.25 17.3672C68.25 16.6055 67.9834 15.958 67.4502 15.4248C66.917 14.8916 66.2695 14.625 65.5078 14.625ZM39.6855 39.3428C41.2344 40.3584 42.5166 41.6406 43.5322 43.1895L47.0361 39.7236C45.9697 38.2002 44.6748 36.9053 43.1514 35.8389L39.6855 39.3428ZM39 48.75C39 48.0645 38.873 47.4297 38.6191 46.8457C38.3652 46.2617 38.0225 45.7539 37.5908 45.3223C37.1592 44.8906 36.6387 44.5352 36.0293 44.2559C35.4199 43.9766 34.7852 43.8496 34.125 43.875C33.4395 43.875 32.8047 44.002 32.2207 44.2559C31.6367 44.5098 31.1289 44.8525 30.6973 45.2842C30.2656 45.7158 29.9102 46.2363 29.6309 46.8457C29.3516 47.4551 29.2246 48.0898 29.25 48.75C29.25 50.4766 28.8184 52.1016 27.9551 53.625H34.125C34.7852 53.625 35.4072 53.498 35.9912 53.2441C36.5752 52.9902 37.0957 52.6475 37.5527 52.2158C38.0098 51.7842 38.3652 51.2637 38.6191 50.6543C38.873 50.0449 39 49.4102 39 48.75Z" fill="#E52B50"/>
</svg>
