<svg width="96" height="75" viewBox="0 0 96 75" fill="none" xmlns="http://www.w3.org/2000/svg">
<path d="M88.5 21C84.357 21 81.0001 24.3585 81.0001 28.5C81.0001 29.3505 81.1726 30.153 81.432 30.915L63.15 46.6575C61.8675 45.636 60.267 45 58.5 45C56.4616 45 54.6181 45.819 53.268 47.139L38.9475 39.969C38.6686 36.0795 35.4601 33 31.5 33C27.3586 33 24 36.3585 24 40.5C24 41.634 24.27 42.6975 24.72 43.6605L10.119 60.4965C9.3 60.1905 8.4255 60 7.5 60C3.3585 60 0 63.3585 0 67.5C0 71.6415 3.3585 75 7.5 75C11.6415 75 15 71.6415 15 67.5C15 66.5025 14.796 65.5531 14.442 64.683L29.28 47.628C29.9865 47.847 30.7215 48 31.5 48C33.6825 48 35.6294 47.052 37.0004 45.5625L51.0074 52.5855C51.057 56.6865 54.3869 60 58.5 60C62.6431 60 66 56.6415 66 52.5C66 52.3665 65.9685 52.242 65.961 52.11L85.47 35.3505C86.3985 35.7615 87.4184 36 88.5 36C92.6431 36 96 32.643 96 28.5C96 24.3585 92.6431 21 88.5001 21H88.5Z" fill="#E52B50"/>
<g clip-path="url(#clip0_294_9)">
<path d="M54.5 13.7083L52.375 19.375L46.7083 21.5L52.375 23.625L54.5 29.2917L56.625 23.625L62.2917 21.5L56.625 19.375L54.5 13.7083Z" fill="#E52B50"/>
</g>
<g clip-path="url(#clip1_294_9)">
<path d="M28.5 0.708344L26.375 6.37501L20.7083 8.50001L26.375 10.625L28.5 16.2917L30.625 10.625L36.2917 8.50001L30.625 6.37501L28.5 0.708344Z" fill="#E52B50"/>
</g>
<g clip-path="url(#clip2_294_9)">
<path d="M8.50001 21.7083L6.37501 27.375L0.708344 29.5L6.37501 31.625L8.50001 37.2917L10.625 31.625L16.2917 29.5L10.625 27.375L8.50001 21.7083Z" fill="#E52B50"/>
</g>
<defs>
<clipPath id="clip0_294_9">
<rect width="17" height="17" fill="white" transform="translate(46 13)"/>
</clipPath>
<clipPath id="clip1_294_9">
<rect width="17" height="17" fill="white" transform="translate(20)"/>
</clipPath>
<clipPath id="clip2_294_9">
<rect width="17" height="17" fill="white" transform="translate(0 21)"/>
</clipPath>
</defs>
</svg>
