<svg width="330" height="100" viewBox="0 0 330 100" fill="none" xmlns="http://www.w3.org/2000/svg">
<path d="M246.038 61.5321C218.348 55.1332 92.7807 50.4019 65.2808 59.0631C65.205 59.6382 65.4926 59.711 65.8527 59.7235C68.8701 59.8287 121.148 57.851 158.562 59.7734C170.684 60.3962 183.875 61.3978 196.401 61.6596C208.927 61.9215 246.038 61.5321 246.038 61.5321Z" fill="#F4C430"/>
<path d="M329.332 55.0172C329.332 55.0172 329.576 55.1664 329.176 55.6988C328.992 55.753 328.274 56.0478 326.499 56.5159C323.855 57.5716 226.165 41.5481 168.765 39.355L3.54411 31.5039C2.01825 31.4172 3.28431 30.4751 3.28431 30.4751C25.0401 27.3487 47.3731 23.9416 105.005 27.1494C144.657 28.2819 217.975 34.0108 232.827 36.273C255.043 39.201 301.986 48.2336 329.332 55.0172Z" fill="#F4C430"/>
</svg>
