<svg width="72" height="72" viewBox="0 0 72 72" fill="none" xmlns="http://www.w3.org/2000/svg">
<path d="M36 49.5C33.33 49.5 30.7199 48.7082 28.4998 47.2248C26.2797 45.7414 24.5494 43.633 23.5276 41.1662C22.5058 38.6994 22.2385 35.985 22.7594 33.3663C23.2803 30.7475 24.5661 28.3421 26.4541 26.4541C28.3421 24.5661 30.7475 23.2803 33.3663 22.7594C35.985 22.2385 38.6994 22.5058 41.1662 23.5276C43.633 24.5494 45.7414 26.2797 47.2248 28.4998C48.7082 30.7199 49.5 33.33 49.5 36C49.5193 37.7782 49.1833 39.5423 48.5116 41.1889C47.84 42.8356 46.8464 44.3315 45.5889 45.5889C44.3315 46.8464 42.8356 47.84 41.1889 48.5116C39.5423 49.1833 37.7782 49.5193 36 49.5ZM36 27C34.8107 26.9729 33.6283 27.1872 32.5241 27.6299C31.4199 28.0727 30.417 28.7346 29.5758 29.5758C28.7346 30.417 28.0727 31.4199 27.6299 32.5241C27.1872 33.6283 26.9729 34.8107 27 36C26.9729 37.1893 27.1872 38.3718 27.6299 39.4759C28.0727 40.5801 28.7346 41.5831 29.5758 42.4242C30.417 43.2654 31.4199 43.9274 32.5241 44.3701C33.6283 44.8128 34.8107 45.0271 36 45C37.1893 45.0271 38.3718 44.8128 39.4759 44.3701C40.5801 43.9274 41.5831 43.2654 42.4242 42.4242C43.2654 41.5831 43.9274 40.5801 44.3701 39.4759C44.8128 38.3718 45.0271 37.1893 45 36C45.0271 34.8107 44.8128 33.6283 44.3701 32.5241C43.9274 31.4199 43.2654 30.417 42.4242 29.5758C41.5831 28.7346 40.5801 28.0727 39.4759 27.6299C38.3718 27.1872 37.1893 26.9729 36 27Z" fill="#E52B50"/>
<path d="M65.9363 24.849L60.6263 15.651C60.1065 14.7492 59.2898 14.0556 58.3157 13.6888C57.3415 13.322 56.2703 13.3045 55.2848 13.6395L49.8083 15.4913C48.8645 14.8558 47.8781 14.286 46.8563 13.7857L45.7245 8.118C45.5205 7.0975 44.9692 6.17924 44.1643 5.51956C43.3594 4.85989 42.3507 4.49959 41.31 4.5H30.69C29.6493 4.49959 28.6407 4.85989 27.8358 5.51956C27.0309 6.17924 26.4795 7.0975 26.2755 8.118L25.1438 13.7857C24.1104 14.2805 23.1127 14.8466 22.158 15.48L16.713 13.6395C15.728 13.3057 14.6578 13.3237 13.6847 13.6905C12.7115 14.0573 11.8956 14.7501 11.376 15.651L6.066 24.849C5.54583 25.7497 5.3537 26.8027 5.52229 27.829C5.69089 28.8553 6.20979 29.7916 6.99075 30.4785L11.3355 34.2967C11.2973 34.8638 11.25 35.4263 11.25 36C11.25 36.5805 11.2725 37.1543 11.313 37.7235L6.993 41.5215C6.21131 42.2078 5.69154 43.1438 5.52213 44.1702C5.35271 45.1965 5.5441 46.2499 6.06375 47.151L11.3738 56.349C11.8932 57.2512 12.7097 57.9452 13.6839 58.3125C14.658 58.6798 15.7295 58.6975 16.7153 58.3627L22.1918 56.5088C23.1352 57.1454 24.1216 57.716 25.1438 58.2165L26.2755 63.882C26.4795 64.9025 27.0309 65.8208 27.8358 66.4804C28.6407 67.1401 29.6493 67.5004 30.69 67.5H40.5V63H30.69L29.0925 55.0125C26.8826 54.1916 24.8312 52.995 23.0288 51.4755L15.273 54.099L9.963 44.901L16.0943 39.5123C15.6748 37.1855 15.6694 34.8029 16.0785 32.4742L9.963 27.099L15.273 17.901L22.9838 20.511C24.799 18.9894 26.8664 17.7969 29.0925 16.9875L30.69 9H41.31L42.9075 16.9875C45.1173 17.8085 47.1687 19.0051 48.9713 20.5245L56.727 17.901L62.037 27.099L55.7415 32.616L58.707 36L65.007 30.4785C65.7887 29.7922 66.3085 28.8562 66.4779 27.8298C66.6473 26.8035 66.4559 25.7501 65.9363 24.849Z" fill="#E52B50"/>
<path d="M51.75 58.905L45.9225 53.0775L42.75 56.25L51.75 65.25L67.5 49.5L64.3275 46.3275L51.75 58.905Z" fill="#E52B50"/>
</svg>
