<svg width="856" height="198" viewBox="0 0 856 198" fill="none" xmlns="http://www.w3.org/2000/svg">
<path d="M496.111 188.664C496.006 185.933 498.383 183.709 501.049 183.683C501.702 183.677 502.351 183.801 502.955 184.05C503.56 184.298 504.109 184.665 504.57 185.129C505.032 185.593 505.396 186.145 505.641 186.752C505.886 187.359 506.008 188.009 506 188.664C505.982 189.969 505.455 191.216 504.53 192.135C503.605 193.054 502.358 193.573 501.055 193.58C498.455 193.593 496.059 191.297 496.111 188.664ZM501.108 188.117C501.549 187.985 502.188 187.839 502.175 187.259C502.221 186.665 501.608 186.381 501.108 186.375H500.035V188.11C500.035 188.117 501.121 188.097 501.108 188.117ZM500.035 188.823V191.58H499.113V185.576H501.266C502.293 185.438 503.202 186.183 503.149 187.246C503.123 187.534 503.012 187.808 502.829 188.031C502.645 188.255 502.399 188.418 502.122 188.499C503.188 189.047 502.833 190.624 503.261 191.58H502.234C502.126 191.134 502.038 190.682 501.971 190.228C501.852 189.614 501.661 188.717 500.851 188.823H500.035ZM505.038 188.664C505.064 188.125 504.98 187.586 504.792 187.08C504.603 186.574 504.314 186.112 503.941 185.722C503.568 185.332 503.12 185.022 502.624 184.811C502.128 184.6 501.594 184.492 501.055 184.494C498.83 184.415 496.974 186.487 497.073 188.664C497.067 189.735 497.481 190.765 498.226 191.533C498.971 192.3 499.987 192.744 501.055 192.768C501.587 192.764 502.112 192.654 502.601 192.445C503.089 192.236 503.532 191.931 503.902 191.55C504.272 191.168 504.564 190.716 504.759 190.221C504.954 189.726 505.049 189.197 505.038 188.664ZM471.779 184.844L465.999 191.495H457.402L467.665 179.981L457.395 168.435H466.315L472.253 175.013L478.034 168.429H486.631L476.473 179.929L486.737 191.495H477.711L471.779 184.844ZM440.818 182.522V177.065H453.353V167.129L464.702 179.981L453.353 192.788V182.522H440.818ZM451.088 191.495H430.022V153.999H451.246V160.755H438.652V168.429H451.082V174.749H438.547V184.791H451.082V191.495H451.088ZM413.53 187.173C409.975 187.285 407.75 183.531 407.757 180.311C407.691 176.966 409.778 172.902 413.537 173.021C417.349 172.856 419.271 176.979 419.1 180.298C419.251 183.604 417.191 187.305 413.53 187.173ZM379.225 176.207C379.725 173.845 381.878 171.787 384.36 171.833C385.621 171.793 386.853 172.215 387.827 173.02C388.8 173.826 389.447 174.959 389.646 176.207H379.225ZM479.173 179.929L491.121 166.423H477.132L472.26 171.991L467.237 166.423H440.66V162.807H453.247V152H419.363V169.022C416.98 166.067 412.905 165.334 409.317 165.776C404.169 166.588 399.923 170.804 398.56 175.765C396.888 169.445 390.798 165.288 384.36 165.512C379.218 165.572 373.826 167.921 371.279 172.579V167.182H358.968V161.244H372.418V152.007H348V193.487H358.968V176.043H369.936C369.699 177.402 369.519 178.772 369.396 180.146C369.31 188.275 376.256 195.123 384.366 194.899C387.425 195.027 390.446 194.182 392.997 192.485C395.547 190.788 397.497 188.326 398.566 185.451H389.172C388.25 187.219 386.269 187.958 384.366 187.826C381.358 187.886 378.902 185.075 378.909 182.152H398.092C398.639 188.928 404.597 195.123 411.542 194.998C413.083 194.943 414.59 194.534 415.949 193.803C417.307 193.072 418.479 192.039 419.376 190.782V193.487H466.875L471.839 187.813L476.803 193.487H491.233L479.173 179.929Z" fill="#4D4D4D"/>
<g clip-path="url(#clip0_59_112)">
<path d="M654.003 162.464H664.297C667.225 162.464 669.078 160.852 669.078 158.265C669.078 155.826 667.225 154.068 664.297 154.068H654.003C653.663 154.068 653.367 154.36 653.367 154.653V161.88C653.418 162.22 653.659 162.464 654.003 162.464ZM654.003 179.115H664.64C667.908 179.115 669.861 177.455 669.861 174.524C669.861 171.987 668.007 169.933 664.64 169.933H654.003C653.663 169.933 653.367 170.228 653.367 170.521V178.479C653.418 178.87 653.659 179.115 654.003 179.115ZM691.666 116.18L661.219 146.549H666.198C673.955 146.549 678.543 151.429 678.543 156.751C678.543 160.951 675.713 164.029 672.687 165.393C672.2 165.59 672.2 166.273 672.734 166.467C676.247 167.834 678.737 171.5 678.737 175.792C678.737 181.845 674.69 186.681 666.834 186.681H645.266C644.926 186.681 644.63 186.389 644.63 186.096V163.1L611.211 196.394C610.769 196.836 611.065 197.615 611.697 197.615H692.061C692.203 197.613 692.338 197.556 692.439 197.456C692.539 197.355 692.596 197.219 692.598 197.078V116.619C692.744 116.081 692.061 115.789 691.67 116.177L691.666 116.18Z" fill="#4D4D4D"/>
</g>
<path d="M183.37 165.983C183.37 167.019 183.453 167.847 183.66 168.552C183.867 169.049 184.157 169.712 184.53 170.458C184.696 170.623 184.737 170.872 184.737 171.079C184.737 171.369 184.572 171.618 184.199 171.908L182.458 173.068C182.21 173.234 181.961 173.317 181.754 173.317C181.464 173.317 181.215 173.151 180.925 172.902C180.552 172.488 180.221 172.074 179.931 171.618C179.682 171.162 179.392 170.623 179.102 170.002C176.948 172.529 174.254 173.814 170.981 173.814C168.661 173.814 166.837 173.151 165.47 171.825C164.144 170.499 163.44 168.717 163.44 166.48C163.44 164.201 164.269 162.336 165.926 160.845C167.625 159.436 169.862 158.69 172.68 158.69C173.633 158.69 174.503 158.773 175.622 158.939C176.575 159.063 177.693 159.27 178.771 159.519V157.53C178.771 155.417 178.356 154.049 177.486 153.096C176.575 152.226 175.124 151.853 173.011 151.853C172.017 151.853 171.022 151.978 170.028 152.185C168.992 152.434 167.998 152.724 167.045 153.138C166.589 153.304 166.216 153.428 166.092 153.469C165.884 153.552 165.76 153.552 165.636 153.552C165.263 153.552 165.056 153.304 165.056 152.724V151.356C165.056 150.942 165.097 150.61 165.263 150.403C165.387 150.196 165.636 150.03 166.009 149.906C167.003 149.326 168.122 148.912 169.489 148.58C170.895 148.207 172.344 148.026 173.799 148.041C177.072 148.041 179.475 148.787 181.008 150.279C182.541 151.771 183.287 154.049 183.287 157.074V165.983H183.37ZM172.183 170.209C173.094 170.209 174.006 170.043 175 169.712C175.995 169.38 176.865 168.759 177.611 167.93C178.066 167.391 178.398 166.811 178.646 166.148C178.646 165.485 178.854 164.698 178.854 163.745V162.626C178.025 162.336 177.196 162.336 176.285 162.129C175.431 162.035 174.574 161.98 173.716 161.963C171.851 161.963 170.525 162.336 169.614 163.082C168.702 163.828 168.288 164.864 168.288 166.231C168.288 167.557 168.578 168.552 169.282 169.173C169.945 169.878 170.898 170.209 172.183 170.209ZM194.309 173.151C193.907 173.166 193.508 173.081 193.149 172.902C193.024 172.695 192.817 172.322 192.651 171.825L186.187 150.528C186.022 149.906 185.939 149.616 185.939 149.409C185.939 148.953 186.146 148.704 186.602 148.704H189.295C189.834 148.704 190.207 148.787 190.372 148.994C190.621 149.16 190.787 149.533 190.952 150.072L195.552 168.303L199.861 150.072C199.985 149.533 200.151 149.16 200.4 148.994C200.607 148.829 200.98 148.704 201.435 148.704H203.714C204.212 148.704 204.584 148.787 204.792 148.994C204.999 149.16 205.206 149.533 205.33 150.072L209.722 168.552L214.446 150.072C214.612 149.533 214.819 149.16 214.985 148.994C215.233 148.829 215.565 148.704 216.062 148.704H218.631C219.087 148.704 219.335 148.953 219.335 149.409C219.335 149.533 219.294 149.699 219.252 149.906C219.252 149.906 219.17 150.237 219.087 150.528L212.416 171.825C212.25 172.405 212.084 172.695 211.794 172.902C211.628 173.068 211.255 173.192 210.8 173.192H208.438C207.899 173.192 207.651 173.109 207.319 172.902C207.041 172.607 206.866 172.229 206.822 171.825L202.554 154.049L198.286 171.784C198.162 172.322 197.996 172.695 197.789 172.902C197.448 173.091 197.06 173.177 196.67 173.151H194.309ZM229.735 173.897C228.368 173.897 226.835 173.731 225.468 173.399C224.1 173.068 223.023 172.695 222.319 172.322C221.958 172.15 221.656 171.876 221.448 171.535C221.335 171.303 221.278 171.047 221.283 170.789V169.38C221.283 168.8 221.49 168.552 221.904 168.552H222.401C222.567 168.552 222.816 168.759 223.106 168.883C224.017 169.297 225.053 169.629 226.131 169.836C227.249 170.043 228.368 170.168 229.404 170.168C231.144 170.168 232.511 169.878 233.423 169.256C234.376 168.552 234.873 167.764 234.873 166.646C234.873 165.858 234.583 165.237 234.127 164.698C233.63 164.201 232.677 163.704 231.351 163.289L227.332 162.046C225.343 161.383 223.852 160.472 222.94 159.229C222.05 158.078 221.569 156.664 221.573 155.21C221.573 154.049 221.821 153.055 222.319 152.185C222.816 151.273 223.479 150.528 224.225 149.906C225.136 149.284 226.048 148.829 227.166 148.497C228.244 148.166 229.404 148 230.647 148C231.227 148 231.849 148.041 232.511 148.124C233.092 148.207 233.672 148.331 234.252 148.414C234.832 148.58 235.329 148.704 235.826 148.87C236.323 149.036 236.655 149.202 236.986 149.367C237.359 149.575 237.649 149.782 237.815 150.03C237.981 150.279 238.064 150.569 238.064 150.942V152.268C238.064 152.848 237.857 153.138 237.442 153.138C237.235 153.138 236.862 153.014 236.365 152.806C234.832 152.102 233.05 151.729 231.103 151.729C229.528 151.729 228.368 151.978 227.415 152.516C226.586 153.014 226.131 153.842 226.131 154.961C226.131 155.748 226.421 156.411 226.959 156.908C227.498 157.447 228.534 157.944 229.984 158.442L233.92 159.685C235.909 160.265 237.318 161.176 238.188 162.336C239.017 163.455 239.431 164.74 239.431 166.19C239.431 167.35 239.182 168.427 238.727 169.38C238.229 170.292 237.567 171.121 236.655 171.784C235.868 172.488 234.832 172.985 233.672 173.358C232.511 173.731 231.103 173.897 229.735 173.897ZM234.915 187.322C225.84 193.993 212.664 197.556 201.435 197.556C185.483 197.556 171.188 191.672 160.374 181.935C159.504 181.148 160.291 180.112 161.327 180.733C173.011 187.487 187.389 191.589 202.306 191.589C212.374 191.589 223.437 189.518 233.589 185.125C235.122 184.504 236.406 186.203 234.915 187.322ZM238.727 183.054C237.525 181.521 231.02 182.308 228.078 182.639C227.208 182.764 227.084 181.976 227.871 181.396C233.05 177.792 241.586 178.91 242.539 180.029C243.533 181.272 242.29 189.808 237.442 193.868C236.655 194.49 235.951 194.158 236.282 193.412C237.401 190.595 239.845 184.463 238.727 183.054Z" fill="#4D4D4D"/>
<g clip-path="url(#clip1_59_112)">
<path d="M486.265 21.7874L486.257 21.7825C486.257 21.7825 486.253 21.7801 486.248 21.7801C486.079 21.7066 485.896 21.6683 485.712 21.6675C485.424 21.6707 485.142 21.7535 484.898 21.9068C484.641 22.0652 484.439 22.2986 484.319 22.5756V22.5825L478.639 38.0246L474.262 27.6742L474.255 27.6697C474.132 27.3803 473.912 27.1567 473.662 27.0015C473.406 26.8429 473.112 26.759 472.811 26.7592C472.513 26.7592 472.236 26.8521 471.99 27.0034C471.749 27.1587 471.531 27.3803 471.408 27.6697L471.405 27.6747L467.018 38.0315L461.308 22.5963H461.303C461.206 22.3123 461.014 22.0706 460.76 21.9118C460.512 21.7544 460.225 21.6697 459.932 21.6675C459.74 21.6682 459.55 21.7064 459.373 21.7801H459.364L459.358 21.7874C459.1 21.9067 458.883 22.0973 458.73 22.3367C458.578 22.5761 458.497 22.8543 458.498 23.1382C458.498 23.3191 458.534 23.4994 458.604 23.6778H458.602L465.627 42.4141V42.4205C465.681 42.56 465.758 42.6986 465.872 42.8342C465.954 42.931 466.075 43.0126 466.2 43.0804C466.289 43.1669 466.402 43.2236 466.525 43.2425C466.65 43.2843 466.816 43.3442 467.039 43.3442C467.323 43.3442 467.587 43.2425 467.823 43.0917C468.062 42.935 468.247 42.7076 468.351 42.4411L468.369 42.4273L472.811 31.8799L477.258 42.3846H477.263C477.366 42.6647 477.546 42.8838 477.755 43.0396C477.975 43.2042 478.223 43.3059 478.485 43.3442H478.671C478.849 43.3442 479.021 43.3108 479.166 43.2543C479.302 43.2016 479.429 43.1302 479.544 43.0421C479.782 42.8586 479.968 42.6151 480.081 42.3364V42.3305L487.061 23.6778C487.129 23.4994 487.165 23.321 487.165 23.1412C487.163 22.852 487.077 22.5697 486.917 22.329C486.757 22.0884 486.53 21.9001 486.265 21.7874ZM454.154 32.4838C454.154 30.2834 453.303 28.2908 451.951 26.8521C450.59 25.4104 448.748 24.5293 446.747 24.5293C444.746 24.5293 442.899 25.4104 441.541 26.8521C440.186 28.2908 439.335 30.2834 439.335 32.4833C439.335 34.6817 440.186 36.6556 441.541 38.085C442.899 39.5198 444.746 40.3876 446.747 40.3876C448.748 40.3876 450.597 39.5203 451.951 38.0855C453.304 36.6556 454.154 34.6817 454.154 32.4838ZM454.115 24.8458C455.994 26.8246 457.135 29.5399 457.14 32.4838C457.135 35.4271 455.994 38.1396 454.115 40.1188C452.251 42.0952 449.647 43.3447 446.752 43.3447C443.879 43.3447 441.271 42.0952 439.4 40.1188C437.451 38.0558 436.365 35.3229 436.365 32.4821C436.365 29.6412 437.451 26.9083 439.4 24.8453C441.271 22.8714 443.879 21.6218 446.752 21.6218C449.647 21.6218 452.251 22.8719 454.115 24.8458ZM424.54 21.6607C422.212 21.6607 420.085 22.5623 418.498 24.0011V23.1412C418.499 22.7562 418.352 22.3855 418.088 22.1059C417.955 21.9656 417.794 21.8539 417.616 21.7774C417.439 21.7009 417.247 21.6612 417.054 21.6607C416.855 21.659 416.658 21.6972 416.474 21.7732C416.29 21.8491 416.123 21.9613 415.983 22.1029C415.714 22.3814 415.564 22.7538 415.564 23.1412V42.3124L415.626 42.3733L415.628 42.3826C415.644 42.446 415.685 42.5153 415.728 42.5831C415.934 42.9451 416.274 43.2117 416.674 43.3261L416.733 43.3447H417.054C417.268 43.3447 417.483 43.2995 417.688 43.2042C417.859 43.1231 418.018 42.9924 418.145 42.8249L418.15 42.8273C418.166 42.8116 418.171 42.791 418.189 42.7757C418.196 42.7722 418.202 42.7666 418.206 42.7595C418.286 42.6578 418.352 42.5541 418.393 42.4568C418.43 42.3564 418.46 42.2538 418.484 42.1497L418.498 42.0952V30.5836C418.536 28.9946 419.188 27.4825 420.317 26.3661C421.438 25.2445 422.957 24.6148 424.54 24.6153C426.214 24.6153 427.708 25.2846 428.79 26.3661C429.345 26.9152 429.785 27.5695 430.085 28.2909C430.385 29.0123 430.539 29.7864 430.537 30.5679V41.8721C430.537 42.2848 430.714 42.6671 430.983 42.9285C431.265 43.1951 431.638 43.3435 432.026 43.3435C432.413 43.3435 432.786 43.1951 433.068 42.9285C433.345 42.6671 433.514 42.2848 433.514 41.8721V30.5679C433.514 25.6885 429.502 21.6675 424.54 21.6607ZM571.137 30.3871C570.291 26.9784 567.278 24.5495 563.84 24.5569C560.315 24.5569 557.343 26.9332 556.422 30.3871H571.137ZM574.396 31.7836V31.93C574.396 32.3388 574.212 32.7074 573.932 32.9491C573.655 33.1928 573.293 33.3196 572.904 33.324H556.215C556.64 37.3691 559.891 40.3567 563.774 40.3876H564.758C566.042 40.392 567.294 39.9513 568.395 39.2221C569.498 38.4997 570.45 37.4895 571.121 36.378C571.252 36.1529 571.443 35.9696 571.673 35.8492C571.887 35.7337 572.126 35.6739 572.369 35.6753C572.633 35.6753 572.895 35.7431 573.124 35.8807L573.141 35.8876L573.159 35.9013C573.577 36.206 573.839 36.6718 573.839 37.1824C573.839 37.4418 573.771 37.7067 573.627 37.9455L573.623 37.9553L573.618 37.9592C572.686 39.4324 571.414 40.7763 569.904 41.7502C568.392 42.7256 566.639 43.3447 564.758 43.3447H563.758C560.829 43.3241 558.181 42.0952 556.273 40.1301C554.296 38.0952 553.192 35.3653 553.197 32.5246C553.197 29.5173 554.379 26.7887 556.299 24.8143C558.218 22.8424 560.885 21.6223 563.84 21.6223C566.66 21.6223 569.193 22.7358 571.069 24.5593C572.945 26.3823 574.171 28.9139 574.39 31.7629L574.396 31.7836ZM505.938 12.6994C505.531 12.6994 505.158 12.8689 504.89 13.1352C504.752 13.271 504.642 13.4331 504.566 13.6119C504.491 13.7907 504.452 13.9828 504.451 14.177V41.8721C504.451 42.276 504.621 42.6465 504.89 42.9089C505.17 43.1849 505.545 43.3412 505.938 43.3447C506.781 43.3447 507.464 42.6848 507.469 41.8721V14.1765C507.464 13.3608 506.781 12.6994 505.938 12.6994ZM408.683 31.9546C407.481 31.3924 406.12 30.9767 404.76 30.5296C403.509 30.1094 402.24 29.7522 401.334 29.2824C400.88 29.0407 400.526 28.7857 400.296 28.4987C400.061 28.2122 399.948 27.9203 399.941 27.5228C399.943 26.9784 400.102 26.5401 400.371 26.1519C400.778 25.5711 401.46 25.119 402.206 24.8271C402.942 24.5347 403.741 24.3967 404.312 24.3967C405.999 24.3991 407.066 24.9568 407.884 25.5347C408.289 25.8266 408.631 26.1219 408.953 26.3661C409.119 26.4929 409.274 26.6079 409.454 26.6934C409.624 26.7769 409.824 26.8452 410.042 26.8452C410.181 26.8452 410.32 26.8201 410.447 26.7666C410.581 26.7125 410.697 26.6349 410.809 26.5406C410.92 26.4381 411.011 26.3162 411.077 26.1809C411.134 26.0459 411.164 25.9009 411.164 25.7543C411.164 25.4919 411.079 25.2458 410.959 25.0148C410.734 24.6084 410.388 24.2203 409.947 23.8316C409.292 23.2532 408.428 22.7019 407.498 22.2867C406.565 21.871 405.565 21.5884 404.612 21.5884C402.404 21.5884 400.559 22.0852 399.22 23.0007C398.521 23.4793 397.908 24.0031 397.473 24.7264C397.032 25.4512 396.787 26.346 396.755 27.5091C396.753 27.5611 396.753 27.6132 396.753 27.6648C396.748 28.795 397.114 29.7257 397.689 30.4549C398.563 31.5531 399.859 32.2101 401.13 32.6759C402.399 33.1408 403.668 33.4189 404.469 33.6852C405.597 34.0577 406.795 34.4621 407.668 34.9972C408.103 35.2709 408.455 35.5647 408.694 35.8876C408.926 36.2197 409.057 36.5627 409.062 36.9971V37.029C409.06 37.6565 408.874 38.1494 408.567 38.5715C408.103 39.1995 407.331 39.6599 406.513 39.9513C405.697 40.2363 404.848 40.3567 404.302 40.3567C402.376 40.3567 401.087 39.8948 400.152 39.4329C399.684 39.1995 399.304 38.969 398.961 38.7744C398.799 38.6831 398.633 38.6011 398.463 38.5287C398.293 38.4562 398.111 38.4183 397.926 38.4172C397.799 38.4168 397.672 38.4398 397.553 38.485C397.432 38.5363 397.321 38.6083 397.225 38.6978C397.094 38.8198 396.985 38.9636 396.903 39.1228C396.826 39.2805 396.786 39.4536 396.787 39.6289C396.787 39.9179 396.895 40.1822 397.051 40.4215C397.294 40.767 397.651 41.0765 398.096 41.3861C398.556 41.6908 399.104 41.9915 399.736 42.2878C401.137 42.9448 402.934 43.2882 404.298 43.3108H404.302C406.425 43.3108 408.257 42.8249 409.801 41.6957V41.6927H409.804C411.314 40.5635 412.253 38.885 412.253 36.9902C412.253 35.9485 412.007 35.0655 411.578 34.3427C410.93 33.2469 409.877 32.5246 408.683 31.9546ZM528.365 32.4838C528.365 30.2627 527.522 28.2727 526.173 26.8364C524.826 25.404 522.978 24.5347 520.956 24.5298C518.95 24.5298 517.109 25.404 515.748 26.8364C514.398 28.2727 513.543 30.2627 513.543 32.4838C513.543 34.7019 514.398 36.6792 515.748 38.1037C517.101 39.5292 518.95 40.3876 520.956 40.3876C522.982 40.3876 524.831 39.5292 526.178 38.1086C527.522 36.6787 528.365 34.7038 528.365 32.4838ZM530.894 22.0336C531.036 22.171 531.148 22.3356 531.225 22.5175C531.301 22.6995 531.341 22.895 531.34 23.0925V41.8721C531.337 42.2618 531.18 42.6344 530.904 42.9089C530.624 43.1853 530.248 43.3416 529.855 43.3447C529.446 43.3447 529.07 43.1703 528.807 42.9089C528.668 42.7742 528.558 42.6131 528.482 42.4351C528.406 42.257 528.366 42.0656 528.365 41.8721V40.0397C526.493 42.048 523.865 43.3447 520.956 43.3447C518.061 43.3447 515.455 42.1089 513.588 40.1301C511.715 38.1607 510.568 35.4473 510.568 32.4838C510.568 29.5203 511.715 26.8044 513.588 24.833C515.455 22.8557 518.061 21.6223 520.956 21.6223C523.863 21.6223 526.493 22.8813 528.365 24.8797V23.0925C528.365 22.6798 528.536 22.298 528.811 22.0336C529.094 21.768 529.468 21.6208 529.855 21.6223C530.248 21.6223 530.623 21.7737 530.894 22.0336ZM551.891 23.9377C552.187 23.6463 552.348 23.2596 552.348 22.8763C552.347 22.6824 552.305 22.4908 552.226 22.3138C552.147 22.1367 552.032 21.9781 551.889 21.8479H551.891C551.889 21.839 551.881 21.839 551.881 21.839C551.88 21.8322 551.875 21.8297 551.875 21.8297H551.871C551.596 21.5551 551.224 21.3995 550.836 21.3963C550.451 21.3963 550.076 21.555 549.79 21.839L538.162 33.096V14.1765C538.162 13.3608 537.475 12.6989 536.631 12.6989C536.225 12.6989 535.852 12.8684 535.586 13.1347C535.321 13.3996 535.145 13.7721 535.145 14.1765V41.8716C535.145 42.2755 535.321 42.646 535.586 42.9084C535.865 43.1846 536.24 43.3409 536.631 43.3442C537.475 43.3442 538.162 42.6843 538.162 41.8716V37.3018L541.949 33.5447L549.668 42.7954C549.813 43.0077 550.011 43.1541 550.206 43.2312C550.429 43.3148 550.646 43.3442 550.838 43.3442C551.104 43.3442 551.48 43.2877 551.81 43.0298L551.828 43.019L551.848 42.9983C552.157 42.6956 552.332 42.2937 552.332 41.8829C552.332 41.537 552.203 41.1846 551.964 40.9026V40.8977L544.107 31.4096L551.884 23.9372L551.891 23.9377ZM499.802 12.7652H499.471C499.426 12.7652 499.384 12.7696 499.338 12.7711C499.297 12.7696 499.254 12.7652 499.211 12.7652C498.354 12.7652 497.521 12.862 496.743 13.119C495.977 13.3726 495.27 13.7907 494.722 14.4251L494.72 14.4226L494.718 14.4251V14.4276C494.151 15.0531 493.778 15.801 493.551 16.6506C493.323 17.5046 493.23 18.4667 493.221 19.5595V21.6774H490.872C490.056 21.6813 489.407 22.3294 489.407 23.1137C489.403 23.5196 489.557 23.9112 489.837 24.2045C490.116 24.4901 490.491 24.661 490.889 24.6836H493.221V41.908L493.219 41.9482C493.219 42.3526 493.389 42.7251 493.665 42.9924C493.937 43.2543 494.32 43.4101 494.736 43.4101C495.12 43.4075 495.488 43.2522 495.759 42.9782C496.03 42.7042 496.181 42.3338 496.18 41.9482V24.6836H498.706C499.102 24.6645 499.477 24.4985 499.757 24.2178C500.032 23.9451 500.2 23.5613 500.2 23.1451V23.0891C500.191 22.3137 499.539 21.6769 498.722 21.6769H496.18V19.5689C496.196 18.6362 496.293 17.938 496.435 17.4299C496.571 16.9189 496.758 16.5985 496.925 16.4C497.089 16.2236 497.303 16.0766 497.651 15.9587C498.001 15.8462 498.486 15.7739 499.141 15.7739H499.218C499.256 15.7739 499.297 15.7671 499.334 15.7671C499.379 15.7671 499.422 15.7739 499.471 15.7739H499.802C500.641 15.7739 501.317 15.1008 501.317 14.2693C501.317 13.4384 500.641 12.7652 499.802 12.7652ZM582 21.642C582 23.5834 580.692 25.2045 578.506 25.2045C576.335 25.2045 575.043 23.5682 575.043 21.642C575.043 19.7001 576.335 18.0795 578.506 18.0795C580.692 18.0795 582 19.7001 582 21.642ZM581.307 21.642C581.307 19.991 580.199 18.7365 578.506 18.7365C576.843 18.7365 575.735 19.929 575.735 21.642C575.735 23.2773 576.843 24.546 578.506 24.546C580.199 24.546 581.307 23.293 581.307 21.642ZM577.135 20.0362H578.629C579.444 20.0362 579.983 20.4794 579.983 21.1673C579.983 21.5958 579.767 21.9167 579.444 22.1157L580.03 22.9559V23.1245H579.183L578.613 22.3137H577.952V23.1245H577.135V20.0362ZM578.613 20.7855H577.952V21.5958H578.613C578.921 21.5958 579.121 21.4582 579.121 21.1983C579.121 20.9231 578.937 20.7855 578.613 20.7855ZM353.296 39.9469C355.094 40.0746 356.522 41.5389 356.582 43.3433L356.584 43.4637V57.3117C356.584 59.2635 354.99 60.8447 353.033 60.8447C351.106 60.8447 349.541 59.3273 349.478 57.4306L349.476 57.3117V49.5656L342.711 53.4421C341.014 54.4224 338.844 53.8421 337.859 52.1566C336.899 50.5027 337.435 48.3927 339.051 47.3883L339.158 47.3244L351.233 40.4078C351.858 40.0461 352.577 39.8852 353.296 39.9469ZM367.581 40.3311L367.721 40.4078L379.795 47.3249C380.198 47.5553 380.552 47.8634 380.835 48.2315C381.119 48.5996 381.328 49.0204 381.449 49.4696C381.57 49.9188 381.601 50.3875 381.54 50.8488C381.479 51.31 381.328 51.7547 381.095 52.1571C380.136 53.8067 378.035 54.3978 376.354 53.503L376.244 53.4426L369.483 49.5656V57.3122C369.483 59.264 367.894 60.8452 365.927 60.8452C364 60.8452 362.439 59.3278 362.376 57.4311L362.375 57.3122V43.4637C362.375 41.6048 363.821 40.0781 365.663 39.9469C366.326 39.8901 366.991 40.0234 367.581 40.3311ZM336.224 22.3776L336.333 22.4375L348.4 29.3586C349.21 29.8174 349.804 30.5797 350.053 31.4779C350.133 31.7561 350.169 32.0332 350.183 32.3113C350.193 32.701 350.139 33.0896 350.021 33.4611C349.773 34.2642 349.245 34.951 348.533 35.3967L348.4 35.4768L336.333 42.4023C334.63 43.3762 332.458 42.7998 331.48 41.1149C331.018 40.3224 330.884 39.38 331.107 38.4896C331.329 37.5991 331.891 36.8316 332.672 36.3514L332.78 36.2876L339.522 32.4243L332.779 28.5508C331.076 27.5744 330.494 25.4192 331.48 23.7323C332.437 22.0788 334.538 21.4887 336.224 22.3776ZM387.478 23.7323C388.463 25.4197 387.881 27.5744 386.178 28.5508L379.435 32.4243L386.178 36.2876C387.881 37.2654 388.464 39.4206 387.479 41.1149C386.497 42.7998 384.323 43.3762 382.626 42.4023L370.55 35.4768C369.745 35.0109 369.186 34.2813 368.938 33.4611C368.82 33.0897 368.766 32.7009 368.778 32.3113C368.786 32.0337 368.826 31.7561 368.904 31.4779C369.154 30.5826 369.746 29.8216 370.55 29.3586L382.626 22.4375C384.323 21.4636 386.496 22.043 387.478 23.7323ZM360.214 25.8192C360.419 25.8192 360.7 25.9347 360.844 26.0811L365.863 31.0603C366.006 31.2023 366.122 31.4848 366.122 31.6882V33.1565C366.122 33.3555 366.006 33.6375 365.863 33.7776L360.844 38.7567C360.7 38.9032 360.423 39.0231 360.214 39.0231H358.738C358.535 39.0231 358.254 38.9032 358.108 38.7567L353.091 33.7776C352.948 33.6375 352.832 33.355 352.832 33.1565V31.6882C352.832 31.4848 352.948 31.2023 353.091 31.0603L358.108 26.0811C358.254 25.9347 358.535 25.8192 358.738 25.8192H360.214ZM359.504 30.0687H359.448C359.245 30.0687 358.963 30.1866 358.822 30.3281L357.369 31.7649C357.224 31.9138 357.112 32.1944 357.112 32.3953V32.4518C357.112 32.6504 357.224 32.9285 357.369 33.0729L358.822 34.5142C358.965 34.6567 359.245 34.7736 359.448 34.7736H359.504C359.707 34.7736 359.99 34.6562 360.132 34.5142L361.586 33.0729C361.729 32.9285 361.851 32.6504 361.851 32.4518V32.3953C361.851 32.1939 361.729 31.9138 361.586 31.7649L360.132 30.3281C359.989 30.1861 359.707 30.0687 359.504 30.0687ZM365.927 4C367.853 4 369.418 5.51787 369.481 7.40919L369.483 7.5281V15.2767L376.244 11.3958C377.943 10.4199 380.115 10.9987 381.095 12.6856C381.555 13.479 381.688 14.421 381.465 15.3108C381.242 16.2007 380.681 16.9681 379.901 17.4495L379.795 17.5134L367.721 24.437C367.097 24.7951 366.379 24.9556 365.663 24.8974C363.861 24.7652 362.437 23.2989 362.376 21.4965L362.375 21.3757V7.5281C362.375 5.58175 363.96 4 365.927 4ZM353.033 4C354.95 4 356.519 5.51787 356.582 7.40919L356.584 7.5281V21.3752C356.584 23.2326 355.133 24.7618 353.296 24.8969C352.632 24.951 351.966 24.8177 351.374 24.5121L351.233 24.436L339.158 17.5129C338.755 17.283 338.401 16.9752 338.117 16.6075C337.834 16.2398 337.625 15.8193 337.505 15.3704C337.384 14.9215 337.353 14.4531 337.414 13.9922C337.475 13.5313 337.626 13.087 337.859 12.6851C338.823 11.0341 340.922 10.4444 342.601 11.3348L342.71 11.3953L349.475 15.2762V7.52761C349.476 5.58224 351.065 4 353.033 4Z" fill="#4D4D4D"/>
</g>
<g clip-path="url(#clip2_59_112)">
<path d="M167.151 18.4273C177.887 18.4273 183.976 26.7068 183.429 38.1985H158.105C158.835 43.0659 163.22 46.4988 168.07 46.0014C169.714 46.0408 171.349 45.7506 172.88 45.1477C174.411 44.5447 175.809 43.6409 176.992 42.4888L181.416 47.3313C179.699 49.1186 177.627 50.517 175.334 51.4341C173.042 52.3511 170.583 52.7658 168.12 52.6506C157.31 52.6506 150.326 45.3743 150.326 35.5387C150.276 33.2882 150.676 31.0506 151.502 28.9598C152.328 26.8689 153.564 24.9679 155.134 23.3703C156.705 21.7728 158.579 20.5116 160.644 19.6623C162.709 18.8129 164.922 18.3929 167.151 18.4273ZM51.2687 18.4273C62.0048 18.4273 68.0931 26.7068 67.5464 38.1985H42.2474C42.9779 43.055 47.3459 46.484 52.1879 46.0014C53.8313 46.0409 55.4661 45.7507 56.9977 45.1478C58.5292 44.5448 59.927 43.641 61.1102 42.4888L65.5335 47.3313C63.8173 49.1186 61.7444 50.5172 59.4522 51.4342C57.16 52.3512 54.7009 52.7659 52.2379 52.6506C41.4273 52.6506 34.4444 45.3743 34.4444 35.5387C34.3941 33.2883 34.7939 31.0508 35.62 28.96C36.4462 26.8693 37.6815 24.9683 39.2523 23.3708C40.823 21.7733 42.6968 20.5122 44.7615 19.6629C46.8262 18.8135 49.0395 18.3935 51.2687 18.4278V18.4273ZM214.767 24.5746L208.976 27.9867C208.178 26.7895 207.09 25.8177 205.816 25.1634C204.542 24.5091 203.123 24.194 201.695 24.2479C197.992 24.2479 196.103 26.0792 196.103 28.1877C196.103 30.2947 199.085 31.198 203.782 32.2517L204.104 32.3235L204.426 32.3967C204.588 32.4339 204.75 32.471 204.912 32.5101L205.237 32.5883C205.345 32.6145 205.453 32.6417 205.562 32.669L205.887 32.7521L206.211 32.8382C210.801 34.0791 215.164 36.2361 215.164 42.0374C215.164 46.5785 211.262 52.6758 202.018 52.6253C199.173 52.8361 196.327 52.235 193.805 50.8907C191.282 49.5464 189.185 47.5131 187.753 45.0229L193.991 41.636C194.814 43.1246 196.025 44.3579 197.492 45.2024C198.96 46.047 200.627 46.4708 202.316 46.4281C206.218 46.4281 208.23 44.3958 208.23 42.0874C208.23 39.7789 204.453 38.8756 200.352 38.0228C200.242 37.9992 200.131 37.9752 200.02 37.9511L199.687 37.8778L199.52 37.8402L199.188 37.764C194.039 36.5627 189.095 34.5379 189.095 28.2377C189.095 23.0437 194.065 18.2011 201.67 18.2011C204.21 18.0467 206.747 18.5512 209.04 19.6668C211.332 20.7823 213.304 22.4717 214.767 24.5741V24.5746ZM143.791 4V51.973H136.882V47.4566C135.575 49.0905 133.919 50.406 132.039 51.3052C130.159 52.2044 128.102 52.6643 126.022 52.6506C123.835 52.6316 121.674 52.1706 119.666 51.2948C117.659 50.419 115.845 49.1461 114.332 47.5511C112.82 45.9562 111.639 44.0716 110.859 42.0085C110.08 39.9453 109.718 37.7455 109.794 35.5387C109.7 33.3245 110.052 31.1141 110.828 29.0412C111.605 26.9683 112.789 25.0759 114.311 23.4787C115.833 21.8814 117.66 20.6125 119.681 19.7485C121.703 18.8846 123.877 18.4437 126.072 18.4525C128.128 18.4372 130.162 18.8788 132.03 19.7461C133.898 20.6133 135.555 21.885 136.882 23.4708V4H143.791ZM28.5792 19.2296V25.6531L9.0458 45.7257H28.9273V52.0482H0V45.65L19.5334 25.5778H0.447094V19.2301H28.5792V19.2296ZM227.664 4V35.4135L242.302 19.0544H250.702L238.003 33.1303L251 51.973H243.221L233.132 37.3952L227.664 43.4425V51.9982H220.756V4H227.664ZM89.2668 18.4525C97.4684 18.4525 104.377 23.8465 104.377 32.7788V51.973H97.2694V33.6574C97.2694 28.2882 94.6848 25.0512 89.4658 25.0512C88.3383 24.967 87.2062 25.1344 86.15 25.5415C85.0937 25.9487 84.1391 26.5855 83.354 27.4069C82.5689 28.2283 81.9725 29.2141 81.6071 30.2943C81.2417 31.3745 81.1162 32.5227 81.2397 33.6574V51.9735H74.2068V32.7793C74.2068 23.847 81.0652 18.4525 89.2668 18.4525ZM126.967 25.1512C121.285 25.1512 116.678 29.8017 116.678 35.5387C116.678 41.2751 121.284 45.9262 126.967 45.9262C132.649 45.9262 137.255 41.2756 137.255 35.5387C137.255 29.8022 132.649 25.1512 126.967 25.1512ZM158.081 32.7036L175.8 32.7284C175.559 28.2045 171.732 24.7334 167.251 24.9755C162.652 24.7032 158.637 28.0872 158.081 32.7036ZM42.2484 32.7036L59.9174 32.7284C59.6635 28.2144 55.8406 24.7587 51.3687 25.0007C46.7973 24.7542 42.8151 28.1174 42.2479 32.7036H42.2484Z" fill="#4D4D4D"/>
</g>
<g clip-path="url(#clip3_59_112)">
<path d="M681.96 0C682.948 3.79104 686.148 7.17459 689.606 10.6853L690.34 11.4284C695.805 16.9638 701.921 23.252 701.921 32.6346C701.932 35.2989 701.425 37.9393 700.427 40.4041C699.429 42.869 697.96 45.1097 696.105 46.9978C694.251 48.8859 692.046 50.3841 689.619 51.4064C687.192 52.4286 684.589 52.9549 681.96 52.9549C679.332 52.9549 676.729 52.4286 674.302 51.4064C671.874 50.3841 669.67 48.8859 667.815 46.9978C665.961 45.1097 664.492 42.869 663.494 40.4041C662.496 37.9393 661.988 35.2989 662 32.6346C662 23.441 667.872 17.2189 673.248 11.7648L673.58 11.4284L673.745 11.261C677.415 7.5429 680.918 3.99804 681.96 0H681.96ZM818.488 30.2661C819.698 36.8826 815.734 43.3436 809.345 45.1706C803.314 46.6592 800.597 41.9122 800.103 40.6656C800.052 40.5358 800.005 40.3948 799.794 40.3975C799.575 40.3998 799.551 40.6287 799.549 40.6614V40.6652L799.547 43.9796L799.545 43.9777V52.8264H793.011V32.6372C793.011 25.9082 798.071 20.2879 804.682 19.6722C811.294 19.057 817.279 23.6491 818.488 30.2661ZM681.959 30.346C681.959 30.346 680.706 31.727 679.394 33.2045L679.21 33.4111C678.262 34.4807 677.312 35.5695 676.807 36.1955C675.726 37.479 675.121 39.1042 675.095 40.7912C675.095 41.705 675.273 42.6099 675.618 43.4542C675.963 44.2984 676.469 45.0656 677.106 45.7117C677.744 46.3579 678.5 46.8705 679.333 47.2202C680.166 47.5699 681.059 47.7499 681.96 47.7499C685.752 47.7499 688.826 44.6348 688.826 40.7916C688.84 39.0905 688.226 37.4456 687.103 36.181C686.326 35.3011 685.549 34.4205 684.772 33.5394L684.59 33.332L681.959 30.3463V30.346ZM835.205 19.673C841.75 20.2821 846.774 25.7964 846.874 32.436L846.876 32.6372V44.7374H840.341L840.338 40.6656C840.338 40.6656 840.328 40.4006 840.092 40.3968C839.881 40.3948 839.835 40.5362 839.784 40.6656C839.29 41.9115 836.572 46.6592 830.542 45.1698C824.153 43.3429 820.189 36.8819 821.399 30.2653C822.609 23.6491 828.594 19.057 835.205 19.673ZM790.702 20.0851L790.7 32.454C790.7 39.5968 786.102 45.3853 779.056 45.3853C772.078 45.3853 767.569 39.712 767.48 32.668L767.478 32.454L767.48 20.097H773.985V32.454C773.985 36.0684 775.528 38.9926 779.096 38.9926C782.619 38.9926 784.153 36.1383 784.19 32.5842L784.191 32.4537L784.18 20.0851H790.702ZM856 12.5483V44.7477H849.51V12.5483H856ZM762.175 19.8162C763.043 20.0157 763.882 20.3272 764.672 20.743L764.886 20.859V28.3515L764.881 28.3469C764.845 28.3116 764.807 28.2776 764.769 28.2448L764.716 28.201C764.296 27.8542 763.078 26.9874 760.853 26.4535C755.309 25.1251 752.422 30.2234 752.365 31.381L752.364 31.4148V44.7262H745.847V20.1342H751.661L752.355 24.4434C752.355 24.4434 752.378 24.6673 752.583 24.6715C752.83 24.678 752.833 24.5916 752.905 24.4434C753.052 24.1415 756.58 18.5081 762.175 19.8166V19.8162ZM725.973 12.5357C735.605 12.5357 742.909 14.3273 742.909 28.6104C742.909 42.7572 735.172 44.6863 725.432 44.6863H718.019V12.5353H725.973V12.5357ZM834.025 26.048C832.738 26.0478 831.481 26.4343 830.412 27.1585C829.342 27.8827 828.508 28.9122 828.016 30.1166C827.524 31.3211 827.395 32.6465 827.646 33.9251C827.897 35.2038 828.516 36.3783 829.426 37.3001C830.336 38.2219 831.494 38.8496 832.756 39.1039C834.017 39.3581 835.325 39.2274 836.513 38.7283C837.702 38.2292 838.717 37.3841 839.431 36.3C840.146 35.2159 840.527 33.9413 840.527 32.6376C840.526 28.9987 837.615 26.0487 834.025 26.048ZM805.862 26.048C802.272 26.0491 799.362 28.9987 799.36 32.6376C799.36 33.9414 799.741 35.2159 800.456 36.3C801.17 37.3842 802.186 38.2292 803.374 38.7283C804.562 39.2274 805.87 39.3581 807.131 39.1038C808.393 38.8496 809.552 38.2218 810.461 37.3C811.371 36.3781 811.99 35.2036 812.241 33.9249C812.492 32.6462 812.363 31.3208 811.871 30.1164C811.379 28.9119 810.545 27.8825 809.475 27.1583C808.406 26.4341 807.148 26.0477 805.862 26.048ZM727.381 18.1087H724.582V39.1075L727.273 39.1774C732.792 39.1774 736.346 38.6689 736.346 28.61C736.346 19.0616 733.27 18.1264 727.381 18.1087H727.381ZM681.96 11.64L681.957 11.6423L681.901 11.6992L681.694 11.9085L681.167 12.4431L680.634 12.9835L679.704 13.9259L679.206 14.4306L678.824 14.8173L678.753 14.8892L678.377 15.2717L678.273 15.3765L678.238 15.4122C677.474 16.1827 675.936 17.6225 677.788 19.6511C678.751 20.7053 681.596 23.7382 684.554 26.9348L684.949 27.3618C688.44 31.139 691.978 35.0315 692.673 36.073C693.27 36.9683 693.356 37.3877 694.164 37.3581C694.616 37.3412 694.952 36.7935 695.1 36.4659C695.793 34.9297 696.969 30.2741 693.558 24.8943C691.205 21.1816 686.577 16.2821 683.934 13.601L683.709 13.3737C683.132 12.7893 682.549 12.2114 681.96 11.64ZM673.122 21.013C664.743 29.4154 669.26 37.3074 670.483 37.3489C670.61 37.3535 670.821 37.3688 670.966 36.9598C671.667 34.9777 677.307 29.2449 678.63 27.8692C678.682 27.8268 678.725 27.7737 678.756 27.7134C678.786 27.6531 678.804 27.5869 678.807 27.5192C678.811 27.4515 678.8 27.3838 678.776 27.3207C678.752 27.2575 678.715 27.2002 678.667 27.1525L673.122 21.013Z" fill="#4D4D4D"/>
</g>
<defs>
<clipPath id="clip0_59_112">
<rect width="81.6186" height="81.6186" fill="white" transform="translate(611 116)"/>
</clipPath>
<clipPath id="clip1_59_112">
<rect width="251" height="57" fill="white" transform="translate(331 4)"/>
</clipPath>
<clipPath id="clip2_59_112">
<rect width="251" height="49" fill="white" transform="translate(0 4)"/>
</clipPath>
<clipPath id="clip3_59_112">
<rect width="194" height="53" fill="white" transform="translate(662)"/>
</clipPath>
</defs>
</svg>
