<svg width="78" height="78" viewBox="0 0 78 78" fill="none" xmlns="http://www.w3.org/2000/svg">
<path d="M22.75 39H55.25M22.75 26H42.25" stroke="#E52B50" stroke-width="5" stroke-linecap="round" stroke-linejoin="round"/>
<path d="M9.75 65.9425V16.25C9.75 14.5261 10.4348 12.8728 11.6538 11.6538C12.8728 10.4348 14.5261 9.75 16.25 9.75H61.75C63.4739 9.75 65.1272 10.4348 66.3462 11.6538C67.5652 12.8728 68.25 14.5261 68.25 16.25V48.75C68.25 50.4739 67.5652 52.1272 66.3462 53.3462C65.1272 54.5652 63.4739 55.25 61.75 55.25H25.8732C24.899 55.2501 23.9373 55.4692 23.0591 55.8912C22.181 56.3131 21.4089 56.927 20.8 57.6875L13.2242 67.158C12.9721 67.474 12.6281 67.7038 12.2396 67.8156C11.8512 67.9275 11.4376 67.9159 11.056 67.7824C10.6745 67.6489 10.3439 67.4001 10.1099 67.0705C9.87591 66.7409 9.75015 66.3467 9.75 65.9425V65.9425Z" stroke="#E52B50" stroke-width="5"/>
</svg>
