<svg width="256" height="180" viewBox="0 0 256 180" fill="none" xmlns="http://www.w3.org/2000/svg">
<path d="M106.553 19.651C114.801 11.057 126.284 5.72701 138.983 5.72701C155.866 5.72701 170.595 15.141 178.438 29.116C185.454 25.9821 193.054 24.3668 200.738 24.376C231.187 24.376 255.872 49.276 255.872 79.991C255.872 110.71 231.187 135.611 200.738 135.611C197.091 135.613 193.453 135.25 189.878 134.528C182.97 146.849 169.808 155.173 154.7 155.173C148.59 155.181 142.56 153.793 137.068 151.115C130.066 167.585 113.752 179.134 94.738 179.134C74.938 179.134 58.064 166.605 51.586 149.034C48.756 149.636 45.823 149.949 42.814 149.949C19.24 149.949 0.128008 130.641 0.128008 106.819C0.111026 99.2695 2.07286 91.8474 5.81799 85.2923C9.56312 78.7373 14.9608 73.2781 21.473 69.459C18.769 63.2342 17.3774 56.5187 17.385 49.732C17.385 22.336 39.626 0.128006 67.06 0.128006C83.166 0.128006 97.48 7.78601 106.554 19.651" fill="#00A1E0"/>
<path d="M37.17 92.956C37.01 93.375 37.228 93.462 37.28 93.536C37.76 93.885 38.248 94.136 38.74 94.416C41.349 95.801 43.811 96.206 46.387 96.206C51.633 96.206 54.89 93.416 54.89 88.923V88.836C54.89 84.683 51.214 83.174 47.764 82.086L47.316 81.939C44.715 81.094 42.471 80.366 42.471 78.653V78.563C42.471 77.098 43.782 76.019 45.815 76.019C48.074 76.019 50.755 76.769 52.482 77.724C52.482 77.724 52.988 78.052 53.174 77.56C53.276 77.298 54.15 74.945 54.242 74.69C54.34 74.413 54.165 74.209 53.987 74.1C52.016 72.9 49.291 72.081 46.471 72.081L45.946 72.085C41.145 72.085 37.793 74.985 37.793 79.142V79.229C37.793 83.612 41.491 85.032 44.955 86.023L45.513 86.195C48.037 86.97 50.213 87.637 50.213 89.415V89.502C50.213 91.127 48.799 92.337 46.518 92.337C45.633 92.337 42.81 92.319 39.76 90.391C39.392 90.176 39.177 90.02 38.893 89.849C38.743 89.754 38.369 89.589 38.205 90.085L37.17 92.956ZM113.97 92.956C113.81 93.375 114.028 93.462 114.08 93.536C114.56 93.885 115.048 94.136 115.54 94.416C118.148 95.801 120.611 96.206 123.187 96.206C128.433 96.206 131.69 93.416 131.69 88.923V88.836C131.69 84.683 128.014 83.174 124.564 82.086L124.116 81.939C121.515 81.094 119.27 80.366 119.27 78.653V78.563C119.27 77.098 120.582 76.019 122.615 76.019C124.874 76.019 127.555 76.769 129.282 77.724C129.282 77.724 129.788 78.052 129.974 77.56C130.076 77.298 130.95 74.945 131.041 74.69C131.14 74.413 130.965 74.209 130.786 74.1C128.816 72.9 126.09 72.081 123.271 72.081L122.746 72.085C117.944 72.085 114.593 74.985 114.593 79.142V79.229C114.593 83.612 118.29 85.032 121.755 86.023L122.312 86.195C124.837 86.97 127.016 87.637 127.016 89.415V89.502C127.016 91.127 125.598 92.337 123.318 92.337C120.925 92.3541 118.578 91.6782 116.56 90.391C116.192 90.176 115.973 90.027 115.697 89.849C115.602 89.787 115.157 89.615 115.004 90.085L113.97 92.956ZM166.399 84.157C166.399 86.697 165.925 88.697 164.993 90.11C164.071 91.51 162.676 92.19 160.73 92.19C158.781 92.19 157.393 91.513 156.486 90.11C155.568 88.7 155.102 86.697 155.102 84.157C155.102 81.622 155.568 79.625 156.486 78.227C157.393 76.842 158.781 76.168 160.73 76.168C162.676 76.168 164.07 76.842 164.996 78.226C165.926 79.626 166.399 81.622 166.399 84.157ZM170.778 79.45C170.348 77.997 169.678 76.715 168.785 75.647C167.892 74.576 166.763 73.717 165.422 73.09C164.085 72.467 162.504 72.15 160.73 72.15C158.952 72.15 157.371 72.467 156.034 73.09C154.694 73.716 153.564 74.576 152.668 75.647C151.779 76.718 151.108 78.001 150.675 79.45C150.249 80.897 150.035 82.478 150.035 84.157C150.035 85.837 150.249 87.422 150.675 88.864C151.109 90.314 151.775 91.596 152.672 92.668C153.587 93.7564 154.736 94.6231 156.034 95.203C157.374 95.812 158.952 96.121 160.73 96.121C162.504 96.121 164.082 95.811 165.422 95.203C166.72 94.6232 167.87 93.7565 168.785 92.668C169.678 91.6 170.348 90.318 170.778 88.864C171.208 87.418 171.423 85.834 171.423 84.157C171.423 82.482 171.208 80.897 170.778 79.45ZM206.737 91.513C206.592 91.087 206.18 91.247 206.18 91.247C205.543 91.491 204.865 91.717 204.144 91.83C203.349 91.9478 202.547 92.005 201.743 92.001C199.623 92.001 197.939 91.371 196.733 90.125C195.524 88.879 194.846 86.865 194.853 84.139C194.861 81.659 195.459 79.793 196.533 78.372C197.601 76.959 199.225 76.234 201.393 76.234C203.2 76.234 204.577 76.441 206.02 76.897C206.02 76.897 206.366 77.047 206.53 76.594C206.912 75.531 207.197 74.769 207.605 73.6C207.721 73.268 207.437 73.126 207.335 73.086C206.767 72.864 205.426 72.503 204.413 72.35C203.466 72.205 202.359 72.128 201.127 72.128C199.287 72.128 197.648 72.441 196.245 73.068C194.846 73.691 193.659 74.551 192.719 75.622C191.779 76.692 191.065 77.975 190.588 79.425C190.114 80.871 189.874 82.46 189.874 84.139C189.874 87.771 190.854 90.708 192.788 92.857C194.726 95.014 197.638 96.11 201.433 96.11C203.677 96.11 205.98 95.655 207.633 95.003C207.633 95.003 207.951 94.85 207.813 94.482L206.737 91.512V91.513ZM214.4 81.725C214.607 80.315 214.997 79.142 215.598 78.228C216.505 76.84 217.889 76.078 219.835 76.078C221.78 76.078 223.066 76.843 223.988 78.228C224.6 79.142 224.866 80.366 224.971 81.725H214.4ZM229.143 78.625C228.771 77.222 227.849 75.805 227.245 75.157C226.29 74.129 225.358 73.411 224.432 73.011C223.088 72.4413 221.643 72.1488 220.184 72.151C218.334 72.151 216.654 72.461 215.292 73.101C213.926 73.743 212.778 74.617 211.878 75.707C210.978 76.792 210.301 78.086 209.871 79.554C209.437 81.014 209.219 82.607 209.219 84.286C209.219 85.995 209.445 87.586 209.893 89.018C210.344 90.461 211.066 91.733 212.043 92.785C213.015 93.845 214.268 94.676 215.769 95.255C217.259 95.831 219.069 96.13 221.149 96.126C225.43 96.111 227.686 95.157 228.614 94.643C228.778 94.553 228.935 94.392 228.738 93.933L227.769 91.219C227.624 90.814 227.212 90.964 227.212 90.964C226.152 91.357 224.644 92.064 221.128 92.057C218.829 92.053 217.124 91.375 216.057 90.315C214.96 89.23 214.425 87.635 214.33 85.383L229.154 85.397C229.154 85.397 229.544 85.39 229.584 85.011C229.598 84.851 230.094 81.965 229.143 78.625ZM95.683 81.725C95.894 80.315 96.28 79.142 96.882 78.228C97.789 76.84 99.173 76.078 101.118 76.078C103.064 76.078 104.35 76.843 105.275 78.228C105.884 79.142 106.15 80.366 106.255 81.725H95.683ZM110.423 78.625C110.051 77.222 109.133 75.805 108.528 75.157C107.574 74.129 106.641 73.411 105.716 73.011C104.372 72.4413 102.927 72.1488 101.468 72.151C99.621 72.151 97.938 72.461 96.576 73.101C95.209 73.743 94.062 74.617 93.162 75.707C92.262 76.792 91.585 78.086 91.155 79.554C90.725 81.014 90.503 82.607 90.503 84.286C90.503 85.995 90.728 87.586 91.177 89.018C91.628 90.461 92.35 91.733 93.326 92.785C94.299 93.845 95.552 94.676 97.053 95.255C98.543 95.831 100.353 96.13 102.433 96.126C106.714 96.111 108.969 95.157 109.898 94.643C110.062 94.553 110.218 94.392 110.022 93.933L109.057 91.219C108.907 90.814 108.496 90.964 108.496 90.964C107.436 91.357 105.931 92.064 102.408 92.057C100.113 92.053 98.408 91.375 97.341 90.315C96.244 89.23 95.708 87.635 95.614 85.383L110.437 85.397C110.437 85.397 110.827 85.39 110.867 85.011C110.882 84.851 111.377 81.965 110.423 78.625ZM63.642 91.431C63.062 90.969 62.982 90.852 62.786 90.553C62.494 90.098 62.345 89.449 62.345 88.626C62.345 87.322 62.775 86.386 63.667 85.756C63.657 85.759 64.942 84.644 67.967 84.684C70.09 84.714 71.988 85.027 71.988 85.027V91.767H71.992C71.992 91.767 70.108 92.171 67.988 92.298C64.971 92.48 63.631 91.428 63.642 91.431ZM69.54 81.016C68.939 80.972 68.16 80.946 67.227 80.946C65.955 80.946 64.727 81.106 63.577 81.416C62.4666 81.7041 61.4173 82.1906 60.48 82.852C59.5849 83.4905 58.8492 84.3268 58.33 85.296C57.806 86.273 57.54 87.424 57.54 88.713C57.54 90.025 57.765 91.165 58.217 92.098C58.6577 93.0202 59.3231 93.817 60.152 94.415C60.975 95.016 61.992 95.457 63.172 95.723C64.334 95.989 65.652 96.123 67.095 96.123C68.615 96.123 70.13 96 71.598 95.748C72.8474 95.5328 74.0923 95.2925 75.332 95.027C75.824 94.91 76.371 94.761 76.371 94.761C76.739 94.67 76.709 94.276 76.709 94.276L76.702 80.721C76.702 77.748 75.908 75.544 74.345 74.178C72.79 72.815 70.498 72.127 67.536 72.127C66.426 72.127 64.636 72.28 63.566 72.495C63.566 72.495 60.326 73.121 58.993 74.163C58.993 74.163 58.702 74.345 58.862 74.753L59.912 77.573C60.042 77.937 60.396 77.813 60.396 77.813C60.396 77.813 60.509 77.77 60.64 77.693C63.492 76.141 67.099 76.189 67.099 76.189C68.702 76.189 69.933 76.509 70.764 77.147C71.573 77.766 71.984 78.702 71.984 80.677V81.303C70.709 81.121 69.54 81.016 69.54 81.016ZM189.1 73.377C189.121 73.3276 189.133 73.2743 189.133 73.2204C189.133 73.1666 189.123 73.1132 189.102 73.0635C189.081 73.0138 189.05 72.9689 189.012 72.9313C188.973 72.8938 188.927 72.8644 188.877 72.845C188.626 72.747 187.365 72.481 186.392 72.419C184.531 72.306 183.496 72.619 182.571 73.035C181.653 73.45 180.633 74.12 180.064 74.882V73.078C180.064 72.827 179.886 72.627 179.638 72.627H175.838C175.591 72.627 175.412 72.827 175.412 73.078V95.188C175.412 95.436 175.616 95.64 175.864 95.64H179.758C179.817 95.6397 179.876 95.6278 179.93 95.605C179.985 95.5821 180.034 95.5487 180.076 95.5068C180.117 95.4648 180.15 95.415 180.173 95.3604C180.195 95.3057 180.206 95.2471 180.206 95.188V84.142C180.206 82.66 180.37 81.18 180.698 80.252C181.018 79.333 181.456 78.598 181.995 78.069C182.51 77.562 183.138 77.1849 183.828 76.969C184.516 76.758 185.278 76.689 185.817 76.689C186.593 76.689 187.445 76.889 187.445 76.889C187.729 76.922 187.89 76.747 187.985 76.489C188.239 75.811 188.961 73.781 189.099 73.377" fill="white"/>
<path d="M152.544 63.13C152.063 62.9846 151.574 62.8677 151.079 62.78C150.413 62.6709 149.739 62.62 149.065 62.628C146.383 62.628 144.27 63.385 142.788 64.879C141.312 66.365 140.31 68.628 139.808 71.604L139.625 72.606H136.259C136.259 72.606 135.851 72.591 135.764 73.036L135.214 76.122C135.174 76.413 135.301 76.599 135.694 76.599H138.97L135.647 95.149C135.389 96.643 135.09 97.871 134.758 98.803C134.434 99.721 134.118 100.41 133.724 100.913C133.344 101.393 132.988 101.751 132.368 101.958C131.858 102.13 131.268 102.21 130.623 102.21C130.266 102.21 129.789 102.151 129.436 102.079C129.159 102.025 128.89 101.938 128.634 101.819C128.634 101.819 128.252 101.674 128.099 102.057C127.979 102.374 127.104 104.774 126.999 105.07C126.897 105.365 127.042 105.594 127.228 105.663C127.665 105.816 127.989 105.918 128.583 106.06C129.407 106.254 130.103 106.264 130.755 106.264C132.117 106.264 133.363 106.071 134.394 105.7C135.429 105.325 136.332 104.672 137.134 103.79C137.997 102.836 138.54 101.838 139.057 100.472C139.571 99.124 140.012 97.448 140.361 95.496L143.702 76.599H148.584C148.584 76.599 148.995 76.613 149.079 76.165L149.633 73.083C149.669 72.788 149.546 72.606 149.148 72.606H144.408C144.434 72.5 144.649 70.832 145.192 69.262C145.425 68.595 145.862 68.052 146.23 67.681C146.577 67.3281 147.003 67.0631 147.473 66.908C147.943 66.755 148.478 66.682 149.065 66.682C149.509 66.682 149.95 66.733 150.281 66.802C150.741 66.901 150.919 66.952 151.039 66.988C151.524 67.134 151.589 66.992 151.684 66.758L152.817 63.648C152.934 63.313 152.646 63.17 152.544 63.13ZM86.322 95.19C86.322 95.437 86.143 95.638 85.896 95.638H81.965C81.717 95.638 81.542 95.438 81.542 95.19V63.553C81.542 63.306 81.717 63.105 81.965 63.105H85.895C86.143 63.105 86.322 63.305 86.322 63.553V95.19Z" fill="white"/>
</svg>
