<svg width="62" height="62" viewBox="0 0 62 62" fill="none" xmlns="http://www.w3.org/2000/svg">
<g clip-path="url(#clip0_168_32)">
<path fill-rule="evenodd" clip-rule="evenodd" d="M0 0H3.875V58.125H62V62H0V0ZM38.75 13.5625C38.75 13.0486 38.9541 12.5558 39.3175 12.1925C39.6808 11.8291 40.1736 11.625 40.6875 11.625H56.1875C56.7014 11.625 57.1942 11.8291 57.5575 12.1925C57.9209 12.5558 58.125 13.0486 58.125 13.5625V29.0625C58.125 29.5764 57.9209 30.0692 57.5575 30.4325C57.1942 30.7959 56.7014 31 56.1875 31C55.6736 31 55.1808 30.7959 54.8175 30.4325C54.4541 30.0692 54.25 29.5764 54.25 29.0625V18.9875L40.2496 36.1034C40.0782 36.3126 39.8649 36.4836 39.6235 36.6054C39.382 36.7272 39.1177 36.7971 38.8476 36.8106C38.5775 36.8241 38.3076 36.7809 38.0552 36.6838C37.8028 36.5867 37.5735 36.4378 37.3821 36.2467L27.3575 26.2221L13.1905 45.7017C12.8806 46.0958 12.43 46.3544 11.9334 46.4232C11.4368 46.492 10.9329 46.3656 10.5275 46.0706C10.1221 45.7757 9.84689 45.335 9.75962 44.8413C9.67234 44.3476 9.77984 43.8393 10.0595 43.4233L25.5595 22.1108C25.724 21.8841 25.9357 21.6958 26.18 21.5589C26.4243 21.422 26.6954 21.3396 26.9745 21.3175C27.2537 21.2954 27.5344 21.3341 27.7972 21.4309C28.0599 21.5277 28.2986 21.6803 28.4967 21.8783L38.6066 31.992L52.0994 15.5H40.6875C40.1736 15.5 39.6808 15.2959 39.3175 14.9325C38.9541 14.5692 38.75 14.0764 38.75 13.5625Z" fill="#E52B50"/>
</g>
<defs>
<clipPath id="clip0_168_32">
<rect width="62" height="62" fill="white"/>
</clipPath>
</defs>
</svg>
