<?xml version="1.0" encoding="UTF-8"?>
<svg version="1.1" xmlns="http://www.w3.org/2000/svg" width="512" height="512">
<path d="M0 0 C1.89493714 -0.00570949 3.78987085 -0.01267599 5.68479919 -0.02079773 C10.8087991 -0.03867965 15.93262728 -0.03757017 21.05664897 -0.03185534 C25.34331757 -0.02875647 29.62995351 -0.03486367 33.91661745 -0.04089409 C44.03330666 -0.05492124 54.1499114 -0.05339294 64.26660156 -0.04199219 C74.6844913 -0.03051106 85.1021236 -0.04459078 95.51997942 -0.07138866 C104.48335449 -0.09357726 113.44664893 -0.10017596 122.4100495 -0.09431225 C127.75520437 -0.09094925 133.10019422 -0.09331413 138.44532585 -0.11056328 C143.47287626 -0.12608086 148.50004651 -0.12202353 153.52758217 -0.10325813 C155.36612248 -0.09958565 157.20469128 -0.10264135 159.04320526 -0.11314392 C176.23544322 -0.20381156 188.26980517 3.57018047 201.23071289 15.40405273 C202.31029828 16.60604592 203.37417223 17.82224914 204.42602539 19.04858398 C208.17649002 23.36962205 212.05369441 27.5560281 215.98071289 31.71655273 C216.67737061 32.45639404 217.37402832 33.19623535 218.09179688 33.95849609 C222.94047589 39.08867888 227.89294066 44.09135797 232.91040039 49.05639648 C235.58349929 51.76099655 238.09826937 54.55806699 240.55102539 57.46264648 C241.73149042 58.82704444 242.96083287 60.1499204 244.22290039 61.43920898 C252.92909794 70.49036908 257.40380748 80.919516 257.34423828 93.38549805 C257.34438431 94.18587494 257.34453033 94.98625183 257.34468079 95.81088257 C257.34398519 98.45134204 257.33620929 101.09173061 257.32836914 103.73217773 C257.32650371 105.56492067 257.3250804 107.3976641 257.32408142 109.23040771 C257.32026611 114.05055115 257.31044422 118.87066438 257.29937744 123.6907959 C257.28914214 128.61083569 257.28457926 133.53088036 257.27954102 138.45092773 C257.26882108 148.10198266 257.25175648 157.75301518 257.23071289 167.40405273 C258.54563721 167.38310547 259.86056152 167.3621582 261.21533203 167.34057617 C266.16346039 167.26735983 271.11154243 167.22196034 276.06005859 167.18432617 C278.18872163 167.16439457 280.31733126 167.13723921 282.44580078 167.10229492 C304.57833802 166.74842412 322.38612245 169.73858363 339.23071289 185.40405273 C355.93694249 202.77611033 357.68621667 222.40618518 357.63476562 245.19824219 C357.64047618 247.48944429 357.64744308 249.78064355 357.65556335 252.07183838 C357.67343523 258.26413551 357.67233745 264.45629046 357.66662097 270.64860559 C357.6635201 275.83215475 357.66963164 281.01567695 357.67565972 286.19922227 C357.69048436 299.13397028 357.68690813 312.06862976 357.67479641 325.00337621 C357.6648702 336.20152793 357.6777999 347.39951427 357.7017306 358.59764049 C357.72619433 370.13331864 357.7353131 381.6689012 357.72907788 393.20460671 C357.72571872 399.66601587 357.72805388 406.12728849 357.7453289 412.58867836 C357.76087573 418.66849575 357.75675685 424.74799922 357.73802376 430.82780457 C357.73435907 433.048036 357.73738375 435.26829109 357.74790955 437.4885006 C357.84622367 459.95633363 354.48598241 479.13861456 338.05102539 495.74389648 C323.90616365 509.08551815 308.14823138 512.70855024 289.29052734 512.69458008 C287.67498974 512.70057135 286.05945499 512.70737827 284.44392395 512.7149353 C280.07174799 512.73254394 275.69965041 512.73728858 271.32744241 512.73856688 C268.59018094 512.73999222 265.85293916 512.74426912 263.1156826 512.74956131 C253.54992797 512.76804629 243.98422893 512.77623405 234.41845703 512.7746582 C225.52866451 512.773458 216.63911524 512.79454054 207.74938422 512.82614553 C200.09556837 512.85237819 192.44183161 512.86302254 184.7879712 512.86174738 C180.22629525 512.8612397 175.66483554 512.8668148 171.10320473 512.88810349 C166.80780352 512.90760353 162.51282216 512.90753082 158.21740532 512.89307022 C156.65060938 512.89099535 155.08378634 512.89560314 153.51703644 512.90779114 C134.63665906 513.04502381 119.09095596 507.41231685 105.23071289 494.40405273 C91.83360559 480.28965644 86.92908285 463.40674517 87.23071289 444.40405273 C84.26071289 444.40405273 81.29071289 444.40405273 78.23071289 444.40405273 C78.14821289 445.55905273 78.06571289 446.71405273 77.98071289 447.90405273 C77.40745683 452.64184548 75.54848487 456.29000748 73.23071289 460.40405273 C72.90071289 461.06405273 72.57071289 461.72405273 72.23071289 462.40405273 C73.15582795 464.20371386 74.14761459 465.96926994 75.16821289 467.71655273 C79.19086269 475.50926735 79.77222719 483.29470903 77.16821289 491.71655273 C73.83487244 499.03138317 68.42884194 503.96094268 61.25671005 507.38386536 C55.30689214 509.38979226 49.17699452 509.08004532 42.96557617 509.01928711 C41.44663881 509.02279458 39.92770515 509.0284602 38.40878296 509.03610229 C34.30927928 509.05027263 30.21045269 509.03336407 26.11101389 509.00981712 C21.8031693 508.9895998 17.49534988 508.99559344 13.18746948 508.9979248 C5.95323632 508.99787134 -1.28073475 508.97818056 -8.51489258 508.94604492 C-16.85260379 508.90918469 -25.18997165 508.90036676 -33.52775371 508.90734243 C-41.57846661 508.91367122 -49.62906301 508.90284757 -57.67975235 508.88337708 C-61.09172362 508.87524878 -64.50363496 508.87248505 -67.91561508 508.87406921 C-71.94264643 508.87495509 -75.96935697 508.8605452 -79.99630356 508.83484268 C-81.46513309 508.82774489 -82.93399691 508.82556601 -84.40283966 508.82896042 C-104.11142053 508.86578466 -120.41488653 503.20294245 -134.76928711 489.40405273 C-148.39774915 475.44264781 -155.34112158 457.85531277 -155.12133789 438.36938477 C-154.42612901 418.53435618 -146.24002646 401.07777388 -131.83178711 387.52905273 C-121.0893025 378.40123606 -107.98594854 372.27446058 -93.76928711 371.40405273 C-93.81569336 370.7144043 -93.86209961 370.02475586 -93.90991211 369.31420898 C-94.22659452 361.06915612 -92.2245232 355.8030174 -88.26928711 348.71655273 C-87.4470367 346.18580891 -87.4470367 346.18580891 -89.51928711 343.46655273 C-90.26178711 342.45592773 -91.00428711 341.44530273 -91.76928711 340.40405273 C-94.81124643 334.01593815 -94.72740315 326.4487941 -93.11694336 319.65014648 C-90.10400855 311.18030828 -84.79288919 305.96303298 -76.76147461 302.13061523 C-72.1702323 300.45616216 -67.8154007 300.29247583 -62.95678711 300.34155273 C-61.7953418 300.35057617 -60.63389648 300.35959961 -59.43725586 300.36889648 C-58.11661133 300.38629883 -58.11661133 300.38629883 -56.76928711 300.40405273 C-56.77080599 299.85883699 -56.77232487 299.31362124 -56.77388978 298.7518838 C-56.86350107 266.40144732 -56.93208326 234.05104383 -56.97354843 201.70051174 C-56.97855095 197.81173418 -56.98372827 193.92295687 -56.98901367 190.03417969 C-56.99006291 189.26002988 -56.99111216 188.48588008 -56.99219319 187.68827119 C-57.00957431 175.17135259 -57.04109928 162.65450786 -57.07789829 150.137633 C-57.11537168 137.28368378 -57.13753645 124.42977311 -57.14564109 111.57577151 C-57.15111564 103.65114069 -57.16837441 95.72671869 -57.20095298 87.80215218 C-57.22469788 81.71433537 -57.22709088 75.62669628 -57.22171783 69.5388279 C-57.22281469 67.04964924 -57.23072329 64.56046238 -57.24610901 62.07133102 C-57.35573993 43.41364365 -56.45531916 27.48401434 -43.01928711 13.15405273 C-30.25878705 1.14559735 -16.73573187 -0.04560388 0 0 Z M-32.76928711 27.40405273 C-38.97665366 35.50994894 -40.06882677 43.07513474 -40.00979614 53.04051208 C-40.01150499 54.10004957 -40.01321384 55.15958705 -40.01497447 56.25123173 C-40.01826388 59.79499843 -40.00727455 63.33857501 -39.99633789 66.88232422 C-39.99577366 69.42519628 -39.99609057 71.96806868 -39.9972229 74.51094055 C-39.99767807 79.98222197 -39.99201199 85.45344236 -39.98074722 90.92471123 C-39.96447105 98.83516714 -39.95928205 106.7456 -39.95677124 114.65607084 C-39.95239746 127.49126735 -39.93909696 140.3264384 -39.92016602 153.16162109 C-39.90179901 165.62744011 -39.88764652 178.09325221 -39.87915039 190.55908203 C-39.87862494 191.32788783 -39.8780995 192.09669362 -39.87755813 192.88879656 C-39.87494799 196.74579246 -39.87242059 200.60278841 -39.86993432 204.45978439 C-39.84921169 236.44122568 -39.81399479 268.42263567 -39.76928711 300.40405273 C-38.61385406 300.40991898 -37.45842102 300.41578522 -36.26797485 300.42182922 C-25.3515754 300.47917069 -14.43537296 300.55199184 -3.51917458 300.63976765 C2.09226404 300.68439647 7.70363131 300.72366911 13.31518555 300.75048828 C18.73588332 300.77659591 24.1563054 300.81705106 29.57683182 300.867239 C31.63951805 300.88385733 33.70225191 300.89540282 35.76499557 300.90166664 C38.66580505 300.91136262 41.56591717 300.93948716 44.46655273 300.97167969 C45.3095694 300.9702446 46.15258606 300.96880951 47.02114868 300.96733093 C56.12965196 301.10925587 63.88426892 303.14245072 70.53930664 309.50170898 C76.41411871 316.1091766 77.57629889 322.61618362 77.52368164 331.22436523 C77.01214863 336.77620353 74.90930964 341.73472456 71.95336914 346.43530273 C70.9670896 348.42396482 70.9670896 348.42396482 72.09399414 350.40405273 C72.57223633 351.06405273 73.05047852 351.72405273 73.54321289 352.40405273 C78.10108995 358.79756795 78.06009296 365.71905232 77.23071289 373.40405273 C76.1509732 376.23931324 74.89656399 378.69335913 73.32446289 381.28295898 C71.92517333 383.59883314 71.92517333 383.59883314 72.23071289 387.40405273 C73.038849 389.21611581 73.038849 389.21611581 74.16821289 390.90405273 C78.14583228 397.17700088 77.86614229 404.16862996 77.23071289 411.40405273 C76.246414 414.64150976 74.8854345 417.46299645 73.23071289 420.40405273 C72.55942064 421.73506323 71.89142059 423.06775653 71.23071289 424.40405273 C72.22071289 425.88905273 72.22071289 425.88905273 73.23071289 427.40405273 C76.58574765 427.76963391 76.58574765 427.76963391 80.35571289 427.59155273 C81.63704102 427.56448242 82.91836914 427.53741211 84.23852539 427.50952148 C85.22594727 427.4747168 86.21336914 427.43991211 87.23071289 427.40405273 C87.23310124 426.38290123 87.2354896 425.36174973 87.23795033 424.30965424 C87.29686451 399.41023914 87.37282061 374.51091989 87.4664278 349.61161041 C87.51130587 337.57026548 87.55073884 325.5289496 87.57714844 313.48754883 C87.60019334 302.98667475 87.63366349 292.48589322 87.67941445 281.98509264 C87.70325932 276.43008606 87.72204519 270.87517064 87.7283268 265.32011414 C87.73441736 260.08012481 87.75455909 254.84036848 87.7849884 249.60046577 C87.79370542 247.68825975 87.79750453 245.7760232 87.79572105 243.86379814 C87.78672605 229.75590675 87.92310798 214.73622412 94.85571289 202.02905273 C95.20126221 201.37042236 95.54681152 200.71179199 95.90283203 200.03320312 C103.98790878 185.24890751 117.94375989 174.63424789 134.02148438 169.85107422 C143.85868656 167.44980158 153.99301935 167.92146321 164.05883789 167.89233398 C166.26130154 167.87546472 168.4637557 167.8573115 170.66619873 167.8379364 C176.42654451 167.79067438 182.18685178 167.76071152 187.94732666 167.73449707 C194.87846136 167.69929724 201.80944824 167.64235287 208.74046326 167.5891037 C219.23719369 167.51086927 229.73373432 167.46005207 240.23071289 167.40405273 C240.23071289 141.33405273 240.23071289 115.26405273 240.23071289 88.40405273 C220.70998775 88.19406685 220.70998775 88.19406685 201.18896484 88.01611328 C198.7406257 87.98382662 196.29230053 87.95045338 193.84399414 87.91577148 C192.57406616 87.90952759 191.30413818 87.90328369 189.99572754 87.89685059 C188.77816772 87.8769104 187.56060791 87.85697021 186.30615234 87.83642578 C185.25136185 87.82532272 184.19657135 87.81421967 183.1098175 87.80278015 C179.8099868 87.34578635 177.90456898 86.36153348 175.23071289 84.40405273 C173.84161769 81.62586233 174.06739738 79.31870529 174.02539062 76.21020508 C174.0054454 74.90900726 173.98550018 73.60780945 173.96495056 72.2671814 C173.94796616 70.84145223 173.93108736 69.41572181 173.91430664 67.98999023 C173.89373768 66.5355266 173.87274123 65.08106896 173.85133362 63.62661743 C173.79610685 59.79619186 173.74670029 55.96571228 173.69848633 52.13519287 C173.64827569 48.22736803 173.59258735 44.31962173 173.53735352 40.41186523 C173.42976456 32.74266089 173.32832127 25.07339129 173.23071289 17.40405273 C148.7609188 17.31054026 124.29115157 17.24003958 99.82121468 17.19680405 C88.45895534 17.17619392 77.09680714 17.14810283 65.73461914 17.10229492 C55.82935411 17.06237985 45.92416959 17.03660866 36.01882637 17.02769876 C30.77579713 17.02249195 25.53299818 17.01028616 20.29004288 16.98113251 C15.35049737 16.9538897 10.41127602 16.94562566 5.47166252 16.95162201 C3.66333057 16.95052573 1.85498726 16.94262486 0.0467205 16.92723083 C-12.57444154 16.82509712 -23.79709787 17.44766927 -32.76928711 27.40405273 Z M190.23071289 30.40405273 C190.23071289 43.93405273 190.23071289 57.46405273 190.23071289 71.40405273 C203.10071289 71.40405273 215.97071289 71.40405273 229.23071289 71.40405273 C224.16240286 65.49087266 224.16240286 65.49087266 218.79321289 59.96655273 C216.0275006 57.23765525 213.37656416 54.48515889 210.85571289 51.52905273 C207.93150032 48.11291655 204.80495394 44.93524752 201.60571289 41.77905273 C197.90952248 38.12855699 194.49820871 34.43396425 191.23071289 30.40405273 C190.90071289 30.40405273 190.57071289 30.40405273 190.23071289 30.40405273 Z M113.23071289 201.40405273 C104.85305397 213.16317036 103.07048652 224.66720109 103.09700012 238.78887939 C103.09473457 239.68986193 103.09246901 240.59084447 103.0901348 241.51912951 C103.08384369 244.5149636 103.084621 247.51075187 103.08544922 250.5065918 C103.08245467 252.66413938 103.07905146 254.82168643 103.07527161 256.97923279 C103.06645743 262.82443049 103.06409458 268.66961354 103.06345582 274.51481724 C103.06274384 278.17120324 103.06060672 281.82758556 103.0579586 285.48397064 C103.04871367 298.25274389 103.04462264 311.02150672 103.04541016 323.7902832 C103.0460107 335.67186608 103.03546133 347.55340352 103.01966649 359.43497491 C103.00656894 369.65353618 103.00122719 379.87208263 103.00186557 390.09065223 C103.0021199 396.18590122 102.99930418 402.28110981 102.98868752 408.3763504 C102.97896925 414.11211699 102.97895286 419.84780485 102.98620415 425.5835743 C102.98724536 427.6808973 102.98491479 429.7782253 102.97884369 431.87553978 C102.92924465 450.20663539 103.00891892 468.70075589 116.51586914 482.88842773 C125.80214786 491.09589047 136.25017532 496.50554041 148.74989319 496.55122375 C149.7295558 496.55673879 149.7295558 496.55673879 150.72900957 496.56236523 C152.91586466 496.5733715 155.10267218 496.57724074 157.28955078 496.58105469 C158.85848134 496.5873218 160.42741042 496.59396883 161.99633789 496.60096741 C167.14867117 496.62198617 172.30100467 496.6323699 177.45336914 496.64233398 C179.22997999 496.64638279 181.00659068 496.65049975 182.78320122 496.65468407 C191.13343204 496.67373341 199.48365405 496.68796322 207.83390242 496.69629604 C217.45675252 496.70605841 227.07937198 496.73235284 236.70214087 496.77279693 C244.14946751 496.80301774 251.59672827 496.81777068 259.04411501 496.82107705 C263.48731409 496.82342133 267.93026671 496.83230004 272.37339973 496.85753822 C276.55874241 496.88092771 280.74367827 496.88500885 284.92906952 496.87477684 C286.45800828 496.87428395 287.9869678 496.88053095 289.51584435 496.89433289 C303.62087915 497.01445232 315.95345087 493.90448434 326.64477539 484.21655273 C337.27322484 473.12599678 341.55770235 460.76513717 341.4914093 445.67082214 C341.49523485 444.73238207 341.4990604 443.79394199 341.50300187 442.82706434 C341.51326288 439.70447563 341.50935287 436.58207319 341.50537109 433.45947266 C341.50972141 431.2116326 341.51490563 428.96379403 341.52085876 426.71595764 C341.53422624 420.62495326 341.53482988 414.53401102 341.53229547 408.44299483 C341.53122413 403.3512317 341.53611334 398.25948106 341.54090089 393.16772062 C341.55262191 380.46455506 341.55177547 367.76143435 341.54534408 355.05826924 C341.54017756 344.04795176 341.5514259 333.03772283 341.5704423 322.02742287 C341.58985546 310.69982476 341.59777966 299.37228065 341.59431905 288.04466134 C341.59250921 281.69400555 341.59511248 275.34343083 341.60903358 268.99278831 C341.62164084 263.0181446 341.6196403 257.0436776 341.6066227 251.06903648 C341.60426361 248.88260335 341.60696752 246.69615766 341.61524582 244.50973892 C341.67830495 226.55300809 340.48337189 209.97225124 327.23071289 196.40405273 C314.51073363 185.31337419 301.52316182 183.10051333 285.0949707 183.11352539 C283.57780632 183.10753155 282.06064497 183.10072405 280.54348755 183.09317017 C276.44408831 183.07558932 272.3447727 183.07081813 268.24533939 183.06953859 C265.67775936 183.06811186 263.11020024 183.06383239 260.54262543 183.05854416 C251.56689619 183.04006957 242.59122614 183.03187026 233.61547852 183.03344727 C225.27835867 183.03464774 216.94149808 183.01355731 208.60444379 182.98195994 C201.42194071 182.95571849 194.2395219 182.94508327 187.05697131 182.94635808 C182.77811468 182.94686544 178.49948867 182.94130873 174.22068024 182.92000198 C170.19200909 182.90048643 166.16378542 182.90058488 162.1350975 182.91503525 C160.66666629 182.91710811 159.19820606 182.9125146 157.72982407 182.90031433 C140.19673464 182.76421236 124.67017699 187.55369083 113.23071289 201.40405273 Z M-76.20678711 323.27905273 C-77.28709716 327.36022403 -77.28839985 330.31638794 -75.45678711 334.15405273 C-72.72147611 337.80113406 -70.12813613 338.76694765 -65.76928711 339.40405273 C-64.11613786 339.49228661 -62.46007966 339.53447454 -60.80458069 339.5377655 C-59.83033646 339.54203049 -58.85609222 339.54629547 -57.85232544 339.5506897 C-56.26640091 339.55000992 -56.26640091 339.55000992 -54.6484375 339.54931641 C-53.52593094 339.55267502 -52.40342438 339.55603363 -51.24690247 339.55949402 C-47.53690484 339.56899173 -43.82695239 339.57094645 -40.11694336 339.57202148 C-37.53771445 339.57523453 -34.95848573 339.57859864 -32.3792572 339.58210754 C-26.97321065 339.58809561 -21.56718202 339.58999058 -16.16113281 339.58935547 C-9.92008671 339.5887546 -3.67912702 339.59931089 2.56189722 339.61509913 C8.57561674 339.62976803 14.58928945 339.63334308 20.60302925 339.63274574 C23.15750036 339.63392624 25.71197211 339.63835189 28.26643181 339.64607811 C31.83785057 339.65586999 35.40904643 339.65300311 38.98046875 339.64697266 C40.03572754 339.65259216 41.09098633 339.65821167 42.17822266 339.66400146 C51.00570848 339.63166776 51.00570848 339.63166776 58.54321289 335.40405273 C60.5970555 332.9698689 61.181449 331.83757497 61.54321289 328.65405273 C61.14556924 324.51855878 59.88947678 322.56582601 57.23071289 319.40405273 C53.77180472 317.68564025 50.96029155 317.15139787 47.12088013 317.1366272 C45.61119659 317.12383224 45.61119659 317.12383224 44.0710144 317.11077881 C42.43134201 317.11213837 42.43134201 317.11213837 40.75854492 317.11352539 C39.0186731 317.10344955 39.0186731 317.10344955 37.24365234 317.09317017 C33.40856648 317.07416939 29.5736554 317.07026495 25.73852539 317.06811523 C23.74601922 317.06331338 21.75351301 317.05850804 19.76100814 317.0531944 C13.4968278 317.03692605 7.23270491 317.03202404 0.96850586 317.03344727 C-5.48279781 317.03464846 -11.93376681 317.01354777 -18.3849858 316.98195994 C-23.93336136 316.95576584 -29.48162782 316.94508127 -35.0300647 316.94635808 C-38.33967766 316.94686679 -41.64892682 316.93938239 -44.95849228 316.92000198 C-48.65205377 316.90039737 -52.3447546 316.90615931 -56.03833008 316.91821289 C-57.67192978 316.90135437 -57.67192978 316.90135437 -59.33853149 316.88415527 C-66.11108787 316.94029111 -71.79490741 317.52442704 -76.20678711 323.27905273 Z M-75.76928711 361.40405273 C-77.13881384 364.14310619 -76.89550072 366.37492606 -76.76928711 369.40405273 C-76.43928711 370.06405273 -76.10928711 370.72405273 -75.76928711 371.40405273 C-74.56151611 371.41807129 -74.56151611 371.41807129 -73.3293457 371.43237305 C-44.09361485 371.85917204 -44.09361485 371.85917204 -32.76928711 376.40405273 C-29.13076037 377.61689498 -25.7852102 377.55951257 -21.99658203 377.56518555 C-21.20598892 377.57015045 -20.41539581 377.57511536 -19.60084534 377.58023071 C-16.98380667 377.59484254 -14.36682863 377.60165294 -11.74975586 377.60717773 C-9.92995706 377.61293029 -8.11015827 377.61868801 -6.2903595 377.62445068 C-2.47302976 377.63495809 1.34427893 377.64080236 5.16162109 377.64428711 C10.04751756 377.64976924 14.93313498 377.67379233 19.81894398 377.70225906 C23.57908433 377.72090494 27.33915776 377.7260921 31.09934044 377.72762299 C32.90023002 377.73064598 34.70111852 377.73866258 36.50196266 377.75180817 C39.02479756 377.76890844 41.54695449 377.76697877 44.06982422 377.76049805 C44.81029999 377.76971283 45.55077576 377.77892761 46.31369019 377.78842163 C51.0233082 377.75062137 54.23181722 376.89231273 58.23071289 374.40405273 C60.46343132 371.65036667 61.16603617 369.92146649 61.60571289 366.40405273 C61.17768484 362.97982832 60.29153355 361.15181361 58.23071289 358.40405273 C54.94693125 356.21486497 53.97541328 356.14934542 50.1648407 356.12989807 C48.59400726 356.11493538 48.59400726 356.11493538 46.99143982 356.09967041 C45.26849449 356.0986734 45.26849449 356.0986734 43.51074219 356.09765625 C41.69574722 356.08517097 41.69574722 356.08517097 39.84408569 356.07243347 C36.52364771 356.05244341 33.20346069 356.04168847 29.88298392 356.03660703 C27.80763199 356.03296372 25.73230418 356.02672376 23.65696144 356.01960564 C16.41403773 355.9951067 9.17118567 355.9820587 1.92822266 355.97851562 C-4.81849693 355.97488195 -11.56476114 355.9450004 -18.31134158 355.90311104 C-24.1067928 355.86839146 -29.90209326 355.85296689 -35.69764775 355.85226959 C-39.15765965 355.8514772 -42.61720793 355.84275749 -46.0771122 355.81427193 C-49.93863072 355.78319144 -53.79949767 355.79215897 -57.66113281 355.8046875 C-59.3749691 355.78243607 -59.3749691 355.78243607 -61.12342834 355.75973511 C-67.79785361 355.8214646 -71.2505039 356.33300004 -75.76928711 361.40405273 Z M-99.76928711 406.40405273 C-109.83593798 418.52291783 -111.94557329 433.16161812 -110.76928711 448.40405273 C-108.32072918 462.19562901 -100.8787595 474.97207716 -89.39038086 483.08374023 C-75.44733106 491.85542415 -61.24773065 494.5595383 -45.01538086 491.75561523 C-30.88785274 487.77746652 -19.83118877 479.19830828 -12.45678711 466.59155273 C-5.08383552 453.24205525 -3.23833096 438.27004287 -7.33178711 423.46655273 C-12.81661727 408.15151642 -23.0514216 398.38956737 -37.30053711 391.11108398 C-59.48261277 380.87035905 -83.62941433 389.62193588 -99.76928711 406.40405273 Z M-111.76928711 393.40405273 C-117.1065987 397.33436062 -121.7611994 401.10303351 -125.76928711 406.40405273 C-122.47738705 406.90596655 -122.47738705 406.90596655 -118.76928711 406.40405273 C-116.70906866 404.36507365 -115.36814329 402.77672107 -113.83178711 400.40405273 C-113.43411133 399.83170898 -113.03643555 399.25936523 -112.62670898 398.66967773 C-111.65316553 397.26214503 -110.70826499 395.83487617 -109.76928711 394.40405273 C-110.42928711 394.07405273 -111.08928711 393.74405273 -111.76928711 393.40405273 Z M-5.76928711 394.40405273 C-5.32198242 395.08209961 -4.87467773 395.76014648 -4.41381836 396.45874023 C-0.42577813 402.59811134 3.11281394 408.78031348 6.23071289 415.40405273 C12.8142373 415.50566562 19.39755866 415.57560743 25.98168945 415.6237793 C28.2203731 415.64386589 30.45900447 415.67114054 32.69750977 415.70581055 C35.91964638 415.75445737 39.14108791 415.77705148 42.36352539 415.79467773 C43.85917526 415.82564545 43.85917526 415.82564545 45.38504028 415.85723877 C51.33136498 415.85914891 54.71978558 415.39355323 59.23071289 411.40405273 C61.74321872 407.63529398 61.76087375 405.87255139 61.23071289 401.40405273 C59.44919222 398.43043645 57.37764064 395.97751661 54.23071289 394.40405273 C52.32089343 394.31285603 50.40784103 394.28652736 48.49584961 394.29052734 C46.69420853 394.29064064 46.69420853 394.29064064 44.85617065 394.29075623 C43.55406647 394.29591751 42.25196228 394.3010788 40.91040039 394.30639648 C39.56804456 394.30826135 38.22568805 394.30968493 36.8833313 394.3106842 C33.34875614 394.31450395 29.81422202 394.32432961 26.27966309 394.33538818 C22.67350825 394.34561396 19.06734679 394.35018433 15.46118164 394.35522461 C8.38434193 394.36595236 1.30753009 394.38302229 -5.76928711 394.40405273 Z M-135.76928711 422.40405273 C-137.27988439 426.46378293 -137.76928711 428.95015941 -137.76928711 433.40405273 C-134.13928711 433.40405273 -130.50928711 433.40405273 -126.76928711 433.40405273 C-126.10928711 429.77405273 -125.44928711 426.14405273 -124.76928711 422.40405273 C-128.39928711 422.40405273 -132.02928711 422.40405273 -135.76928711 422.40405273 Z M10.23071289 432.40405273 C9.73571289 442.79905273 9.73571289 442.79905273 9.23071289 453.40405273 C15.53068819 453.51901579 21.82700765 453.6185027 28.12719727 453.67871094 C30.26892445 453.70381436 32.4105663 453.73790441 34.55200195 453.78125 C37.63522419 453.84208424 40.71731132 453.87030454 43.80102539 453.89233398 C45.23105392 453.93104362 45.23105392 453.93104362 46.68997192 453.97053528 C51.16697673 453.9724129 54.2546525 453.88070645 57.82006836 450.99853516 C60.6164176 447.98893384 61.13819187 447.20590154 61.60571289 443.15405273 C61.1092705 438.18962887 59.75563877 436.84700359 56.23071289 433.40405273 C53.45009314 432.47717949 51.8101943 432.28211877 48.94287109 432.29052734 C48.08220535 432.29060287 47.22153961 432.29067841 46.33479309 432.29075623 C45.40970444 432.29591751 44.48461578 432.3010788 43.53149414 432.30639648 C42.58130905 432.30781143 41.63112396 432.30922638 40.65214539 432.3106842 C37.6158026 432.31628398 34.57953341 432.32883642 31.54321289 432.34155273 C29.48527125 432.34656776 27.42732845 432.35113067 25.36938477 432.35522461 C20.3231096 432.36540266 15.27699369 432.38497817 10.23071289 432.40405273 Z M-137.76928711 449.40405273 C-137.48053711 450.82717773 -137.19178711 452.25030273 -136.89428711 453.71655273 C-136.73186523 454.51706055 -136.56944336 455.31756836 -136.40209961 456.14233398 C-135.82449712 458.65706391 -135.82449712 458.65706391 -133.76928711 461.40405273 C-131.332354 461.7682132 -131.332354 461.7682132 -128.64428711 461.59155273 C-126.23116211 461.49874023 -126.23116211 461.49874023 -123.76928711 461.40405273 C-124.75928711 457.44405273 -125.74928711 453.48405273 -126.76928711 449.40405273 C-130.39928711 449.40405273 -134.02928711 449.40405273 -137.76928711 449.40405273 Z M-2.76928711 480.40405273 C-4.27217326 482.43094502 -5.89547158 484.13235732 -7.64428711 485.96655273 C-10.35513037 488.34001194 -10.35513037 488.34001194 -11.76928711 491.40405273 C-3.26766811 491.52008293 5.23361817 491.60883598 13.73583412 491.66311359 C17.68411929 491.689169 21.63186136 491.72449099 25.57983398 491.78125 C29.39242233 491.83571741 33.20448949 491.86550378 37.01743698 491.87843895 C38.46950863 491.88765268 39.92155287 491.90564562 41.37340164 491.93270302 C50.26144835 492.43992633 50.26144835 492.43992633 58.10717773 488.99853516 C60.84888264 485.64878832 61.42892044 484.25885586 61.10571289 480.02905273 C60.66936088 476.41024002 60.44825967 475.62717763 57.79321289 472.90405273 C54.35117371 470.88920053 52.47438552 470.25982121 48.5090332 470.13183594 C47.52751282 470.09963455 46.54599243 470.06743317 45.534729 470.03425598 C41.0391238 469.9235734 36.54365637 469.84123008 32.04711914 469.77929688 C29.67624505 469.73758585 27.30563296 469.67616948 24.93579102 469.59472656 C21.51756318 469.47914928 18.10371307 469.42906547 14.68383789 469.39233398 C13.09916718 469.31962029 13.09916718 469.31962029 11.48248291 469.24543762 C2.69257162 469.26729798 0.79050688 472.85819655 -2.76928711 480.40405273 Z M-122.76928711 477.40405273 C-119.33566809 481.03964934 -115.97192641 483.7651862 -111.76928711 486.40405273 C-111.10928711 486.07405273 -110.44928711 485.74405273 -109.76928711 485.40405273 C-111.54307071 482.49322837 -113.33976105 479.80722818 -115.76928711 477.40405273 C-119.52439917 476.73367181 -119.52439917 476.73367181 -122.76928711 477.40405273 Z " fill="#e52b50" transform="translate(154.769287109375,-0.404052734375)"/>
<path d="M0 0 C1.4827747 -0.00543056 2.965544 -0.01255843 4.44830322 -0.02124023 C8.44839134 -0.03936583 12.44806353 -0.03245106 16.44815826 -0.01972389 C20.65018265 -0.00954001 24.85217332 -0.01900444 29.05419922 -0.02526855 C36.10846294 -0.03252936 43.1625587 -0.02299856 50.21679688 -0.00390625 C58.35237273 0.01785954 66.48754749 0.01080706 74.62311363 -0.01121187 C81.62981771 -0.0294107 88.63640162 -0.03190237 95.64312172 -0.0214572 C99.8184427 -0.01524681 103.99357565 -0.0143185 108.16888428 -0.02760315 C112.09582889 -0.03922663 116.02226043 -0.03101873 119.94915009 -0.00802612 C121.38335064 -0.00277346 122.81759499 -0.00419325 124.25177765 -0.01307678 C134.05038893 -0.06813772 141.45045443 1.14566328 149.8828125 6.20507812 C156.21244202 12.89640076 158.22635876 20.05997326 158.2734375 29.06054688 C158.27913757 29.9029744 158.28483765 30.74540192 158.29071045 31.61335754 C158.30015649 33.39790595 158.30669286 35.18247177 158.31054688 36.96704102 C158.32021436 39.67756276 158.35122515 42.38731366 158.3828125 45.09765625 C158.38934685 46.83528198 158.39459562 48.57291311 158.3984375 50.31054688 C158.4107843 51.11292282 158.4231311 51.91529877 158.43585205 52.74198914 C158.40607467 60.38723237 156.4234988 67.21622832 150.95046997 72.79151917 C141.49847262 81.46882677 129.90615549 80.23399359 117.890625 80.14648438 C115.82941564 80.14731394 113.76820635 80.1497766 111.70700073 80.15379333 C107.40504856 80.1566411 103.10362002 80.14204225 98.80175781 80.11450195 C93.28681084 80.08029202 87.77279161 80.08648991 82.25779915 80.10516453 C78.00957485 80.11572355 73.76156704 80.10680881 69.51336288 80.09177971 C67.4791821 80.08659805 65.44497873 80.0870795 63.41080093 80.09332466 C60.57431416 80.09876863 57.73916622 80.07843291 54.90283203 80.05102539 C54.0633049 80.05755127 53.22377777 80.06407715 52.35881042 80.07080078 C48.74458114 80.0113498 46.52094539 79.84146524 43.54562378 77.70298767 C41.39298678 74.51424132 41.60042674 72.2766642 42.0703125 68.51757812 C43.83046381 65.33254243 44.56922166 64.6846084 48.0703125 63.51757812 C50.83255654 63.40762613 53.57089544 63.35305986 56.33374023 63.34399414 C57.17631378 63.33730713 58.01888733 63.33062012 58.88699341 63.32373047 C60.71707654 63.30968035 62.54717719 63.29778617 64.37728691 63.28778267 C67.27291614 63.27137667 70.16841535 63.24813958 73.0639801 63.22288513 C81.29690072 63.15209332 89.52987397 63.09195052 97.76293945 63.04077148 C102.79797842 63.00899325 107.83286712 62.96772247 112.8677845 62.9205761 C114.78750979 62.90455131 116.70726969 62.89223195 118.62704277 62.8836689 C121.31068066 62.87152485 123.99396468 62.84737941 126.67749023 62.82055664 C127.86912025 62.81967293 127.86912025 62.81967293 129.08482361 62.81877136 C134.38636236 62.74864246 134.38636236 62.74864246 139.0703125 60.51757812 C141.62307125 57.06876758 141.39285589 53.20940118 141.40625 49.08398438 C141.4129068 48.36903305 141.4195636 47.65408173 141.42642212 46.91746521 C141.4365242 45.4087887 141.4412399 43.90006772 141.44091797 42.39135742 C141.44529196 40.09088142 141.48163448 37.79232442 141.51953125 35.4921875 C141.52539997 34.02279299 141.529369 32.5533894 141.53125 31.08398438 C141.55280655 30.05876427 141.55280655 30.05876427 141.57479858 29.01283264 C141.52952688 24.24970902 140.42762411 21.86433215 137.0703125 18.51757812 C134.37912582 17.17198479 132.29730563 17.38547251 129.28276062 17.37713623 C128.05035645 17.37142609 126.81795227 17.36571594 125.54820251 17.35983276 C124.17495738 17.35858734 122.80171212 17.35746226 121.4284668 17.35644531 C119.98802564 17.35181802 118.54758571 17.34679349 117.10714722 17.34140015 C113.18763391 17.32826475 109.26813775 17.32182887 105.34860587 17.31738949 C102.90056677 17.31446035 100.45253236 17.31035582 98.00449562 17.30588531 C90.34731654 17.29220683 82.69014819 17.28254213 75.03295773 17.27868342 C66.18999121 17.2742029 57.34717928 17.25665681 48.50425977 17.22768283 C41.67192285 17.20607277 34.83962945 17.19597949 28.00725871 17.19464231 C23.92532305 17.1935937 19.84353264 17.18767444 15.76163292 17.16982269 C11.92110343 17.15335381 8.08082854 17.15118064 4.24027634 17.1599617 C2.83138027 17.16073274 1.42247059 17.15638049 0.01360893 17.14650345 C-1.91128074 17.13380123 -3.8362725 17.1414462 -5.76118469 17.15008545 C-6.83800664 17.14861889 -7.91482859 17.14715233 -9.0242815 17.14564133 C-12.35178725 17.57161341 -14.22777336 18.56507626 -16.9296875 20.51757812 C-20.45346259 25.28488207 -19.26280679 32.11307175 -19.24536133 37.78930664 C-19.24220273 39.94468828 -19.26567177 42.09869426 -19.29101562 44.25390625 C-19.29328906 45.63215974 -19.29399191 47.01041689 -19.29296875 48.38867188 C-19.29594971 49.63575928 -19.29893066 50.88284668 -19.30200195 52.16772461 C-18.89877341 55.79572382 -18.13017928 57.6368346 -15.9296875 60.51757812 C-12.33774261 62.91220805 -9.73994837 62.79700086 -5.59375 62.79101562 C-4.12238826 62.81130727 -2.65103415 62.83215811 -1.1796875 62.85351562 C1.13320354 62.87609478 3.44579295 62.89257934 5.75878906 62.8984375 C7.99599351 62.90798596 10.23184928 62.94178959 12.46875 62.97851562 C13.49867569 62.97094742 13.49867569 62.97094742 14.54940796 62.96322632 C19.30074289 63.06008427 21.740408 64.14395755 25.0703125 67.51757812 C25.69921875 69.51757812 25.69921875 69.51757812 25.6328125 71.51757812 C25.63474609 72.50757813 25.63474609 72.50757813 25.63671875 73.51757812 C24.78689509 76.51833479 23.54494978 77.61361703 21.0703125 79.51757812 C18.20334429 79.90386318 15.72980762 80.055787 12.8671875 80.01367188 C12.07056702 80.01512711 11.27394653 80.01658234 10.45318604 80.01808167 C8.76872094 80.01642385 7.08424051 80.00487552 5.39990234 79.98413086 C2.84275618 79.9553309 0.28770532 79.96349273 -2.26953125 79.9765625 C-3.91146828 79.97031951 -5.55339881 79.9619242 -7.1953125 79.95117188 C-8.3285495 79.95557533 -8.3285495 79.95557533 -9.48468018 79.96006775 C-16.8312861 79.83193401 -23.66847826 77.91724024 -28.9296875 72.51757812 C-34.26488048 64.84010531 -36.07027926 59.08668091 -36.16796875 49.75976562 C-36.1760405 49.0160672 -36.18411224 48.27236877 -36.19242859 47.50613403 C-36.20621744 45.93445122 -36.21696269 44.36273912 -36.22485352 42.79101562 C-36.23633253 41.20270856 -36.2567194 39.61443883 -36.28637695 38.02636719 C-36.49141615 27.02526969 -36.5727262 16.28914624 -28.8046875 7.58007812 C-20.23453732 0.26338277 -10.84502323 -0.06717563 0 0 Z " fill="#e52b50" transform="translate(315.9296875,198.482421875)"/>
<path d="M0 0 C1.24587891 -0.02449219 2.49175781 -0.04898437 3.77539062 -0.07421875 C11.59889233 -0.09912114 17.67246399 0.25914367 23.69799805 5.75195312 C28.96749972 11.53718524 29.4876907 17.64541167 29.49389648 25.06738281 C29.50222 25.92026382 29.51054352 26.77314484 29.51911926 27.65187073 C29.54313782 30.46066915 29.55198196 33.26923489 29.55859375 36.078125 C29.56756716 38.04099595 29.57668913 40.00386623 29.58595276 41.96673584 C29.60242383 46.07891498 29.61013929 50.1910129 29.61303711 54.30322266 C29.61841501 59.55317215 29.65607895 64.80235009 29.70178127 70.05208206 C29.7316361 74.10663589 29.73876252 78.16100594 29.73976326 82.2156601 C29.7439498 84.15002725 29.75632069 86.08439575 29.77728081 88.01865387 C29.9787716 108.22274099 29.9787716 108.22274099 24.1875 115.375 C16.62428521 122.34689108 10.51338447 122.6053782 0.5 122.6875 C-0.65951172 122.71650391 -1.81902344 122.74550781 -3.01367188 122.77539062 C-11.04614546 122.83475513 -16.72159663 121.97625857 -22.8359375 116.59375 C-23.50496094 115.74296875 -23.50496094 115.74296875 -24.1875 114.875 C-24.87972656 114.02421875 -24.87972656 114.02421875 -25.5859375 113.15625 C-28.90954689 108.32960706 -29.1041332 104.27441144 -29.0871582 98.47900391 C-29.09226913 97.58097549 -29.09738007 96.68294708 -29.10264587 95.75770569 C-29.11654628 92.7889235 -29.11558462 89.82037337 -29.11328125 86.8515625 C-29.11716821 84.78656935 -29.12150288 82.721577 -29.12626648 80.65658569 C-29.13372987 76.32734588 -29.13343674 71.99818761 -29.12817383 67.66894531 C-29.1223821 62.12504113 -29.13930258 56.58147135 -29.1625185 51.03762245 C-29.17726186 46.77220716 -29.17812666 42.50687226 -29.17500877 38.241436 C-29.17552178 36.19773064 -29.18075566 34.15402076 -29.19082069 32.11034012 C-29.20317792 29.24993525 -29.19639733 26.39017988 -29.18481445 23.52978516 C-29.19245819 22.68802231 -29.20010193 21.84625946 -29.20797729 20.97898865 C-29.15653389 15.22187024 -28.14973626 10.96700609 -24.1640625 6.546875 C-23.59429687 6.07765625 -23.02453125 5.6084375 -22.4375 5.125 C-21.59058594 4.40570313 -21.59058594 4.40570313 -20.7265625 3.671875 C-14.31499036 -0.67229225 -7.45615085 0.00764341 0 0 Z M-12.8125 18.375 C-13.01625727 21.06933067 -13.09568895 23.66130499 -13.0871582 26.35717773 C-13.09226913 27.18170441 -13.09738007 28.00623108 -13.10264587 28.85574341 C-13.11658266 31.59010003 -13.11558203 34.32420576 -13.11328125 37.05859375 C-13.117166 38.95427037 -13.12150021 40.84994612 -13.12626648 42.74562073 C-13.13373753 46.72277648 -13.13343107 50.69984348 -13.12817383 54.67700195 C-13.12237866 59.77959521 -13.13930704 64.88182555 -13.1625185 69.98435879 C-13.17723395 73.90051913 -13.17813052 77.81659164 -13.17500877 81.73277473 C-13.17552311 83.61428611 -13.18078183 85.49580225 -13.19082069 87.37728691 C-13.20312524 90.00624194 -13.19642965 92.63448454 -13.18481445 95.26342773 C-13.19245819 96.04431259 -13.20010193 96.82519745 -13.20797729 97.62974548 C-13.19230803 101.74738985 -13.19230803 101.74738985 -11.41555786 105.35671997 C-8.11924369 107.45057508 -4.15773031 106.84357545 -0.375 106.8125 C0.48416016 106.83248047 1.34332031 106.85246094 2.22851562 106.87304688 C3.4747168 106.87208008 3.4747168 106.87208008 4.74609375 106.87109375 C5.88002563 106.87387329 5.88002563 106.87387329 7.03686523 106.87670898 C10.17996402 106.14347388 11.22345072 104.93263395 13.1875 102.375 C13.57705502 99.56775362 13.72503089 97.15427635 13.68920898 94.34936523 C13.69461197 93.54405365 13.70001495 92.73874207 13.70558167 91.9090271 C13.71807754 89.25017418 13.70157425 86.59240216 13.68359375 83.93359375 C13.6837487 82.08561649 13.68523707 80.23763889 13.68800354 78.3896637 C13.68938786 74.51849994 13.67682276 70.64770654 13.65405273 66.77661133 C13.6256481 61.81078926 13.62841034 56.8455817 13.64114285 51.87971401 C13.6480919 48.06475053 13.64031995 44.2499295 13.62788582 40.43498421 C13.62336518 38.60372526 13.62303985 36.77245106 13.62695122 34.94119072 C13.62985639 32.38422058 13.61339106 29.82810276 13.59155273 27.27124023 C13.59605438 26.51219894 13.60055603 25.75315765 13.60519409 24.97111511 C13.55928859 20.93790082 13.55928859 20.93790082 11.80203247 17.40475464 C9.58330551 15.98964257 7.99203831 16.0025416 5.37109375 16.01171875 C4.44232422 16.01236328 3.51355469 16.01300781 2.55664062 16.01367188 C1.58919922 16.02978516 0.62175781 16.04589844 -0.375 16.0625 C-1.34630859 16.05927734 -2.31761719 16.05605469 -3.31835938 16.05273438 C-8.6045646 15.76346112 -8.6045646 15.76346112 -12.8125 18.375 Z " fill="#e52b50" transform="translate(445.8125,357.625)"/>
<path d="M0 0 C2.4375 1.4375 2.4375 1.4375 4 4 C4.31821008 7.03082057 4.23343667 9.96532334 4 13 C4.6290625 13.02578125 5.258125 13.0515625 5.90625 13.078125 C11.85728054 13.4724704 17.19494327 14.22289073 22 18 C23.89195331 21.42006944 24.2779418 22.98088008 23.25 26.75 C22 29 22 29 20 31 C16.0181867 31.39037385 13.55635471 31.27250027 9.9375 29.5 C4.47452763 26.88673303 -2.11570618 27.29054614 -8 28 C-11.05526234 29.48566328 -12.60237506 30.349341 -14.375 33.25 C-15.20601533 36.90646745 -14.98701011 39.38096294 -14 43 C-10.46422309 46.35511677 -6.8025906 48.12235699 -2.3125 49.9375 C-1.06693166 50.45647319 0.17785713 50.97732113 1.421875 51.5 C2.60265625 51.995 3.7834375 52.49 5 53 C12.9796288 56.45065029 20.13036057 60.38320986 23.875 68.625 C27.07935064 78.23805191 27.36952068 88.68967856 23 98 C18.52571966 104.69407834 12.94559726 109.21700105 5 111 C4.91363281 111.68707031 4.82726562 112.37414062 4.73828125 113.08203125 C3.5935641 120.42292379 3.5935641 120.42292379 0.75 123.1875 C-2.66934714 124.19776166 -4.6110843 124.10508121 -8 123 C-9.875 121.4375 -9.875 121.4375 -11 119 C-11.23407276 116.27955439 -11.13705174 113.74103485 -11 111 C-12.299375 110.79375 -13.59875 110.5875 -14.9375 110.375 C-21.83795093 108.82947313 -26.94914079 105.29500912 -31.625 100.0625 C-33.3698585 96.17622425 -33.15091255 94.06655769 -32 90 C-30.8125 88.0625 -30.8125 88.0625 -29 87 C-26.3125 86.375 -26.3125 86.375 -23 87 C-20.84266973 88.62434279 -18.94220314 90.37032572 -17.02734375 92.2734375 C-12.333201 96.27114674 -7.58648317 96.38168939 -1.66015625 96.24609375 C1.89604974 95.91710553 4.13627336 95.14779498 7 93 C10.079202 88.58647713 10.8500387 84.27433653 10 79 C8.06507138 73.38870701 5.75092425 71.5691915 0.5 68.875 C-3.72061538 66.93217705 -8.00485777 65.17681215 -12.3125 63.4375 C-20.11941231 60.20670209 -25.18177685 57.18116924 -29.05859375 49.453125 C-31.90040249 42.04791384 -31.37439025 34.47349061 -29 27 C-26.29070411 21.58140822 -22.1803184 18.02681439 -17 15 C-13.5 14.125 -13.5 14.125 -11 14 C-11.04640625 13.32453125 -11.0928125 12.6490625 -11.140625 11.953125 C-11.43299415 4.72743018 -11.43299415 4.72743018 -9.4375 1.375 C-6.03897329 -0.54211763 -3.84031465 -0.54861638 0 0 Z " fill="#e52b50" transform="translate(195,167)"/>
<path d="M0 0 C1.62254223 -0.01651195 3.24501314 -0.04373923 4.8671875 -0.08203125 C21.60521377 -0.47458209 21.60521377 -0.47458209 28.25952148 5.35009766 C33.65954705 12.31787258 32.47643854 21.28847764 32.50952148 29.66259766 C32.53014648 30.95617187 32.55077148 32.24974609 32.57202148 33.58251953 C32.6341401 48.76275724 32.6341401 48.76275724 27.80712891 53.89404297 C22.88974792 58.15005671 19.46238253 58.52890939 13.18139648 58.58837891 C12.37720276 58.59645065 11.57300903 58.6045224 10.7444458 58.61283875 C9.03969478 58.62668063 7.33491604 58.63740233 5.63012695 58.64526367 C3.03339404 58.66243975 0.43794673 58.70631849 -2.15844727 58.75048828 C-3.81599 58.76061871 -5.47354355 58.76913372 -7.13110352 58.77587891 C-7.90319153 58.79338699 -8.67527954 58.81089508 -9.47076416 58.82893372 C-14.69181985 58.80811971 -17.57383685 57.75452022 -21.74047852 54.35009766 C-27.93153377 47.65706495 -26.98849309 40.48023658 -27.03564453 31.81591797 C-27.04714527 30.34576783 -27.06756724 28.87565882 -27.09716797 27.40576172 C-27.40333925 12.18272023 -27.40333925 12.18272023 -22.74047852 5.35009766 C-16.12377946 -0.94383559 -8.55255754 0.06369017 0 0 Z M-10.74047852 16.35009766 C-10.74047852 24.93009766 -10.74047852 33.51009766 -10.74047852 42.35009766 C-2.16047852 42.35009766 6.41952148 42.35009766 15.25952148 42.35009766 C16.25211766 39.37230911 16.3884373 37.38766815 16.39233398 34.27978516 C16.39362305 33.30138672 16.39491211 32.32298828 16.39624023 31.31494141 C16.39043945 29.78546875 16.39043945 29.78546875 16.38452148 28.22509766 C16.38838867 27.19771484 16.39225586 26.17033203 16.39624023 25.11181641 C16.39495117 24.13599609 16.39366211 23.16017578 16.39233398 22.15478516 C16.39120605 21.25743652 16.39007813 20.36008789 16.38891602 19.43554688 C16.49117026 17.36109296 16.49117026 17.36109296 15.25952148 16.35009766 C13.33284641 16.26261558 11.40300287 16.24312432 9.47436523 16.25244141 C7.89449829 16.25618774 7.89449829 16.25618774 6.28271484 16.26000977 C4.26029663 16.27366577 4.26029663 16.27366577 2.19702148 16.28759766 C-2.07235352 16.30822266 -6.34172852 16.32884766 -10.74047852 16.35009766 Z " fill="#e52b50" transform="translate(306.740478515625,421.64990234375)"/>
<path d="M0 0 C1.62254223 -0.01651195 3.24501314 -0.04373923 4.8671875 -0.08203125 C21.61481513 -0.47480726 21.61481513 -0.47480726 28.25952148 5.35009766 C33.22323705 11.91501179 32.47718319 19.11430345 32.49975586 27.02978516 C32.50942519 29.07968293 32.54045788 31.12856136 32.57202148 33.17822266 C32.63305035 48.6795541 32.63305035 48.6795541 27.8425293 53.8918457 C22.88951938 58.25895824 18.61795916 58.52643646 12.30249023 58.58837891 C11.5219075 58.59645065 10.74132477 58.6045224 9.93708801 58.61283875 C8.28539234 58.62666085 6.63366834 58.63739138 4.98193359 58.64526367 C2.46648513 58.66246456 -0.04764428 58.70636372 -2.56274414 58.75048828 C-4.17015638 58.76061707 -5.77757977 58.7691326 -7.38500977 58.77587891 C-8.50562553 58.80214104 -8.50562553 58.80214104 -9.64888 58.82893372 C-14.84975601 58.80752183 -17.72776019 57.60891359 -21.74047852 54.35009766 C-27.93153377 47.65706495 -26.98849309 40.48023658 -27.03564453 31.81591797 C-27.04714527 30.34576783 -27.06756724 28.87565882 -27.09716797 27.40576172 C-27.40333925 12.18272023 -27.40333925 12.18272023 -22.74047852 5.35009766 C-16.12377946 -0.94383559 -8.55255754 0.06369017 0 0 Z M-10.74047852 16.35009766 C-10.74047852 24.93009766 -10.74047852 33.51009766 -10.74047852 42.35009766 C-1.83047852 42.35009766 7.07952148 42.35009766 16.25952148 42.35009766 C16.28014648 38.24572266 16.30077148 34.14134766 16.32202148 29.91259766 C16.33112549 28.61652588 16.34022949 27.3204541 16.34960938 25.98510742 C16.35210693 24.97246826 16.35460449 23.9598291 16.35717773 22.91650391 C16.36241455 21.87437744 16.36765137 20.83225098 16.37304688 19.75854492 C16.53257704 17.39881018 16.53257704 17.39881018 15.25952148 16.35009766 C13.33284641 16.26261558 11.40300287 16.24312432 9.47436523 16.25244141 C7.89449829 16.25618774 7.89449829 16.25618774 6.28271484 16.26000977 C4.26029663 16.27366577 4.26029663 16.27366577 2.19702148 16.28759766 C-2.07235352 16.30822266 -6.34172852 16.32884766 -10.74047852 16.35009766 Z " fill="#e52b50" transform="translate(306.740478515625,357.64990234375)"/>
<path d="M0 0 C0.80419373 -0.00807175 1.60838745 -0.01614349 2.43695068 -0.02445984 C4.1417017 -0.03830173 5.84648045 -0.04902342 7.55126953 -0.05688477 C10.14800244 -0.07406085 12.74344976 -0.11793959 15.33984375 -0.16210938 C16.99738648 -0.1722398 18.65494003 -0.18075481 20.3125 -0.1875 C21.47063202 -0.21376213 21.47063202 -0.21376213 22.65216064 -0.24055481 C27.8649305 -0.21977383 30.78194381 0.80604717 34.921875 4.23828125 C40.59681283 11.60036276 40.13639683 17.92958285 40.16210938 26.97290039 C40.1717951 29.03377967 40.20283578 31.09365212 40.234375 33.15429688 C40.26785205 41.67839037 40.17653453 47.38407917 34.546875 54.05078125 C28.11518347 59.41052419 20.83550891 58.6106063 12.88500977 58.60888672 C10.62634206 58.61324848 8.36964921 58.64956986 6.11132812 58.6875 C-1.45436717 58.74727205 -7.65891071 58.7139897 -14.078125 54.23828125 C-19.752368 47.10910415 -19.29541357 40.40577351 -19.31835938 31.72460938 C-19.32803003 29.51002947 -19.35904766 27.29639208 -19.390625 25.08203125 C-19.39715929 23.66016173 -19.40240809 22.2382856 -19.40625 20.81640625 C-19.4155957 19.5315332 -19.42494141 18.24666016 -19.43457031 16.92285156 C-18.97579405 12.18048759 -17.76453876 8.15212486 -14.54296875 4.49609375 C-9.36128041 0.6528978 -6.35046075 0.06012731 0 0 Z M-3.078125 16.23828125 C-3.078125 24.81828125 -3.078125 33.39828125 -3.078125 42.23828125 C1.19125 42.25890625 5.460625 42.27953125 9.859375 42.30078125 C11.20765381 42.30988525 12.55593262 42.31898926 13.94506836 42.32836914 C14.99831299 42.3308667 16.05155762 42.33336426 17.13671875 42.3359375 C18.22073975 42.34117432 19.30476074 42.34641113 20.42163086 42.35180664 C22.86237448 42.52255022 22.86237448 42.52255022 23.921875 41.23828125 C24.00925145 39.38458514 24.02885653 37.52760584 24.01953125 35.671875 C24.01703369 34.65923584 24.01453613 33.64659668 24.01196289 32.60327148 C24.00285889 31.30719971 23.99375488 30.01112793 23.984375 28.67578125 C23.9534375 22.51921875 23.9534375 22.51921875 23.921875 16.23828125 C15.011875 16.23828125 6.101875 16.23828125 -3.078125 16.23828125 Z " fill="#e52b50" transform="translate(299.078125,290.76171875)"/>
<path d="M0 0 C1.19567848 -0.00574036 1.19567848 -0.00574036 2.41551208 -0.01159668 C4.09041619 -0.01430341 5.76536346 -0.00702943 7.44018555 0.00976562 C9.99298813 0.03122389 12.54298616 0.00990954 15.09570312 -0.015625 C16.73047491 -0.01298205 18.36524496 -0.00785776 20 0 C20.75640274 -0.00809692 21.51280548 -0.01619385 22.29212952 -0.02453613 C27.43006145 0.06572508 30.4141331 1.07436248 34.43359375 4.53125 C38.54746312 9.31074962 39.02914174 12.96846507 38.96484375 19 C38.96867065 19.79853394 38.97249756 20.59706787 38.97644043 21.4197998 C38.97915086 23.10068022 38.97185063 24.78160343 38.95507812 26.46240234 C38.93365375 29.02407546 38.95490696 31.58294456 38.98046875 34.14453125 C38.97782532 35.78386031 38.97270001 37.42318763 38.96484375 39.0625 C38.97294067 39.82203979 38.9810376 40.58157959 38.98937988 41.36413574 C38.89919909 46.52057548 37.78193201 49.41423904 34.43359375 53.53125 C29.39597901 58.07739013 25.54283042 58.70056769 18.94921875 58.76953125 C18.21539978 58.777603 17.48158081 58.78567474 16.7255249 58.79399109 C15.17218371 58.80781199 13.61881241 58.81854306 12.06542969 58.82641602 C10.48460936 58.83792055 8.90382741 58.85834844 7.32324219 58.88793945 C5.03163423 58.93082923 2.74117937 58.94681465 0.44921875 58.95703125 C-0.59803375 58.98329338 -0.59803375 58.98329338 -1.66644287 59.01008606 C-7.15608079 58.9861331 -10.13868832 57.5326328 -14.56640625 54.53125 C-19.16098259 49.57394395 -19.73591498 45.62817163 -19.8046875 39.08203125 C-19.81275925 38.35058395 -19.82083099 37.61913666 -19.82914734 36.86552429 C-19.84296988 35.31637935 -19.85370022 33.76720419 -19.86157227 32.21801758 C-19.87306357 30.64403269 -19.89347029 29.0700859 -19.9230957 27.49633789 C-20.239998 10.65448572 -20.239998 10.65448572 -15.56640625 4.53125 C-10.24026944 0.83066584 -6.40922024 -0.06879168 0 0 Z M-3.56640625 16.53125 C-3.56640625 25.11125 -3.56640625 33.69125 -3.56640625 42.53125 C5.01359375 42.53125 13.59359375 42.53125 22.43359375 42.53125 C22.43359375 33.95125 22.43359375 25.37125 22.43359375 16.53125 C13.85359375 16.53125 5.27359375 16.53125 -3.56640625 16.53125 Z " fill="#e52b50" transform="translate(367.56640625,290.46875)"/>
<path d="M0 0 C0.7314473 -0.00807175 1.46289459 -0.01614349 2.21650696 -0.02445984 C3.7656519 -0.03828238 5.31482706 -0.04901272 6.86401367 -0.05688477 C8.43799856 -0.06837607 10.01194535 -0.08878279 11.58569336 -0.1184082 C28.42754553 -0.4353105 28.42754553 -0.4353105 34.55078125 4.23828125 C38.18194792 9.49112606 39.1521236 13.23688983 39.08203125 19.55078125 C39.08585815 20.32333252 39.08968506 21.09588379 39.09362793 21.8918457 C39.09633425 23.5154756 39.08906315 25.13915005 39.07226562 26.76269531 C39.05083473 29.23211906 39.07210802 31.69863427 39.09765625 34.16796875 C39.09501274 35.7539126 39.08988728 37.33985466 39.08203125 38.92578125 C39.09012817 39.65514893 39.0982251 40.3845166 39.10656738 41.13598633 C39.01304419 46.31053798 37.95637477 50.24326039 34.55078125 54.23828125 C29.86295477 58.23811562 25.18603768 58.83566487 19.203125 58.76953125 C18.04074059 58.77527161 18.04074059 58.77527161 16.85487366 58.78112793 C15.22704763 58.78383399 13.59917714 58.77656478 11.97143555 58.75976562 C9.49103338 58.73830506 7.01351726 58.75962397 4.53320312 58.78515625 C2.94400408 58.78251331 1.35480682 58.77738902 -0.234375 58.76953125 C-0.96890396 58.77762817 -1.70343292 58.7857251 -2.46022034 58.79406738 C-7.59376489 58.70129538 -10.48225014 57.445132 -14.44921875 54.23828125 C-19.01280196 49.18133769 -19.61270436 45.33547612 -19.65234375 38.71875 C-19.65804382 37.98255936 -19.6637439 37.24636871 -19.6696167 36.48786926 C-19.67905631 34.93032259 -19.68559656 33.37275605 -19.68945312 31.81518555 C-19.69914106 29.44479039 -19.7301655 27.07526922 -19.76171875 24.70507812 C-19.76825116 23.18880721 -19.7735007 21.67253012 -19.77734375 20.15625 C-19.78969055 19.45292038 -19.80203735 18.74959076 -19.8147583 18.02494812 C-19.79082467 12.67718615 -18.59066464 8.58606438 -14.94921875 4.59375 C-9.88927226 0.65384375 -6.23771559 0.06553226 0 0 Z M-3.44921875 16.23828125 C-3.44921875 24.81828125 -3.44921875 33.39828125 -3.44921875 42.23828125 C5.13078125 42.23828125 13.71078125 42.23828125 22.55078125 42.23828125 C22.55078125 33.65828125 22.55078125 25.07828125 22.55078125 16.23828125 C13.97078125 16.23828125 5.39078125 16.23828125 -3.44921875 16.23828125 Z " fill="#e52b50" transform="translate(367.44921875,357.76171875)"/>
<path d="M0 0 C0.7314473 -0.00807175 1.46289459 -0.01614349 2.21650696 -0.02445984 C3.7656519 -0.03828238 5.31482706 -0.04901272 6.86401367 -0.05688477 C8.43799856 -0.06837607 10.01194535 -0.08878279 11.58569336 -0.1184082 C28.42754553 -0.4353105 28.42754553 -0.4353105 34.55078125 4.23828125 C38.18194792 9.49112606 39.1521236 13.23688983 39.08203125 19.55078125 C39.08585815 20.32333252 39.08968506 21.09588379 39.09362793 21.8918457 C39.09633425 23.5154756 39.08906315 25.13915005 39.07226562 26.76269531 C39.05083473 29.23211906 39.07210802 31.69863427 39.09765625 34.16796875 C39.09501274 35.7539126 39.08988728 37.33985466 39.08203125 38.92578125 C39.09012817 39.65514893 39.0982251 40.3845166 39.10656738 41.13598633 C39.01304419 46.31053798 37.95637477 50.24326039 34.55078125 54.23828125 C29.86295477 58.23811562 25.18603768 58.83566487 19.203125 58.76953125 C18.04074059 58.77527161 18.04074059 58.77527161 16.85487366 58.78112793 C15.22704763 58.78383399 13.59917714 58.77656478 11.97143555 58.75976562 C9.49103338 58.73830506 7.01351726 58.75962397 4.53320312 58.78515625 C2.94400408 58.78251331 1.35480682 58.77738902 -0.234375 58.76953125 C-0.96890396 58.77762817 -1.70343292 58.7857251 -2.46022034 58.79406738 C-7.59376489 58.70129538 -10.48225014 57.445132 -14.44921875 54.23828125 C-19.01280196 49.18133769 -19.61270436 45.33547612 -19.65234375 38.71875 C-19.65804382 37.98255936 -19.6637439 37.24636871 -19.6696167 36.48786926 C-19.67905631 34.93032259 -19.68559656 33.37275605 -19.68945312 31.81518555 C-19.69914106 29.44479039 -19.7301655 27.07526922 -19.76171875 24.70507812 C-19.76825116 23.18880721 -19.7735007 21.67253012 -19.77734375 20.15625 C-19.78969055 19.45292038 -19.80203735 18.74959076 -19.8147583 18.02494812 C-19.79082467 12.67718615 -18.59066464 8.58606438 -14.94921875 4.59375 C-9.88927226 0.65384375 -6.23771559 0.06553226 0 0 Z M-3.44921875 16.23828125 C-3.44921875 24.81828125 -3.44921875 33.39828125 -3.44921875 42.23828125 C5.13078125 42.23828125 13.71078125 42.23828125 22.55078125 42.23828125 C22.55078125 33.65828125 22.55078125 25.07828125 22.55078125 16.23828125 C13.97078125 16.23828125 5.39078125 16.23828125 -3.44921875 16.23828125 Z " fill="#e52b50" transform="translate(367.44921875,421.76171875)"/>
<path d="M0 0 C0.79853394 -0.0038269 1.59706787 -0.00765381 2.4197998 -0.01159668 C4.10068022 -0.01430711 5.78160343 -0.00700688 7.46240234 0.00976562 C10.02407546 0.03119 12.58294456 0.00993679 15.14453125 -0.015625 C16.78386031 -0.01298157 18.42318763 -0.00785626 20.0625 0 C20.82203979 -0.00809692 21.58157959 -0.01619385 22.36413574 -0.02453613 C27.52057548 0.06564466 30.41423904 1.18291174 34.53125 4.53125 C40.54431639 11.19437762 39.78181938 17.90837982 39.82641602 26.41723633 C39.8379053 27.94272154 39.85830882 29.46816752 39.88793945 30.9934082 C40.19619519 46.86943978 40.19619519 46.86943978 35.53125 53.53125 C30.15585977 57.80962181 25.91791037 58.69303735 19.23046875 58.734375 C18.51647415 58.74007507 17.80247955 58.74577515 17.06684875 58.75164795 C15.55638098 58.76108651 14.04589273 58.76762739 12.53540039 58.77148438 C10.23742214 58.78117129 7.94034586 58.81219606 5.64257812 58.84375 C4.17188029 58.85028256 2.70117608 58.85553204 1.23046875 58.859375 C0.54901291 58.8717218 -0.13244293 58.8840686 -0.83454895 58.89678955 C-6.11437977 58.87243273 -10.21137345 57.63849224 -14.11328125 53.99609375 C-18.06874152 48.82356878 -18.64642101 45.85459116 -18.70703125 39.453125 C-18.715103 38.64893127 -18.72317474 37.84473755 -18.73149109 37.01617432 C-18.74533298 35.3114233 -18.75605467 33.60664455 -18.76391602 31.90185547 C-18.7810921 29.30512256 -18.82497084 26.70967524 -18.86914062 24.11328125 C-18.87927105 22.45573852 -18.88778606 20.79818497 -18.89453125 19.140625 C-18.91203934 18.36853699 -18.92954742 17.59644897 -18.94758606 16.80096436 C-18.92681492 11.5906628 -17.99411462 8.60233329 -14.46875 4.53125 C-9.68925038 0.41738063 -6.03153493 -0.06429799 0 0 Z M-2.46875 16.53125 C-2.46875 25.11125 -2.46875 33.69125 -2.46875 42.53125 C6.11125 42.53125 14.69125 42.53125 23.53125 42.53125 C23.53125 33.95125 23.53125 25.37125 23.53125 16.53125 C14.95125 16.53125 6.37125 16.53125 -2.46875 16.53125 Z " fill="#e52b50" transform="translate(435.46875,290.46875)"/>
<path d="M0 0 C1.18611374 -0.0112793 2.37222748 -0.02255859 3.59428406 -0.03417969 C4.89207291 -0.02608276 6.18986176 -0.01798584 7.52697754 -0.00964355 C8.91022987 -0.01506486 10.29347642 -0.02218756 11.67671204 -0.03088379 C15.43090025 -0.04911956 19.18464878 -0.04204887 22.93884468 -0.02936745 C26.86744497 -0.01924096 30.7960076 -0.02863214 34.72460938 -0.03491211 C41.32204956 -0.04218956 47.91931064 -0.03259834 54.51672363 -0.0135498 C62.14447746 0.00821926 69.77180363 0.00116795 77.3995471 -0.02085543 C83.94829326 -0.03900673 90.49691066 -0.04156911 97.04567385 -0.03110075 C100.95709016 -0.02486428 104.86830546 -0.02403424 108.77970886 -0.0372467 C112.45705371 -0.04880082 116.13384716 -0.0407883 119.81113243 -0.01766968 C121.804648 -0.00985661 123.79821019 -0.02174226 125.79170227 -0.03417969 C126.97781601 -0.02290039 128.16392975 -0.01162109 129.38598633 0 C130.93233639 0.00226215 130.93233639 0.00226215 132.50992584 0.00457001 C135.89117036 0.63891811 137.07802462 1.85108013 139.19299316 4.50793457 C139.9018162 7.41578338 139.53271105 9.45047357 139.19299316 12.50793457 C137.38136049 15.18224946 136.3153824 15.46713816 133.19299316 16.50793457 C131.35222865 16.60490898 129.50813443 16.64289886 127.66482544 16.64837646 C126.51518814 16.65408661 125.36555084 16.65979675 124.18107605 16.66567993 C122.91866592 16.66679779 121.6562558 16.66791565 120.35559082 16.66906738 C119.01352299 16.67369637 117.67145647 16.67872114 116.32939148 16.68411255 C112.68265599 16.69722991 109.03593891 16.70368009 105.38918352 16.70812321 C103.1108262 16.71105472 100.8324739 16.71515965 98.55411911 16.71962738 C91.42554009 16.73329994 84.29697256 16.74296804 77.16838133 16.74682927 C68.93951538 16.751311 60.71081546 16.76886515 52.48199999 16.79782987 C46.12097636 16.81944303 39.75999945 16.82953334 33.39893949 16.83087039 C29.59982443 16.83191859 25.80086549 16.8378296 22.00178909 16.85569 C18.42799274 16.87216471 14.85446997 16.87432929 11.28064919 16.86555099 C9.34573504 16.86441314 7.41083001 16.87813478 5.47596741 16.89230347 C3.74305199 16.88394974 3.74305199 16.88394974 1.97512817 16.87542725 C0.47245864 16.87762709 0.47245864 16.87762709 -1.06056786 16.87987137 C-4.29510865 16.44183333 -6.18219955 15.41833976 -8.80700684 13.50793457 C-10.35287559 10.41619706 -10.10060205 7.91363905 -9.80700684 4.50793457 C-6.86859861 0.61484443 -4.78706066 0.00700299 0 0 Z " fill="#e52b50" transform="translate(165.8070068359375,102.4920654296875)"/>
<path d="M0 0 C1.13700348 -0.0112793 2.27400696 -0.02255859 3.44546509 -0.03417969 C4.68355423 -0.02608276 5.92164337 -0.01798584 7.19725037 -0.00964355 C8.50828735 -0.01665283 9.81932434 -0.02366211 11.17008972 -0.03088379 C14.7589417 -0.04909322 18.34733289 -0.0420603 21.93619275 -0.02936745 C25.69395503 -0.01922939 29.45167828 -0.02863516 33.20944214 -0.03491211 C39.51843846 -0.0421853 45.82724735 -0.03260861 52.13621521 -0.0135498 C59.42942261 0.00822791 66.72218288 0.00116002 74.01537949 -0.02085543 C80.27964879 -0.03900765 86.5437835 -0.04156896 92.8080706 -0.03110075 C96.54844775 -0.02486599 100.28861471 -0.02402971 104.02897835 -0.0372467 C108.19731765 -0.05094782 112.3648859 -0.03195863 116.53318787 -0.00964355 C118.39335793 -0.02178894 118.39335793 -0.02178894 120.29110718 -0.03417969 C121.99238266 -0.01726074 121.99238266 -0.01726074 123.72802734 0 C125.20606008 0.00226215 125.20606008 0.00226215 126.71395206 0.00457001 C130.03229208 0.65034217 131.20834003 1.90792338 133.30052185 4.50793457 C134.39362568 7.55300952 134.42233924 9.07142227 133.55052185 12.19543457 C132.30052185 14.50793457 132.30052185 14.50793457 129.30052185 16.50793457 C126.83699989 16.76520348 126.83699989 16.76520348 123.84828186 16.77536011 C122.14906837 16.78815506 122.14906837 16.78815506 120.41552734 16.8012085 C119.1718187 16.80030212 117.92811005 16.79939575 116.64671326 16.79846191 C115.33757462 16.80517914 114.02843597 16.81189636 112.67962646 16.81881714 C109.08658913 16.83649773 105.49364702 16.84117339 101.90057039 16.84244871 C98.90108971 16.84434747 95.90163123 16.85170479 92.90215909 16.8587929 C85.82497431 16.87508249 78.74784041 16.87996136 71.67063904 16.87854004 C64.37070597 16.87733862 57.07106856 16.89843896 49.77121031 16.93002737 C43.50359348 16.95618228 37.23607326 16.96690766 30.96840227 16.96562922 C27.22513781 16.96511932 23.48213603 16.97081731 19.73892593 16.99198532 C15.56345169 17.0149527 11.3886394 17.0058517 7.21311951 16.99377441 C5.97345932 17.00501343 4.73379913 17.01625244 3.45657349 17.02783203 C2.31812485 17.01944305 1.17967621 17.01105408 0.00672913 17.00241089 C-1.47381738 17.00404519 -1.47381738 17.00404519 -2.98427391 17.00571251 C-6.468424 16.36696386 -8.16808036 14.9341649 -10.69947815 12.50793457 C-11.36354065 10.50793457 -11.36354065 10.50793457 -11.32447815 8.50793457 C-11.33736877 7.84793457 -11.3502594 7.18793457 -11.36354065 6.50793457 C-9.63630782 1.30591569 -4.98159572 0.0076215 0 0 Z " fill="#e52b50" transform="translate(220.69947814941406,139.4920654296875)"/>
<path d="M0 0 C2.59653964 1.91323973 3.73151664 3.19454991 4.75 6.25 C4.87375 7.11625 4.87375 7.11625 5 8 C6.60875 8.37125 6.60875 8.37125 8.25 8.75 C12.08834559 10.02944853 13.75402776 10.67596108 16 14 C16.72468526 18.42863214 16.49454049 20.28066838 13.9375 24 C11 26 11 26 7.75 25.875 C5.89375 25.441875 5.89375 25.441875 4 25 C2.39833252 24.79223033 0.79386785 24.60509857 -0.8125 24.4375 C-1.56144531 24.35371094 -2.31039062 24.26992188 -3.08203125 24.18359375 C-5.01069397 23.96823751 -5.01069397 23.96823751 -7 24 C-6.97124589 25.92689401 -6.97124589 25.92689401 -6 28 C-3.2445146 29.63570164 -3.2445146 29.63570164 0.125 30.9375 C11.93019481 36.10227273 11.93019481 36.10227273 15.875 41.625 C18.58124066 49.74372199 18.82629524 57.2380868 15 65 C12.818884 68.20351413 11.22902885 69.8473141 8 72 C7.01 72 6.02 72 5 72 C4.87625 73.3921875 4.87625 73.3921875 4.75 74.8125 C4 78 4 78 2.375 79.875 C-0.94226407 81.44633561 -3.37267365 81.38864211 -7 81 C-9.3125 79.8125 -9.3125 79.8125 -11 78 C-11.2475 77.195625 -11.495 76.39125 -11.75 75.5625 C-13.22128576 72.5463642 -13.90045248 72.40372615 -16.875 71.125 C-21.62285879 68.98024776 -23.0807408 66.83987104 -25 62 C-25.07958875 57.94097389 -24.54533084 56.57562699 -21.75 53.625 C-18.6579331 51.79786956 -17.49946477 51.23182481 -14 52 C-12.55435239 53.28502009 -11.10997043 54.57186161 -9.69140625 55.88671875 C-6.59848715 57.92247381 -3.58472279 57.30902783 0 57 C0.85974801 54.70705512 0.85974801 54.70705512 1 52 C-1.83425561 48.45889614 -4.74220382 47.06596175 -8.9375 45.5 C-14.31671485 43.48704476 -18.34064336 41.23154859 -21.8125 36.5625 C-23.85519179 30.43442463 -24.36517794 23.61800245 -22.05078125 17.484375 C-20.1805159 14.29843402 -18.64622524 12.37827819 -15.4375 10.5 C-12.19217461 8.50287668 -11.3709771 6.17256808 -9.89453125 2.7421875 C-7.88404968 -1.17342289 -3.87305981 -0.33388447 0 0 Z " fill="#e52b50" transform="translate(100,399)"/>
<path d="M0 0 C1.9790332 -0.00773438 1.9790332 -0.00773438 3.99804688 -0.015625 C4.6800415 -0.00724609 5.36203613 0.00113281 6.06469727 0.00976562 C8.15042947 0.0312303 10.23273208 0.00992031 12.31835938 -0.015625 C13.63642578 -0.01046875 14.95449219 -0.0053125 16.3125 0 C18.11859741 0.00676758 18.11859741 0.00676758 19.96118164 0.01367188 C23.67910227 0.62873171 24.83626943 1.56731353 27.08984375 4.53125 C28.26575349 8.21576718 28.42465713 9.81379275 26.77734375 13.34375 C25.08984375 15.53125 25.08984375 15.53125 23.08984375 16.53125 C18.86220271 16.78914144 14.63074431 16.80226954 10.39624023 16.82641602 C8.29539323 16.84360234 6.19613174 16.88748599 4.09570312 16.93164062 C2.7539178 16.94177052 1.41211911 16.9502857 0.0703125 16.95703125 C-1.75657104 16.97890503 -1.75657104 16.97890503 -3.62036133 17.0012207 C-7.51543032 16.44478228 -9.15105124 15.28139584 -11.91015625 12.53125 C-12.57421875 10.53125 -12.57421875 10.53125 -12.53515625 8.53125 C-12.54804688 7.87125 -12.5609375 7.21125 -12.57421875 6.53125 C-10.64854148 0.73156317 -5.3938495 0.02019223 0 0 Z " fill="#e52b50" transform="translate(167.91015625,139.46875)"/>
<path d="M0 0 C1.19173828 -0.00064453 2.38347656 -0.00128906 3.61132812 -0.00195312 C5.47241211 0.02801758 5.47241211 0.02801758 7.37109375 0.05859375 C9.23797852 0.04795898 9.23797852 0.04795898 11.14257812 0.03710938 C20.27427789 0.1013823 20.27427789 0.1013823 22.63256836 1.84350586 C24.43784943 4.38034363 24.68507375 6.4080938 24.80859375 9.49609375 C23.15589846 13.32338812 21.63575745 14.96904907 17.80859375 16.49609375 C14.17304583 16.91314192 10.52815023 16.8204596 6.87109375 16.80859375 C5.88173828 16.82470703 4.89238281 16.84082031 3.87304688 16.85742188 C-5.10793999 16.86346154 -5.10793999 16.86346154 -9.19140625 13.49609375 C-11.04172615 11.64577385 -10.48280757 9.07137293 -10.6171875 6.6015625 C-9.46260563 0.8922081 -5.16037736 -0.00876384 0 0 Z " fill="#e52b50" transform="translate(330.19140625,102.50390625)"/>
</svg>
