<?xml version="1.0" encoding="UTF-8"?>
<svg version="1.1" xmlns="http://www.w3.org/2000/svg" width="512" height="512">
<path d="M0 0 C0.85980469 0.5053125 1.71960938 1.010625 2.60546875 1.53125 C3.48887939 2.02854614 3.48887939 2.02854614 4.39013672 2.53588867 C5.77545376 3.31679253 7.1549586 4.1080666 8.52954102 4.90771484 C28.70170761 16.59194897 48.58686846 22.02392155 71.6875 24.140625 C73.13858689 24.27678632 74.58963709 24.41333931 76.04064941 24.55029297 C79.56184452 24.88179252 83.08350573 25.20799853 86.60546875 25.53125 C86.67541255 36.20711577 86.72850308 46.88292577 86.76090527 57.55897522 C86.77646769 62.5179156 86.79753068 67.4766976 86.83178711 72.43554688 C86.86472059 77.23368861 86.88239233 82.03167937 86.89010048 86.82992554 C86.89558369 88.64767834 86.90628813 90.46542421 86.92265892 92.28311157 C87.17631882 121.6533515 78.76161702 148.83957101 59.60546875 171.53125 C58.7753125 172.52382812 57.94515625 173.51640625 57.08984375 174.5390625 C48.1295959 184.92744315 36.99014302 194.46685371 24.60546875 200.53125 C23.94546875 200.53125 23.28546875 200.53125 22.60546875 200.53125 C22.60698763 201.13625497 22.60850651 201.74125994 22.61007142 202.36459839 C22.69956255 238.21343238 22.76820425 274.06224717 22.80973007 309.9111696 C22.81473296 314.21454294 22.81991024 318.51791606 22.82519531 322.82128906 C22.82624455 323.67802164 22.8272938 324.53475422 22.82837483 325.41744839 C22.84578524 339.2938292 22.87732643 353.1701438 22.91407993 367.04648532 C22.95147167 381.28240638 22.97370086 395.51829274 22.98182273 409.7542609 C22.98731418 418.54030309 23.00466516 427.32615814 23.03713462 436.11214273 C23.0582607 442.1351066 23.06467313 448.15797357 23.05947426 454.18097182 C23.05690948 457.65720095 23.06087102 461.13310281 23.08229065 464.60927391 C23.10213058 468.37781 23.09742872 472.14553907 23.08648682 475.91409302 C23.09813818 477.01331813 23.10978955 478.11254324 23.12179399 479.24507821 C23.07526461 485.15564225 22.81152015 489.00414653 18.60546875 493.53125 C13.00587958 499.04041733 6.05747647 498.0902888 -1.28710938 498.03918457 C-2.72344851 498.04379489 -4.15978292 498.05014869 -5.59610748 498.05809355 C-9.53884398 498.07479223 -13.48119323 498.06653822 -17.42393112 498.05414867 C-21.6775856 498.04510266 -25.93117323 498.05906567 -30.18481445 498.07006836 C-38.51602209 498.08786297 -46.84708565 498.08400941 -55.17829895 498.0724178 C-61.94871199 498.06338745 -68.71908462 498.06215774 -75.48950195 498.06651306 C-76.45278239 498.06712599 -77.41606282 498.06773893 -78.40853357 498.06837043 C-80.36536599 498.06964932 -82.3221984 498.07094617 -84.2790308 498.0722608 C-102.63202048 498.08366936 -120.98493026 498.07054856 -139.33790684 498.04905933 C-155.08859249 498.0311881 -170.83916023 498.03429213 -186.58984375 498.05273438 C-204.87676689 498.07413621 -223.16361998 498.08257069 -241.45055389 498.07028532 C-243.40022277 498.06901111 -245.34989165 498.06775363 -247.29956055 498.06651306 C-248.73850481 498.06558741 -248.73850481 498.06558741 -250.20651865 498.06464306 C-256.9694833 498.0611881 -263.73240355 498.06702165 -270.49536133 498.07643127 C-278.73619402 498.087645 -286.9768743 498.08462441 -295.21768951 498.0633083 C-299.4230132 498.05278942 -303.62808268 498.04869022 -307.83340454 498.06190491 C-311.68253692 498.07381746 -315.53117927 498.06728546 -319.38026714 498.0459947 C-320.77318175 498.04152376 -322.1661377 498.04380602 -323.55902576 498.05349785 C-336.71216741 498.1380033 -336.71216741 498.1380033 -341.39453125 493.53125 C-345.06661212 489.14521575 -345.87212021 486.31278424 -345.62416077 480.6452179 C-345.60132269 479.97622678 -345.57848461 479.30723565 -345.55495447 478.61797208 C-345.4748725 476.38648379 -345.36597846 474.15730281 -345.25805664 471.92700195 C-345.19634404 470.3211196 -345.13708186 468.71514148 -345.08007812 467.10908508 C-344.98838488 464.54107222 -344.89478942 461.97323994 -344.79361832 459.40558112 C-344.54156129 452.99454166 -344.365281 446.58455085 -344.23326111 440.16996765 C-344.21390332 439.23356439 -344.19454553 438.29716114 -344.17460114 437.33238202 C-344.09606235 433.46582628 -344.01994677 429.59922602 -343.9447633 425.73260367 C-343.72971411 414.84026413 -343.44530099 403.96059975 -342.94311523 393.07739258 C-338.80849761 343.22117843 -338.80849761 343.22117843 -358.65446758 299.75614834 C-366.46637342 291.53825927 -375.47252125 284.70579601 -384.67680359 278.13050842 C-390.62406463 273.7858286 -394.67127759 268.86589799 -398.39453125 262.53125 C-398.80471497 261.84618378 -399.21489868 261.16111755 -399.63751221 260.45529175 C-401.92535856 256.33263859 -403.68264387 251.91953273 -405.39453125 247.53125 C-405.83023437 246.4175 -406.2659375 245.30375 -406.71484375 244.15625 C-413.24606317 224.06019026 -410.76141159 200.94966511 -401.64453125 182.15625 C-392.98995868 165.38071625 -380.11712918 153.87627586 -362.37109375 147.43359375 C-358.0378672 146.12877063 -354.2443229 145.47880161 -349.7199707 145.50561523 C-348.90986038 145.50931625 -348.09975006 145.51301727 -347.26509094 145.51683044 C-346.33916389 145.52396812 -346.33916389 145.52396812 -345.39453125 145.53125 C-345.4034137 144.66760834 -345.41229614 143.80396667 -345.42144775 142.91415405 C-345.50169464 134.7633342 -345.5625469 126.61264759 -345.60177994 118.46152306 C-345.62262843 114.27121462 -345.65089541 110.08123341 -345.69628906 105.89111328 C-345.73984544 101.84512758 -345.76368895 97.79945605 -345.77404022 93.75325394 C-345.78141411 92.21190065 -345.79581382 90.67056398 -345.81745148 89.12934494 C-345.84661736 86.96525064 -345.85048201 84.80244375 -345.84863281 82.63818359 C-345.85751526 81.40796478 -345.86639771 80.17774597 -345.87554932 78.9102478 C-345.12003217 73.6029819 -342.72526096 70.76531696 -338.86410522 67.18463135 C-333.84869578 64.79460177 -329.36982053 65.00418748 -323.88134766 65.07714844 C-322.72955017 65.07656433 -321.57775269 65.07598022 -320.39105225 65.07537842 C-316.59242383 65.07816016 -312.79458472 65.10925833 -308.99609375 65.140625 C-306.35908436 65.14808702 -303.72206941 65.15378013 -301.08505249 65.15777588 C-294.8589898 65.17018837 -288.6332094 65.20298619 -282.40727079 65.24317384 C-275.31661728 65.28794566 -268.22595001 65.30989212 -261.13519025 65.32995558 C-246.55482523 65.37172064 -231.97468219 65.44203881 -217.39453125 65.53125 C-217.42281006 63.58702148 -217.42281006 63.58702148 -217.45166016 61.60351562 C-217.46690949 59.88151424 -217.48169621 58.15950872 -217.49609375 56.4375 C-217.50970947 55.58575195 -217.5233252 54.73400391 -217.53735352 53.85644531 C-217.61861988 40.878832 -212.03802159 27.80474732 -203.20703125 18.21484375 C-189.38064099 5.3717959 -174.48279729 0.78771204 -156.00390625 1.15625 C-144.19803222 1.71350636 -134.55596241 6.08550504 -125.39453125 13.53125 C-124.56179688 14.15773438 -123.7290625 14.78421875 -122.87109375 15.4296875 C-113.7945462 23.13186823 -108.03585435 35.08158603 -105.39453125 46.53125 C-105.1720888 49.84986957 -105.203809 53.14472064 -105.26953125 56.46875 C-105.27855469 57.34337891 -105.28757812 58.21800781 -105.296875 59.11914062 C-105.32023555 61.25663064 -105.35609878 63.39397786 -105.39453125 65.53125 C-100.11453125 65.53125 -94.83453125 65.53125 -89.39453125 65.53125 C-89.39453125 52.33125 -89.39453125 39.13125 -89.39453125 25.53125 C-84.69203125 25.139375 -79.98953125 24.7475 -75.14453125 24.34375 C-50.71743231 22.05999839 -27.56092645 16.2836189 -7.09838867 2.09863281 C-3.04046642 -0.59519734 -3.04046642 -0.59519734 0 0 Z M-193.20703125 33.78125 C-200.41963582 43.73832591 -200.9876882 53.63109072 -201.39453125 65.53125 C-196.11453125 65.53125 -190.83453125 65.53125 -185.39453125 65.53125 C-185.31203125 63.22125 -185.22953125 60.91125 -185.14453125 58.53125 C-184.66578264 50.24569554 -183.15126181 44.81067833 -176.95703125 39.15625 C-170.24097697 33.57771767 -162.76748791 33.78214063 -154.39453125 34.53125 C-148.18858754 36.16336433 -143.85835008 40.22520906 -140.39453125 45.53125 C-138.29520273 49.7007497 -137.98105167 53.75495991 -137.76953125 58.34375 C-137.64578125 60.715625 -137.52203125 63.0875 -137.39453125 65.53125 C-132.11453125 65.53125 -126.83453125 65.53125 -121.39453125 65.53125 C-121.92172833 50.11073552 -123.83655481 38.65559424 -135.4609375 27.55859375 C-144.44923859 19.98526671 -153.93440875 17.63297846 -165.5234375 18.15234375 C-177.15775539 19.29112159 -185.76858969 24.95303592 -193.20703125 33.78125 Z M-6.0078125 21.47265625 C-25.62430531 32.45397489 -46.28250856 38.90782401 -68.6965332 41.07666016 C-69.58105667 41.16291656 -70.46558014 41.24917297 -71.37690735 41.33804321 C-72.37563118 41.43368057 -72.37563118 41.43368057 -73.39453125 41.53125 C-73.44608652 48.5522948 -73.48061483 55.57328924 -73.50439453 62.59448242 C-73.51432873 64.9730817 -73.52788065 67.35166918 -73.54541016 69.73022461 C-73.63046495 81.5853615 -73.6285316 93.37481677 -72.51953125 105.1875 C-72.4426004 106.00993698 -72.36566956 106.83237396 -72.28640747 107.67973328 C-69.41451032 134.62543996 -54.29757441 158.71152088 -33.76904297 175.89160156 C-25.22768974 182.66182916 -11.61287876 191.78336017 -0.39453125 192.53125 C12.94626984 188.76443557 25.4397554 180.75836765 35.60546875 171.53125 C36.09402344 171.09184082 36.58257812 170.65243164 37.0859375 170.19970703 C59.43582498 149.85355304 68.94031535 123.20154553 70.60546875 93.53125 C70.89040917 84.42916243 70.79757005 75.32363646 70.73046875 66.21875 C70.72040549 63.80924857 70.71128563 61.399743 70.703125 58.99023438 C70.6814075 53.17048055 70.64820212 47.35088556 70.60546875 41.53125 C69.9904097 41.45215393 69.37535065 41.37305786 68.74165344 41.29156494 C65.90002211 40.92326546 63.05940758 40.5476083 60.21875 40.171875 C59.25167114 40.0476416 58.28459229 39.9234082 57.28820801 39.79541016 C37.52102788 37.16033857 19.34185483 30.66523706 2.046875 20.81640625 C-1.53060233 18.93322218 -2.67460549 19.55825593 -6.0078125 21.47265625 Z M-166.70703125 52.34375 C-170.19977836 56.87138514 -169.39453125 59.30224027 -169.39453125 65.53125 C-164.11453125 65.53125 -158.83453125 65.53125 -153.39453125 65.53125 C-153.23026215 57.74555216 -153.23026215 57.74555216 -156.39453125 51.53125 C-160.18984604 49.63359261 -163.3677509 49.72647621 -166.70703125 52.34375 Z M-329.39453125 81.53125 C-329.39453125 102.98125 -329.39453125 124.43125 -329.39453125 146.53125 C-324.1059257 148.64669222 -318.79823368 150.73001586 -313.39453125 152.53125 C-313.39453125 134.38125 -313.39453125 116.23125 -313.39453125 97.53125 C-239.47453125 97.53125 -165.55453125 97.53125 -89.39453125 97.53125 C-89.39453125 92.25125 -89.39453125 86.97125 -89.39453125 81.53125 C-168.59453125 81.53125 -247.79453125 81.53125 -329.39453125 81.53125 Z M-297.39453125 113.53125 C-297.39453125 130.69125 -297.39453125 147.85125 -297.39453125 165.53125 C-295.08453125 167.84125 -292.77453125 170.15125 -290.39453125 172.53125 C-286.66286563 170.66541719 -285.1844529 169.43698047 -282.45703125 166.46875 C-270.35833594 154.17204004 -255.80656867 146.56390866 -238.43652344 146.23876953 C-228.35377016 146.17241433 -219.71641062 146.3226378 -210.39453125 150.53125 C-209.44707031 150.95535156 -208.49960938 151.37945312 -207.5234375 151.81640625 C-190.2370449 160.42363918 -179.63630362 176.3985658 -173.0703125 194.1015625 C-168.5150954 209.41348524 -169.72588516 225.82077818 -171.39453125 241.53125 C-162.76280856 241.74008455 -154.13195916 241.89984087 -145.49825859 241.99755955 C-141.48881489 242.04446936 -137.48110304 242.10804843 -133.47265625 242.21020508 C-129.60159532 242.30823922 -125.73219584 242.36185435 -121.85998917 242.38514519 C-120.38540609 242.40173376 -118.91091084 242.4341326 -117.43703842 242.48282051 C-109.23708715 243.01363622 -109.23708715 243.01363622 -102.20928955 239.55343628 C-100.69704549 237.27197666 -99.56012997 235.00105908 -98.39453125 232.53125 C-92.14039848 226.58219688 -86.22126083 226.07383944 -77.84375 226.22265625 C-71.30280235 226.80785995 -67.3939036 229.17577743 -63.01953125 233.96875 C-57.44099892 240.68480428 -57.64542188 248.15829334 -58.39453125 256.53125 C-60.02664558 262.73719371 -64.08849031 267.06743117 -69.39453125 270.53125 C-75.85308303 273.73855803 -83.96915337 273.69508954 -90.875 271.87890625 C-97.31455392 268.97674752 -101.35600009 263.74650041 -104.39453125 257.53125 C-113.90417248 257.25257071 -123.41239879 257.03968631 -132.92523956 256.90950394 C-137.34323324 256.84700264 -141.75842441 256.76233136 -146.17480469 256.62597656 C-150.44149506 256.49507577 -154.7055009 256.4237436 -158.9740448 256.39272308 C-160.5978575 256.37063627 -162.22153122 256.3274959 -163.8441925 256.26248932 C-168.93209321 256.06686405 -173.47647468 256.11192119 -178.39453125 257.53125 C-181.16350738 260.17168158 -182.68453019 262.75378521 -184.4944458 266.11915588 C-186.48244196 269.68911637 -188.79713785 272.53244432 -191.59082031 275.47143555 C-192.08819576 275.99868194 -192.58557121 276.52592833 -193.09801865 277.06915188 C-201.17676879 285.53204499 -209.50006607 293.76288653 -217.78487682 302.02298951 C-220.27705686 304.50882863 -222.76631927 306.99758627 -225.25592041 309.48600769 C-229.94966373 314.17666884 -234.64594523 318.86477988 -239.34319329 323.55193108 C-244.69967513 328.89715386 -250.05324623 334.245288 -255.40660048 339.59364283 C-266.39939041 350.57603907 -277.39574645 361.55485737 -288.39453125 372.53125 C-292.03267944 370.91429525 -294.08751733 369.17686113 -297.39453125 366.53125 C-297.39453125 393.92125 -297.39453125 421.31125 -297.39453125 449.53125 C-207.63453125 449.53125 -117.87453125 449.53125 -25.39453125 449.53125 C-25.39453125 409.60125 -25.39453125 369.67125 -25.39453125 328.53125 C-27.70453125 330.51125 -30.01453125 332.49125 -32.39453125 334.53125 C-33.259608 335.24989227 -34.12468475 335.96853455 -35.01597595 336.70895386 C-40.04151433 341.46131539 -42.17580983 345.45042496 -42.41625977 352.36767578 C-42.44697638 355.40804719 -42.36759891 358.43787648 -42.2734375 361.4765625 C-42.26017521 362.91590226 -42.25101192 364.3552857 -42.24597168 365.79467773 C-42.1991279 371.08253817 -42.07347473 376.36946428 -41.95703125 381.65625 C-41.77140625 393.495 -41.58578125 405.33375 -41.39453125 417.53125 C-73.07453125 417.53125 -104.75453125 417.53125 -137.39453125 417.53125 C-137.39453125 385.85125 -137.39453125 354.17125 -137.39453125 321.53125 C-90.45703125 322.15625 -90.45703125 322.15625 -75.67602539 322.43212891 C-71.27602851 322.46558801 -71.27602851 322.46558801 -66.8759613 322.48568726 C-64.92695745 322.50097191 -62.97804406 322.53599816 -61.02964783 322.58700562 C-49.58355193 323.24201807 -49.58355193 323.24201807 -39.1960144 319.39886475 C-36.90964466 316.88601922 -35.16977979 314.41842978 -33.39453125 311.53125 C-32.08703074 309.9881511 -30.75735332 308.46321572 -29.39453125 306.96875 C-28.83765625 306.32808594 -28.28078125 305.68742188 -27.70703125 305.02734375 C-26.95903809 304.17472059 -26.19654747 303.33326622 -25.39453125 302.53125 C-25.22983307 299.40848105 -25.13080249 296.30682984 -25.07470703 293.18139648 C-25.0536792 292.1992366 -25.03265137 291.21707672 -25.01098633 290.20515442 C-24.82787097 281.12639944 -24.72192984 272.04633925 -24.63884163 262.96617031 C-24.58221725 256.862438 -24.50065333 250.76133434 -24.35888672 244.65893555 C-24.22248029 238.7636201 -24.15001317 232.87068879 -24.12218857 226.97389412 C-24.10072003 224.72776613 -24.05667698 222.48173443 -23.98947525 220.23650932 C-23.12717747 209.03468793 -23.12717747 209.03468793 -26.65856171 198.83406448 C-30.13318706 195.74050006 -34.08463085 194.2191775 -38.39453125 192.53125 C-41.55934243 190.38474518 -44.46710452 187.98923353 -47.39453125 185.53125 C-48.18214844 184.88929688 -48.96976563 184.24734375 -49.78125 183.5859375 C-71.5546239 165.05977007 -81.25140124 140.67514405 -88.39453125 113.53125 C-157.36453125 113.53125 -226.33453125 113.53125 -297.39453125 113.53125 Z M-379.70703125 179.21875 C-383.94515502 184.88116126 -386.81356673 190.97029346 -389.39453125 197.53125 C-389.73613281 198.35625 -390.07773437 199.18125 -390.4296875 200.03125 C-395.9364569 216.01368771 -393.11986336 234.45179208 -386.04296875 249.3828125 C-378.33863103 263.28505319 -364.70549635 274.35147902 -353.578125 285.4453125 C-351.75230865 287.26926096 -349.92671504 289.09343242 -348.10133362 290.91781616 C-343.81106823 295.20467216 -339.51858679 299.48929712 -335.22498709 303.7728132 C-330.33048538 308.65607334 -325.43887904 313.54222954 -320.54749382 318.42861104 C-310.499687 328.46601167 -300.44831427 338.49983552 -290.39453125 348.53125 C-287.23306871 347.13125423 -285.09591583 345.48367706 -282.65534973 343.04603577 C-281.92767899 342.32400467 -281.20000824 341.60197357 -280.45028687 340.85806274 C-279.6620755 340.06580292 -278.87386414 339.27354309 -278.06176758 338.45727539 C-277.2239827 337.62299515 -276.38619781 336.7887149 -275.52302551 335.92915344 C-273.23022082 333.64363931 -270.94197108 331.35368599 -268.65598512 329.06135488 C-266.26247651 326.66277935 -263.86408821 324.2690912 -261.46647644 321.87461853 C-257.4422256 317.8540046 -253.42220654 313.82919563 -249.40454102 309.80200195 C-244.75829207 305.1448616 -240.10487197 300.49498002 -235.44767553 295.84878927 C-231.44902189 291.85920751 -227.45427389 287.8657465 -223.46277255 283.86900896 C-221.07886274 281.48197986 -218.69361923 279.09632567 -216.30484962 276.71415901 C-213.64474281 274.05911218 -210.99109984 271.39777156 -208.33911133 268.73461914 C-207.54482727 267.94438354 -206.75054321 267.15414795 -205.93218994 266.33996582 C-204.85337303 265.25268944 -204.85337303 265.25268944 -203.75276184 264.14344788 C-203.12468534 263.51461732 -202.49660883 262.88578676 -201.8494997 262.23790073 C-200.17080151 260.4847716 -200.17080151 260.4847716 -199.39453125 257.53125 C-216.88453125 257.53125 -234.37453125 257.53125 -252.39453125 257.53125 C-262.29453125 277.33125 -272.19453125 297.13125 -282.39453125 317.53125 C-284.43807065 314.46594089 -285.3940064 311.89427981 -286.54931641 308.4074707 C-286.75443344 307.79255768 -286.95955048 307.17764465 -287.17088318 306.5440979 C-287.84606426 304.51646896 -288.51484935 302.48679127 -289.18359375 300.45703125 C-289.65116764 299.0487129 -290.11913978 297.64052672 -290.5874939 296.23246765 C-291.81786674 292.52990626 -293.04282292 288.82557475 -294.2666626 285.12084961 C-295.51695867 281.3392488 -296.77236522 277.55934575 -298.02734375 273.77929688 C-300.48807989 266.36493411 -302.94309657 258.94869402 -305.39453125 251.53125 C-307.80781193 253.83865831 -309.03818866 255.6209801 -310.21875 258.76171875 C-310.49549561 259.48512451 -310.77224121 260.20853027 -311.05737305 260.95385742 C-311.56457886 262.32247925 -311.56457886 262.32247925 -312.08203125 263.71875 C-313.72171875 268.0809375 -313.72171875 268.0809375 -315.39453125 272.53125 C-325.29453125 272.86125 -335.19453125 273.19125 -345.39453125 273.53125 C-345.39453125 268.25125 -345.39453125 262.97125 -345.39453125 257.53125 C-339.45453125 257.53125 -333.51453125 257.53125 -327.39453125 257.53125 C-322.26128514 246.7103672 -318.00367038 235.55541088 -313.64453125 224.40625 C-312.11107153 220.48579513 -310.57410751 216.56673937 -309.03515625 212.6484375 C-308.68414856 211.74753387 -308.33314087 210.84663025 -307.97149658 209.91842651 C-307.64735779 209.09311432 -307.32321899 208.26780212 -306.98925781 207.41748047 C-306.56220551 206.32474319 -306.56220551 206.32474319 -306.12652588 205.20993042 C-305.39453125 203.53125 -305.39453125 203.53125 -304.39453125 202.53125 C-296.47453125 226.29125 -288.55453125 250.05125 -280.39453125 274.53125 C-277.33601174 271.47273049 -275.95553402 269.02654518 -274.0390625 265.18359375 C-273.73256271 264.57109268 -273.42606293 263.95859161 -273.11027527 263.32752991 C-272.46622212 262.03709004 -271.82510948 260.74517888 -271.18676758 259.4519043 C-270.20696642 257.46861878 -269.21654339 255.49091228 -268.22460938 253.51367188 C-264.87533374 247.76407208 -264.87533374 247.76407208 -263.39453125 241.53125 C-238.97453125 241.53125 -214.55453125 241.53125 -189.39453125 241.53125 C-187.23144476 233.59993288 -185.86701026 227.65690019 -185.95703125 219.71875 C-185.96947876 218.28317749 -185.96947876 218.28317749 -185.98217773 216.81860352 C-186.34486023 201.50462551 -191.77304644 186.566714 -202.46484375 175.3046875 C-213.58435242 165.0855439 -225.25044006 161.56703303 -240.11328125 162.1484375 C-255.99723321 163.25613415 -266.45890994 174.15806108 -276.95703125 184.90625 C-278.07155661 186.03585624 -279.18678616 187.16476814 -280.30273438 188.29296875 C-283.00817792 191.03113229 -285.7039434 193.77849073 -288.39453125 196.53125 C-292.25540247 194.95643569 -294.59805497 192.49960789 -297.46484375 189.515625 C-298.45413076 188.50101307 -299.44372436 187.48670001 -300.43359375 186.47265625 C-301.97103356 184.88598327 -303.50508333 183.29633642 -305.03320312 181.70068359 C-315.27113975 171.04004932 -325.5800765 162.70251049 -340.83569336 162.12841797 C-356.7638845 161.89555447 -369.15462336 166.9042702 -379.70703125 179.21875 Z M-9.39453125 208.53125 C-9.39453125 293.34125 -9.39453125 378.15125 -9.39453125 465.53125 C-109.71453125 465.53125 -210.03453125 465.53125 -313.39453125 465.53125 C-313.39453125 427.25125 -313.39453125 388.97125 -313.39453125 349.53125 C-318.34453125 344.58125 -323.29453125 339.63125 -328.39453125 334.53125 C-328.72453125 334.53125 -329.05453125 334.53125 -329.39453125 334.53125 C-329.39453125 383.04125 -329.39453125 431.55125 -329.39453125 481.53125 C-218.51453125 481.53125 -107.63453125 481.53125 6.60546875 481.53125 C6.60546875 391.44125 6.60546875 301.35125 6.60546875 208.53125 C3.30546875 208.86125 0.00546875 209.19125 -3.39453125 209.53125 C-5.37453125 209.20125 -7.35453125 208.87125 -9.39453125 208.53125 Z M-86.76953125 244.15625 C-88.88159631 247.24311432 -89.0064827 248.8595413 -88.39453125 252.53125 C-86.89453125 255.03125 -86.89453125 255.03125 -84.39453125 256.53125 C-80.72282255 257.14320145 -79.10639557 257.01831506 -76.01953125 254.90625 C-73.90746619 251.81938568 -73.7825798 250.2029587 -74.39453125 246.53125 C-75.89453125 244.03125 -75.89453125 244.03125 -78.39453125 242.53125 C-82.06623995 241.91929855 -83.68266693 242.04418494 -86.76953125 244.15625 Z M-121.39453125 337.53125 C-121.39453125 358.65125 -121.39453125 379.77125 -121.39453125 401.53125 C-100.27453125 401.53125 -79.15453125 401.53125 -57.39453125 401.53125 C-57.39453125 389.32125 -57.39453125 377.11125 -57.39453125 364.53125 C-63.47574345 369.74309688 -63.47574345 369.74309688 -68.89453125 375.40625 C-69.64605469 376.25703125 -70.39757812 377.1078125 -71.171875 377.984375 C-72.27208984 379.24507813 -72.27208984 379.24507813 -73.39453125 380.53125 C-74.44833984 381.73007812 -74.44833984 381.73007812 -75.5234375 382.953125 C-77.15181943 384.8084935 -78.77558981 386.66764538 -80.39453125 388.53125 C-84.59079034 386.89346955 -87.3812991 383.79801818 -90.47265625 380.6484375 C-91.04409363 380.07417023 -91.61553101 379.49990295 -92.20428467 378.90823364 C-94.0224607 377.0788919 -95.83354617 375.24270807 -97.64453125 373.40625 C-98.87844454 372.16230226 -100.11281447 370.9188073 -101.34765625 369.67578125 C-104.36859868 366.63282633 -107.38320217 363.58371746 -110.39453125 360.53125 C-108.78917838 357.12065597 -106.98934224 354.91332516 -104.26953125 352.28125 C-103.54507812 351.57484375 -102.820625 350.8684375 -102.07421875 350.140625 C-101.51992188 349.60953125 -100.965625 349.0784375 -100.39453125 348.53125 C-97.3512036 349.8896702 -95.27143974 351.41588024 -92.94140625 353.7890625 C-92.32265625 354.41425781 -91.70390625 355.03945313 -91.06640625 355.68359375 C-90.4321875 356.33457031 -89.79796875 356.98554688 -89.14453125 357.65625 C-88.17 358.64431641 -88.17 358.64431641 -87.17578125 359.65234375 C-85.57741398 361.27421643 -83.98391228 362.9005781 -82.39453125 364.53125 C-78.09453899 360.96702731 -74.1197212 357.33483478 -70.39453125 353.15625 C-69.12802734 351.73892578 -69.12802734 351.73892578 -67.8359375 350.29296875 C-66.62744141 348.92591797 -66.62744141 348.92591797 -65.39453125 347.53125 C-64.68167969 346.73332031 -63.96882813 345.93539063 -63.234375 345.11328125 C-59.9625137 341.56668149 -59.9625137 341.56668149 -57.39453125 337.53125 C-78.51453125 337.53125 -99.63453125 337.53125 -121.39453125 337.53125 Z " fill="#e52b50" transform="translate(417.39453125,6.46875)"/>
<path d="M0 0 C1.258125 -0.01546875 2.51625 -0.0309375 3.8125 -0.046875 C15.44243645 0.00240439 15.44243645 0.00240439 20 4.5 C24.95040182 9.82741918 24.48037405 15.00808134 24.25 21.875 C24.23195313 22.89722656 24.21390625 23.91945313 24.1953125 24.97265625 C24.14839491 27.48274749 24.08276729 29.99087764 24 32.5 C24.63502441 32.47905273 25.27004883 32.45810547 25.92431641 32.43652344 C28.82438076 32.35295419 31.72419116 32.30121226 34.625 32.25 C35.62402344 32.21648437 36.62304688 32.18296875 37.65234375 32.1484375 C43.61125363 32.06951154 47.43115612 32.25448969 52 36.5 C56.74136566 41.30458387 56.51972728 46.28063786 56.546875 52.6875 C56.53140625 53.945625 56.5159375 55.20375 56.5 56.5 C56.52320313 58.3871875 56.52320313 58.3871875 56.546875 60.3125 C56.49759561 71.94243645 56.49759561 71.94243645 52 76.5 C46.67258082 81.45040182 41.49191866 80.98037405 34.625 80.75 C33.60277344 80.73195313 32.58054687 80.71390625 31.52734375 80.6953125 C29.01725251 80.64839491 26.50912236 80.58276729 24 80.5 C24.0314209 81.45253662 24.0314209 81.45253662 24.06347656 82.42431641 C24.14704581 85.32438076 24.19878774 88.22419116 24.25 91.125 C24.28351563 92.12402344 24.31703125 93.12304688 24.3515625 94.15234375 C24.43048846 100.11125363 24.24551031 103.93115612 20 108.5 C15.19541613 113.24136566 10.21936214 113.01972728 3.8125 113.046875 C2.554375 113.03140625 1.29625 113.0159375 0 113 C-1.258125 113.01546875 -2.51625 113.0309375 -3.8125 113.046875 C-15.44243645 112.99759561 -15.44243645 112.99759561 -20 108.5 C-24.95040182 103.17258082 -24.48037405 97.99191866 -24.25 91.125 C-24.23195313 90.10277344 -24.21390625 89.08054687 -24.1953125 88.02734375 C-24.14839491 85.51725251 -24.08276729 83.00912236 -24 80.5 C-24.95253662 80.5314209 -24.95253662 80.5314209 -25.92431641 80.56347656 C-28.82438076 80.64704581 -31.72419116 80.69878774 -34.625 80.75 C-35.62402344 80.78351563 -36.62304688 80.81703125 -37.65234375 80.8515625 C-43.61125363 80.93048846 -47.43115612 80.74551031 -52 76.5 C-56.74136566 71.69541613 -56.51972728 66.71936214 -56.546875 60.3125 C-56.53140625 59.054375 -56.5159375 57.79625 -56.5 56.5 C-56.51546875 55.241875 -56.5309375 53.98375 -56.546875 52.6875 C-56.49759561 41.05756355 -56.49759561 41.05756355 -52 36.5 C-46.67258082 31.54959818 -41.49191866 32.01962595 -34.625 32.25 C-33.60277344 32.26804687 -32.58054687 32.28609375 -31.52734375 32.3046875 C-29.01725251 32.35160509 -26.50912236 32.41723271 -24 32.5 C-24.02094727 31.86497559 -24.04189453 31.22995117 -24.06347656 30.57568359 C-24.14704581 27.67561924 -24.19878774 24.77580884 -24.25 21.875 C-24.28351563 20.87597656 -24.31703125 19.87695312 -24.3515625 18.84765625 C-24.43048846 12.88874637 -24.24551031 9.06884388 -20 4.5 C-14.38621483 -1.03991958 -7.39116829 -0.09087502 0 0 Z M-8 16.5 C-8 27.06 -8 37.62 -8 48.5 C-18.56 48.5 -29.12 48.5 -40 48.5 C-40 53.78 -40 59.06 -40 64.5 C-29.44 64.5 -18.88 64.5 -8 64.5 C-8 75.06 -8 85.62 -8 96.5 C-2.72 96.5 2.56 96.5 8 96.5 C8 85.94 8 75.38 8 64.5 C18.56 64.5 29.12 64.5 40 64.5 C40 59.22 40 53.94 40 48.5 C29.44 48.5 18.88 48.5 8 48.5 C8 37.94 8 27.38 8 16.5 C2.72 16.5 -2.56 16.5 -8 16.5 Z " fill="#e52b50" transform="translate(416,55.5)"/>
<path d="M0 0 C15.84 0 31.68 0 48 0 C48 5.28 48 10.56 48 16 C32.16 16 16.32 16 0 16 C0 10.72 0 5.44 0 0 Z " fill="#e52b50" transform="translate(264,200)"/>
<path d="M0 0 C15.84 0 31.68 0 48 0 C48 5.28 48 10.56 48 16 C32.16 16 16.32 16 0 16 C0 10.72 0 5.44 0 0 Z " fill="#e52b50" transform="translate(264,168)"/>
<path d="M0 0 C15.84 0 31.68 0 48 0 C48 5.28 48 10.56 48 16 C32.16 16 16.32 16 0 16 C0 10.72 0 5.44 0 0 Z " fill="#e52b50" transform="translate(264,136)"/>
<path d="M0 0 C5.28 0 10.56 0 16 0 C16 5.28 16 10.56 16 16 C10.72 16 5.44 16 0 16 C0 10.72 0 5.44 0 0 Z " fill="#e52b50" transform="translate(248,408)"/>
<path d="M0 0 C5.28 0 10.56 0 16 0 C16 5.28 16 10.56 16 16 C10.72 16 5.44 16 0 16 C0 10.72 0 5.44 0 0 Z " fill="#e52b50" transform="translate(216,408)"/>
<path d="M0 0 C5.28 0 10.56 0 16 0 C16 5.28 16 10.56 16 16 C10.72 16 5.44 16 0 16 C0 10.72 0 5.44 0 0 Z " fill="#e52b50" transform="translate(184,408)"/>
</svg>
