<?xml version="1.0" encoding="UTF-8"?>
<svg version="1.1" xmlns="http://www.w3.org/2000/svg" width="512" height="512">
<path d="M0 0 C2.09629542 0.00851263 4.18986128 -0.02030725 6.28588867 -0.05200195 C13.65791826 -0.09378567 19.57451663 -0.00283853 25.66674805 4.44604492 C29.27457779 9.28011149 29.03398018 14.04196551 28.85424805 19.82104492 C28.84071289 20.65249023 28.82717773 21.48393555 28.81323242 22.34057617 C28.77813864 24.37601558 28.72434032 26.41111783 28.66674805 28.44604492 C31.96550745 29.32132621 31.96550745 29.32132621 35.66674805 29.44604492 C38.04557794 27.74321632 38.04557794 27.74321632 39.79174805 25.19604492 C43.34061199 20.5722139 46.3303939 18.05176637 52.04174805 16.57104492 C57.69429911 16.37612937 60.96246556 17.97876422 65.16674805 21.59838867 C67.50349831 23.83735285 69.79911734 26.10649595 72.05712891 28.42480469 C73.48263801 29.88702218 74.92370668 31.33239961 76.36791992 32.77612305 C85.89499547 42.42473464 85.89499547 42.42473464 86.22924805 49.19604492 C86.13501563 54.52802906 84.21027281 56.99579058 80.5612793 60.71166992 C78.95995105 62.17762815 77.31752712 63.59850446 75.66674805 65.00854492 C75.00674805 65.81291992 74.34674805 66.61729492 73.66674805 67.44604492 C73.98741482 71.06147327 73.98741482 71.06147327 74.66674805 74.44604492 C75.81272461 74.39963867 76.95870117 74.35323242 78.1394043 74.30541992 C79.66932595 74.26787583 81.19927605 74.23147852 82.72924805 74.19604492 C83.48141602 74.1625293 84.23358398 74.12901367 85.00854492 74.09448242 C90.74448979 73.9951587 94.01322986 75.02997913 98.66674805 78.44604492 C101.93070812 82.62079982 102.12056417 86.48136627 102.1003418 91.59838867 C102.10558365 92.37614151 102.1108255 93.15389435 102.1162262 93.95521545 C102.12262992 95.59496877 102.12133078 97.23476813 102.11279297 98.87451172 C102.10428565 101.37250235 102.13305931 103.86820194 102.16479492 106.3659668 C102.16640732 107.96427341 102.16582866 109.56258404 102.1628418 111.16088867 C102.17407578 111.90169174 102.18530975 112.64249481 102.19688416 113.40574646 C102.1282741 118.55577273 100.95681511 121.50684651 97.66674805 125.44604492 C92.44180138 128.46701408 88.0764355 128.84218199 82.22924805 128.63354492 C81.49770508 128.62000977 80.76616211 128.60647461 80.01245117 128.5925293 C78.23022383 128.55758366 76.44838232 128.50379297 74.66674805 128.44604492 C73.6878091 131.66494406 73.6878091 131.66494406 73.66674805 135.44604492 C75.43551823 137.79528779 76.86942431 139.38027964 79.04174805 141.25854492 C85.52915925 147.1919569 85.52915925 147.1919569 85.9050293 150.61791992 C85.92952148 151.46870117 85.95401367 152.31948242 85.97924805 153.19604492 C86.01663086 154.03651367 86.05401367 154.87698242 86.0925293 155.74291992 C84.87623092 163.4647408 77.38453529 168.99102058 72.10424805 174.19604492 C71.2412207 175.05842773 70.37819336 175.92081055 69.48901367 176.80932617 C60.70029329 185.53658697 60.70029329 185.53658697 52.66674805 186.44604492 C52.50239258 188.3080957 52.50239258 188.3080957 52.3347168 190.20776367 C52.17520918 191.84975389 52.01501685 193.4916777 51.85424805 195.13354492 C51.74886719 196.35847656 51.74886719 196.35847656 51.64135742 197.6081543 C51.17312044 202.23433568 50.62244646 205.67138726 47.66674805 209.44604492 C44.77813095 210.89035347 42.87027103 210.82292998 39.66674805 210.44604492 C36.984375 208.40429688 36.984375 208.40429688 34.66674805 205.44604492 C34.29529637 202.6381447 34.20752421 200.50811675 34.3972168 197.73901367 C34.42648758 197.01361893 34.45575836 196.28822418 34.48591614 195.54084778 C34.58445635 193.23654062 34.71878433 190.93594693 34.85424805 188.63354492 C34.92758491 187.06659691 34.99857422 185.49953714 35.06713867 183.93237305 C35.23984964 180.10176951 35.44466249 176.27409034 35.66674805 172.44604492 C32.20174805 173.43604492 32.20174805 173.43604492 28.66674805 174.44604492 C28.70155273 175.68741211 28.73635742 176.9287793 28.7722168 178.20776367 C28.80036389 179.84967718 28.82766306 181.49160538 28.85424805 183.13354492 C28.89195312 184.35847656 28.89195312 184.35847656 28.93041992 185.6081543 C28.9887993 190.41472311 28.78216309 193.5369408 25.66674805 197.44604492 C19.06880523 203.53645367 12.56404877 202.66173646 3.93212891 202.6862793 C1.87124963 202.69596502 -0.18862282 202.7270057 -2.24926758 202.75854492 C-15.26661723 202.80966853 -15.26661723 202.80966853 -20.33325195 199.44604492 C-24.32714487 195.20736502 -24.77053169 191.73641541 -24.68481445 186.16479492 C-24.63454102 184.88088867 -24.63454102 184.88088867 -24.58325195 183.57104492 C-24.56520508 182.6919043 -24.5471582 181.81276367 -24.52856445 180.90698242 C-24.48173574 178.75286172 -24.4100019 176.59930719 -24.33325195 174.44604492 C-27.58007892 173.51721194 -27.58007892 173.51721194 -31.33325195 173.44604492 C-34.22268097 175.40652828 -34.22268097 175.40652828 -36.58325195 178.25854492 C-41.29719062 183.44826932 -44.09631447 186.08419805 -51.33325195 186.44604492 C-58.42094288 183.96405349 -62.92956923 179.56098928 -68.15087891 174.31469727 C-69.64107448 172.82571857 -71.15817679 171.3685366 -72.67895508 169.91088867 C-77.47967471 165.19833241 -81.37065764 161.21916028 -82.36303711 154.36279297 C-82.263052 147.92850528 -78.19283753 143.79923904 -74.05200195 139.34057617 C-73.48481445 138.71538086 -72.91762695 138.09018555 -72.33325195 137.44604492 C-71.74543945 136.81053711 -71.15762695 136.1750293 -70.55200195 135.52026367 C-69.05429607 133.44673156 -69.05429607 133.44673156 -69.64575195 130.69604492 C-69.87262695 129.95354492 -70.09950195 129.21104492 -70.33325195 128.44604492 C-71.40704102 128.48084961 -72.48083008 128.5156543 -73.5871582 128.55151367 C-75.02334034 128.57967411 -76.45953957 128.60697183 -77.89575195 128.63354492 C-78.60022461 128.65868164 -79.30469727 128.68381836 -80.03051758 128.7097168 C-85.2241613 128.78151832 -88.72095102 127.87053352 -93.33325195 125.44604492 C-99.54053507 119.07541225 -98.54942354 112.17450965 -98.57348633 103.71142578 C-98.58317205 101.6505465 -98.61421273 99.59067406 -98.64575195 97.5300293 C-98.69505199 84.97700642 -98.69505199 84.97700642 -95.33325195 79.44604492 C-91.54498392 75.84719029 -88.53097316 74.30921995 -83.3215332 74.34838867 C-82.18554688 74.35322266 -82.18554688 74.35322266 -81.02661133 74.3581543 C-79.84808594 74.37072266 -79.84808594 74.37072266 -78.64575195 74.38354492 C-77.8484668 74.38805664 -77.05118164 74.39256836 -76.22973633 74.3972168 C-74.26420939 74.40898642 -72.2987211 74.42692144 -70.33325195 74.44604492 C-69.45209096 71.67182138 -69.45209096 71.67182138 -69.33325195 68.44604492 C-71.05655682 65.95043954 -71.05655682 65.95043954 -73.58325195 63.88354492 C-77.93393932 59.99702324 -80.72449343 56.79411352 -82.20825195 51.07104492 C-82.39250796 45.72762075 -81.03157953 42.37031409 -77.5715332 38.44995117 C-75.86588917 36.73046824 -74.13200359 35.06738543 -72.33325195 33.44604492 C-111.24170978 20.94202177 -152.65656627 25.03893072 -189.1027832 43.27709961 C-224.53802038 61.84801857 -251.5738416 94.45807191 -263.9934082 132.38354492 C-277.06064521 174.40259491 -272.61631647 217.31955495 -252.39575195 256.21948242 C-245.74668596 268.5807235 -236.94351495 279.27248054 -227.33325195 289.44604492 C-226.63844727 290.19370117 -225.94364258 290.94135742 -225.2277832 291.71166992 C-212.14683348 305.34063757 -196.14387041 315.26920002 -178.87915039 322.70825195 C-174.96627913 324.44226003 -172.3954519 325.65805421 -170.33325195 329.44604492 C-170.07666746 332.20869656 -169.98299601 334.73680051 -170.0402832 337.49291992 C-170.04452805 338.2641217 -170.04877289 339.03532349 -170.05314636 339.82989502 C-170.06989812 342.28563807 -170.10754257 344.74055121 -170.14575195 347.19604492 C-170.16080338 348.86400179 -170.17449099 350.53197157 -170.18676758 352.19995117 C-170.21979001 356.2823007 -170.27154711 360.36403225 -170.33325195 364.44604492 C-167.03325195 364.44604492 -163.73325195 364.44604492 -160.33325195 364.44604492 C-160.33325195 346.95604492 -160.33325195 329.46604492 -160.33325195 311.44604492 C-162.97325195 311.11604492 -165.61325195 310.78604492 -168.33325195 310.44604492 C-171.60745009 307.81245077 -173.76586879 305.32615838 -175.33325195 301.44604492 C-175.78614532 297.16601232 -175.70355081 292.87258739 -175.70825195 288.57104492 C-175.73274414 287.39928711 -175.75723633 286.2275293 -175.7824707 285.02026367 C-175.8044981 278.55155077 -175.79802107 274.30841871 -171.33325195 269.44604492 C-165.81608045 264.59762148 -160.05904051 265.23062132 -153.08325195 265.19604492 C-152.05844727 265.17541992 -151.03364258 265.15479492 -149.9777832 265.13354492 C-142.58352353 265.09547924 -137.46646471 265.43490539 -131.92700195 270.75854492 C-128.91351937 275.97418786 -129.7618508 282.63875115 -129.83325195 288.44604492 C-129.81004883 290.33323242 -129.81004883 290.33323242 -129.78637695 292.25854492 C-129.83514867 303.7686694 -129.83514867 303.7686694 -134.33325195 308.44604492 C-138.08545377 310.79117106 -139.8628705 311.44604492 -144.33325195 311.44604492 C-144.33325195 328.93604492 -144.33325195 346.42604492 -144.33325195 364.44604492 C-137.40325195 364.44604492 -130.47325195 364.44604492 -123.33325195 364.44604492 C-123.34372559 362.533479 -123.35419922 360.62091309 -123.36499023 358.65039062 C-123.39726901 352.32407861 -123.42023452 345.99778613 -123.4368763 339.67141438 C-123.44730376 335.83656009 -123.46144395 332.00179509 -123.48413086 328.16699219 C-123.50589634 324.46467908 -123.51782838 320.76245174 -123.52300644 317.06007957 C-123.52669555 315.64911741 -123.5338995 314.23815982 -123.54471207 312.82723427 C-123.55927538 310.84776022 -123.56006929 308.86819948 -123.56030273 306.88867188 C-123.56474396 305.76282181 -123.56918518 304.63697174 -123.57376099 303.477005 C-123.32796875 300.3794646 -122.71736638 298.21518339 -121.33325195 295.44604492 C-118.67351625 293.27885287 -117.24487599 293.45069629 -113.77075195 293.63354492 C-109.26904107 294.69758568 -109.26904107 294.69758568 -107.33325195 297.44604492 C-106.9724884 300.35038757 -106.9724884 300.35038757 -106.99267578 303.93701172 C-106.9922377 304.59093903 -106.99179962 305.24486633 -106.99134827 305.91860962 C-106.99343656 308.07779915 -107.01676807 310.23620997 -107.0402832 312.39526367 C-107.04587905 313.89312821 -107.0501492 315.39099825 -107.05314636 316.88887024 C-107.06459616 320.82963238 -107.09406418 324.77006237 -107.1272583 328.71069336 C-107.15795647 332.73245755 -107.17165114 336.75427545 -107.18676758 340.77612305 C-107.21893409 348.66626636 -107.27170281 356.55607604 -107.33325195 364.44604492 C-102.38325195 364.44604492 -97.43325195 364.44604492 -92.33325195 364.44604492 C-92.26019759 357.07314663 -92.22614221 349.7024395 -92.25809383 342.32919598 C-92.27143238 338.90421812 -92.26861447 335.48093886 -92.22705078 332.05615234 C-92.17985686 328.10607961 -92.20620792 324.15803534 -92.2355957 320.20776367 C-92.19872902 318.38990608 -92.19872902 318.38990608 -92.16111755 316.5353241 C-92.32221713 306.87006238 -95.63601788 302.17690657 -102.33325195 295.44604492 C-103.19938614 294.53724075 -104.06552032 293.62843658 -104.957901 292.6920929 C-107.76480771 289.78400025 -110.62031837 286.93282697 -113.4934082 284.09057617 C-114.53473821 283.05298913 -115.57561808 282.01495014 -116.61607361 280.97648621 C-119.31915735 278.28093805 -122.02819628 275.59145746 -124.73864746 272.90332031 C-127.5180426 270.14460428 -130.29158811 267.38001996 -133.06567383 264.6159668 C-138.48258481 259.22032725 -143.90581904 253.83110266 -149.33325195 248.44604492 C-150.27942383 248.93210205 -151.2255957 249.41815918 -152.20043945 249.91894531 C-154.92544881 251.24725996 -156.3887172 251.87741047 -159.33325195 251.88354492 C-159.95200195 251.90288086 -160.57075195 251.9222168 -161.20825195 251.94213867 C-167.78748953 250.40617696 -172.60000493 244.45105457 -177.14575195 239.82104492 C-177.82573242 239.14041992 -178.50571289 238.45979492 -179.20629883 237.75854492 C-183.37286689 233.55458991 -185.49466121 231.39874884 -185.83325195 225.32104492 C-185.75460324 219.81563474 -184.47521421 217.36859759 -180.60668945 213.56323242 C-179.85645508 212.86456055 -179.1062207 212.16588867 -178.33325195 211.44604492 C-176.92272291 209.98783602 -175.51220644 208.5296149 -174.10205078 207.07104492 C-168.65495859 201.46049431 -165.60105407 198.34685244 -157.6262207 197.98510742 C-151.14815705 199.28734168 -146.80747795 203.58708086 -142.64575195 208.38354492 C-142.18620117 208.89594727 -141.72665039 209.40834961 -141.25317383 209.9362793 C-132.56340891 219.69212094 -132.56340891 219.69212094 -132.33325195 225.44604492 C-133.26322127 229.94089663 -134.50531742 232.88781961 -137.33325195 236.44604492 C-136.31634026 237.45296387 -136.31634026 237.45296387 -135.27888489 238.48022461 C-128.8709815 244.82714419 -122.47114284 251.18209866 -116.07898426 257.5448761 C-112.79296027 260.81528687 -109.50422266 264.08286572 -106.20898438 267.34399414 C-103.02521121 270.4950188 -99.84895958 273.65345165 -96.67764854 276.8170166 C-95.47031782 278.01883156 -94.26036259 279.21801626 -93.04767799 280.41442871 C-76.62657839 296.62401867 -76.62657839 296.62401867 -76.21299744 306.24285889 C-76.21521805 307.31763489 -76.21743866 308.39241089 -76.21972656 309.49975586 C-76.21980209 310.7207196 -76.21987762 311.94168335 -76.21995544 313.199646 C-76.22769737 315.17012909 -76.22769737 315.17012909 -76.2355957 317.18041992 C-76.23746175 318.54233752 -76.23888477 319.9042558 -76.23988342 321.26617432 C-76.24369392 324.84346381 -76.25351163 328.42071244 -76.2645874 331.99798584 C-76.27483311 335.65123949 -76.27938781 339.30449978 -76.28442383 342.95776367 C-76.29513526 350.12054268 -76.31219401 357.28328807 -76.33325195 364.44604492 C-73.03325195 364.44604492 -69.73325195 364.44604492 -66.33325195 364.44604492 C-66.33325195 337.05604492 -66.33325195 309.66604492 -66.33325195 281.44604492 C-69.30325195 280.78604492 -72.27325195 280.12604492 -75.33325195 279.44604492 C-78.533105 276.84616432 -80.03208527 275.34954497 -81.33325195 271.44604492 C-81.62130491 267.01320791 -81.61100128 262.57468081 -81.64575195 258.13354492 C-81.67475586 256.90958008 -81.70375977 255.68561523 -81.73364258 254.42456055 C-81.81437865 243.00351109 -81.81437865 243.00351109 -77.33325195 238.44604492 C-71.52060062 234.27708361 -65.80480957 234.96835474 -58.89575195 235.00854492 C-57.07333984 234.97857422 -57.07333984 234.97857422 -55.21411133 234.94799805 C-43.93261482 234.95417969 -43.93261482 234.95417969 -39.33325195 239.44604492 C-36.58001753 243.27760531 -35.94969807 245.93740127 -35.93481445 250.62963867 C-35.93094727 251.80461914 -35.92708008 252.97959961 -35.9230957 254.19018555 C-35.94049805 256.01839844 -35.94049805 256.01839844 -35.95825195 257.88354492 C-35.94665039 259.09848633 -35.93504883 260.31342773 -35.9230957 261.56518555 C-35.92696289 262.74145508 -35.93083008 263.91772461 -35.93481445 265.12963867 C-35.93819824 266.19754639 -35.94158203 267.2654541 -35.94506836 268.36572266 C-36.52499506 272.96756869 -37.96819465 276.37613515 -41.64575195 279.25854492 C-44.33325195 280.44604492 -44.33325195 280.44604492 -50.33325195 281.44604492 C-50.33325195 293.98604492 -50.33325195 306.52604492 -50.33325195 319.44604492 C-37.35435318 312.45740712 -26.18543466 305.47530494 -15.5168457 295.45385742 C-13.33325195 293.44604492 -13.33325195 293.44604492 -10.7512207 291.39526367 C1.55597018 281.47395794 10.15058373 266.09156419 17.66674805 252.44604492 C22.07266423 244.8421008 22.07266423 244.8421008 25.66674805 242.44604492 C29.03430824 242.62644993 31.65788411 242.80709776 34.54174805 244.63354492 C36.19572894 247.29829192 36.45810049 249.30535009 36.66674805 252.44604492 C35.68570892 255.12990873 34.69173103 257.39228734 33.35424805 259.88354492 C32.99322998 260.57730225 32.63221191 261.27105957 32.26025391 261.98583984 C22.23764139 280.80141414 8.38015389 299.14518336 -8.33325195 312.44604492 C-8.87691406 312.88029785 -9.42057617 313.31455078 -9.98071289 313.76196289 C-19.57710028 321.36439472 -29.46220632 327.81999863 -40.33325195 333.44604492 C-41.41026367 334.0087207 -41.41026367 334.0087207 -42.5090332 334.58276367 C-43.22446289 334.95014648 -43.93989258 335.3175293 -44.67700195 335.69604492 C-45.65443359 336.1987793 -45.65443359 336.1987793 -46.65161133 336.71166992 C-48.33325195 337.44604492 -48.33325195 337.44604492 -50.33325195 337.44604492 C-50.33950285 342.03063346 -50.28001679 346.61206595 -50.20825195 351.19604492 C-50.21083008 352.49799805 -50.2134082 353.79995117 -50.21606445 355.14135742 C-50.14325505 358.67261366 -50.01210494 361.97892182 -49.33325195 365.44604492 C-46.64217452 368.01810222 -46.64217452 368.01810222 -43.33325195 369.44604492 C-38.2412887 375.74110099 -38.76547118 382.17068529 -38.89575195 390.00854492 C-38.88866211 391.21446289 -38.88157227 392.42038086 -38.87426758 393.6628418 C-38.91851947 399.82747016 -39.1250086 404.03341105 -42.33325195 409.44604492 C-47.05132984 414.05927664 -51.14392062 416.26442013 -57.76293945 416.64135742 C-59.46836914 416.60655273 -59.46836914 416.60655273 -61.20825195 416.57104492 C-62.36067383 416.55299805 -63.5130957 416.53495117 -64.70043945 416.51635742 C-66.00368164 416.48155273 -66.00368164 416.48155273 -67.33325195 416.44604492 C-67.31230469 417.28264648 -67.29135742 418.11924805 -67.26977539 418.98120117 C-67.20113229 422.11966802 -67.15122632 425.25774908 -67.11352539 428.39672852 C-67.0837915 430.40952119 -67.03293466 432.42196627 -66.98168945 434.43432617 C-66.90632 441.9335872 -67.12003828 447.14154519 -71.33325195 453.44604492 C-76.19596879 457.96142484 -79.36296617 458.59935077 -85.80883789 458.62304688 C-86.57977783 458.62961807 -87.35071777 458.63618927 -88.14501953 458.64295959 C-90.70255629 458.66270867 -93.26003424 458.67435962 -95.81762695 458.68432617 C-96.69090889 458.6884017 -97.56419083 458.69247723 -98.46393585 458.69667625 C-103.08736434 458.7175453 -107.71076309 458.73184257 -112.33422852 458.74121094 C-117.10702096 458.75226846 -121.87934628 458.78665821 -126.65197372 458.82638264 C-130.32375955 458.85254739 -133.99543415 458.86090271 -137.66730499 458.86449242 C-139.4263448 458.86935989 -141.1853796 458.8809785 -142.94432831 458.89953041 C-145.4099559 458.92391617 -147.87437626 458.9229581 -150.34008789 458.91601562 C-151.4251059 458.93523071 -151.4251059 458.93523071 -152.53204346 458.95483398 C-157.59576007 458.90301078 -160.43596169 457.62599905 -164.33325195 454.44604492 C-168.70134354 448.77933152 -169.46287207 444.96247018 -169.4309082 437.93041992 C-169.42607422 436.05483398 -169.42607422 436.05483398 -169.42114258 434.14135742 C-169.40857422 432.18842773 -169.40857422 432.18842773 -169.39575195 430.19604492 C-169.39124023 428.87862305 -169.38672852 427.56120117 -169.38208008 426.20385742 C-169.37029511 422.95120751 -169.35384207 419.69864908 -169.33325195 416.44604492 C-170.66259766 416.46562256 -170.66259766 416.46562256 -172.01879883 416.4855957 C-173.18475586 416.49574707 -174.35071289 416.50589844 -175.55200195 416.51635742 C-176.70635742 416.52940918 -177.86071289 416.54246094 -179.05004883 416.5559082 C-184.03027065 416.3892589 -188.04790184 415.53801926 -191.85668945 412.05151367 C-197.90325571 405.14864179 -197.66988698 399.40446594 -197.64575195 390.57104492 C-197.66186523 389.39928711 -197.67797852 388.2275293 -197.69458008 387.02026367 C-197.69896808 379.28860767 -197.12328935 374.50828109 -191.77075195 368.63354492 C-189.33325195 366.44604492 -189.33325195 366.44604492 -187.33325195 365.44604492 C-187.00325195 356.20604492 -186.67325195 346.96604492 -186.33325195 337.44604492 C-188.31325195 336.78604492 -190.29325195 336.12604492 -192.33325195 335.44604492 C-208.528433 328.41659641 -222.66021978 317.60641398 -235.33325195 305.44604492 C-236.27426758 304.56819336 -237.2152832 303.6903418 -238.18481445 302.78588867 C-265.53015866 276.79802005 -282.35415589 240.5977617 -287.33325195 203.44604492 C-287.42606445 202.76388916 -287.51887695 202.0817334 -287.61450195 201.37890625 C-290.68690226 176.80793348 -288.17928156 150.90656001 -280.33325195 127.44604492 C-280.10766602 126.76638672 -279.88208008 126.08672852 -279.6496582 125.38647461 C-269.99524441 96.87322708 -252.64569651 69.698457 -229.33325195 50.44604492 C-228.58301758 49.78475586 -227.8327832 49.1234668 -227.05981445 48.44213867 C-204.77558844 29.2777043 -176.33308944 16.16308607 -147.33325195 11.44604492 C-146.09446289 11.24237305 -144.85567383 11.03870117 -143.5793457 10.82885742 C-116.69914421 6.85294419 -90.14573678 9.68684494 -64.3659668 17.8293457 C-63.6951709 18.03285645 -63.024375 18.23636719 -62.33325195 18.44604492 C-61.65472168 18.6688916 -60.97619141 18.89173828 -60.27709961 19.12133789 C-58.03470019 19.68139167 -58.03470019 19.68139167 -55.02075195 17.94604492 C-50.53400011 16.12092553 -48.92979162 15.88789588 -44.33325195 17.44604492 C-40.21900547 20.62437885 -36.06380352 24.08891433 -32.97387695 28.29760742 C-31.16054179 29.82793346 -31.16054179 29.82793346 -27.64575195 29.13354492 C-26.55262695 28.90666992 -25.45950195 28.67979492 -24.33325195 28.44604492 C-24.3796582 27.1440918 -24.42606445 25.84213867 -24.47387695 24.50073242 C-24.51141042 22.77419296 -24.54780889 21.04762856 -24.58325195 19.32104492 C-24.61676758 18.46510742 -24.6502832 17.60916992 -24.68481445 16.72729492 C-24.77053169 11.15567443 -24.32714487 7.68472482 -20.33325195 3.44604492 C-13.5962128 0.00947185 -7.44409062 -0.04610691 0 0 Z M-8.33325195 16.44604492 C-8.43637695 18.59104492 -8.53950195 20.73604492 -8.64575195 22.94604492 C-9.0803243 28.75991818 -9.56845069 33.29779429 -12.33325195 38.44604492 C-18.26670317 43.55157271 -25.44659677 46.06600737 -33.2434082 45.71948242 C-40.38973575 44.78444891 -44.65832907 39.44133054 -49.33325195 34.44604492 C-54.62337319 38.85447929 -59.52133623 43.52164286 -64.33325195 48.44604492 C-62.95157729 51.60317152 -61.36328983 53.56255679 -58.83325195 55.88354492 C-54.84190709 59.80020766 -53.58283764 62.41370434 -52.89575195 68.00854492 C-53.05152197 73.84992063 -55.43943759 79.44439048 -58.33325195 84.44604492 C-63.51720766 89.11398666 -67.1620861 89.67157099 -73.95825195 90.00854492 C-78.10387695 90.22510742 -78.10387695 90.22510742 -82.33325195 90.44604492 C-82.33325195 97.70604492 -82.33325195 104.96604492 -82.33325195 112.44604492 C-77.00930993 112.61591983 -77.00930993 112.61591983 -71.68432617 112.74389648 C-66.5264289 112.97773101 -63.35929796 113.96000508 -59.33325195 117.44604492 C-57.6887207 119.91870117 -57.6887207 119.91870117 -56.52075195 122.50854492 C-55.92327148 123.79438477 -55.92327148 123.79438477 -55.3137207 125.10620117 C-52.97119023 130.69654281 -52.41512829 135.69167392 -54.33325195 141.44604492 C-57.14210653 145.65932679 -60.6473668 148.99654671 -64.33325195 152.44604492 C-62.6746169 156.77109328 -59.46221095 159.54023318 -56.20825195 162.69604492 C-55.36327148 163.52749023 -55.36327148 163.52749023 -54.5012207 164.37573242 C-53.11639168 165.73708977 -51.72541991 167.09219351 -50.33325195 168.44604492 C-49.66229492 167.8659668 -49.66229492 167.8659668 -48.9777832 167.27416992 C-37.06414324 157.01167409 -37.06414324 157.01167409 -29.27075195 157.10229492 C-23.41325994 157.78774611 -17.07163222 159.85353479 -12.7199707 163.97338867 C-8.17312738 170.47124113 -8.82338299 178.88402325 -8.33325195 186.44604492 C-1.40325195 186.44604492 5.52674805 186.44604492 12.66674805 186.44604492 C12.87584327 181.4512347 12.87584327 181.4512347 13.0546875 176.45532227 C13.29657084 171.81893067 14.10268594 168.44244517 16.66674805 164.44604492 C19.10052144 162.34831556 21.82827625 160.93849537 24.66674805 159.44604492 C25.45049805 159.01291992 26.23424805 158.57979492 27.04174805 158.13354492 C32.46153929 156.71407579 38.28063559 156.34003092 43.35424805 159.00854492 C47.27999094 161.59766583 50.48895476 165.00746009 53.66674805 168.44604492 C58.95686929 164.03761056 63.85483233 159.37044698 68.66674805 154.44604492 C68.2800293 153.99874023 67.89331055 153.55143555 67.49487305 153.09057617 C57.27085256 141.22160189 57.27085256 141.22160189 57.3894043 132.21166992 C58.00227203 126.10025648 60.04371112 120.43334112 64.79174805 116.38354492 C69.20752372 113.4076961 72.5850681 113.15820217 77.79174805 112.88354492 C80.39049805 112.73916992 82.98924805 112.59479492 85.66674805 112.44604492 C85.66674805 105.18604492 85.66674805 97.92604492 85.66674805 90.44604492 C80.67194071 90.27621863 80.67194071 90.27621863 75.67602539 90.14819336 C70.65108188 89.90581223 67.64539101 88.74178648 63.66674805 85.44604492 C61.88827136 83.21295762 60.94717808 81.05263463 59.66674805 78.44604492 C59.25424805 77.68291992 58.84174805 76.91979492 58.41674805 76.13354492 C56.90509587 70.71679128 56.55226908 64.84825171 59.22924805 59.75854492 C61.81836895 55.83280203 65.22816321 52.62383821 68.66674805 49.44604492 C64.25831368 44.15592368 59.59115011 39.25796064 54.66674805 34.44604492 C54.21944336 34.83276367 53.77213867 35.21948242 53.3112793 35.61791992 C41.34182993 45.92849038 41.34182993 45.92849038 32.57299805 45.86401367 C26.5282289 44.99467187 19.96771286 42.04407083 15.8815918 37.43041992 C13.33382254 33.26879039 13.35661463 28.98935706 13.10424805 24.25854492 C12.88768555 20.39135742 12.88768555 20.39135742 12.66674805 16.44604492 C5.73674805 16.44604492 -1.19325195 16.44604492 -8.33325195 16.44604492 Z M-160.33325195 216.44604492 C-162.97325195 219.08604492 -165.61325195 221.72604492 -168.33325195 224.44604492 C-167.42575195 225.55979492 -166.51825195 226.67354492 -165.58325195 227.82104492 C-164.81754883 228.76077148 -164.81754883 228.76077148 -164.03637695 229.71948242 C-162.17134883 231.79591587 -162.17134883 231.79591587 -158.33325195 233.44604492 C-155.69325195 230.80604492 -153.05325195 228.16604492 -150.33325195 225.44604492 C-151.69450195 223.77541992 -151.69450195 223.77541992 -153.08325195 222.07104492 C-153.5937207 221.44456055 -154.10418945 220.81807617 -154.63012695 220.17260742 C-156.49515508 218.09617398 -156.49515508 218.09617398 -160.33325195 216.44604492 Z M-65.33325195 251.44604492 C-65.33325195 256.06604492 -65.33325195 260.68604492 -65.33325195 265.44604492 C-61.04325195 265.44604492 -56.75325195 265.44604492 -52.33325195 265.44604492 C-52.33325195 260.82604492 -52.33325195 256.20604492 -52.33325195 251.44604492 C-56.62325195 251.44604492 -60.91325195 251.44604492 -65.33325195 251.44604492 Z M-159.33325195 281.44604492 C-159.33325195 286.06604492 -159.33325195 290.68604492 -159.33325195 295.44604492 C-155.04325195 295.44604492 -150.75325195 295.44604492 -146.33325195 295.44604492 C-146.33325195 290.82604492 -146.33325195 286.20604492 -146.33325195 281.44604492 C-150.62325195 281.44604492 -154.91325195 281.44604492 -159.33325195 281.44604492 Z M-181.33325195 380.44604492 C-181.33325195 386.71604492 -181.33325195 392.98604492 -181.33325195 399.44604492 C-178.85176896 400.68678642 -177.20641298 400.57187046 -174.42991638 400.57302856 C-173.39367126 400.57584839 -172.35742615 400.57866821 -171.28977966 400.58157349 C-170.14840042 400.57954926 -169.00702118 400.57752502 -167.83105469 400.57543945 C-166.03349228 400.57806793 -166.03349228 400.57806793 -164.19961548 400.58074951 C-160.90842738 400.58440366 -157.61730191 400.58353729 -154.32611728 400.58037043 C-150.88725622 400.5778438 -147.4483979 400.58018516 -144.00953674 400.58175659 C-138.23503131 400.58357715 -132.46053865 400.58117469 -126.68603516 400.57641602 C-120.00134077 400.57097104 -113.31667687 400.57273821 -106.63198322 400.57824242 C-100.90033724 400.58277371 -95.16870046 400.5834241 -89.43705326 400.58080375 C-86.01034709 400.57924139 -82.58365526 400.57904614 -79.15695 400.58234024 C-75.33997274 400.58575308 -71.52302992 400.58102898 -67.70605469 400.57543945 C-66.56265121 400.57746368 -65.41924774 400.57948792 -64.24119568 400.58157349 C-62.69105774 400.57734375 -62.69105774 400.57734375 -61.10960388 400.57302856 C-60.20607902 400.57265154 -59.30255415 400.57227451 -58.37164974 400.57188606 C-56.3386824 400.67220625 -56.3386824 400.67220625 -55.33325195 399.44604492 C-55.24673584 398.03034369 -55.22620291 396.61044992 -55.2355957 395.19213867 C-55.23881836 394.33813477 -55.24204102 393.48413086 -55.24536133 392.60424805 C-55.25374023 391.70641602 -55.26211914 390.80858398 -55.27075195 389.88354492 C-55.27526367 388.9818457 -55.27977539 388.08014648 -55.28442383 387.15112305 C-55.29624971 384.91603178 -55.31272975 382.68107056 -55.33325195 380.44604492 C-57.80402645 379.21065767 -59.42792733 379.32022532 -62.19189453 379.31906128 C-63.21828033 379.31624146 -64.24466614 379.31342163 -65.30215454 379.31051636 C-66.99784073 379.3135527 -66.99784073 379.3135527 -68.7277832 379.31665039 C-69.91479828 379.31489807 -71.10181335 379.31314575 -72.32479858 379.31134033 C-75.58505471 379.30768607 -78.84527043 379.30855277 -82.10552597 379.31171942 C-85.51322262 379.31424652 -88.92091653 379.3119045 -92.32861328 379.31033325 C-98.05184414 379.30851258 -103.77506211 379.31091518 -109.49829102 379.31567383 C-116.12048151 379.32111625 -122.74264122 379.31935352 -129.36483097 379.31384742 C-135.04468837 379.30931337 -140.72453648 379.30866718 -146.4043951 379.31128609 C-149.79927513 379.31284725 -153.19414067 379.31304701 -156.58901978 379.3097496 C-160.37227487 379.3072219 -164.15547009 379.3110654 -167.9387207 379.31665039 C-169.06917816 379.31462616 -170.19963562 379.31260193 -171.36434937 379.31051636 C-172.39073517 379.31333618 -173.41712097 379.31615601 -174.47460938 379.31906128 C-175.81745247 379.31962682 -175.81745247 379.31962682 -177.18742371 379.32020378 C-179.38485996 379.30764758 -179.38485996 379.30764758 -181.33325195 380.44604492 Z M-153.33325195 416.44604492 C-153.33325195 417.76604492 -153.33325195 419.08604492 -153.33325195 420.44604492 C-130.23325195 420.44604492 -107.13325195 420.44604492 -83.33325195 420.44604492 C-83.33325195 419.12604492 -83.33325195 417.80604492 -83.33325195 416.44604492 C-106.43325195 416.44604492 -129.53325195 416.44604492 -153.33325195 416.44604492 Z M-153.33325195 436.44604492 C-153.33325195 438.42604492 -153.33325195 440.40604492 -153.33325195 442.44604492 C-150.50496169 443.86019005 -148.1343925 443.57331208 -144.97167969 443.57543945 C-143.99341721 443.57806793 -143.99341721 443.57806793 -142.99539185 443.58074951 C-140.83584954 443.58515729 -138.67638886 443.58223416 -136.5168457 443.57885742 C-135.01994308 443.57953069 -133.52304056 443.5805009 -132.02613831 443.58175659 C-128.88802042 443.58323204 -125.74993099 443.58108361 -122.61181641 443.57641602 C-118.58082285 443.57071389 -114.54989581 443.57400174 -110.51890469 443.57998848 C-107.42808019 443.58359402 -104.33727158 443.58245563 -101.24644661 443.57986069 C-99.75962377 443.57919165 -98.2727995 443.58001902 -96.78597832 443.58234024 C-94.71242295 443.5848672 -92.63897687 443.58102585 -90.56542969 443.57543945 C-89.38343491 443.57464386 -88.20144012 443.57384827 -86.98362732 443.57302856 C-84.41052779 443.74747303 -84.41052779 443.74747303 -83.33325195 442.44604492 C-83.33325195 440.46604492 -83.33325195 438.48604492 -83.33325195 436.44604492 C-106.43325195 436.44604492 -129.53325195 436.44604492 -153.33325195 436.44604492 Z " fill="#e52b50" transform="translate(380.333251953125,53.553955078125)"/>
<path d="M0 0 C1.27925316 2.98492403 1.40642366 4.97202351 0.9375 8.1875 C-1.08173146 11.0610217 -2.37386627 12.01780802 -5.7890625 12.859375 C-9.3935844 13.22068746 -12.25923254 12.79626207 -15.8125 12.125 C-26.09668138 10.54780412 -34.30008183 12.53201768 -43.0625 18.1875 C-51.40487821 24.9045528 -55.55610326 32.6613203 -57.0625 43.1875 C-57.90967849 53.69251331 -54.80013626 63.08968366 -48.0625 71.1875 C-40.69149655 78.9391656 -31.74821776 82.75498285 -21.0625 83.1875 C-10.58707099 82.28364661 -2.55001 78.91256455 4.7421875 71.3046875 C10.46937898 64.26679548 14.16049675 55.33036678 13.9375 46.1875 C13.42143395 42.57503765 12.82521219 39.00177514 12.1171875 35.421875 C11.90492412 31.60113419 12.64969576 30.18824788 14.9375 27.1875 C16.9375 25.1875 16.9375 25.1875 19.75 24.8125 C23.76755262 25.28515325 25.20203558 26.22408021 27.9375 29.1875 C32.52761355 39.97426685 31.7567366 53.7944516 28.0859375 64.72265625 C21.65102529 79.97287502 11.14556182 90.65623694 -4.0625 97.1875 C-17.6644721 102.15745134 -32.27008991 100.53953886 -45.28515625 94.65625 C-59.14341748 87.32754927 -67.81685448 75.45269818 -72.87109375 60.8515625 C-76.31243395 48.0830037 -74.33126627 34.23543153 -68.4375 22.5625 C-61.19598528 10.14079282 -50.64864817 0.92395532 -37.0625 -3.8125 C-25.99590694 -6.59637522 -9.29261072 -8.16623366 0 0 Z " fill="#e52b50" transform="translate(404.0625,107.8125)"/>
<path d="M0 0 C0.87720703 -0.01224609 1.75441406 -0.02449219 2.65820312 -0.03710938 C14.45927804 -0.06358897 14.45927804 -0.06358897 18.9296875 3.625 C23.74034166 10.26038505 23.43441812 14.79094035 23.5 22.875 C23.52900391 24.04740234 23.55800781 25.21980469 23.58789062 26.42773438 C23.63796651 33.24961074 23.37893412 37.69633677 19.1875 43.1875 C15.44742481 46.23861397 12.89872794 46.29781801 8.1875 46.1875 C8.19860306 46.80502136 8.20970612 47.42254272 8.22114563 48.05877686 C8.33171057 54.4823969 8.40715537 60.90574699 8.4621582 67.33007812 C8.48731212 69.72797625 8.52143919 72.12579764 8.56469727 74.5234375 C8.62530735 77.96894249 8.65370156 81.41343446 8.67578125 84.859375 C8.70158768 85.93241882 8.7273941 87.00546265 8.75398254 88.11102295 C8.75677755 95.51742105 8.75677755 95.51742105 5.88354492 98.89941406 C2.20883163 100.65507714 0.06688166 100.26510602 -3.8125 99.1875 C-6.39705285 97.29216125 -6.77525506 96.29923483 -7.8125 93.1875 C-7.89937799 91.63779552 -7.9301866 90.08460293 -7.92602539 88.5324707 C-7.92594986 87.59172195 -7.92587433 86.65097321 -7.92579651 85.68171692 C-7.92063522 84.66913315 -7.91547394 83.65654938 -7.91015625 82.61328125 C-7.9087413 81.57431198 -7.90732635 80.53534271 -7.90586853 79.46488953 C-7.90026656 76.14323052 -7.88771372 72.82163867 -7.875 69.5 C-7.86998525 67.24934993 -7.8654223 64.99869881 -7.86132812 62.74804688 C-7.85029649 57.22784163 -7.83355643 51.70767561 -7.8125 46.1875 C-8.90949219 46.05988281 -10.00648438 45.93226563 -11.13671875 45.80078125 C-15.26988442 45.11118825 -16.88185248 44.11814752 -19.8125 41.1875 C-23.20884582 35.89976264 -22.14022754 29.29533217 -22.125 23.25 C-22.14111328 21.97447266 -22.15722656 20.69894531 -22.17382812 19.38476562 C-22.17447266 18.15564453 -22.17511719 16.92652344 -22.17578125 15.66015625 C-22.18025269 13.97805054 -22.18025269 13.97805054 -22.18481445 12.26196289 C-21.76730919 8.81432759 -20.86398177 6.96307032 -18.8125 4.1875 C-12.78340147 -0.14108356 -7.15932174 0.00519168 0 0 Z M-5.8125 16.1875 C-5.8125 20.8075 -5.8125 25.4275 -5.8125 30.1875 C-1.5225 30.1875 2.7675 30.1875 7.1875 30.1875 C7.1875 25.5675 7.1875 20.9475 7.1875 16.1875 C2.8975 16.1875 -1.3925 16.1875 -5.8125 16.1875 Z " fill="#e52b50" transform="translate(264.8125,200.8125)"/>
<path d="M0 0 C6.22142129 4.20998433 9.4782091 9.7315023 11.828125 16.78125 C12.72117215 26.53156804 10.99149341 32.94315713 5.703125 41.03125 C0.21133833 46.28426333 -6.72211126 49.4252689 -14.296875 50.03125 C-22.89951656 49.47624087 -29.03476248 47.07604843 -35.25390625 41 C-40.95782055 34.40158182 -41.90095986 27.83054828 -41.61328125 19.21875 C-40.57237288 11.11256092 -36.67897213 5.23662441 -30.34375 0.1875 C-20.59818857 -6.12257575 -9.9223082 -5.56791396 0 0 Z M-24.046875 16.46875 C-25.70956209 19.88649568 -25.8300724 23.10265789 -25.171875 26.78125 C-23.35670284 29.87376553 -21.88543358 31.36813714 -18.796875 33.15625 C-15.44535887 33.95423003 -13.46875518 33.81152506 -10.171875 32.78125 C-6.68228782 30.2222194 -4.91677985 28.05840331 -4.109375 23.84375 C-3.89173057 20.55420996 -4.28083703 19.55494425 -5.796875 16.40625 C-8.24844583 13.69661908 -9.67201794 12.67864925 -13.171875 11.78125 C-17.61131659 11.78125 -20.7665301 13.51643959 -24.046875 16.46875 Z " fill="#e52b50" transform="translate(397.171875,132.21875)"/>
<path d="M0 0 C1.74410156 -0.0299707 1.74410156 -0.0299707 3.5234375 -0.06054688 C14.33153306 -0.05436375 14.33153306 -0.05436375 19 4.4375 C23.26607854 10.33844828 22.47680832 16.35310492 22.4375 23.375 C22.4674707 25.26895508 22.4674707 25.26895508 22.49804688 27.20117188 C22.49259751 37.52771712 22.49259751 37.52771712 20.41015625 41.12890625 C14.30954871 46.97243794 8.04842115 46.90985993 0 46.8125 C-0.9590625 46.82410156 -1.918125 46.83570313 -2.90625 46.84765625 C-8.70540857 46.82375862 -12.89955266 46.25687656 -18 43.4375 C-23.83552479 37.14127589 -23.24537527 32.02424203 -23.3125 23.75 C-23.34150391 22.57759766 -23.37050781 21.40519531 -23.40039062 20.19726562 C-23.45004103 13.43335331 -23.38755137 8.75640556 -19 3.4375 C-13.53301027 -0.84672753 -6.62644826 -0.04040517 0 0 Z M-7 16.4375 C-7 21.0575 -7 25.6775 -7 30.4375 C-2.71 30.4375 1.58 30.4375 6 30.4375 C6 25.8175 6 21.1975 6 16.4375 C1.71 16.4375 -2.58 16.4375 -7 16.4375 Z " fill="#e52b50" transform="translate(231,126.5625)"/>
<path d="M0 0 C1.30195313 -0.03222656 2.60390625 -0.06445312 3.9453125 -0.09765625 C14.62780175 -0.10855675 14.62780175 -0.10855675 18.9765625 3.4765625 C24.14876255 8.75414962 22.88354513 16.04206815 22.9375 22.9375 C22.96650391 24.16146484 22.99550781 25.38542969 23.02539062 26.64648438 C23.1061267 38.06753383 23.1061267 38.06753383 18.625 42.625 C12.81234867 46.79396131 7.09655762 46.10269018 0.1875 46.0625 C-1.02744141 46.08248047 -2.24238281 46.10246094 -3.49414062 46.12304688 C-14.77563714 46.11686523 -14.77563714 46.11686523 -19.375 41.625 C-22.13822921 37.78327507 -22.75859969 35.11195559 -22.7734375 30.40625 C-22.77730469 29.22675781 -22.78117188 28.04726562 -22.78515625 26.83203125 C-22.77355469 25.60871094 -22.76195312 24.38539063 -22.75 23.125 C-22.76160156 21.90167969 -22.77320313 20.67835938 -22.78515625 19.41796875 C-22.78128906 18.23847656 -22.77742187 17.05898437 -22.7734375 15.84375 C-22.77005371 14.77060547 -22.76666992 13.69746094 -22.76318359 12.59179688 C-22.16281536 8.00332216 -20.32809465 5.57768569 -17.09912109 2.35009766 C-11.93922056 -0.91750022 -5.93621732 -0.02921367 0 0 Z M-6.375 16.625 C-6.375 20.915 -6.375 25.205 -6.375 29.625 C-2.085 29.625 2.205 29.625 6.625 29.625 C6.625 25.335 6.625 21.045 6.625 16.625 C2.335 16.625 -1.955 16.625 -6.375 16.625 Z " fill="#e52b50" transform="translate(196.375,184.375)"/>
<path d="M0 0 C2.29047075 1.579635 2.89075219 2.71127363 3.875 5.3125 C4.0535387 9.15108215 3.12678552 10.77397702 1 14 C-1.90669571 16.13244084 -5.02730167 17.71093141 -8.25 19.3125 C-9.08402344 19.75400391 -9.91804688 20.19550781 -10.77734375 20.65039062 C-21.36930685 26.07939526 -21.36930685 26.07939526 -27.3125 24.3125 C-29.47719891 22.62884529 -30.21270916 21.64816011 -31 19 C-30.93040987 15.10295263 -30.8816182 12.85887805 -28.03125 10.08203125 C-24.05522145 7.3510735 -19.90806488 5.26494095 -15.5625 3.1875 C-14.72912109 2.76791016 -13.89574219 2.34832031 -13.03710938 1.91601562 C-8.33804184 -0.33879385 -5.20012085 -1.73606519 0 0 Z " fill="#e52b50" transform="translate(85,329)"/>
<path d="M0 0 C2.82056824 1.81059257 5.22795552 3.98156039 7.6875 6.25 C8.33783203 6.82363281 8.98816406 7.39726563 9.65820312 7.98828125 C13.10446651 11.07270455 16.41790176 14.13340619 19 18 C18.94021398 21.46758942 18.60965977 23.88826749 16.9375 26.9375 C13.50347918 28.82067271 10.68291691 29.04793524 7 28 C2.99754599 25.36466328 -0.46674162 22.22601852 -4 19 C-5.5403857 17.68599686 -7.08189548 16.37330922 -8.625 15.0625 C-11.64227359 12.45779239 -12.89326169 11.2274906 -13.25 7.125 C-12.9728981 3.66122621 -12.42730771 2.42730771 -10 0 C-6.07830373 -1.30723209 -4.02292723 -1.01091065 0 0 Z " fill="#e52b50" transform="translate(94,85)"/>
<path d="M0 0 C5.10950054 4.00083533 6.55464338 8.38251782 8.3125 14.375 C8.57611328 15.2 8.83972656 16.025 9.11132812 16.875 C10.58053869 21.68332549 11.48213289 25.92153351 11 31 C9 34 9 34 6 36 C3.13109088 36.31814751 0.66726578 36.12159084 -2 35 C-5.67028562 30.75094312 -6.74589412 25.99202874 -8.25 20.6875 C-8.53101563 19.76259766 -8.81203125 18.83769531 -9.1015625 17.88476562 C-10.64990457 12.49239608 -11.44002832 8.47066035 -10 3 C-7.0879799 -0.34343049 -4.29142741 -0.70064121 0 0 Z " fill="#e52b50" transform="translate(202,10)"/>
<path d="M0 0 C3.45343394 2.47746348 4.7975138 3.96846654 5.62109375 8.1640625 C4.69424288 13.88838675 1.32759292 16.47143357 -2.8125 20.3125 C-3.55048828 21.02728516 -4.28847656 21.74207031 -5.04882812 22.47851562 C-12.73595711 29.85955079 -12.73595711 29.85955079 -17.9375 30.4375 C-21.2247514 30.34045937 -21.86605059 30.10781294 -24.5625 27.9375 C-26.51832286 23.94081851 -26.21080867 22.29246974 -25 18 C-22.66605555 14.91706181 -19.94006183 12.32876236 -17.125 9.6875 C-16.39152344 8.97271484 -15.65804687 8.25792969 -14.90234375 7.52148438 C-6.21772662 -0.87048173 -6.21772662 -0.87048173 0 0 Z " fill="#e52b50" transform="translate(119,378)"/>
<path d="M0 0 C4.48454911 3.87404746 7.59603539 8.49470859 10.8125 13.4375 C11.31458984 14.17548828 11.81667969 14.91347656 12.33398438 15.67382812 C15.08112545 19.8786359 16.8287967 22.80467253 16 28 C14.4375 30.875 14.4375 30.875 12 33 C8.12986318 33.63329512 5.9884944 33.62190045 2.640625 31.515625 C-0.90964639 28.1334138 -3.27458447 24.35862685 -5.8125 20.1875 C-6.31458984 19.40568359 -6.81667969 18.62386719 -7.33398438 17.81835938 C-10.23815562 13.08870907 -11.84921997 9.7195328 -11 4 C-7.70503051 0.22047618 -4.94820177 -0.92778783 0 0 Z " fill="#e52b50" transform="translate(142,39)"/>
<path d="M0 0 C2.50061526 0.95348293 4.94976252 1.98639797 7.40087891 3.06054688 C8.24199219 3.40859375 9.08310547 3.75664062 9.94970703 4.11523438 C17.95460007 7.54318223 17.95460007 7.54318223 20.71337891 11.31054688 C21.49702083 14.07761352 21.35912697 16.51611497 20.71337891 19.31054688 C18.71337891 21.87304688 18.71337891 21.87304688 15.71337891 23.31054688 C9.26338499 23.01005962 4.21960757 21.12556394 -1.59912109 18.43554688 C-2.79504883 17.90767578 -2.79504883 17.90767578 -4.01513672 17.36914062 C-12.43588932 13.55890942 -12.43588932 13.55890942 -14.16162109 8.99804688 C-14.3297638 5.38297873 -13.15659794 3.35791656 -11.28662109 0.31054688 C-7.61517532 -1.52517601 -3.87736516 -1.16908811 0 0 Z " fill="#e52b50" transform="translate(60.28662109375,142.689453125)"/>
<path d="M0 0 C1.63491083 3.84204046 1.42983946 5.95554181 0.25 9.9375 C-2.43375249 12.40702344 -4.72069806 13.40769567 -8.26953125 14.10546875 C-9.12740234 14.27626953 -9.98527344 14.44707031 -10.86914062 14.62304688 C-11.75794922 14.78869141 -12.64675781 14.95433594 -13.5625 15.125 C-14.43970703 15.30224609 -15.31691406 15.47949219 -16.22070312 15.66210938 C-21.11137883 16.60951776 -25.74594043 17.30095958 -30.75 16.9375 C-33.46604883 15.00767583 -34.49692606 13.59549225 -35.6875 10.5 C-35.76997067 7.11870249 -34.7698841 5.60663256 -32.75 2.9375 C-25.50592994 -1.89188004 -7.23721573 -5.4279118 0 0 Z " fill="#e52b50" transform="translate(67.75,273.0625)"/>
<path d="M0 0 C1.0223877 0.10465576 1.0223877 0.10465576 2.06542969 0.21142578 C6.26482997 0.73092857 9.28337021 1.65196618 12.6875 4.1875 C14.23336876 7.27923752 13.98109521 9.78179552 13.6875 13.1875 C12.375 15.625 12.375 15.625 9.6875 17.1875 C0.49856844 18.4837957 -13.69914519 17.7640717 -21.3125 12.1875 C-22.85836876 9.09576248 -22.60609521 6.59320448 -22.3125 3.1875 C-18.19276802 -4.11566124 -7.04068438 -0.77283642 0 0 Z " fill="#e52b50" transform="translate(52.3125,207.8125)"/>
<path d="M0 0 C3.04095865 0.67704362 4.13404176 2.05090367 6.0703125 4.4609375 C6.58789062 7.421875 6.58789062 7.421875 6.6015625 10.8359375 C6.60671875 12.06828125 6.611875 13.300625 6.6171875 14.5703125 C6.60171875 15.85421875 6.58625 17.138125 6.5703125 18.4609375 C6.58578125 19.74484375 6.60125 21.02875 6.6171875 22.3515625 C6.61203125 23.58390625 6.606875 24.81625 6.6015625 26.0859375 C6.59705078 27.21257813 6.59253906 28.33921875 6.58789062 29.5 C5.9577497 33.10488168 4.97437929 34.29132192 2.0703125 36.4609375 C-1.4296875 36.9609375 -1.4296875 36.9609375 -4.9296875 36.4609375 C-7.83685823 34.24230721 -8.76950393 32.94148821 -9.9296875 29.4609375 C-10.16031469 25.83989681 -10.11485312 22.21356065 -10.1171875 18.5859375 C-10.12943359 17.59207031 -10.14167969 16.59820313 -10.15429688 15.57421875 C-10.15623047 14.61128906 -10.15816406 13.64835938 -10.16015625 12.65625 C-10.16426514 11.77984863 -10.16837402 10.90344727 -10.17260742 10.00048828 C-9.4910121 2.87490588 -7.11106012 0.29742077 0 0 Z " fill="#e52b50" transform="translate(266.9296875,-0.4609375)"/>
</svg>
