<?xml version="1.0" encoding="UTF-8"?>
<svg version="1.1" xmlns="http://www.w3.org/2000/svg" width="512" height="512">
<path d="M0 0 C6.93957667 5.63129583 12.23751345 13.36428275 13.6875 22.25 C13.7780219 24.05041673 13.8205708 25.85362692 13.82553101 27.65631104 C13.83098434 28.72930954 13.83643768 29.80230804 13.84205627 30.90782166 C13.8430986 32.0755159 13.84414093 33.24321014 13.84521484 34.44628906 C13.85029556 35.68457962 13.85537628 36.92287018 13.86061096 38.19868469 C13.87131358 40.89086578 13.88031628 43.58299547 13.88673019 46.27518463 C13.89747986 50.55872106 13.91775201 54.84218035 13.93984985 59.12567139 C14.0015112 71.30688856 14.05542904 83.48810388 14.08886719 95.66943359 C14.10742039 102.3989702 14.13662162 109.12837956 14.1768719 115.85782218 C14.19763062 119.40488258 14.21335328 122.95178474 14.21567917 126.498909 C14.24307685 158.80977706 16.98886909 189.07405712 31.6875 218.25 C31.69114563 217.35987717 31.69479126 216.46975433 31.69854736 215.55265808 C31.73656928 207.12351487 31.79358186 198.694753 31.87140274 190.26587963 C31.91074633 185.93350499 31.94299858 181.6013296 31.95849609 177.26879883 C31.97374986 173.07991333 32.00834745 168.89157613 32.05580902 164.70293617 C32.07053362 163.11278387 32.07853584 161.52255324 32.07938385 159.93233299 C32.09257825 147.58512251 33.43931052 137.06891573 41.6328125 127.2578125 C48.75751916 120.29564667 57.11340651 117.24528385 66.9375 116.875 C77.74300683 117.1101714 84.88298529 120.51569453 92.59375 128.03125 C100.5885989 136.50340332 102.17663542 146.55438049 101.9453125 157.87109375 C101.93783493 158.86940216 101.93035736 159.86771057 101.9226532 160.89627075 C101.90577874 163.04330024 101.88261019 165.190288 101.85366821 167.33718872 C101.8118085 170.74377532 101.79585517 174.14957062 101.7878418 177.55639648 C101.76406311 187.23507527 101.72268752 196.91288832 101.59521484 206.59082031 C101.51885245 212.53025817 101.49644849 218.46785705 101.50848389 224.40774536 C101.50287283 226.65957525 101.47735688 228.91145224 101.43096924 231.16281128 C100.67498425 244.84908822 100.67498425 244.84908822 106.54780579 256.58259583 C108.79619139 258.6543331 111.21993782 260.4491825 113.6875 262.25 C115.78265738 264.55144798 117.62552303 266.97196205 119.4375 269.5 C119.88794678 270.12132812 120.33839355 270.74265625 120.80249023 271.3828125 C132.4769715 288.01472145 136.18812981 305.8349222 133.0703125 325.87109375 C130.40675493 339.67978695 124.44944247 353.05327043 115.05859375 363.5625 C113.0120905 367.57387959 113.88740248 370.99650333 114.6875 375.25 C114.8738501 376.2930127 115.0602002 377.33602539 115.25219727 378.41064453 C115.89128101 381.88365513 116.56556704 385.34815728 117.25 388.8125 C117.48396484 390.01197266 117.71792969 391.21144531 117.95898438 392.44726562 C118.53193147 395.3821579 119.10817727 398.31636078 119.6875 401.25 C120.64011719 401.19199219 121.59273437 401.13398438 122.57421875 401.07421875 C132.58155879 400.71424249 132.58155879 400.71424249 135.6953125 402.22265625 C139.04414565 405.50130427 139.62368647 408.84534666 139.82794189 413.34138489 C139.8347699 414.55493149 139.8415979 415.76847809 139.84863281 417.01879883 C139.85359772 417.69088882 139.85856262 418.36297882 139.86367798 419.05543518 C139.87824866 421.2726444 139.88509326 423.48978207 139.890625 425.70703125 C139.8963809 427.25396221 139.90213857 428.80089315 139.90789795 430.3478241 C139.91839362 433.59004039 139.92424558 436.832232 139.92773438 440.07446289 C139.93321436 444.21702914 139.95723763 448.35926594 139.98570633 452.50172901 C140.0043847 455.69745316 140.00954108 458.89309879 140.01107025 462.08887291 C140.01408588 463.61541227 140.02207741 465.1419506 140.03525543 466.66843605 C140.05242467 468.81021391 140.05040977 470.9511977 140.04394531 473.09301758 C140.04941376 474.91691765 140.04941376 474.91691765 140.05499268 476.77766418 C139.61393992 480.94504867 138.63034452 483.54253381 136.6875 487.25 C133.40219361 489.44020426 132.4278822 489.50472271 128.61489868 489.52415466 C127.04189751 489.53911736 127.04189751 489.53911736 125.43711853 489.55438232 C123.71181664 489.55537933 123.71181664 489.55537933 121.95166016 489.55639648 C120.74005722 489.56472 119.52845428 489.57304352 118.28013611 489.58161926 C114.95563326 489.60160833 111.63138104 489.61236387 108.30683947 489.61744571 C106.22948522 489.62108862 104.15215509 489.62732834 102.07481003 489.6344471 C94.82655529 489.65894381 87.57837214 489.67199393 80.33007812 489.67553711 C73.57538654 489.67917247 66.82114933 489.7090667 60.06659663 489.75094169 C54.26606553 489.78564055 48.46568505 489.80108547 42.66505086 489.80178314 C39.20115883 489.80257613 35.73772958 489.81132324 32.27394485 489.83978081 C28.40982745 489.87081736 24.54636263 489.8619037 20.68212891 489.84936523 C18.9628997 489.87161667 18.9628997 489.87161667 17.2089386 489.89431763 C9.44372068 489.82240613 9.44372068 489.82240613 5.50033569 486.83753967 C2.59543769 482.6912517 2.54921199 480.40644449 2.51049805 475.32519531 C2.50064125 474.25656754 2.50064125 474.25656754 2.49058533 473.16635132 C2.47084104 470.80360817 2.45918616 468.44092867 2.44921875 466.078125 C2.44514322 465.27103844 2.4410677 464.46395187 2.43686867 463.63240814 C2.41600129 459.35910802 2.40170352 455.08584006 2.39233398 450.8125 C2.38127904 446.40289502 2.34689203 441.99379599 2.30716228 437.58436966 C2.28098665 434.19052202 2.27264124 430.79679462 2.26905251 427.40285492 C2.26418753 425.77778463 2.252576 424.15271967 2.23401451 422.52774811 C2.20960585 420.24888858 2.21059071 417.97133367 2.2175293 415.69238281 C2.21166306 414.39713684 2.20579681 413.10189087 2.19975281 411.76739502 C2.77248621 407.6371209 4.08855006 405.47117723 6.6875 402.25 C9.75283164 400.71733418 12.95504272 401.14723529 16.3125 401.1875 C17.37210938 401.19426758 17.37210938 401.19426758 18.453125 401.20117188 C20.19795275 401.21296125 21.942737 401.23089676 23.6875 401.25 C23.32848008 396.75051459 22.95555049 392.2524467 22.57055664 387.75512695 C22.44187313 386.23004266 22.3167745 384.70465092 22.19555664 383.17895508 C21.22031094 370.95025692 20.10428351 359.98458495 13 349.625 C8.0412042 341.85681094 8.0412042 341.85681094 7.8125 337.125 C8.82465523 332.64259826 10.06605962 331.00919267 13.6875 328.25 C16.07099487 327.05825257 17.35673121 327.13924373 20 327.3125 C20.75925781 327.34472656 21.51851563 327.37695312 22.30078125 327.41015625 C25.85971654 328.66248209 27.56511038 331.286212 29.6875 334.25 C30.07478271 334.78584717 30.46206543 335.32169434 30.86108398 335.8737793 C44.35717285 355.30918521 44.6875 378.25141683 44.6875 401.25 C62.1775 401.25 79.6675 401.25 97.6875 401.25 C95.3941048 390.79276252 95.3941048 390.79276252 93.08007812 380.34008789 C89.11411746 362.22574523 89.11411746 362.22574523 91.61962891 357.48706055 C92.89919302 355.73001297 94.27556897 354.15884411 95.75 352.5625 C107.60543993 338.60527519 113.28625285 322.56512039 111.93310547 304.24072266 C109.90175683 287.77589481 94.37138038 273.57521815 83 262.625 C80.60303766 260.11389659 80.5601597 258.22623471 80.54946899 254.87384033 C80.54401566 253.95420502 80.53856232 253.0345697 80.53294373 252.08706665 C80.5319014 251.07510223 80.53085907 250.06313782 80.52978516 249.02050781 C80.52470444 247.95696075 80.51962372 246.8934137 80.51438904 245.79763794 C80.50366829 243.48189372 80.49505483 241.16613904 80.48826981 238.85037994 C80.47650618 235.1855778 80.45705927 231.52089485 80.43515015 227.85614014 C80.37345257 217.43408166 80.31949078 207.01203444 80.28613281 196.58984375 C80.26519412 190.22025202 80.22989425 183.85087581 80.18537521 177.48140717 C80.1712057 175.05256436 80.16249064 172.6236834 80.15932083 170.19480133 C80.15441543 166.7953282 80.13126515 163.3964273 80.10400391 159.99707031 C80.10701004 158.99320282 80.11001617 157.98933533 80.1131134 156.95504761 C80.04984842 151.64590072 79.7183058 147.81090443 76.6875 143.25 C73.41462679 140.42342768 71.4301591 139.34120375 67.125 138.8125 C62.11780801 139.44977898 59.82943503 140.91222773 56.5721283 144.72814941 C54.04434826 149.45187325 54.14948068 153.20107936 54.22094727 158.47460938 C54.21864105 159.48997269 54.21633484 160.505336 54.21395874 161.5514679 C54.21133396 163.749839 54.21775078 165.94823555 54.23221016 168.14656067 C54.254116 171.62707552 54.25037327 175.10672221 54.23973083 178.58728027 C54.21807325 187.22950351 54.23544332 195.87153307 54.26123047 204.51373291 C54.28262518 211.82109637 54.28459067 219.12790295 54.25831413 226.43525696 C54.25396211 229.86226654 54.27860541 233.2883097 54.30384827 236.71520996 C54.29857734 238.8186079 54.29185477 240.92200288 54.28344727 243.02539062 C54.305812 244.45163506 54.305812 244.45163506 54.32862854 245.9066925 C54.28107718 250.32360465 54.10770892 253.31589783 51.27476501 256.82995605 C48.18670429 259.71842809 46.78989861 260.29014894 42.71875 260.46484375 C33.95909828 259.53834213 26.97279278 250.29343727 21.80859375 243.9375 C19.98572219 241.43369498 18.32104977 238.88163073 16.6875 236.25 C16.3383252 235.69103027 15.98915039 235.13206055 15.62939453 234.55615234 C-4.6787631 201.61376563 -7.78268437 163.6172119 -7.71981621 125.76249409 C-7.71799006 122.23531314 -7.73559522 118.70822871 -7.75158691 115.18109131 C-7.79205615 105.52928344 -7.80401157 95.87748736 -7.81511688 86.22560883 C-7.82565644 77.30445356 -7.84240549 68.38342836 -7.88321257 59.46235347 C-7.90147114 55.28748564 -7.90549961 51.11292976 -7.89827728 46.93803167 C-7.89639621 43.74542962 -7.91364368 40.55291702 -7.92773438 37.36035156 C-7.92158615 36.21652512 -7.91543793 35.07269867 -7.90910339 33.89421082 C-7.95266291 28.28588933 -8.05202975 24.04896969 -11.3125 19.25 C-14.55296144 16.31333182 -17.24764935 15.35045761 -21.625 14.9375 C-26.78652485 15.37491736 -29.63547223 17.45731514 -33.125 21.1875 C-35.67664488 25.61930426 -35.43800264 30.42671711 -35.43948364 35.42524719 C-35.44182363 36.49277962 -35.44182363 36.49277962 -35.44421089 37.58187836 C-35.44819205 39.96126368 -35.44504226 42.34058493 -35.44189453 44.7199707 C-35.44324998 46.4287164 -35.44503073 48.13746181 -35.44720459 49.84620667 C-35.45176557 54.48734002 -35.44999382 59.12845115 -35.4468255 63.76958489 C-35.44429052 68.63880488 -35.44664304 73.50802298 -35.44821167 78.37724304 C-35.45003194 86.56603333 -35.44763277 94.7548146 -35.44287109 102.94360352 C-35.43744873 112.3767912 -35.43917691 121.80995719 -35.4446975 131.24314433 C-35.44925663 139.36147664 -35.44986494 147.47980247 -35.44725883 155.59813565 C-35.44570882 160.43764836 -35.44546658 165.27715094 -35.44879532 170.11666298 C-35.45171413 174.6794821 -35.44962576 179.24227375 -35.44390106 183.80508995 C-35.44259388 185.46736989 -35.4429322 187.1296522 -35.44516373 188.79193115 C-35.47285791 211.54497074 -34.42329597 231.40624919 -21.875 251.125 C-19.7691344 255.3367312 -19.70891037 257.57218033 -20.3125 262.25 C-22.10613911 265.0600346 -23.33130935 266.75940468 -26.3125 268.25 C-34.30286446 268.63663054 -34.30286446 268.63663054 -38.3125 266.25 C-40.43625017 263.73228313 -42.054086 260.88206217 -43.75 258.0625 C-44.23718506 257.25675537 -44.72437012 256.45101074 -45.22631836 255.62084961 C-49.43853775 248.43255181 -52.34763944 241.35611306 -54.3125 233.25 C-54.48258387 232.56374322 -54.65266773 231.87748644 -54.82790565 231.170434 C-56.86516115 221.71721993 -56.60886884 212.23544636 -56.60302734 202.61694336 C-56.60901997 200.64142098 -56.61582719 198.66590093 -56.62338257 196.69038391 C-56.64096881 191.35167849 -56.64573465 186.01303727 -56.64701414 180.67430568 C-56.64843977 177.33452046 -56.65271702 173.99475137 -56.65800858 170.65497017 C-56.67648001 158.99189346 -56.68468226 147.32886233 -56.68310547 135.66577148 C-56.68190284 124.81103458 -56.70303657 113.95649612 -56.7345928 103.10180944 C-56.76076787 93.76391956 -56.77147234 84.42609448 -56.77019465 75.0881682 C-56.76968566 69.51892734 -56.77533534 63.94986326 -56.79655075 58.3806591 C-56.8159554 53.14464222 -56.81604226 47.90897048 -56.80151749 42.67294121 C-56.79943151 40.75657139 -56.80411761 38.84017982 -56.8162384 36.9238472 C-56.92629068 18.3129316 -56.92629068 18.3129316 -52.3125 10.25 C-51.76103585 9.26435767 -51.76103585 9.26435767 -51.19843102 8.25880337 C-47.14397629 1.45558426 -39.79754856 -3.1630389 -32.4375 -5.6875 C-20.80241161 -8.60082417 -9.88195088 -6.86298676 0 0 Z M23.6875 422.25 C23.6875 437.76 23.6875 453.27 23.6875 469.25 C55.0375 469.25 86.3875 469.25 118.6875 469.25 C118.6875 453.74 118.6875 438.23 118.6875 422.25 C87.3375 422.25 55.9875 422.25 23.6875 422.25 Z " fill="#e52b50" transform="translate(56.3125,22.75)"/>
<path d="M0 0 C7.18548671 5.35809448 11.24239114 12.31761845 13.75 20.875 C14.14042103 23.72102393 14.16066353 26.51498642 14.13768005 29.38461304 C14.14575836 30.61313222 14.14575836 30.61313222 14.15399987 31.86646998 C14.16822512 34.59131184 14.16118902 37.31566413 14.15405273 40.04052734 C14.15975953 42.00262846 14.16672499 43.96472626 14.17485046 45.92681885 C14.19277298 51.24561389 14.1916139 56.56424383 14.18590808 61.88305998 C14.1828117 66.33548494 14.18891443 70.7878784 14.19494683 75.24029887 C14.20899053 85.75804501 14.20743498 96.27570995 14.19604492 106.79345703 C14.18459297 117.60651645 14.19859051 128.41932698 14.2254414 139.23235357 C14.24768554 148.54229097 14.25421537 157.85215077 14.24836498 167.16211283 C14.24501145 172.71040399 14.24730165 178.25853609 14.26461601 183.80680466 C14.28021991 189.03543474 14.27598228 194.2637008 14.25731087 199.4923172 C14.25366035 201.39725557 14.25662831 203.3022217 14.26719666 205.20713425 C14.36980895 225.25511072 10.96365339 243.28103107 0.1875 260.5 C-0.18850342 261.10489258 -0.56450684 261.70978516 -0.9519043 262.33300781 C-3.01378841 265.48929393 -4.59267414 267.71394417 -8.25 268.875 C-15.21132597 269.53798343 -15.21132597 269.53798343 -19.1875 267 C-22.3002404 263.79293413 -22.60929689 261.539017 -22.54882812 257.06835938 C-22.02526304 253.22546013 -20.05241383 250.34850643 -18 247.125 C-6.76195195 228.3876149 -7.09725192 208.20660393 -7.10473633 187.01342773 C-7.10173527 185.28845651 -7.0983306 183.56348595 -7.09455872 181.83851624 C-7.08582041 177.20690636 -7.08338523 172.57531501 -7.08274293 167.94369769 C-7.08202772 165.04429674 -7.0798848 162.14490037 -7.07724571 159.24550056 C-7.06803293 149.11605662 -7.06390656 138.98662573 -7.06469727 128.85717773 C-7.06530012 119.43322173 -7.0546973 110.00932257 -7.0389536 100.58538097 C-7.02587798 92.46781599 -7.02051323 84.35026964 -7.02115268 76.23269421 C-7.02140723 71.39529187 -7.01857808 66.55794041 -7.00797462 61.72054863 C-6.99829084 57.18057164 -6.99821636 52.64069424 -7.00549126 48.10071373 C-7.00653605 46.43786727 -7.00418045 44.77501458 -6.9981308 43.1121788 C-6.99039441 40.83825462 -6.99506601 38.56467321 -7.00276184 36.29075623 C-7.00221707 35.02010535 -7.00167231 33.74945448 -7.00111103 32.44029903 C-7.30787432 28.04595855 -7.81491055 23.61426602 -10.6875 20.1328125 C-15.67365773 16.51784815 -18.00484291 15.45865619 -24.25 15.875 C-28.40757553 17.47406751 -30.9622114 19.02188235 -33.25 22.875 C-34.24621005 25.86363014 -34.37931033 27.83725724 -34.38803101 30.95814514 C-34.39348434 32.01012085 -34.39893768 33.06209656 -34.40455627 34.14595032 C-34.4055986 35.30056259 -34.40664093 36.45517487 -34.40771484 37.64477539 C-34.41279556 38.86166046 -34.41787628 40.07854553 -34.42311096 41.33230591 C-34.43383178 43.98414123 -34.44282943 46.63592381 -34.44923019 49.28776741 C-34.45996006 53.50840988 -34.48022935 57.72897349 -34.50234985 61.9495697 C-34.56407014 73.95421627 -34.61787855 85.9588622 -34.65136719 97.96362305 C-34.66993575 104.59097634 -34.69915955 111.21820082 -34.7393719 117.84545892 C-34.7601156 121.33948451 -34.77585089 124.83334995 -34.77817917 128.32744026 C-34.81448468 170.49218756 -39.19332228 217.37248051 -69.25 249.875 C-70.30380859 251.03128906 -70.30380859 251.03128906 -71.37890625 252.2109375 C-79.32497149 260.56410665 -79.32497149 260.56410665 -85.22265625 261.03125 C-89.31249868 260.84778043 -90.72340993 260.36669052 -93.83946228 257.45715332 C-97.26150106 253.20682 -96.92838093 248.90735301 -96.84594727 243.65039062 C-96.8500058 242.63502731 -96.85406433 241.619664 -96.85824585 240.5735321 C-96.86375475 238.37516773 -96.85777812 236.17675097 -96.84158516 233.97843933 C-96.8161621 230.4978238 -96.82096467 227.01839232 -96.83348083 223.53771973 C-96.854224 216.15001617 -96.83454383 208.76267939 -96.8125 201.375 C-96.79139555 192.81311805 -96.78682215 184.25161687 -96.81300163 175.68974304 C-96.81636302 172.26282095 -96.79513812 168.83662591 -96.77259827 165.40979004 C-96.77510965 163.30639487 -96.77866979 161.20300061 -96.78344727 159.09960938 C-96.77056168 158.14877975 -96.75767609 157.19795013 -96.74440002 156.2183075 C-96.78698899 150.59415917 -97.45654586 147.31901621 -101.25 142.875 C-104.17672672 140.50197833 -105.93309204 139.91533374 -109.6875 139.4375 C-113.9926591 139.96620375 -115.97712679 141.04842768 -119.25 143.875 C-122.85827408 149.29834406 -122.64977071 154.2492775 -122.57128906 160.52685547 C-122.57023666 161.58777405 -122.56918427 162.64869263 -122.56809998 163.74176025 C-122.56449877 166.03999522 -122.55436408 168.33822722 -122.53842926 170.63640976 C-122.51540481 174.27700371 -122.51430972 177.91699139 -122.51971436 181.55764771 C-122.53238134 191.90658664 -122.51537989 202.25520356 -122.45947266 212.60400391 C-122.42679358 218.93943815 -122.42807213 225.27412483 -122.45049286 231.60959244 C-122.45223948 234.02008767 -122.44099376 236.43062932 -122.41638947 238.8409996 C-122.38275391 242.21629677 -122.39224316 245.58900053 -122.41113281 248.96435547 C-122.39060349 249.95474823 -122.37007416 250.94514099 -122.34892273 251.96554565 C-122.44329671 258.35675589 -123.86573472 261.61340499 -128.38203049 266.16067696 C-128.99846043 266.72640356 -129.61489037 267.29213017 -130.25 267.875 C-141.79719341 278.82964144 -154.06945106 292.54624979 -154.73144531 309.1574707 C-154.87793524 326.66494405 -148.63025544 341.50902688 -137.16796875 354.66796875 C-133.84654214 358.48997697 -132.84550763 360.81963288 -132.9609375 365.90576172 C-133.61969915 372.6725347 -135.27423379 379.3111926 -136.75 385.9375 C-137.905 391.196875 -139.06 396.45625 -140.25 401.875 C-122.76 401.875 -105.27 401.875 -87.25 401.875 C-87.25 397.585 -87.25 393.295 -87.25 388.875 C-86.08715566 367.39298083 -83.83802812 346.83395923 -68.71826172 330.1887207 C-66.27345027 328.00123644 -63.71553175 328.00349943 -60.54296875 327.734375 C-56.9529009 327.95454952 -54.89639018 329.55940859 -52.25 331.875 C-50.49349541 335.38800917 -50.72272394 339.03971244 -51.25 342.875 C-52.52979389 345.94870476 -54.26892286 348.61900667 -56.125 351.375 C-63.34327102 362.27317389 -63.80137845 373.18892534 -64.875 385.9375 C-65.00986811 387.48637599 -65.14528032 389.0352047 -65.28125 390.58398438 C-65.61044357 394.34714041 -65.9322624 398.1108601 -66.25 401.875 C-65.22519531 401.81699219 -64.20039063 401.75898438 -63.14453125 401.69921875 C-61.78389989 401.65230043 -60.42321904 401.60680248 -59.0625 401.5625 C-58.38896484 401.52060547 -57.71542969 401.47871094 -57.02148438 401.43554688 C-53.03163682 401.33823352 -51.4510498 401.71045591 -48.32421875 404.26953125 C-45.06257939 408.3665434 -45.11279451 410.57647271 -45.07299805 415.79980469 C-45.06642685 416.51222321 -45.05985565 417.22464172 -45.05308533 417.95864868 C-45.03334104 420.32139183 -45.02168616 422.68407133 -45.01171875 425.046875 C-45.00764322 425.85396156 -45.0035677 426.66104813 -44.99936867 427.49259186 C-44.97850129 431.76589198 -44.96420352 436.03915994 -44.95483398 440.3125 C-44.94377904 444.72210498 -44.90939203 449.13120401 -44.86966228 453.54063034 C-44.84348665 456.93447798 -44.83514124 460.32820538 -44.83155251 463.72214508 C-44.82668753 465.34721537 -44.815076 466.97228033 -44.79651451 468.59725189 C-44.77210585 470.87611142 -44.77309071 473.15366633 -44.7800293 475.43261719 C-44.77416306 476.72786316 -44.76829681 478.02310913 -44.76225281 479.35760498 C-45.33498621 483.4878791 -46.65105006 485.65382277 -49.25 488.875 C-51.737686 490.118843 -53.41819469 490.01191614 -56.2023468 490.02890015 C-57.24963959 490.03750061 -58.29693237 490.04610107 -59.3759613 490.05496216 C-60.52975784 490.05922211 -61.68355438 490.06348206 -62.87231445 490.06787109 C-64.08377136 490.07604858 -65.29522827 490.08422607 -66.543396 490.09265137 C-70.56668769 490.11753702 -74.58994178 490.13417882 -78.61328125 490.1484375 C-79.99812515 490.15379718 -81.38296897 490.15917469 -82.76781273 490.16456985 C-88.52824279 490.18619846 -94.28867005 490.20493529 -100.04913044 490.21619225 C-108.30548786 490.23243259 -116.56137475 490.26561182 -124.81755477 490.32259309 C-130.6222962 490.36128993 -136.42691176 490.38082458 -142.2317788 490.38611281 C-145.69906298 490.3897667 -149.16584531 490.40179042 -152.63298988 490.43421555 C-156.50196781 490.46987996 -160.37035495 490.46592592 -164.23950195 490.45849609 C-165.3872258 490.47490143 -166.53494965 490.49130676 -167.717453 490.50820923 C-175.45205514 490.44726676 -175.45205514 490.44726676 -179.43815613 487.58853149 C-182.49051627 483.01712471 -182.38042192 479.56447317 -182.41113281 474.10620117 C-182.41609772 473.43411118 -182.42106262 472.76202118 -182.42617798 472.06956482 C-182.44074866 469.8523556 -182.44759326 467.63521793 -182.453125 465.41796875 C-182.4588809 463.87103779 -182.46463857 462.32410685 -182.47039795 460.7771759 C-182.48089362 457.53495961 -182.48674558 454.292768 -182.49023438 451.05053711 C-182.49571436 446.90797086 -182.51973763 442.76573406 -182.54820633 438.62327099 C-182.5668847 435.42754684 -182.57204108 432.23190121 -182.57357025 429.03612709 C-182.57658588 427.50958773 -182.58457741 425.9830494 -182.59775543 424.45656395 C-182.61492467 422.31478609 -182.61290977 420.1738023 -182.60644531 418.03198242 C-182.61009094 416.81604904 -182.61373657 415.60011566 -182.61749268 414.34733582 C-182.17643992 410.17995133 -181.19284452 407.58246619 -179.25 403.875 C-175.5132157 401.38381047 -173.50548181 401.6684774 -169.0625 401.75 C-167.79019531 401.76804687 -166.51789063 401.78609375 -165.20703125 401.8046875 C-163.74330078 401.83949219 -163.74330078 401.83949219 -162.25 401.875 C-161.43152666 397.73032317 -160.62131538 393.58407143 -159.8125 389.4375 C-159.58240234 388.27283203 -159.35230469 387.10816406 -159.11523438 385.90820312 C-158.46605515 382.56822305 -157.85148912 379.22385934 -157.25 375.875 C-157.07710449 375.00359375 -156.90420898 374.1321875 -156.72607422 373.234375 C-156.05250923 369.18106357 -155.96183432 367.44163348 -157.875 363.6796875 C-158.65875 362.71289062 -159.4425 361.74609375 -160.25 360.75 C-173.86475843 342.81258905 -178.22744413 322.12449172 -176.25 299.875 C-175.46455564 295.496961 -174.20613131 291.85712444 -172.25 287.875 C-171.775625 286.84890625 -171.30125 285.8228125 -170.8125 284.765625 C-167.74072476 278.59253822 -164.09768027 273.05004806 -159.875 267.625 C-159.453396 267.08311035 -159.03179199 266.5412207 -158.59741211 265.98291016 C-157.94977905 265.17926025 -157.94977905 265.17926025 -157.2890625 264.359375 C-156.85612885 263.81840179 -156.42319519 263.27742859 -155.97714233 262.72006226 C-154.25 260.875 -154.25 260.875 -152.01811218 259.38061523 C-148.41623397 256.71455022 -145.77134845 254.15287044 -144.74082947 249.65033722 C-143.92536802 242.69574141 -144.17334745 235.6906478 -144.29296875 228.703125 C-144.29747869 226.41543006 -144.29742947 224.12772204 -144.29304504 221.84002686 C-144.29108503 215.82748988 -144.33925721 209.81649725 -144.40161133 203.80432129 C-144.49531283 194.19800467 -144.52335578 184.59160672 -144.53124428 174.98488617 C-144.54273085 171.64725038 -144.58205492 168.31081218 -144.62480164 164.97344971 C-144.82687825 138.39238642 -144.82687825 138.39238642 -136 129.375 C-128.34293015 121.64261471 -120.99771859 117.9025139 -110 117.5 C-99.51498169 117.70440976 -90.62233496 121.33054827 -83.25 128.875 C-77.56463042 136.46362635 -75.03012662 143.85282299 -74.93115234 153.37084961 C-74.92110672 154.08388245 -74.9110611 154.79691528 -74.90071106 155.53155518 C-74.8700822 157.86347729 -74.85290117 160.1952857 -74.8359375 162.52734375 C-74.81720946 164.15402694 -74.79763484 165.78070059 -74.7772522 167.40736389 C-74.72609769 171.67007803 -74.68638314 175.93282361 -74.64910889 180.19567871 C-74.60896418 184.55305654 -74.55791977 188.91030548 -74.5078125 193.26757812 C-74.41125094 201.8032971 -74.32678345 210.3390803 -74.25 218.875 C-73.12001489 216.48399312 -71.99320985 214.09157205 -70.86816406 211.69824219 C-70.55013824 211.02614716 -70.23211243 210.35405212 -69.90444946 209.66159058 C-67.52356988 204.58746435 -65.54187793 199.51955534 -64 194.125 C-63.75677002 193.29427979 -63.51354004 192.46355957 -63.26293945 191.60766602 C-58.60132852 175.03009558 -57.1075593 157.9071376 -57.09228516 140.74365234 C-57.08448646 138.80213342 -57.0766837 136.86061451 -57.06872725 134.91909623 C-57.06107014 132.85486246 -57.05565595 130.79063291 -57.05076981 128.72639084 C-57.03998505 124.40476293 -57.01971716 120.08321038 -56.99765015 115.7616272 C-56.93606332 103.48076815 -56.88169172 91.199917 -56.84863281 78.91894531 C-56.83024791 72.11846829 -56.80127526 65.31812126 -56.7606281 58.51773989 C-56.73964574 54.92879995 -56.72411313 51.34002302 -56.72182083 47.75101852 C-56.71926129 43.74968328 -56.69373803 39.74880206 -56.66650391 35.74755859 C-56.67101311 33.98459694 -56.67101311 33.98459694 -56.6756134 32.1860199 C-56.55920059 20.65565566 -53.54509763 11.66827082 -45.62109375 3.1171875 C-32.86203007 -8.66496411 -14.32215133 -9.21320481 0 0 Z M-161.25 422.875 C-161.25 438.385 -161.25 453.895 -161.25 469.875 C-129.9 469.875 -98.55 469.875 -66.25 469.875 C-66.25 454.365 -66.25 438.855 -66.25 422.875 C-97.6 422.875 -128.95 422.875 -161.25 422.875 Z " fill="#e52b50" transform="translate(498.25,22.125)"/>
<path d="M0 0 C1.05864713 0.84694925 2.11482251 1.69700156 3.16796875 2.55078125 C5.80844249 4.75084591 5.80844249 4.75084591 8.8125 6.6875 C9.38355469 6.2028125 9.95460938 5.718125 10.54296875 5.21875 C30.5362814 -11.30990275 49.21192869 -16.78515525 74.8125 -15.3125 C93.24451478 -13.27685805 111.38924401 -2.86944071 123.12890625 11.34765625 C138.54046264 32.76650144 142.48174273 57.4144854 138.75 83.1875 C134.39121349 109.68246046 119.80813943 130.46388023 101.734375 149.5546875 C99.64417722 151.76598432 97.64622867 154.03588523 95.66796875 156.34765625 C91.30290963 161.36359286 86.60612115 166.04398105 81.8972168 170.7331543 C80.37758332 172.2474258 78.86337483 173.7669743 77.34960938 175.28710938 C72.5976444 180.04237561 67.79712895 184.6880786 62.68725586 189.06225586 C59.29926839 191.99933524 56.06718978 195.10444425 52.8125 198.1875 C44.76255592 205.81293531 36.42988871 213.07952859 27.97192383 220.24731445 C24.70256375 223.02659811 21.57814094 225.88321973 18.5 228.875 C15.17920385 231.78960434 12.34966111 232.60914889 7.98828125 233.0078125 C2.25457266 232.16371177 -2.11868264 227.32199069 -6.3125 223.625 C-6.97193604 223.04862793 -7.63137207 222.47225586 -8.31079102 221.87841797 C-13.18903261 217.60174927 -18.00203823 213.25776894 -22.78515625 208.875 C-24.85430552 206.9908966 -26.94603926 205.14295253 -29.0625 203.3125 C-34.26436607 198.7845599 -39.30794102 194.08431165 -44.35742188 189.38818359 C-45.59170288 188.24117165 -46.82741356 187.09569648 -48.06445312 185.95166016 C-55.92416133 178.68162996 -63.66531663 171.30725083 -71.25 163.75 C-71.9399707 163.06462158 -72.62994141 162.37924316 -73.34082031 161.6730957 C-77.82620649 157.17406784 -82.04933461 152.50589503 -86.1875 147.6875 C-87.20752964 146.52273319 -88.22833266 145.35864308 -89.25 144.1953125 C-94.98106319 137.61768012 -100.44371186 131.02995244 -105.1875 123.6875 C-105.69667969 122.92566406 -106.20585937 122.16382813 -106.73046875 121.37890625 C-121.39960734 98.41359673 -125.8127987 68.88520378 -120.16796875 42.41015625 C-114.85909704 22.25336446 -103.72675618 5.19773525 -85.5625 -5.5 C-58.30010439 -20.93175613 -24.71109083 -19.29429112 0 0 Z M-88.1875 23.6875 C-99.56307117 38.50953135 -102.93453806 56.44311101 -100.96484375 74.7578125 C-98.08406916 96.09988905 -88.29464851 112.96079969 -74.1875 128.6875 C-73.04057046 130.01989049 -71.89457833 131.35308917 -70.75 132.6875 C-59.51771052 145.41033026 -47.94611289 158.13446185 -34.9765625 169.1171875 C-32.9543372 170.89215381 -31.07535373 172.77049023 -29.1875 174.6875 C-26.05904036 177.85839998 -22.81894648 180.8131996 -19.44140625 183.71484375 C-17.227092 185.65284842 -15.06391285 187.63986987 -12.90722656 189.64160156 C-2.42216817 199.93181664 -2.42216817 199.93181664 9.8125 207.6875 C10.81216797 206.76130859 10.81216797 206.76130859 11.83203125 205.81640625 C16.61903878 201.41771541 21.42684582 197.13381281 26.5 193.0625 C30.56866982 189.77982321 34.28014208 186.3348994 37.91796875 182.5859375 C39.81255928 180.6874406 41.77762408 178.9339372 43.8125 177.1875 C47.24032597 174.24171205 50.42384817 171.12574653 53.5625 167.875 C55.50085211 165.99049101 57.48086877 164.22885534 59.52734375 162.46484375 C64.00089285 158.57754813 68.19703042 154.45065539 72.375 150.25 C73.09107422 149.53779297 73.80714844 148.82558594 74.54492188 148.09179688 C79.17460867 143.45368481 83.53835635 138.65253087 87.8125 133.6875 C88.80799788 132.56862095 89.80531522 131.45135733 90.8046875 130.3359375 C105.0185511 114.29177568 117.9062084 94.85388206 118.8125 72.6875 C118.8640625 71.52863281 118.915625 70.36976562 118.96875 69.17578125 C119.48047585 52.08455911 116.15215373 36.20787547 105.0625 22.75 C94.86744322 12.18243153 80.52375406 5.75578635 65.92163086 5.34399414 C56.22552983 5.22695502 48.5413205 6.04957085 39.8125 10.6875 C38.90757812 11.14898438 38.00265625 11.61046875 37.0703125 12.0859375 C28.85163465 16.77892166 22.5863499 23.57328443 16.15014648 30.39990234 C13.164071 33.27425207 9.99259208 33.08860256 6.04296875 33.01953125 C2.38286268 32.47468184 1.11419518 30.50707659 -1.1875 27.6875 C-11.12843071 16.58715189 -24.54057059 6.29284315 -39.859375 5.31640625 C-58.2750234 4.63486432 -75.42459523 9.742398 -88.1875 23.6875 Z " fill="#e52b50" transform="translate(247.1875,15.3125)"/>
<path d="M0 0 C3.20613573 1.89993229 5.39902918 3.33474007 6.69921875 6.9375 C7.31497271 10.43339345 7.20710911 12.50947841 5.8125 15.8125 C2.83038672 19.41160223 1.33699707 20.85414577 -3.4375 21.375 C-7.22487861 20.97632857 -9.04719363 20.3622451 -12 18 C-14.56632517 14.57823311 -14.36435051 11.15359579 -14 7 C-12.74544028 4.17724064 -11.71615278 2.53711459 -9.25 0.6875 C-5.9260257 -0.32815881 -3.46313738 -0.41796486 0 0 Z " fill="#e52b50" transform="translate(466,309)"/>
<path d="M0 0 C2.82275936 1.25455972 4.46288541 2.28384722 6.3125 4.75 C7.63189267 9.06801237 7.58520303 12.68329318 5.75 16.8125 C2.94078012 20.32402485 1.06678489 20.86171307 -3.375 21.4375 C-8.11973172 20.86485997 -9.86582008 19.58191991 -13 16 C-14.43064673 12.03574984 -14.45050933 9.06699577 -12.8125 5.1875 C-8.85218865 0.40781389 -6.33719383 -0.66707303 0 0 Z " fill="#e52b50" transform="translate(53,309)"/>
</svg>
