<?xml version="1.0" encoding="UTF-8"?>
<svg version="1.1" xmlns="http://www.w3.org/2000/svg" width="512" height="512">
<path d="M0 0 C1.45307283 -0.00706917 2.9061383 -0.01581836 4.35919189 -0.02610779 C8.28288094 -0.04850013 12.20616468 -0.04568607 16.12989306 -0.03678632 C19.41503351 -0.03165525 22.7000992 -0.03898611 25.98523194 -0.04625839 C33.73973357 -0.06322518 41.49403827 -0.05972422 49.24853516 -0.04296875 C57.22794527 -0.02604942 65.20680822 -0.0418864 73.1861586 -0.07419163 C80.05696878 -0.10094703 86.92760925 -0.10814757 93.79846627 -0.09967655 C97.89337537 -0.09476475 101.98795545 -0.09686756 106.0828228 -0.11746407 C109.93514884 -0.13591534 113.78669222 -0.12974891 117.63897705 -0.10526466 C119.04576802 -0.10028651 120.45261961 -0.10366806 121.85936165 -0.11641312 C131.48673443 -0.19668048 139.28730625 0.79543053 146.5991888 7.49387264 C152.76598889 13.84776506 154.80130271 20.62035477 154.79911804 29.30078125 C154.78363419 30.24381104 154.76815033 31.18684082 154.75219727 32.15844727 C154.74795242 33.14594971 154.74370758 34.13345215 154.73933411 35.15087891 C154.72265497 38.27868904 154.68502286 41.40583466 154.64672852 44.53344727 C154.63166777 46.66494832 154.6179818 48.79645956 154.60571289 50.92797852 C154.57278691 56.13002491 154.52269619 61.33168859 154.45922852 66.53344727 C155.37662811 66.52678543 156.29402771 66.5201236 157.23922729 66.51325989 C165.91860922 66.45294958 174.59791996 66.40737202 183.27746391 66.37801075 C187.73885979 66.36240797 192.20008136 66.34126912 196.66137695 66.30712891 C200.97320373 66.274342 205.28486368 66.25655381 209.59680557 66.24881554 C211.23530831 66.24330651 212.87380274 66.23254942 214.51223373 66.2162571 C228.58138444 66.0820208 239.71527079 67.49799204 250.43579102 77.34985352 C257.69184083 84.99186343 260.06994644 93.43731 259.96716309 103.7800293 C259.97652303 105.25234103 259.97652303 105.25234103 259.98607206 106.75439644 C260.00192416 110.01693447 259.98942809 113.27871727 259.97680664 116.54125977 C259.9822312 118.89101596 259.98935573 121.24076875 259.99804688 123.59051514 C260.01624321 129.95411306 260.00922774 136.31745084 259.99653053 142.68105316 C259.98741334 148.67288608 259.99438242 154.66469548 260.00023931 160.65652776 C260.01162713 173.24689556 259.99855974 185.83714659 259.97703785 198.42749524 C259.95916846 209.21482415 259.96227308 220.00198084 259.98071289 230.78930664 C260.0021515 243.33668537 260.01052866 255.88396194 259.99826384 268.43135643 C259.99195404 275.06586393 259.99117206 281.70027562 260.00440979 288.33477783 C260.01598792 294.57295759 260.00790617 300.810813 259.98483276 307.04895782 C259.97955624 309.3345918 259.98104128 311.6202532 259.98988342 313.90587616 C260.00086393 317.03323758 259.98704428 320.15956889 259.96716309 323.28686523 C259.98054742 324.6336822 259.98054742 324.6336822 259.99420214 326.0077076 C259.87364778 335.82864379 256.14457135 344.35403752 249.45922852 351.53344727 C240.20501639 360.16158162 230.58148405 360.97729397 218.30873108 360.92112732 C216.88090533 360.92530524 215.45308291 360.93078526 214.02526659 360.93744713 C210.11989558 360.95186038 206.21473635 360.94767 202.30935395 360.94028032 C198.09044756 360.93554074 193.87158647 360.94806544 189.6526947 360.95829773 C181.39477686 360.9754753 173.13693514 360.97632794 164.87900407 360.97108483 C158.1659096 360.96704013 151.45283759 360.96849024 144.73974419 360.97383308 C143.78357584 360.97458151 142.82740748 360.97532993 141.84226434 360.97610103 C139.89969345 360.97763254 137.95712257 360.97917088 136.01455169 360.980716 C117.80641937 360.99443714 99.59833004 360.98900594 81.3901987 360.97753078 C64.73971163 360.96759768 48.08933567 360.9805411 31.43886573 361.00446498 C14.33239323 361.02885846 -2.77402752 361.0384633 -19.88051707 361.03181225 C-29.48063391 361.02832073 -39.08066529 361.03054774 -48.68076897 361.04806328 C-56.85260356 361.0627883 -65.0242925 361.0634167 -73.19612425 361.04599237 C-77.36349024 361.03748268 -81.53059607 361.03533198 -85.69794846 361.05064392 C-89.51693892 361.06450195 -93.33544662 361.05971394 -97.15440924 361.04040468 C-99.18162008 361.03487547 -101.20885557 361.04890683 -103.23601955 361.06375879 C-114.80657229 360.9706501 -122.84051779 358.18384565 -131.27124023 350.17797852 C-136.70024105 343.8519311 -140.65732418 335.83530662 -140.67219925 327.39910698 C-140.67604039 326.57871181 -140.67988154 325.75831665 -140.68383908 324.91306102 C-140.6829726 324.01716074 -140.68210612 323.12126045 -140.68121338 322.19821167 C-140.6841845 321.24221482 -140.68715562 320.28621798 -140.69021678 319.30125153 C-140.69890652 316.08941604 -140.70041228 312.87761781 -140.7019043 309.66577148 C-140.70653233 307.36616435 -140.71155697 305.06655798 -140.71694946 302.76695251 C-140.73007823 296.51258546 -140.73651954 290.25822914 -140.74096012 284.00385046 C-140.74389052 280.09608281 -140.74799531 276.18831809 -140.75246429 272.28055191 C-140.7645742 261.45452164 -140.77495549 250.62849462 -140.77833939 239.80245781 C-140.77855895 239.10972527 -140.77877852 238.41699273 -140.77900474 237.7032683 C-140.77922302 237.00890251 -140.77944129 236.31453673 -140.77966619 235.59912956 C-140.78010965 234.19214431 -140.78055621 232.78515907 -140.78100586 231.37817383 C-140.78122729 230.68026447 -140.78144872 229.98235511 -140.78167686 229.26329698 C-140.7856219 217.96355557 -140.80306694 206.66387878 -140.82636538 195.36416231 C-140.8501095 183.75423631 -140.86228496 172.14434587 -140.8637073 160.53439534 C-140.864755 154.01940189 -140.87065523 147.50449953 -140.88852692 140.98952866 C-140.90501855 134.85820064 -140.90715767 128.72703208 -140.89838791 122.59568977 C-140.89761808 120.34875244 -140.90195302 118.10180651 -140.91184616 115.85489082 C-140.92458797 112.7799334 -140.91867641 109.70553877 -140.90826416 106.63058472 C-140.91632056 105.74806876 -140.92437697 104.8655528 -140.93267751 103.95629394 C-140.84328718 92.61550447 -137.10390493 83.95753286 -129.54077148 75.53344727 C-118.93357476 65.99278769 -105.74579342 66.10423887 -92.27905273 66.24047852 C-90.63568004 66.2460858 -88.99230227 66.25035053 -87.34892273 66.25334167 C-83.05976086 66.26470146 -78.77091216 66.2940903 -74.48187256 66.32745361 C-70.09074131 66.35834763 -65.69955861 66.37188799 -61.30834961 66.38696289 C-52.71901447 66.41897016 -44.12993212 66.47005668 -35.54077148 66.53344727 C-35.55648193 65.31351074 -35.57219238 64.09357422 -35.58837891 62.83666992 C-35.64305777 58.27065749 -35.67725855 53.70467347 -35.70556641 49.13842773 C-35.72056709 47.16962807 -35.74097432 45.20086133 -35.76708984 43.23217773 C-35.80385963 40.38720529 -35.82058535 37.54267814 -35.83374023 34.69750977 C-35.84922409 33.83042389 -35.86470795 32.96333801 -35.88066101 32.06997681 C-35.88295306 23.57198547 -34.33902562 15.54876804 -28.41577148 9.15844727 C-27.3600293 7.9712207 -27.3600293 7.9712207 -26.28295898 6.76000977 C-18.20786223 0.20330728 -10.08864152 -0.05189333 0 0 Z M-15.91577148 20.97094727 C-18.00161022 24.2601545 -18.66634341 26.72714803 -18.65429688 30.54589844 C-18.65422134 31.34650192 -18.65414581 32.14710541 -18.65406799 32.9719696 C-18.64890671 33.83143692 -18.64374542 34.69090424 -18.63842773 35.57641602 C-18.63701279 36.46001297 -18.63559784 37.34360992 -18.63414001 38.25398254 C-18.62854217 41.07633854 -18.6159901 43.89861524 -18.60327148 46.72094727 C-18.5982562 48.63435758 -18.59369335 50.54776913 -18.58959961 52.46118164 C-18.57857345 57.15196741 -18.56131032 61.84269389 -18.54077148 66.53344727 C-12.93077148 66.53344727 -7.32077148 66.53344727 -1.54077148 66.53344727 C-1.54077148 55.31344727 -1.54077148 44.09344727 -1.54077148 32.53344727 C39.04922852 32.53344727 79.63922852 32.53344727 121.45922852 32.53344727 C121.45922852 43.75344727 121.45922852 54.97344727 121.45922852 66.53344727 C126.73922852 66.53344727 132.01922852 66.53344727 137.45922852 66.53344727 C137.58312404 60.66194298 137.67370776 54.79120484 137.73388672 48.91870117 C137.75898124 46.92247253 137.79306477 44.92633533 137.83642578 42.93041992 C137.89730098 40.05567839 137.92548876 37.18215479 137.94750977 34.30688477 C137.97331619 33.41915375 137.99912262 32.53142273 138.02571106 31.61679077 C138.02758108 27.45533159 137.863259 24.43886936 135.30371094 21.04760742 C130.86968127 17.12848996 126.55156782 16.28401909 120.73561096 16.27947998 C119.05978943 16.27102051 119.05978943 16.27102051 117.35011292 16.26239014 C116.13903366 16.2664386 114.92795441 16.27048706 113.68017578 16.2746582 C112.39331879 16.27115356 111.10646179 16.26764893 109.78060913 16.26403809 C106.26197303 16.2549445 102.74345463 16.25844602 99.22481656 16.26479626 C95.53520477 16.26987305 91.8456028 16.26516004 88.1559906 16.26202393 C81.95976968 16.25838872 75.76359648 16.26317121 69.56738281 16.27270508 C62.41463313 16.28358398 55.26199752 16.28006639 48.10925061 16.26905227 C41.95789351 16.25996096 35.80657065 16.25870326 29.655209 16.26392961 C25.98578869 16.2670398 22.3164219 16.26748496 18.64700508 16.26085663 C14.5538272 16.25397893 10.46084429 16.26352599 6.36767578 16.2746582 C5.15862076 16.27060974 3.94956573 16.26656128 2.70387268 16.26239014 C-7.49589573 16.03997271 -7.49589573 16.03997271 -15.91577148 20.97094727 Z M15.45922852 49.53344727 C15.45922852 55.14344727 15.45922852 60.75344727 15.45922852 66.53344727 C44.82922852 66.53344727 74.19922852 66.53344727 104.45922852 66.53344727 C104.45922852 60.92344727 104.45922852 55.31344727 104.45922852 49.53344727 C75.08922852 49.53344727 45.71922852 49.53344727 15.45922852 49.53344727 Z M-117.56420898 88.18188477 C-118.01022461 88.75165039 -118.45624023 89.32141602 -118.91577148 89.90844727 C-119.60799805 90.75536133 -119.60799805 90.75536133 -120.31420898 91.61938477 C-122.96384649 95.75416941 -123.79256369 99.35777758 -123.81542969 104.23828125 C-123.8249617 105.35972031 -123.83449371 106.48115936 -123.84431458 107.63658142 C-123.84340317 108.83875809 -123.84249176 110.04093475 -123.84155273 111.27954102 C-123.84583786 112.5234108 -123.85012299 113.76728058 -123.85453796 115.04884338 C-123.86174387 118.34931579 -123.85866194 121.64960543 -123.85296631 124.95007324 C-123.85327099 126.96764344 -123.86330882 128.98492004 -123.87695312 131.00244141 C-123.9014567 134.88661449 -123.90560822 138.77030026 -123.90405273 142.65454102 C-123.91326248 143.85469345 -123.92247223 145.05484589 -123.93196106 146.29136658 C-123.89443126 153.06727062 -123.62098095 158.03390235 -118.96264648 163.32641602 C-118.41092773 163.78661133 -117.85920898 164.24680664 -117.29077148 164.72094727 C-116.74936523 165.18887695 -116.20795898 165.65680664 -115.65014648 166.13891602 C-109.19923478 170.40368542 -102.16891418 171.59771739 -94.6862793 172.98535156 C-93.50989395 173.21012177 -92.33350861 173.43489197 -91.12147522 173.66647339 C-87.91419258 174.27756171 -84.70566411 174.88148158 -81.49638844 175.48199821 C-78.13219408 176.11312161 -74.76966649 176.75300842 -71.40692139 177.39179993 C-65.76586259 178.46208013 -60.12368949 179.52630585 -54.48071289 180.58642578 C-47.23692822 181.94731605 -39.99508896 183.31828362 -32.75380325 184.69240093 C-26.52243606 185.87478556 -20.29018717 187.05249748 -14.05779934 188.22948861 C-12.05601484 188.60773813 -10.05435494 188.98664166 -8.05271149 189.36563683 C-4.3282384 190.06988187 -0.60308505 190.77040104 3.12231445 191.46972656 C4.23197067 191.68008041 5.34162689 191.89043427 6.48490906 192.10716248 C7.49702957 192.29635254 8.50915009 192.4855426 9.55194092 192.6804657 C10.43237942 192.84617915 11.31281792 193.0118926 12.21993637 193.18262768 C14.57543549 193.610836 14.57543549 193.610836 17.45922852 193.53344727 C17.47324707 192.27854492 17.47324707 192.27854492 17.48754883 190.99829102 C17.53187031 187.85928711 17.59362046 184.72121859 17.66674805 181.58276367 C17.70846124 179.57046186 17.73051383 177.55778331 17.75219727 175.54516602 C18.09791141 161.78574307 18.09791141 161.78574307 22.45922852 156.53344727 C29.41205707 151.98581676 35.52510071 151.96133652 43.68188477 152.03735352 C44.94133408 152.03589828 46.20078339 152.03444305 47.49839783 152.03294373 C50.15232866 152.03459878 52.80480745 152.04400246 55.45849609 152.06689453 C58.84328344 152.09530731 62.22716894 152.09252539 65.61202335 152.07980442 C68.86453437 152.07114115 72.11690181 152.08630633 75.36938477 152.09985352 C77.18056541 152.09545006 77.18056541 152.09545006 79.02833557 152.09095764 C86.49864794 152.17445278 91.9475819 152.57627117 97.83422852 157.53344727 C100.88063308 161.28286826 100.64232534 164.94183605 100.77563477 169.60766602 C100.80680641 170.63341484 100.80680641 170.63341484 100.83860779 171.67988586 C100.90389006 173.86013937 100.96288869 176.04051132 101.02172852 178.22094727 C101.06493405 179.70077713 101.10854899 181.1805951 101.15258789 182.66040039 C101.25954934 186.28462349 101.36087675 189.90897916 101.45922852 193.53344727 C108.56818257 192.94388739 115.49844973 191.89684546 122.50170898 190.55566406 C123.5567865 190.35711823 124.61186401 190.15857239 125.69891357 189.95401001 C129.15896677 189.30148109 132.6177424 188.6424654 136.07641602 187.98266602 C138.49957623 187.52271009 140.92276394 187.06289902 143.34597778 186.60322571 C148.41508294 185.64042624 153.48349784 184.67408266 158.55151367 183.70556641 C165.02108123 182.46976522 171.4927795 181.24554224 177.9651165 180.02434063 C182.96786841 179.0785928 187.96915392 178.12526356 192.97006607 177.16983986 C195.354391 176.71551741 197.73921981 176.26383059 200.12456894 175.81491661 C203.47059485 175.18431356 206.81443326 174.54312404 210.15795898 173.89941406 C211.12768646 173.7190007 212.09741394 173.53858734 213.0965271 173.35270691 C228.32429356 170.49477325 228.32429356 170.49477325 240.45922852 161.53344727 C244.32465336 155.2622685 243.61942055 147.60835697 243.62719727 140.51000977 C243.63052567 139.44986664 243.63385406 138.38972351 243.63728333 137.29745483 C243.64233436 135.06004265 243.64469222 132.82262296 243.64453125 130.58520508 C243.64671649 127.17720021 243.66488844 123.76951989 243.68383789 120.36157227 C243.6867725 118.18188587 243.68875685 116.00219794 243.68969727 113.82250977 C243.70047554 112.3049559 243.70047554 112.3049559 243.71147156 110.75674438 C243.68490554 102.45831943 243.01243265 95.13725759 237.45922852 88.53344727 C232.47447306 84.97128184 227.96595901 83.40951363 221.88061237 83.4020195 C220.7126353 83.39817836 219.54465823 83.39433721 218.34128791 83.39037967 C217.05201571 83.39124615 215.76274352 83.39211263 214.43440247 83.39300537 C213.05570587 83.39042231 211.67701003 83.38740931 210.29831523 83.38400197 C206.5010072 83.37592165 202.70371807 83.37414182 198.90640247 83.3734045 C194.81423425 83.37155571 190.72207587 83.36400921 186.62991333 83.35726929 C177.67736135 83.34367762 168.72481385 83.33765981 159.77225327 83.33325863 C154.18321211 83.33049734 148.59417267 83.32626016 143.00513268 83.32175446 C127.53395731 83.30956017 112.06278334 83.29926152 96.59160328 83.29587936 C95.60107137 83.2956598 94.61053946 83.29544023 93.58999143 83.29521401 C92.59707183 83.29499573 91.60415223 83.29477746 90.58114415 83.29455256 C88.56907006 83.2941091 86.55699597 83.29366253 84.54492188 83.29321289 C83.54686091 83.29299146 82.54879995 83.29277003 81.52049472 83.29254189 C65.35005321 83.2885943 49.17965678 83.27114215 33.00923268 83.24785337 C16.41147513 83.22414192 -0.18625979 83.21167759 -16.78403455 83.21051145 C-26.10471221 83.20959451 -35.42533116 83.2038377 -44.74599266 83.18569183 C-52.68341006 83.17029356 -60.62075062 83.16516873 -68.55818012 83.17342994 C-72.60775782 83.17733756 -76.65718075 83.17640148 -80.70673943 83.16237259 C-84.41599319 83.14964022 -88.12497579 83.15082523 -91.83422915 83.1629633 C-93.80753486 83.16584718 -95.78084523 83.15397941 -97.75411385 83.14154124 C-105.07407056 83.18238521 -111.6443559 83.35914731 -117.56420898 88.18188477 Z M34.45922852 168.53344727 C34.39615157 176.32461864 34.33606628 184.11485414 34.30397797 191.90605927 C34.28819869 195.53497857 34.26714602 199.16368437 34.23291016 202.79248047 C34.20008703 206.29382477 34.18232772 209.79496327 34.17459679 213.29644966 C34.16643346 215.26882344 34.1430514 217.24111552 34.11933899 219.21336365 C34.11743776 229.45471494 35.30564164 237.23668866 42.51391602 244.80688477 C47.57171409 249.29593446 53.07587057 251.26149351 59.80297852 251.69750977 C66.07820396 251.30992231 71.58486569 249.08876961 76.39672852 245.09594727 C77.07735352 244.25032227 77.75797852 243.40469727 78.45922852 242.53344727 C79.18110352 241.70844727 79.90297852 240.88344727 80.64672852 240.03344727 C83.97028232 235.44923513 84.70845839 231.7132202 84.6862793 226.09082031 C84.6860527 224.16939461 84.6860527 224.16939461 84.68582153 222.20915222 C84.67560981 220.82115522 84.66517785 219.43315982 84.65454102 218.04516602 C84.65080801 216.6174184 84.6479624 215.18966821 84.64596558 213.76191711 C84.6383517 210.01525728 84.6187227 206.268754 84.59655762 202.52215576 C84.57244126 198.02087387 84.5633075 193.51953945 84.551651 189.01821136 C84.5322968 182.18984798 84.49395891 175.36182771 84.45922852 168.53344727 C67.95922852 168.53344727 51.45922852 168.53344727 34.45922852 168.53344727 Z M-123.54077148 181.53344727 C-123.63428893 200.69204039 -123.70478698 219.85058708 -123.74802017 239.00936127 C-123.7686293 247.90548847 -123.79671829 256.8014737 -123.8425293 265.69750977 C-123.88244765 273.45296148 -123.90821629 281.20831035 -123.91712546 288.96386194 C-123.92233178 293.06890758 -123.93453386 297.17365904 -123.96369171 301.27861023 C-123.99094 305.14623992 -123.99919764 309.01345562 -123.99320221 312.88117218 C-123.99429826 314.29688521 -124.00219627 315.71261277 -124.01759338 317.12824249 C-124.11154272 326.21552096 -123.85838111 332.96911709 -117.35327148 339.84594727 C-109.22413156 344.72343122 -101.28861185 344.96245697 -91.98423767 344.90766907 C-90.62098445 344.91041331 -89.25773334 344.91446852 -87.89448744 344.91971272 C-84.16766316 344.93025494 -80.44108028 344.92219977 -76.71426666 344.91096222 C-72.68763901 344.90209379 -68.66104205 344.91057132 -64.63441467 344.91682434 C-56.75415041 344.92629874 -48.8739779 344.91972454 -40.99372046 344.9075614 C-31.81351709 344.89392108 -22.63333541 344.89558104 -13.45312447 344.89769473 C2.9279163 344.90088259 19.30891354 344.88922823 35.68994141 344.86962891 C51.57960333 344.85062252 67.46921425 344.84354243 83.35888672 344.84912109 C100.66982536 344.85518078 117.98074159 344.85499857 135.29167837 344.84363526 C137.13798392 344.84242799 138.98428947 344.84122201 140.83059502 344.84001732 C141.73897082 344.83941378 142.64734662 344.83881024 143.58324896 344.83818841 C149.98010885 344.83431156 156.37696038 344.83470198 162.77382088 344.83660316 C170.57018877 344.83872666 178.36651204 344.83348921 186.16286737 344.81898961 C190.13953908 344.81175309 194.11614584 344.80766228 198.09282303 344.81223297 C201.73518305 344.81631754 205.37740913 344.81112079 209.01974886 344.79860689 C210.95696554 344.79430514 212.89419637 344.79976043 214.83140904 344.80559617 C226.74460863 344.84760347 226.74460863 344.84760347 236.83422852 339.15844727 C237.80489258 338.2805957 237.80489258 338.2805957 238.79516602 337.38500977 C243.43580924 332.22147717 243.58532397 326.03883883 243.57948303 319.34512329 C243.5808577 318.12523712 243.58223236 316.90535095 243.58364868 315.64849854 C243.58011029 314.31018041 243.5764755 312.97186255 243.57275391 311.63354492 C243.57247161 310.21395876 243.5726306 308.79437245 243.57319641 307.37478638 C243.57348273 303.53227615 243.56761265 299.68979729 243.56062245 295.84729433 C243.55436147 291.82742758 243.55378294 287.80756008 243.55259705 283.78768921 C243.54949182 276.18053233 243.54128934 268.57338987 243.53124756 260.96623933 C243.5200613 252.30363096 243.51456964 243.6410219 243.50955212 234.9784081 C243.49910605 217.16341299 243.48152227 199.34843129 243.45922852 181.53344727 C239.38880532 182.87936513 239.38880532 182.87936513 235.3427496 184.29614067 C229.01039242 186.54924718 222.59098991 187.82702784 215.99462891 189.0612793 C214.77733093 189.29419678 213.56003296 189.52711426 212.30584717 189.76708984 C209.67748231 190.26910251 207.04881348 190.76888512 204.41929817 191.26477432 C200.26241514 192.04874142 196.1072452 192.84153763 191.95225525 193.63546753 C185.38616187 194.8890485 178.8189888 196.13686508 172.25131649 197.38214481 C160.46973497 199.61609105 148.6895531 201.85738251 136.91049188 204.10457885 C132.77785831 204.89272594 128.64460312 205.67750386 124.51081574 206.45957589 C121.34614262 207.05895961 118.18217049 207.66202505 115.01806641 208.2644043 C113.87055405 208.48051361 112.72304169 208.69662292 111.54075623 208.91928101 C110.49924408 209.11825989 109.45773193 209.31723877 108.38465881 209.52224731 C107.47639878 209.69441332 106.56813875 209.86657932 105.63235569 210.04396248 C103.4277261 210.4493058 103.4277261 210.4493058 101.45922852 211.53344727 C101.44520996 212.49214722 101.44520996 212.49214722 101.4309082 213.47021484 C101.13068009 229.79291071 100.50791838 243.69468842 88.86938477 256.24829102 C80.5659272 263.92654707 70.47684562 267.36517629 59.29516602 267.59985352 C47.45864198 267.13373741 38.15912705 263.24532706 29.65063477 254.98266602 C20.49828974 244.75357452 18.41442469 233.96798332 17.88500977 220.64672852 C17.84267212 219.67304321 17.80033447 218.69935791 17.75671387 217.69616699 C17.65348548 215.30873601 17.55443948 212.92120916 17.45922852 210.53344727 C16.82368514 210.41436666 16.18814177 210.29528605 15.5333395 210.17259693 C0.00371498 207.26208612 -15.52365234 204.33985478 -31.04866886 201.40487385 C-38.5567824 199.98576325 -46.0655811 198.57049707 -53.57617188 197.16455078 C-60.12938055 195.93781138 -66.68112858 194.70358287 -73.23129171 193.46068066 C-76.69326177 192.80402912 -80.15580857 192.15091792 -83.62013435 191.5067997 C-87.50613206 190.78413402 -91.38885073 190.04473532 -95.27148438 189.30419922 C-96.39574829 189.09775787 -97.52001221 188.89131653 -98.67834473 188.67861938 C-107.24924043 187.02270801 -115.32978969 184.43989759 -123.54077148 181.53344727 Z " fill="#e52b50" transform="translate(252.540771484375,151.466552734375)"/>
<path d="M0 0 C1.46189492 -0.00679667 1.46189492 -0.00679667 2.95332307 -0.01373065 C6.22203782 -0.02640016 9.49058651 -0.02475261 12.75932312 -0.02310181 C15.10173253 -0.02908546 17.44413997 -0.03589063 19.7865448 -0.04345703 C26.15229586 -0.06114093 32.51799317 -0.06581343 38.88376641 -0.0670886 C43.52736834 -0.06874774 48.17095827 -0.07454562 52.81455597 -0.08076156 C65.30317112 -0.09737018 77.79175777 -0.10484625 90.28038356 -0.10342209 C91.34382827 -0.10330222 91.34382827 -0.10330222 92.42875671 -0.10317993 C93.13858765 -0.10309817 93.84841859 -0.10301641 94.57975956 -0.10293217 C106.08127729 -0.10211942 117.58266401 -0.1212548 129.08414385 -0.14945666 C140.89975978 -0.17819968 152.71531184 -0.19199617 164.5309636 -0.19026911 C171.16214414 -0.18960568 177.79320394 -0.19546726 184.42435646 -0.21662521 C190.66161646 -0.23598266 196.89858643 -0.23614884 203.13585663 -0.22159195 C205.42394878 -0.21949967 207.71205896 -0.22422961 210.00012016 -0.23631287 C213.12623501 -0.25175143 216.25134809 -0.24246561 219.37744141 -0.22705078 C220.28066472 -0.23733791 221.18388803 -0.24762503 222.11448175 -0.25822389 C228.99807373 -0.18333126 234.01674621 1.66388239 239.46147156 5.87973022 C239.96154724 6.39438843 240.46162292 6.90904663 240.97685242 7.43930054 C241.54718201 8.0173645 242.1175116 8.59542847 242.7051239 9.19100952 C243.56472717 10.09508545 243.56472717 10.09508545 244.44169617 11.01742554 C245.35447327 11.95340576 245.35447327 11.95340576 246.28569031 12.90829468 C249.9406794 16.68094942 253.47950188 20.53620747 256.87528992 24.54476929 C259.00516376 26.98444296 261.31977485 29.21799389 263.62919617 31.48617554 C266.08554465 33.98638739 268.34228984 36.6442307 270.62919617 39.29867554 C272.31717902 41.19765625 274.0668935 42.98748542 275.87919617 44.76742554 C278.31309349 47.1579572 280.59275176 49.61788816 282.81669617 52.20492554 C285.23537396 55.01318901 287.73819299 57.66713147 290.37919617 60.26742554 C300.38031389 70.17182065 307.41222414 78.09393852 307.56944275 92.56661987 C307.57581757 93.98086243 307.57581757 93.98086243 307.58232117 95.42367554 C307.58802124 96.40356445 307.59372131 97.38345337 307.59959412 98.39303589 C307.60902062 100.46069262 307.61556874 102.52836421 307.61943054 104.59603882 C307.6291619 107.75629743 307.66021806 110.91591242 307.69169617 114.07601929 C307.69822433 116.08773419 307.70347553 118.09945372 307.70732117 120.11117554 C307.71966797 121.05400391 307.73201477 121.99683228 307.74473572 122.9682312 C307.72812702 127.86278176 307.652664 131.33448245 304.37919617 135.26742554 C301.24977151 136.83213786 297.76837393 136.96444512 294.37919617 136.26742554 C292.2742157 134.75741577 292.2742157 134.75741577 290.37919617 132.26742554 C290.03009567 129.37777433 289.91103997 126.88149844 289.98857117 124.00180054 C289.99423096 123.20840271 289.99989075 122.41500488 290.00572205 121.5975647 C290.0280647 119.0702308 290.07825441 116.54432888 290.12919617 114.01742554 C290.14926402 112.30130022 290.1675143 110.58515262 290.18388367 108.86898804 C290.22792222 104.66791774 290.29693291 100.46791419 290.37919617 96.26742554 C289.80227524 96.27630798 289.22535431 96.28519043 288.63095093 96.29434204 C282.57927954 96.38343181 276.52779703 96.4434131 270.47563171 96.4871521 C268.22262494 96.50716018 265.96966938 96.53437544 263.71684265 96.56918335 C260.4622375 96.61817896 257.208324 96.6405031 253.95341492 96.65805054 C252.46366402 96.68901825 252.46366402 96.68901825 250.94381714 96.72061157 C241.45583509 96.72359705 232.60185908 94.16602891 225.16435242 88.08773804 C216.73044278 79.4877339 215.15085025 69.11825698 215.15260315 57.51116943 C215.16292572 56.46909332 215.17324829 55.42701721 215.18388367 54.35336304 C215.18671356 53.25771027 215.18954346 52.1620575 215.19245911 51.03320312 C215.20356103 47.56949456 215.22864678 44.10605457 215.25419617 40.64242554 C215.26423888 38.27914805 215.27336246 35.91586647 215.28153992 33.55258179 C215.30346755 27.79077302 215.33684419 22.02911847 215.37919617 16.26742554 C187.04183237 16.35125826 158.70452592 16.44636673 130.36724567 16.55495262 C117.2101896 16.60510547 104.05313985 16.6515481 90.89604187 16.68930054 C79.43026812 16.72220932 67.96454299 16.7620344 56.49882287 16.81021559 C50.42606987 16.8354916 44.35334918 16.85726969 38.28055763 16.8707695 C32.5670643 16.88357977 26.85368169 16.90562315 21.14024925 16.93480873 C19.04119944 16.94389257 16.9421318 16.94957661 14.84306335 16.95163918 C11.98077983 16.95495597 9.11881131 16.97041784 6.2565918 16.98895264 C5.42292928 16.9870179 4.58926675 16.98508317 3.73034173 16.9830898 C-2.20914215 17.01920431 -2.20914215 17.01920431 -7.62080383 19.26742554 C-9.69327061 23.27030728 -9.87129435 26.68171161 -9.87248611 31.1468811 C-9.875393 31.82987856 -9.87829988 32.51287602 -9.88129485 33.21657038 C-9.88860581 35.50997877 -9.88164646 37.80312056 -9.87477112 40.0965271 C-9.87707512 41.75545005 -9.88025123 43.41437199 -9.88422561 45.07329178 C-9.89259061 49.63580231 -9.88844059 54.19822941 -9.88225317 58.76074028 C-9.87773666 63.67968187 -9.88470846 68.59860889 -9.89021301 73.51754761 C-9.89911722 83.15530056 -9.89718043 92.79302241 -9.89138773 102.4307766 C-9.88687529 110.26194896 -9.88625653 118.0931126 -9.88843536 125.92428589 C-9.88874183 127.03786004 -9.8890483 128.1514342 -9.88936405 129.29875302 C-9.89000348 131.5607907 -9.89065191 133.82282837 -9.89130923 136.08486605 C-9.89701554 157.3077388 -9.89044992 178.5305943 -9.8797085 199.75346422 C-9.87077272 217.97297039 -9.87232468 236.19245108 -9.88154602 254.41195679 C-9.89224334 275.55767105 -9.89646619 296.70337017 -9.89032149 317.84908676 C-9.88968438 320.1029129 -9.88905564 322.35673904 -9.88843536 324.61056519 C-9.88812681 325.71955901 -9.88781826 326.82855284 -9.88750036 327.97115254 C-9.88577181 335.79505224 -9.88869198 343.61894236 -9.89339447 351.44284058 C-9.89899733 360.9744862 -9.8974994 370.50609887 -9.88683298 380.03774071 C-9.88156825 384.90310353 -9.87953315 389.76841136 -9.88613129 394.6337738 C-9.89207628 399.08475842 -9.88883966 403.5356369 -9.87817618 407.98661184 C-9.87593599 409.59959479 -9.87709226 411.21258665 -9.88192776 412.82556391 C-9.88798449 415.01316118 -9.88179659 417.20039201 -9.87248611 419.38796997 C-9.87199906 421.2128274 -9.87199906 421.2128274 -9.87150216 423.07455063 C-9.62173299 426.25559189 -9.09113708 428.44750878 -7.62080383 431.26742554 C-3.7779831 433.53632884 -0.17258652 433.51334241 4.21733093 433.50692749 C4.88463226 433.50894165 5.55193359 433.51095581 6.23945618 433.51303101 C7.68100127 433.51656281 9.12256191 433.51582639 10.56410408 433.51125526 C12.84671941 433.50564257 15.12883035 433.5148509 17.41140747 433.52845764 C23.89833435 433.56551398 30.38508621 433.5841032 36.87211609 433.57284546 C40.84630461 433.56699507 44.81977855 433.58524495 48.79382133 433.61873436 C50.3060551 433.62668642 51.81836678 433.62541385 53.33058357 433.61470985 C55.44466616 433.60038341 57.55649777 433.61664501 59.67045593 433.63973999 C60.87227005 433.64036942 62.07408417 433.64099884 63.31231689 433.64164734 C66.37919617 434.26742554 66.37919617 434.26742554 68.77896118 436.6733551 C70.43821394 439.36309666 70.85848719 440.33694524 70.37919617 443.39242554 C70.29669617 444.05500366 70.21419617 444.71758179 70.12919617 445.40023804 C69.0597948 448.06260187 67.85712692 448.81547514 65.37919617 450.26742554 C62.10472107 450.65510559 62.10472107 450.65510559 58.1672821 450.67147827 C57.08840477 450.68177315 57.08840477 450.68177315 55.98773193 450.692276 C53.61281004 450.71055765 51.23854828 450.70670311 48.86357117 450.70101929 C47.20693243 450.70558209 45.55029559 450.71088796 43.8936615 450.71690369 C40.42017433 450.72583868 36.946917 450.72340926 33.47343445 450.71347046 C29.03710672 450.7020097 24.6015784 450.72214522 20.16535568 450.7513876 C16.74222321 450.76980268 13.31928015 450.76944612 9.89611053 450.76375008 C8.26155225 450.76359735 6.62698073 450.7696012 4.99246979 450.78204155 C-12.33966333 450.89532392 -12.33966333 450.89532392 -19.86299133 444.30258179 C-20.40181946 443.65160522 -20.94064758 443.00062866 -21.49580383 442.32992554 C-22.05010071 441.6815271 -22.60439758 441.03312866 -23.17549133 440.36508179 C-26.37377451 435.72324918 -26.87181626 431.76195087 -26.87807274 426.17770672 C-26.88157881 425.47197082 -26.88508489 424.76623491 -26.88869721 424.03911307 C-26.89801972 421.66833615 -26.89308574 419.29780441 -26.88822937 416.92701721 C-26.8919652 415.21248449 -26.89656645 413.49795346 -26.90196002 411.78342515 C-26.91421371 407.06709262 -26.91392676 402.3508309 -26.91157126 397.63448608 C-26.9111637 392.54983604 -26.9221965 387.46520888 -26.9316864 382.38056946 C-26.94831032 372.41695928 -26.95379657 362.45337276 -26.95491116 352.48974987 C-26.95586096 344.39210737 -26.95996788 336.29447269 -26.96631241 328.19683266 C-26.98392854 305.24648292 -26.99315069 282.2961519 -26.99165146 259.34579536 C-26.99157155 258.108134 -26.99149164 256.87047264 -26.9914093 255.5953064 C-26.99132754 254.35613664 -26.99124578 253.11696689 -26.99116154 251.84024654 C-26.99034851 231.75443902 -27.00948942 211.66870647 -27.03768604 191.58292063 C-27.06639918 170.96677212 -27.0802272 150.35066019 -27.07849848 129.73449117 C-27.07783404 118.15694312 -27.08334999 106.57947365 -27.10485458 95.00194359 C-27.12304571 85.14500663 -27.12743072 75.28818388 -27.11383574 65.43123742 C-27.10729568 60.40139478 -27.10722636 55.37177139 -27.12454224 50.34194946 C-27.14023206 45.73712678 -27.13745123 41.13269795 -27.11997397 36.52788512 C-27.11689505 34.86235643 -27.12056997 33.19679865 -27.13169412 31.53130426 C-27.23768764 14.53599672 -27.23768764 14.53599672 -20.65596008 7.02523804 C-20.00498352 6.48640991 -19.35400696 5.94758179 -18.68330383 5.39242554 C-18.0349054 4.83812866 -17.38650696 4.28383179 -16.71846008 3.71273804 C-11.29179962 -0.02630176 -6.37777268 -0.0217089 0 0 Z M232.37919617 30.26742554 C232.3295716 35.1420851 232.29337062 40.01659595 232.26933289 44.89144897 C232.2593066 46.54805057 232.24568211 48.20463461 232.22831726 49.86117554 C232.20391996 52.24924059 232.19267923 54.63707061 232.18388367 57.02523804 C232.1735611 57.7598526 232.16323853 58.49446716 232.15260315 59.25134277 C232.15094129 66.95517357 233.979778 71.74243951 239.37919617 77.26742554 C243.54422867 79.47668343 247.47671476 79.53110023 252.08622742 79.46273804 C252.81162216 79.45990814 253.53701691 79.45707825 254.28439331 79.4541626 C256.58699985 79.44302353 258.88920844 79.4179312 261.19169617 79.39242554 C262.75874782 79.3823876 264.3258056 79.37326317 265.89286804 79.36508179 C269.72179595 79.34310484 273.55042873 79.30861893 277.37919617 79.26742554 C274.140871 74.81019943 270.94021957 70.58253043 266.94169617 66.76742554 C263.49696719 63.46860589 260.36685107 59.99055142 257.24613953 56.39047241 C254.20868504 52.93634605 251.04207569 49.60638289 247.87919617 46.26742554 C243.38065773 41.518453 238.98445128 36.71879878 234.74443054 31.73617554 C234.2939032 31.25148804 233.84337585 30.76680054 233.37919617 30.26742554 C233.04919617 30.26742554 232.71919617 30.26742554 232.37919617 30.26742554 Z " fill="#e52b50" transform="translate(26.620803833007813,-0.267425537109375)"/>
<path d="M0 0 C0.78391113 -0.00524185 1.56782227 -0.0104837 2.37548828 -0.0158844 C4.02961037 -0.02229565 5.6837781 -0.02097918 7.33789062 -0.01245117 C9.86671121 -0.00393417 12.3932771 -0.03272266 14.921875 -0.06445312 C16.53124932 -0.06606514 18.14062764 -0.06548759 19.75 -0.0625 C20.88139404 -0.07935097 20.88139404 -0.07935097 22.03564453 -0.09654236 C25.36798051 -0.05236007 27.4905917 0.17260569 30.27636719 2.06396484 C32.24209627 4.97773492 32.87774565 7.39989166 33.578125 10.84375 C33.8359375 12.08060547 34.09375 13.31746094 34.359375 14.59179688 C34.61203125 15.88021484 34.8646875 17.16863281 35.125 18.49609375 C35.393125 19.78837891 35.66125 21.08066406 35.9375 22.41210938 C37.875 31.88707749 37.875 31.88707749 37.875 35.43359375 C39.091875 35.63984375 40.30875 35.84609375 41.5625 36.05859375 C47.1203249 37.23886085 51.85766627 39.75296874 56.859375 42.38671875 C59.7456692 43.68145373 59.7456692 43.68145373 62.30078125 42.91015625 C65.74346628 40.93544466 69.03732054 38.7986467 72.3125 36.55859375 C72.95509766 36.12417969 73.59769531 35.68976562 74.25976562 35.2421875 C77.23266374 33.23208583 80.19413129 31.21077514 83.13671875 29.15625 C86.80902171 26.84599949 88.60383319 26.62354487 92.875 27.43359375 C94.68237305 28.73974609 94.68237305 28.73974609 96.57421875 30.45703125 C97.27256836 31.09068604 97.97091797 31.72434082 98.69042969 32.37719727 C102.29558502 35.77082974 105.82141772 39.23549004 109.3125 42.74609375 C110.03115234 43.46087891 110.74980469 44.17566406 111.49023438 44.91210938 C112.51407227 45.93788086 112.51407227 45.93788086 113.55859375 46.984375 C114.17275146 47.59966064 114.78690918 48.21494629 115.41967773 48.84887695 C117.3883924 50.99263251 117.8461588 52.19004582 118.19140625 55.10546875 C117.789431 59.33365289 116.05311321 62.18974858 113.8125 65.68359375 C113.20764771 66.66767212 113.20764771 66.66767212 112.59057617 67.67163086 C110.14375956 71.60630483 107.49651182 75.30856628 104.6875 78.99609375 C102.20855268 82.33198952 102.20855268 82.33198952 102.125 86.37109375 C102.7025 87.38171875 103.28 88.39234375 103.875 89.43359375 C104.74679266 91.23768203 105.59925057 93.05117759 106.4375 94.87109375 C107.09492188 96.28648438 107.09492188 96.28648438 107.765625 97.73046875 C109.12878231 101.05196473 109.63737314 103.86919089 109.875 107.43359375 C110.60460937 107.5315625 111.33421875 107.62953125 112.0859375 107.73046875 C118.91514436 108.70847862 125.68307222 109.90753323 132.4375 111.30859375 C133.21077637 111.45780273 133.98405273 111.60701172 134.78076172 111.76074219 C135.51439941 111.91833008 136.24803711 112.07591797 137.00390625 112.23828125 C137.65431885 112.37218262 138.30473145 112.50608398 138.97485352 112.64404297 C141.77628985 113.80809862 143.06685526 114.97453665 144.875 117.43359375 C145.26086012 120.27562724 145.41335331 122.72123619 145.37109375 125.55859375 C145.37254898 126.34250488 145.37400421 127.12641602 145.37550354 127.93408203 C145.37384665 129.58825403 145.36230872 131.24244177 145.34155273 132.89648438 C145.31259673 135.42514681 145.32094701 137.9517118 145.33398438 140.48046875 C145.32774653 142.08985392 145.31935522 143.69923248 145.30859375 145.30859375 C145.31152939 146.06285645 145.31446503 146.81711914 145.31748962 147.59423828 C145.26306582 150.63004532 145.03708618 153.07598076 143.77685547 155.85644531 C141.0063272 158.15395656 138.55752895 158.30737336 135.01171875 158.79296875 C133.63724492 159.01036799 132.26355733 159.23278608 130.890625 159.4597168 C129.82618164 159.633423 129.82618164 159.633423 128.74023438 159.81063843 C118.13978979 161.3005543 118.13978979 161.3005543 108.94384766 166.12451172 C106.53489837 169.91892395 105.89242895 174.02765974 105.27832031 178.42089844 C104.61327546 181.73968157 102.97842179 184.37005588 101.25 187.24609375 C100.70085937 188.18066406 100.15171875 189.11523438 99.5859375 190.078125 C97.85045657 192.46738299 96.40064488 193.9201723 93.875 195.43359375 C89.91231925 195.92892884 87.79898381 196.09010856 84.5 193.74609375 C82.61953205 191.07004321 81.9512209 189.71109248 81.875 186.43359375 C83.54226596 182.2400132 85.45208539 178.20306094 87.42456055 174.14355469 C90.60836717 167.56409618 93.05780271 161.16278894 94.85546875 154.04296875 C96.0851758 150.89567254 97.0173548 150.18616769 99.875 148.43359375 C102.89941406 147.54223633 102.89941406 147.54223633 106.390625 146.828125 C107.64101563 146.56708984 108.89140625 146.30605469 110.1796875 146.03710938 C111.49474663 145.77321298 112.80985141 145.50954395 114.125 145.24609375 C115.45592501 144.97165118 116.78665693 144.69627039 118.1171875 144.41992188 C121.36789849 143.74857939 124.62121447 143.08987295 127.875 142.43359375 C128.205 137.81359375 128.535 133.19359375 128.875 128.43359375 C127.78703125 128.315 126.6990625 128.19640625 125.578125 128.07421875 C120.19851033 127.3964347 114.92324327 126.32399103 109.625 125.18359375 C108.6453125 124.99152344 107.665625 124.79945312 106.65625 124.6015625 C102.5265116 123.70452916 99.619212 123.07298716 96.37890625 120.2890625 C94.44970208 116.62608003 93.2324601 112.95728031 92.0625 108.99609375 C89.78961595 101.6279614 86.89496337 95.19265624 83 88.546875 C81.83444142 85.32135352 81.74587798 83.63263214 82.90478516 80.40844727 C85.50199239 75.12188226 89.08064673 70.37249922 92.43945312 65.55273438 C93.02017578 64.69486328 93.60089844 63.83699219 94.19921875 62.953125 C95.0049231 61.79453979 95.0049231 61.79453979 95.8269043 60.61254883 C97.08019209 58.50507645 97.08019209 58.50507645 96.61938477 56.25976562 C95.7469718 54.11950686 94.7268065 52.78482576 93.125 51.12109375 C92.63515625 50.58871094 92.1453125 50.05632813 91.640625 49.5078125 C89.8836437 48.19358155 89.8836437 48.19358155 87.54394531 48.68481445 C84.64601651 49.49783564 82.83876279 50.58291093 80.40625 52.33984375 C79.58769531 52.91863281 78.76914062 53.49742188 77.92578125 54.09375 C77.08402344 54.70089844 76.24226563 55.30804688 75.375 55.93359375 C73.70346921 57.13924613 72.02654403 58.33746262 70.34375 59.52734375 C69.60576172 60.06037109 68.86777344 60.59339844 68.10742188 61.14257812 C65.6323121 62.57394082 63.71233605 63.13674351 60.875 63.43359375 C58.40056484 62.5572313 56.21855828 61.59281811 53.875 60.43359375 C45.70622367 56.47400633 37.66508002 53.23287991 28.9921875 50.609375 C25.90876155 49.44632837 24.84746019 48.94773529 22.875 46.43359375 C21.98364258 43.76977539 21.98364258 43.76977539 21.26953125 40.59375 C21.00849609 39.44841797 20.74746094 38.30308594 20.47851562 37.12304688 C20.21748047 35.92615234 19.95644531 34.72925781 19.6875 33.49609375 C19.41486328 32.30306641 19.14222656 31.11003906 18.86132812 29.88085938 C16.875 21.0245242 16.875 21.0245242 16.875 16.43359375 C12.255 16.76359375 7.635 17.09359375 2.875 17.43359375 C2.49988281 19.39683594 2.12476563 21.36007813 1.73828125 23.3828125 C1.35562515 25.29609299 0.97282914 27.20934829 0.58618164 29.12182617 C0.19324504 31.09228413 -0.17989811 33.06665577 -0.55273438 35.04101562 C-0.93461914 36.91176758 -0.93461914 36.91176758 -1.32421875 38.8203125 C-1.54940186 39.96717529 -1.77458496 41.11403809 -2.0065918 42.2956543 C-3.35351689 46.074748 -5.04816915 47.89820578 -8.125 50.43359375 C-11.9242366 51.14595061 -13.56224821 50.74623363 -16.9375 48.87109375 C-19.81829101 45.66106949 -19.82796393 43.71674058 -20.125 39.43359375 C-19.83372601 36.56313631 -19.24858203 33.792703 -18.61328125 30.98046875 C-18.44378464 30.19843079 -18.27428802 29.41639282 -18.09965515 28.61065674 C-17.73994143 26.96890587 -17.37401904 25.3285042 -17.00219727 23.68945312 C-16.43695487 21.18117472 -15.90207566 18.66765977 -15.36914062 16.15234375 C-15.01483344 14.55298279 -14.65877404 12.95400878 -14.30078125 11.35546875 C-14.1432991 10.60545593 -13.98581696 9.85544312 -13.82356262 9.08270264 C-13.13172099 6.12206732 -12.45069704 3.82727253 -10.49682617 1.46557617 C-7.04117114 -0.03798058 -3.70349562 -0.01441424 0 0 Z " fill="#e52b50" transform="translate(367.125,-0.43359375)"/>
<path d="M0 0 C17.20281831 3.69248056 31.77634106 13.46705863 41.93359375 27.83984375 C51.86854741 43.50724631 55.23897325 61.04382119 51.6875 79.25 C48.47071522 92.73343902 48.47071522 92.73343902 43.5625 97.125 C40.18283592 98.25155469 38.32588678 98.08140004 34.9375 97 C32.5625 95.4375 32.5625 95.4375 30.9375 93 C30.27334873 87.40215359 31.308091 83.3291301 33.203125 78.08203125 C37.28672985 66.50457708 34.74500447 53.76405831 29.8125 42.875 C23.59305654 31.34311526 13.15339564 22.34056475 0.53515625 18.5390625 C-4.15907604 17.56492106 -8.9361531 17.14576165 -13.70703125 16.72265625 C-17.47918479 15.91025997 -18.75525942 15.03525339 -21.0625 12 C-22.21961808 8.37436334 -22.3976709 6.73737598 -20.8125 3.25 C-15.59309911 -3.46065828 -7.45765661 -1.22063017 0 0 Z " fill="#e52b50" transform="translate(390.0625,70)"/>
<path d="M0 0 C0.9715654 -0.00571014 1.9431308 -0.01142029 2.94413757 -0.01730347 C4.01377747 -0.01842133 5.08341736 -0.01953918 6.18547058 -0.02069092 C7.87098274 -0.02813828 7.87098274 -0.02813828 9.59054565 -0.03573608 C13.32165633 -0.05038559 17.05272449 -0.05716445 20.78385925 -0.06268311 C23.36977134 -0.06843237 25.95568341 -0.07419013 28.54159546 -0.07995605 C33.27531624 -0.08912845 38.00901994 -0.09542545 42.74274808 -0.09845281 C49.7083559 -0.10293196 56.67376732 -0.12047215 63.63931543 -0.1494534 C69.6727921 -0.17368462 75.70617596 -0.18139764 81.73970604 -0.18312836 C84.3061753 -0.18615938 86.87264363 -0.19420297 89.43908119 -0.20731354 C93.02787333 -0.22433755 96.61618588 -0.22250237 100.20500183 -0.21600342 C101.26856903 -0.2252182 102.33213623 -0.23443298 103.42793274 -0.243927 C112.51436984 -0.19229183 112.51436984 -0.19229183 116.389328 3.14044189 C117.95404033 6.26986655 118.08634758 9.75126413 117.389328 13.14044189 C115.389265 15.58889652 114.17028164 16.97352586 111.03422546 17.64380646 C109.72016724 17.64606861 109.72016724 17.64606861 108.37956238 17.64837646 C107.37014587 17.65965576 106.36072937 17.67093506 105.32072449 17.68255615 C104.21930115 17.67445923 103.11787781 17.6663623 101.983078 17.65802002 C100.8184906 17.6650293 99.6539032 17.67203857 98.45402527 17.67926025 C94.59888467 17.69688622 90.74447626 17.6852003 86.889328 17.67169189 C84.21418847 17.67438547 81.53907131 17.67826042 78.86393738 17.68328857 C73.2551325 17.69056386 67.64653837 17.68098061 62.0377655 17.66192627 C55.55514894 17.64015747 49.07303559 17.64720894 42.59043121 17.66923189 C37.02256211 17.68738948 31.45484441 17.68994255 25.88695526 17.67947721 C22.5623713 17.67324412 19.23807549 17.67397388 15.91349792 17.68562317 C12.20717643 17.69575937 8.50182693 17.68032674 4.795578 17.65802002 C3.69415466 17.66611694 2.59273132 17.67421387 1.45793152 17.68255615 C-0.05619324 17.66563721 -0.05619324 17.66563721 -1.60090637 17.64837646 C-2.47694519 17.64686836 -3.35298401 17.64536026 -4.25556946 17.64380646 C-7.38966591 16.97394471 -8.6051233 15.58107944 -10.610672 13.14044189 C-11.33838432 10.40081902 -11.19038776 7.90830051 -10.610672 5.14044189 C-7.45686013 1.04048646 -5.02872879 0.01765909 0 0 Z " fill="#e52b50" transform="translate(94.61067199707031,106.85955810546875)"/>
<path d="M0 0 C1.14362 -0.0087616 2.28723999 -0.01752319 3.46551514 -0.02655029 C7.24562524 -0.04855603 11.02456551 -0.03398574 14.8046875 -0.01708984 C17.43115463 -0.0204576 20.05762024 -0.02530987 22.68408203 -0.03158569 C28.18860548 -0.04067488 33.69279319 -0.02871402 39.19726562 -0.00488281 C45.5555849 0.02232767 51.9131025 0.01351295 58.27140236 -0.01401484 C64.39521517 -0.03946331 70.51867337 -0.03673885 76.64251709 -0.02210617 C79.24526074 -0.01876884 81.84802483 -0.02287064 84.45074463 -0.03450394 C88.08750741 -0.04719142 91.72272726 -0.02786139 95.359375 0 C96.43693054 -0.01012115 97.51448608 -0.02024231 98.62469482 -0.03067017 C105.89585498 0.07261965 105.89585498 0.07261965 109.84814453 2.96865845 C112.28113004 6.52647815 112.43445017 8.42030172 111.6796875 12.64697266 C109.62787249 15.64739655 107.99768416 17.38570371 104.35003662 18.10878372 C101.34277615 18.30033389 98.37270831 18.32224865 95.359375 18.29394531 C93.64394501 18.30708771 93.64394501 18.30708771 91.89385986 18.32049561 C88.11374976 18.34250134 84.33480949 18.32793106 80.5546875 18.31103516 C77.92822037 18.31440291 75.30175476 18.31925518 72.67529297 18.32553101 C67.17076952 18.33462019 61.66658181 18.32265933 56.16210938 18.29882812 C49.8037901 18.27161764 43.4462725 18.28043236 37.08797264 18.30796015 C30.96415983 18.33340863 24.84070163 18.33068416 18.71685791 18.31605148 C16.11411426 18.31271415 13.51135017 18.31681595 10.90863037 18.32844925 C7.27186759 18.34113673 3.63664774 18.3218067 0 18.29394531 C-1.61633331 18.30912704 -1.61633331 18.30912704 -3.26531982 18.32461548 C-10.53647998 18.22132567 -10.53647998 18.22132567 -14.48876953 15.32528687 C-16.92175504 11.76746716 -17.07507517 9.87364359 -16.3203125 5.64697266 C-12.00769255 -0.6594867 -6.98591495 -0.0656166 0 0 Z " fill="#e52b50" transform="translate(100.3203125,70.35302734375)"/>
<path d="M0 0 C0.64764816 -0.00700928 1.29529633 -0.01401855 1.96257019 -0.02124023 C4.09723149 -0.03880413 6.23056029 -0.02720508 8.36523438 -0.01367188 C9.85209405 -0.0163673 11.33895201 -0.02025014 12.82580566 -0.02526855 C15.93954273 -0.03116136 19.05282032 -0.02260834 22.16650391 -0.00390625 C26.15489526 0.01888398 30.14220997 0.00575961 34.13056183 -0.01819611 C37.2001352 -0.03266045 40.26945393 -0.02804535 43.33903503 -0.01768494 C44.80942411 -0.01501937 46.27983642 -0.01828149 47.75019836 -0.02760315 C49.80674339 -0.03778022 51.86155281 -0.0222559 53.91796875 0 C55.08726929 0.00318237 56.25656982 0.00636475 57.46130371 0.00964355 C61.08976275 0.6244588 62.24542535 1.63118887 64.45898438 4.51757812 C65.63489411 8.20209531 65.79379776 9.80012087 64.14648438 13.33007812 C62.45898438 15.51757812 62.45898438 15.51757812 60.45898438 16.51757812 C58.35649563 16.62980379 56.25042726 16.67692196 54.14501953 16.69458008 C53.17398537 16.70443687 53.17398537 16.70443687 52.18333435 16.7144928 C50.03823738 16.73422483 47.89321037 16.74588742 45.74804688 16.75585938 C45.01569195 16.7599349 44.28333702 16.76401043 43.52878952 16.76820946 C39.65331046 16.78906875 35.77786681 16.80337163 31.90234375 16.81274414 C27.89832256 16.82381479 23.89485618 16.85822185 19.89103127 16.89791584 C16.8129472 16.9240511 13.73499603 16.93243312 10.65681076 16.93602562 C9.18080265 16.94089883 7.70480075 16.95253383 6.22890091 16.97106361 C4.16273151 16.99539382 2.09800684 16.99450262 0.03173828 16.98754883 C-1.14359467 16.99341507 -2.31892761 16.99928131 -3.52987671 17.00532532 C-7.15806867 16.41762728 -8.32013884 15.38623675 -10.54101562 12.51757812 C-11.07226562 10.51757812 -11.07226562 10.51757812 -11.04101562 8.51757812 C-11.05648437 7.52757812 -11.05648437 7.52757812 -11.07226562 6.51757812 C-9.54153797 0.7548387 -5.3357136 0.0145217 0 0 Z " fill="#e52b50" transform="translate(94.541015625,143.482421875)"/>
<path d="M0 0 C2.18157687 1.90887976 3.20324163 2.96134569 4 5.75 C3.8566327 9.19081516 3.45866697 11.13844404 1.3828125 13.90625 C-1.83591983 16.3968101 -3.96828658 16.28416706 -8 16.25 C-9.8253125 16.26546875 -9.8253125 16.26546875 -11.6875 16.28125 C-15 15.75 -15 15.75 -17.41015625 13.96875 C-19.55472974 10.97583172 -19.51396079 9.21640866 -19.328125 5.65234375 C-18.87112031 3.00280465 -17.96318127 1.56776044 -16 -0.25 C-10.74605226 -2.00131591 -5.13561649 -2.1398402 0 0 Z " fill="#e52b50" transform="translate(59,108.25)"/>
<path d="M0 0 C3.76302216 1.91840345 4.65124289 2.97552598 6 6.9375 C6 10.60292141 5.23178648 12.13056023 3 15 C-1.67983999 18.11989333 -6.52651415 17.70078323 -12 17 C-15.25 15 -15.25 15 -17 12 C-17.72076388 8.91537491 -17.51982816 7.27491741 -17 4 C-13.07585944 -1.60591509 -6.17328352 -0.83676595 0 0 Z " fill="#e52b50" transform="translate(57,71)"/>
<path d="M0 0 C1.8253125 -0.01546875 1.8253125 -0.01546875 3.6875 -0.03125 C7.53200496 0.58532155 8.68805951 1.43041154 11 4.5 C12.17590974 8.18451718 12.33481338 9.78254275 10.6875 13.3125 C9 15.5 9 15.5 7 16.5 C4.7126402 16.67484831 2.41858557 16.76720049 0.125 16.8125 C-1.10992187 16.84988281 -2.34484375 16.88726562 -3.6171875 16.92578125 C-7 16.5 -7 16.5 -9.4140625 14.73046875 C-11.08511682 12.38029136 -11.54437284 11.33986156 -11.5 8.5 C-11.51546875 7.51 -11.51546875 7.51 -11.53125 6.5 C-9.930738 0.47454305 -5.56163638 -0.04713251 0 0 Z " fill="#e52b50" transform="translate(51,143.5)"/>
<path d="M0 0 C3.80470451 0.7133821 5.41196019 1.67868421 8 4.5625 C9.0625 8 9.0625 8 9 11.5625 C7.23358828 14.36439446 5.96950178 16.07774911 3 17.5625 C-1.0130324 18.09757099 -2.53928033 17.89301628 -5.875 15.5 C-8 12.5625 -8 12.5625 -8.625 9.0625 C-7.67703424 3.75389177 -5.38444917 1.00958422 0 0 Z " fill="#e52b50" transform="translate(312,367.4375)"/>
</svg>
