<?xml version="1.0" encoding="UTF-8"?>
<svg version="1.1" xmlns="http://www.w3.org/2000/svg" width="512" height="512">
<path d="M0 0 C1.89477539 1.26318359 1.89477539 1.26318359 3.72265625 2.9609375 C4.41335205 3.59862061 5.10404785 4.23630371 5.81567383 4.89331055 C9.6732618 8.61378966 13.47972657 12.37853206 17.25 16.1875 C18.10754883 17.04883545 18.96509766 17.9101709 19.84863281 18.79760742 C23.48494939 22.45013983 27.11524371 26.10863635 30.74609375 29.76660156 C33.41197597 32.45065156 36.0809181 35.13163241 38.75 37.8125 C39.55856445 38.62936279 40.36712891 39.44622559 41.20019531 40.2878418 C42.36180176 41.45440308 42.36180176 41.45440308 43.546875 42.64453125 C44.21557617 43.31846924 44.88427734 43.99240723 45.57324219 44.68676758 C47.46864102 46.49349835 49.38365694 48.18492337 51.37541199 49.87937927 C58.0438758 55.68255625 64.19673917 62.04026759 70.4465332 68.28540039 C71.90076538 69.73499778 73.35519263 71.1843995 74.80979919 72.63362122 C78.74167839 76.55244712 82.67027695 80.47454513 86.59786248 84.39767385 C89.05317428 86.85004641 91.50906839 89.30183437 93.96513939 91.75344658 C101.6544856 99.42914306 109.34184518 107.10682088 117.02630454 114.78740984 C125.88952532 123.64614119 134.75926275 132.49827909 143.63468295 141.34478766 C150.50382275 148.19232721 157.36720279 155.04560487 164.22621983 161.90328401 C168.31999424 165.99601019 172.41616494 170.08626766 176.51833534 174.17057991 C180.37202993 178.0078203 184.21853122 181.85212681 188.05961037 185.70199394 C189.46994272 187.1130978 190.88284356 188.52163995 192.29848862 189.92741394 C194.23081451 191.84705305 196.15365726 193.77572251 198.07441711 195.70692444 C198.63608198 196.2605329 199.19774685 196.81414136 199.77643186 197.38452584 C203.92416383 201.58516886 207 205.40713321 207 211.5625 C206 215 206 215 201 220 C186.81 220 172.62 220 158 220 C158 272.14 158 324.28 158 378 C160.31 377.34 162.62 376.68 165 376 C177.67646979 374.7494656 187.36093025 376.74494855 197.875 384.25 C202.25900795 387.911282 205.26820352 392.00921797 208 397 C208.3403125 397.59039062 208.680625 398.18078125 209.03125 398.7890625 C212.87991149 406.87837879 212.150456 418.52943548 209.5625 426.875 C204.42707966 438.71108865 193.01135096 446.38557965 183.21972656 454.21972656 C181.08195896 455.93426697 178.95668771 457.66291153 176.8359375 459.3984375 C169.43355381 465.4541214 161.97540112 471.43243763 154.4296875 477.30859375 C152.09855263 479.12709171 149.79571848 480.97509517 147.5078125 482.84765625 C126.84221491 499.66219958 100.63224921 512.07734959 73.55300903 512.14044189 C72.83623391 512.14341302 72.11945879 512.14638414 71.38096321 512.1494453 C68.99631364 512.15806691 66.61171466 512.15963499 64.22705078 512.16113281 C62.50977981 512.16576583 60.79250986 512.17079114 59.07524109 512.17617798 C54.41970433 512.18926229 49.76418197 512.19573984 45.1086297 512.20018864 C42.19295085 512.20312738 39.27727586 512.2072338 36.36159897 512.21169281 C27.21900232 512.22536082 18.07641459 512.23502939 8.93380845 512.2388947 C-1.58146228 512.24336592 -12.09660241 512.26087314 -22.61183345 512.2898953 C-30.76334323 512.31160356 -38.91481653 512.32160393 -47.06635487 512.32293582 C-51.92324362 512.32397785 -56.78000949 512.32975541 -61.63686752 512.34775543 C-66.21536535 512.36439373 -70.79365005 512.36631632 -75.37216759 512.35761642 C-77.03887318 512.35685424 -78.70559098 512.36107845 -80.37226677 512.37107468 C-112.84570205 512.55418079 -140.06336542 501.29095495 -167.40234375 484.58496094 C-171.58667926 482.03188705 -175.79414611 479.51741362 -180 477 C-180.03528809 477.7518457 -180.07057617 478.50369141 -180.10693359 479.27832031 C-180.68166939 489.96095223 -184.11875564 497.67827603 -192 505 C-199.1837942 510.47469036 -205.94104345 512.29909413 -214.86352539 512.30639648 C-215.73419144 512.31472 -216.60485748 512.32304352 -217.50190735 512.33161926 C-220.36720298 512.35562871 -223.23227084 512.36447824 -226.09765625 512.37109375 C-228.0949256 512.38006367 -230.09219428 512.38918559 -232.08946228 512.39845276 C-236.26970044 512.41491832 -240.4498587 512.42263902 -244.63012695 512.42553711 C-249.98593456 512.43093272 -255.34099219 512.46867191 -260.69658756 512.51428127 C-264.8187078 512.54401521 -268.94064613 512.5512598 -273.0628643 512.55226326 C-275.0376474 512.55646922 -277.01243086 512.56891855 -278.98710823 512.58978081 C-281.74725954 512.61663238 -284.505654 512.61188978 -287.26586914 512.59936523 C-288.48711487 512.62161667 -288.48711487 512.62161667 -289.73303223 512.64431763 C-290.48850845 512.63455399 -291.24398468 512.62479034 -292.02235413 512.61473083 C-292.99928773 512.61774783 -292.99928773 512.61774783 -293.99595737 512.62082577 C-297.43752616 511.5546735 -298.85306221 509.86024557 -301 507 C-301.72325246 503.84742503 -301.67520126 500.77226091 -301.63491821 497.54882812 C-301.64271817 496.59253258 -301.65051812 495.63623703 -301.65855443 494.65096283 C-301.67851088 491.44400093 -301.66269504 488.23822087 -301.64697266 485.03125 C-301.65374712 482.73322862 -301.66264928 480.43521267 -301.67352295 478.13720703 C-301.69634286 471.89342981 -301.6874685 465.65006507 -301.67162752 459.40628052 C-301.65898264 452.87696203 -301.67070471 446.34767923 -301.67855835 439.81835938 C-301.68824218 428.15010013 -301.67268845 416.4820294 -301.64726166 404.81379986 C-301.62492289 394.23514848 -301.62880305 383.65677143 -301.65185547 373.078125 C-301.67861557 360.79229515 -301.6885719 348.50666066 -301.67379415 336.22080231 C-301.66599257 329.71769116 -301.66497771 323.21476898 -301.68147659 316.71166992 C-301.69590295 310.59825803 -301.6859324 304.48536502 -301.65700531 298.37200928 C-301.65038479 296.12620913 -301.65230853 293.88036544 -301.66331863 291.63458252 C-301.67694689 288.57285292 -301.65989011 285.51279447 -301.63491821 282.45117188 C-301.64607182 281.55866478 -301.65722543 280.66615768 -301.66871703 279.74660492 C-301.59824298 275.30378917 -301.4454326 273.55860688 -298.58531761 269.97180176 C-294.35276574 266.74366717 -291.21769202 266.84080947 -286.05297852 266.82299805 C-285.23154861 266.81642685 -284.41011871 266.80985565 -283.563797 266.80308533 C-280.83549917 266.78332104 -278.10725668 266.77167799 -275.37890625 266.76171875 C-274.44566969 266.75764322 -273.51243313 266.7535677 -272.55091667 266.74936867 C-267.60401505 266.72848687 -262.65714127 266.71419869 -257.71020508 266.70483398 C-252.61955203 266.69381197 -247.52934124 266.65946712 -242.43884373 266.61966228 C-238.51036313 266.59339779 -234.58198587 266.58513307 -230.65342522 266.58155251 C-228.77850319 266.57670579 -226.90358518 266.56514697 -225.02874947 266.54651451 C-211.76284237 266.42295389 -200.63468609 267.02512496 -190.0078125 275.95703125 C-181.73544562 284.37424502 -180 293.5853864 -180 305 C-175.38 305 -170.76 305 -166 305 C-166 276.95 -166 248.9 -166 220 C-179.92663659 220.19762081 -179.92663659 220.19762081 -193.85229492 220.45043945 C-195.60333736 220.46504792 -197.35439682 220.47778775 -199.10546875 220.48828125 C-200.4597699 220.526651 -200.4597699 220.526651 -201.84143066 220.5657959 C-206.42809323 220.5689727 -208.34410219 220.51630271 -212.0559082 217.59448242 C-214.90791908 213.78833906 -215.45928183 211.77653106 -215 207 C-211.7601543 201.21618006 -207.12151584 196.83258553 -202.45532227 192.18066406 C-201.59470184 191.31493271 -200.73408142 190.44920135 -199.84738159 189.55723572 C-197.49785701 187.19623059 -195.14392815 184.83980626 -192.78739285 182.48581028 C-190.81730937 180.51680001 -188.85021823 178.54481345 -186.88306469 176.57287669 C-182.24265802 171.92139798 -177.59697179 167.27523926 -172.94799805 162.63232422 C-168.15635656 157.8467314 -163.37398661 153.05201363 -158.59601742 148.25277352 C-154.4866537 144.12579146 -150.37150362 140.00464244 -146.25169414 135.88808799 C-143.79402643 133.43223172 -141.33862766 130.97421126 -138.88882637 128.51050568 C-136.15900413 125.76576864 -133.41716361 123.03323688 -130.67407227 120.30175781 C-129.46213951 119.07835945 -129.46213951 119.07835945 -128.22572327 117.83024597 C-127.47577087 117.08730789 -126.72581848 116.34436981 -125.95314026 115.57891846 C-124.98337171 114.6088983 -124.98337171 114.6088983 -123.99401188 113.61928177 C-120.5811025 110.84775267 -117.88024849 109.98428128 -113.5 110.0625 C-109.24892191 111.20118163 -107.64054077 112.50516663 -105 116 C-103.79366063 119.54362189 -103.70680887 121.24976176 -105.07136536 124.7414856 C-107.50215067 128.84840599 -110.47073837 131.86725568 -113.8581543 135.19873047 C-114.55109589 135.89211014 -115.24403748 136.58548981 -115.95797729 137.29988098 C-118.23968257 139.5795039 -120.53181371 141.84832891 -122.82421875 144.1171875 C-124.41242266 145.69979352 -125.99996352 147.28306519 -127.58686829 148.86697388 C-131.75761242 153.02628459 -135.93728827 157.17650571 -140.11889648 161.32489014 C-144.38743612 165.56269678 -148.64745573 169.80904905 -152.90820312 174.0546875 C-161.2638248 182.37817149 -169.62890843 190.69207657 -178 199 C-166.13658331 201.18826618 -151.65752209 203.31185923 -140.8474884 196.73642731 C-131.02916192 189.8814601 -122.88763404 180.71964249 -114.76015949 172.00736475 C-111.17033626 168.19733242 -107.48283045 164.48414898 -103.80511475 160.75924683 C-96.87699471 153.71386313 -90.03597929 146.59013498 -83.22481322 139.43181598 C-74.70765008 130.48839834 -66.08642598 121.64737382 -57.4609375 112.80859375 C-54.43822553 109.71048827 -51.41612445 106.61178966 -48.3949585 103.51217651 C-47.66360554 102.76189395 -46.93225257 102.01161138 -46.1787374 101.23859298 C-41.14465811 96.06813786 -36.14159425 90.86889087 -31.15045166 85.65701294 C-29.17397966 83.59890062 -27.19691987 81.54135482 -25.21965027 79.48400879 C-23.98358123 78.19437256 -22.75036166 76.9019983 -21.52021027 75.60671616 C-19.84252498 73.84024404 -18.15556298 72.08312674 -16.46636963 70.32766724 C-15.98205672 69.81210585 -15.4977438 69.29654446 -14.99875474 68.76536 C-11.17441176 64.82053368 -8.19970074 63.04150379 -2.6875 62.9375 C6.36750321 65.54656872 13.04813205 75.05603053 19.41357422 81.73849106 C22.45999847 84.93580629 25.51843404 88.12160883 28.57554626 91.30870056 C29.54914418 92.32441645 29.54914418 92.32441645 30.54241073 93.36065185 C39.64119323 102.8447161 48.82999926 112.24148595 58.01463223 121.64230251 C65.47618864 129.28465063 72.90417078 136.95508317 80.26245117 144.69702148 C86.7067738 151.47708866 93.20911404 158.19508006 99.78422409 164.84847409 C103.25191887 168.36164039 106.68552369 171.89683534 110.0503521 175.50887871 C126.2896482 193.64159459 126.2896482 193.64159459 148.59627515 200.83071977 C155.8061951 200.96216836 162.90159342 200.23168115 170 199 C161.14466167 190.12143632 152.28658328 181.24561636 143.42504883 172.37323666 C139.30986058 168.25284184 135.1956028 164.131527 131.08349609 160.00805664 C127.11107014 156.02472251 123.13616808 152.04387449 119.15957642 148.06469917 C117.64694771 146.55023048 116.13519574 145.03488557 114.62435913 143.51862907 C112.49932135 141.3862755 110.37111641 139.25712988 108.2421875 137.12866211 C107.62574875 136.50862808 107.00931 135.88859406 106.37419128 135.24977112 C103.38977594 132.27229078 100.35726668 129.40988329 97.16064453 126.66064453 C92.27542148 122.43416675 87.74405902 117.87623731 83.1875 113.30102539 C82.23088224 112.3441249 81.27404292 111.38744585 80.31700134 110.43096924 C77.74300024 107.85725275 75.1720743 105.28048482 72.60172653 102.70312047 C69.90629561 100.00139966 67.20799536 97.30254753 64.51000977 94.6033783 C59.41190605 89.50217778 54.31635483 84.39843561 49.22173595 79.29375499 C43.41712244 73.47792883 37.60963826 67.66497278 31.80192184 61.85224545 C19.86477099 49.90466763 7.93119551 37.95352495 -4 26 C-8.01197587 29.38091755 -11.91903429 32.7946401 -15.6184082 36.52075195 C-16.45229568 37.35794266 -17.28618317 38.19513336 -18.14533997 39.05769348 C-19.4597834 40.38458443 -19.4597834 40.38458443 -20.80078125 41.73828125 C-22.20242592 43.14571012 -23.60407331 44.55313629 -25.00588512 45.96039867 C-27.44357943 48.4089573 -29.87792372 50.86084179 -32.3125 53.3125 C-35.23904077 56.2594398 -38.16618087 59.20576631 -41.09721375 62.14823914 C-42.91694212 63.97551638 -44.73440145 65.80505659 -46.5493927 67.63703918 C-47.36751938 68.45846909 -48.18564606 69.27989899 -49.02856445 70.1262207 C-49.74913528 70.85202835 -50.46970612 71.577836 -51.21211243 72.32563782 C-54.50676684 75.41109175 -57.37838785 75.3999161 -61.73828125 75.34375 C-64 75 -64 75 -67 72.875 C-69.26157198 69.62399027 -70 67.95490344 -70 64 C-68.13579043 58.67327922 -65.7096702 55.13564897 -61.65820312 51.18823242 C-61.12613754 50.65397644 -60.59407196 50.11972046 -60.04588318 49.5692749 C-58.30046152 47.82155843 -56.54125047 46.08849272 -54.78125 44.35546875 C-53.55880884 43.13795596 -52.33718199 41.91962507 -51.11633301 40.70051575 C-48.56351898 38.15532059 -46.00440549 35.61670776 -43.43994141 33.08325195 C-40.15275597 29.8357449 -36.87652611 26.57746547 -33.60428619 23.31490612 C-30.47929378 20.19988259 -27.34937032 17.08983465 -24.21875 13.98046875 C-23.62228165 13.38739614 -23.02581329 12.79432354 -22.41127014 12.18327904 C-20.72412892 10.50771381 -19.03357386 8.83567786 -17.34179688 7.16479492 C-16.84300522 6.66869217 -16.34421356 6.17258942 -15.83030701 5.66145325 C-10.68554602 0.59627496 -7.17018233 -1.35858297 0 0 Z M-8.59433502 92.3408345 C-9.08450436 92.83751164 -9.5746737 93.33418878 -10.07969666 93.84591675 C-10.60198351 94.36720032 -11.12427036 94.88848389 -11.66238409 95.42556393 C-13.42285962 97.18508183 -15.17606678 98.95167159 -16.92944336 100.71826172 C-18.1855021 101.9765202 -19.44200784 103.23433259 -20.69892883 104.49172974 C-23.41049356 107.20623467 -26.1188631 109.92387489 -28.82484245 112.6439476 C-33.10123753 116.94254565 -37.38465144 121.2341024 -41.66908264 125.52468872 C-48.44430982 132.31131259 -55.21485062 139.10258985 -61.98338467 145.89588845 C-74.10443959 158.06121603 -86.2310279 170.22102167 -98.36285692 182.37560475 C-102.62303314 186.64420267 -106.88038378 190.9155935 -111.13550746 195.18922782 C-113.78144917 197.84579824 -116.42940852 200.5003507 -119.07787895 203.15439987 C-120.30789314 204.38789045 -121.53703442 205.62225217 -122.76524734 206.85753632 C-124.43898296 208.54069684 -126.1157573 210.22077077 -127.7933197 211.90011597 C-128.28125832 212.39233167 -128.76919694 212.88454736 -129.27192158 213.39167869 C-135.14599535 219.25587596 -136.58082467 219.05808247 -146 220 C-146 248.05 -146 276.1 -146 305 C-129.42741699 305.20955468 -129.42741699 305.20955468 -112.85449219 305.38793945 C-110.7519357 305.4202731 -108.64939494 305.45365289 -106.546875 305.48828125 C-105.48549316 305.49452515 -104.42411133 305.50076904 -103.33056641 305.50720215 C-91.48572792 305.73122764 -81.56669554 308.73745281 -71 314 C-70.99191315 313.06341049 -70.98382629 312.12682098 -70.97549438 311.16184998 C-70.89788593 302.31950924 -70.81010988 293.47731958 -70.71247292 284.63517666 C-70.66260544 280.0897417 -70.61627476 275.5443289 -70.578125 270.9987793 C-70.54115131 266.60905961 -70.49475901 262.21952979 -70.44193649 257.82997322 C-70.4234566 256.15834967 -70.40832519 254.48668551 -70.39665604 252.81500053 C-70.3796834 250.46688421 -70.35062307 248.11919667 -70.31884766 245.77124023 C-70.31668747 245.08575104 -70.31452728 244.40026184 -70.31230164 243.69400024 C-70.23306824 239.0869913 -69.62497762 235.28215731 -68 231 C-65.06226341 230.02075447 -63.14150143 229.86542382 -60.07925415 229.84609985 C-59.06424332 229.83749939 -58.04923248 229.82889893 -57.00346375 229.82003784 C-55.89066544 229.81577789 -54.77786713 229.81151794 -53.63134766 229.80712891 C-52.458759 229.79895142 -51.28617035 229.79077393 -50.07804871 229.78234863 C-46.19006713 229.75749496 -42.30209316 229.7408278 -38.4140625 229.7265625 C-37.07472095 229.72120162 -35.73537947 229.7158241 -34.39603806 229.71043015 C-28.82514948 229.68880985 -23.25426377 229.67007267 -17.68334389 229.65880775 C-9.70282597 229.64256301 -1.72279445 229.60936369 6.25754011 229.55240691 C11.87122047 229.51370794 17.48477071 229.49417533 23.09858096 229.48888719 C26.4507215 229.48523432 29.80234279 229.47322111 33.15433884 229.44078445 C36.89412489 229.4092824 40.63267554 229.40907426 44.37255859 229.41650391 C45.48130844 229.40009857 46.59005829 229.38369324 47.73240662 229.36679077 C52.17759814 229.40301987 55.20872792 229.58825349 59.1855011 231.65760803 C62.1815972 237.1765574 61.70054849 242.90862754 61.65942383 249.06176758 C61.66787961 250.51077656 61.67852492 251.95977416 61.69119263 253.40875244 C61.71933355 257.33617566 61.71686852 261.26305262 61.70889878 265.19054627 C61.70577349 269.29725336 61.73080867 273.40378654 61.75285339 277.51042175 C61.79030599 285.28409127 61.80244209 293.05758584 61.8054778 300.83133668 C61.81016732 309.68263817 61.84308718 318.53376427 61.87837565 327.38498843 C61.95032381 345.58997539 61.9868291 363.79488041 62 382 C62.92224365 382.0093457 63.8444873 382.01869141 64.79467773 382.02832031 C68.25618654 382.07265127 71.71651459 382.13440298 75.17749023 382.20751953 C76.66793703 382.23553484 78.15852703 382.25684494 79.64916992 382.27099609 C91.47990487 382.38997767 100.32675831 383.77812002 109.27734375 392.0703125 C111.9531586 395.06771054 113.53067583 398.29032015 115 402 C115.54527344 403.35738281 115.54527344 403.35738281 116.1015625 404.7421875 C116.39804687 405.48726563 116.69453125 406.23234375 117 407 C119.06435978 405.67067741 121.10323885 404.31804937 123.122509 402.92066097 C126 401 126 401 129.08980179 399.27435398 C133.92205265 396.29159204 137.38564516 394.01551811 139.08638763 388.43588066 C139.63078074 384.02379282 139.48671037 379.62323273 139.36230469 375.18920898 C139.35891558 373.4933242 139.36082807 371.79742183 139.36761475 370.10154724 C139.37104564 365.51802155 139.30071599 360.93829599 139.21672726 356.35565066 C139.14149544 351.55924396 139.13464594 346.76274124 139.12042236 341.96583557 C139.08318645 332.89172781 138.98480203 323.81936365 138.86422849 314.74602228 C138.72990239 304.41252088 138.66407218 294.07893431 138.60388327 283.74477661 C138.47859311 262.4955461 138.2676478 241.24788306 138 220 C137.3709375 220.00902344 136.741875 220.01804688 136.09375 220.02734375 C128.44198085 219.76229753 125.18476551 217.39456786 120 212 C118.6316163 210.65806275 117.26314484 209.3162139 115.89324307 207.97582638 C113.18449168 205.31047044 110.51145562 202.60956565 107.83251953 199.91430664 C106.62300987 198.70123495 105.413261 197.48840172 104.20329285 196.27578735 C101.61286328 193.67884201 99.02395241 191.08039567 96.43619156 188.48079109 C92.34680093 184.37302998 88.25299728 180.26968603 84.15841675 176.167099 C72.52111119 164.50569498 60.88981462 152.83830803 49.26269531 141.16674805 C42.83008217 134.70962637 36.39391112 128.2560725 29.95386779 121.80636114 C25.87923735 117.72517616 21.80916066 113.63951929 17.74235845 109.55053437 C15.22048029 107.01696889 12.69447231 104.48755343 10.16724586 101.95932388 C8.99237416 100.78229598 7.81923517 99.60353574 6.64792061 98.42296791 C5.05523366 96.81818178 3.45658702 95.21958521 1.85623169 93.62245178 C0.96142153 92.72449922 0.06661137 91.82654665 -0.85531425 90.9013834 C-4.4745414 87.6927369 -5.50349593 89.2732136 -8.59433502 92.3408345 Z M-50 249 C-57.0743236 300.40317851 -57.0743236 300.40317851 -40.671875 349.078125 C-31.08708514 360.04417351 -19.25796024 369.2334357 -7 377 C-6.34943634 377.41909637 -5.69887268 377.83819275 -5.02859497 378.26998901 C7.93491741 386.21173404 28.53815771 382 41 382 C41 338.11 41 294.22 41 249 C10.97 249 -19.06 249 -50 249 Z M-281 288 C-281 355.32 -281 422.64 -281 492 C-240.33614046 498.22231377 -240.33614046 498.22231377 -205.2578125 488.59765625 C-201.49389172 483.49689464 -200.85119986 479.91153334 -200.85282898 473.73895264 C-200.84915229 472.99403824 -200.8454756 472.24912385 -200.8416875 471.48163629 C-200.83064898 468.97831048 -200.82680654 466.47502619 -200.82299805 463.97167969 C-200.81673354 462.17966073 -200.81008675 460.38764307 -200.80308533 458.59562683 C-200.78567495 453.72152749 -200.77512351 448.84743796 -200.7668798 443.97331524 C-200.76172982 440.92841865 -200.75565409 437.88352511 -200.74936867 434.83863068 C-200.73031665 425.31267731 -200.71608542 415.78673169 -200.7077567 406.26076293 C-200.6979826 395.26309362 -200.67165858 384.26562548 -200.63125581 373.26802707 C-200.60110165 364.76856272 -200.5862885 356.26915606 -200.58297569 347.76963925 C-200.58062447 342.69275824 -200.57165455 337.61609215 -200.54651451 332.53926849 C-200.523241 327.76218674 -200.51899768 322.98546153 -200.52927589 318.20833778 C-200.52977153 316.45680112 -200.52344277 314.70524694 -200.50971985 312.95376396 C-200.49200503 310.55841037 -200.49910413 308.16433696 -200.51225281 305.76898193 C-200.50128356 305.07937464 -200.49031432 304.38976736 -200.47901267 303.67926288 C-200.55027101 298.28521321 -201.87558098 295.26706356 -205 291 C-227.67646847 279.66176577 -255.64693751 288 -281 288 Z M-180 326 C-180.75149931 342.0976865 -181.31357893 358.18960515 -181.6579895 374.30064869 C-181.82226467 381.78433889 -182.04633602 389.25696955 -182.4140625 396.73364258 C-185.64458371 428.20924119 -185.64458371 428.20924119 -176.91699219 456.53656006 C-169.97995949 463.51710685 -161.04890432 466.99751296 -151.77867126 469.76548767 C-146.64246223 471.44351493 -142.47734814 474.04688137 -138 477 C-114.93674859 489.77911522 -90.10824676 492.15453471 -64.19042969 492.14526367 C-62.79196587 492.14826793 -61.39350286 492.15167329 -59.99504089 492.15544128 C-56.24889265 492.16415562 -52.50276733 492.16661397 -48.75660992 492.16725707 C-46.4025188 492.16797465 -44.04843328 492.1701221 -41.69434357 492.17275429 C-33.44319803 492.1819653 -25.19206848 492.18609443 -16.94091797 492.18530273 C-9.31107638 492.18470271 -1.68130565 492.19525071 5.94851804 492.2110464 C12.55207431 492.22421883 19.15560769 492.22948262 25.75917697 492.22884732 C29.67982158 492.22859522 33.600403 492.2312842 37.52103424 492.24202538 C78.12389701 492.34528666 109.03388667 488.20261233 140.6640625 460.84375 C143.9457709 458.01820869 147.32928055 455.34190049 150.75 452.6875 C157.60547662 447.35567747 164.30790923 441.84896376 170.9921875 436.3046875 C173.43439975 434.28127242 175.89071019 432.2819252 178.3828125 430.3203125 C186.4407185 424.40285389 186.4407185 424.40285389 190.36328125 415.62109375 C190.58794445 411.31397932 190.26384115 408.54797778 188.375 404.625 C183.88656516 399.66409833 179.17987278 396.93375797 172.5 396.5 C161.22622286 396.72677138 151.27268681 407.59230713 142.82421875 414.2421875 C135.75999277 419.77920742 128.50343696 425.05279105 121.25439453 430.34375 C119.0629005 431.9537885 116.88673745 433.58239864 114.71484375 435.21875 C114.04348389 435.72124268 113.37212402 436.22373535 112.68041992 436.74145508 C111.44338214 437.66809917 110.21009754 438.59978779 108.98168945 439.5378418 C100.51921682 445.84208347 94.17097316 446.44171228 83.83544922 446.40405273 C82.51906967 446.41091599 81.20269012 446.41777924 79.84642029 446.42485046 C76.24889808 446.44273891 72.6516204 446.44162065 69.05406713 446.43590808 C66.04022044 446.43280721 63.02642011 446.43891926 60.01258004 446.44494683 C52.89278725 446.45897888 45.77311446 446.45744431 38.65332031 446.44604492 C31.33754268 446.43458963 24.02213276 446.44859848 16.70640361 446.4754414 C10.40290067 446.49769415 4.09951232 446.50421363 -2.20402706 446.49836498 C-5.9586491 446.49501397 -9.71303607 446.49728432 -13.46762466 446.51461601 C-17.00548768 446.53023461 -20.54281314 446.52596745 -24.08065605 446.50731087 C-25.97581224 446.50194476 -27.87099342 446.51602868 -29.76609802 446.53100586 C-48.37015003 446.37335329 -62.1590724 437.44145691 -77.00341797 427.34521484 C-79.06424053 425.95671737 -81.14051519 424.59457346 -83.22265625 423.23828125 C-83.9074707 422.79000977 -84.59228516 422.34173828 -85.29785156 421.87988281 C-86.61348845 421.01958511 -87.9317459 420.16327806 -89.25292969 419.31152344 C-92.19579601 417.37572163 -94.01870314 415.97194529 -96 413 C-96.48219153 409.95546509 -96.46284898 407.04708913 -96 404 C-94.12379387 401.49839182 -92.76108697 400.38054348 -90 399 C-84.682362 398.39800325 -81.41121035 400.07729695 -77.0625 402.875 C-76.41643799 403.27630127 -75.77037598 403.67760254 -75.10473633 404.09106445 C-69.76289211 407.43674243 -64.52467883 410.9423322 -59.29541016 414.46044922 C-47.64342999 422.29534815 -39.61356235 426.29563958 -25.35693359 426.32226562 C-24.08476486 426.33219543 -22.81259613 426.34212524 -21.50187683 426.35235596 C-18.02480364 426.37848405 -14.54780744 426.39146804 -11.07065153 426.40037727 C-8.89730651 426.40625306 -6.72398225 426.41446492 -4.55064774 426.42338562 C2.25275112 426.45069255 9.05610219 426.47005161 15.85955203 426.4777894 C23.708284 426.4867664 31.55632205 426.52195122 39.40484297 426.57979059 C45.4780268 426.62299266 51.55101502 426.64319591 57.62435091 426.64587164 C61.24977448 426.64796841 64.87454384 426.65979675 68.49980545 426.69551086 C72.53887574 426.73453443 76.576485 426.72590858 80.61572266 426.71289062 C81.81686203 426.73132019 83.0180014 426.74974976 84.25553894 426.76873779 C89.80404621 426.9327277 89.80404621 426.9327277 94.63131332 424.69120789 C97.48559389 420.57563747 97.79118161 416.77568656 97 412 C95.43020534 407.84004416 93.88276091 405.23552901 90 403 C85.88176405 401.76753553 81.82952973 401.86281975 77.56640625 401.87402344 C76.29234169 401.87122124 76.29234169 401.87122124 74.99253845 401.86836243 C73.14883731 401.86436186 71.30513122 401.8622839 69.46142578 401.86190033 C65.52839915 401.85847417 61.59553623 401.83709214 57.66256714 401.81666946 C50.34517314 401.77873677 43.02795284 401.74737639 35.71044922 401.74951172 C30.6157048 401.75030291 25.52155923 401.72675882 20.42697144 401.6876297 C18.49432067 401.67722702 16.56160028 401.675603 14.62893677 401.68328094 C-4.39563385 401.75128281 -15.7373367 397.20255373 -29.42677879 383.70483971 C-31.59432215 381.53759714 -33.73775641 379.34761042 -35.87629318 377.15177536 C-37.62974334 375.35351211 -39.39166081 373.56394105 -41.15615845 371.77651978 C-46.16543305 366.70077038 -51.1659119 361.6165997 -56.14550781 356.51171875 C-59.21077255 353.37056214 -62.29098959 350.24472476 -65.38084793 347.12776566 C-66.54332986 345.94934285 -67.70027304 344.76542584 -68.85111618 343.575634 C-77.41609647 334.72572705 -86.6918452 326.30500078 -99.66998291 325.87974548 C-101.16833385 325.87685377 -102.66670162 325.8794884 -104.16503906 325.88647461 C-105.39486511 325.88625557 -105.39486511 325.88625557 -106.64953613 325.8860321 C-109.35492616 325.88672782 -112.06024702 325.89450428 -114.765625 325.90234375 C-116.64320844 325.90420914 -118.52079237 325.90563247 -120.39837646 325.90663147 C-125.33688707 325.91044711 -130.27536821 325.92026929 -135.21386719 325.93133545 C-140.25455324 325.94157004 -145.29524405 325.94613348 -150.3359375 325.95117188 C-160.22397127 325.96189239 -170.11198318 325.9789574 -180 326 Z " fill="#e52b50" transform="translate(301,0)"/>
<path d="M0 0 C4.46254815 3.69911399 7.48428652 7.74342635 10.25 12.8125 C10.66378906 13.53824219 11.07757813 14.26398438 11.50390625 15.01171875 C15.98879358 24.21589518 15.81839383 36.17585276 12.6875 45.8125 C7.80638161 57.09901585 -0.5351053 64.30363302 -11.671875 69.05078125 C-21.14477364 72.52299034 -31.66957044 71.66756591 -40.99609375 68.140625 C-45.49101529 65.97286142 -49.11843005 63.21257545 -52.75 59.8125 C-53.31460937 59.28914063 -53.87921875 58.76578125 -54.4609375 58.2265625 C-61.04162136 51.37864275 -64.37156287 41.91340126 -64.81640625 32.53125 C-64.53544155 21.02822472 -60.65114198 11.05792625 -52.75 2.62890625 C-37.83560438 -10.91639446 -16.19197471 -11.61188203 0 0 Z M-39.75 19.8125 C-43.26662489 25.58981232 -44.34319969 30.24300993 -42.75 36.8125 C-40.68917858 43.08949736 -36.91148383 46.02909887 -31.3125 49.1875 C-24.89455343 50.75285282 -20.21239901 50.18501749 -14.5078125 47.01953125 C-10.75608363 44.44334409 -8.52174528 40.92655259 -6.75 36.8125 C-5.89975583 30.99920266 -6.40734369 25.69393761 -9.36328125 20.5703125 C-12.96151613 16.0091697 -17.64199244 13.73178024 -23.3125 12.8125 C-29.87189692 12.41735561 -35.12163116 15.31269696 -39.75 19.8125 Z " fill="#e52b50" transform="translate(321.75,139.1875)"/>
<path d="M0 0 C3.3547635 2.62941438 4.82949979 4.10335166 5.63491821 8.33898926 C5.64088516 10.24496887 5.64088516 10.24496887 5.64697266 12.18945312 C5.66011505 13.24651711 5.66011505 13.24651711 5.67352295 14.32493591 C5.69545221 16.64434169 5.68098981 18.96182635 5.6640625 21.28125 C5.66743256 22.89880742 5.67228677 24.51636236 5.67855835 26.13391113 C5.68592081 29.52002123 5.6752452 32.90547075 5.65185547 36.29150391 C5.62336706 40.62632068 5.63977453 44.95958966 5.66971779 49.29434967 C5.6878083 52.63335783 5.68202492 55.97200057 5.66907883 59.3110199 C5.66574961 60.90897303 5.66981491 62.50695961 5.68147659 64.10487366 C5.69421553 66.34098839 5.6747718 68.57461684 5.64697266 70.81054688 C5.64299469 72.08119995 5.63901672 73.35185303 5.63491821 74.66101074 C4.83401139 78.87292219 3.30464781 80.35689861 0 83 C-2.5 83.6640625 -2.5 83.6640625 -5 83.625 C-6.2375 83.64433594 -6.2375 83.64433594 -7.5 83.6640625 C-11.15845959 82.69228417 -12.61804315 80.90511842 -15 78 C-15.63491821 74.66101074 -15.63491821 74.66101074 -15.64697266 70.81054688 C-15.65573425 70.10583755 -15.66449585 69.40112823 -15.67352295 68.67506409 C-15.69545221 66.35565831 -15.68098981 64.03817365 -15.6640625 61.71875 C-15.66743256 60.10119258 -15.67228677 58.48363764 -15.67855835 56.86608887 C-15.68592081 53.47997877 -15.6752452 50.09452925 -15.65185547 46.70849609 C-15.62336706 42.37367932 -15.63977453 38.04041034 -15.66971779 33.70565033 C-15.6878083 30.36664217 -15.68202492 27.02799943 -15.66907883 23.6889801 C-15.66574961 22.09102697 -15.66981491 20.49304039 -15.68147659 18.89512634 C-15.69421553 16.65901161 -15.6747718 14.42538316 -15.64697266 12.18945312 C-15.64299469 10.91880005 -15.63901672 9.64814697 -15.63491821 8.33898926 C-14.83192301 4.11609517 -13.31719795 2.64812892 -10 0 C-6.1544104 -1.2818632 -3.93271581 -0.94927623 0 0 Z " fill="#e52b50" transform="translate(411,291)"/>
<path d="M0 0 C3.18637361 0.64073817 4.95955678 2.09960721 7.15625 4.43359375 C8.77501208 7.6711179 8.72757566 10.93422409 8.15625 14.43359375 C6.36689094 18.03545013 4.09595239 20.08631243 0.28125 21.49609375 C-3.82306067 21.41400754 -6.3006218 20.50598949 -9.84375 18.43359375 C-12.32189609 15.02614288 -12.84375 13.08302468 -12.84375 8.87109375 C-10.79298323 1.82158298 -7.02870459 -0.38657875 0 0 Z " fill="#e52b50" transform="translate(275.84375,304.56640625)"/>
<path d="M0 0 C2.89037303 2.26203107 4.57487033 3.99031704 6 7.375 C6 11.92733267 4.27900305 15.53151502 1.3125 18.9375 C-2.11162784 20.51074793 -5.34606578 20.67423786 -9 20 C-11.8100346 18.20636089 -13.50940468 16.98119065 -15 14 C-15.42074378 10.94059163 -15.47999423 8.0540292 -15 5 C-10.58053726 -0.73335706 -6.94670018 -1.6767897 0 0 Z " fill="#e52b50" transform="translate(219,83)"/>
<path d="M0 0 C3.348157 2.37161121 4.65750859 4.01533721 6 7.875 C6 11.90306262 4.89929459 14.47273862 3 18 C-1.01858595 20.6790573 -4.27641721 20.69610694 -9 20 C-11.87029869 18.20606332 -13.49131638 17.01736724 -15 14 C-15.5811138 6.91041162 -15.5811138 6.91041162 -13.125 3.0625 C-9.22986962 -0.71806772 -5.22963138 -0.79483171 0 0 Z " fill="#e52b50" transform="translate(65,438)"/>
<path d="M0 0 C3.02519989 2.05971056 4.66926776 3.51573824 5.48046875 7.15625 C5.7530672 11.57676536 5.43956037 13.44476585 2.625 17 C-1.18996521 19.90664016 -3.18673652 20.4628138 -8 20 C-13.57894737 16.84210526 -13.57894737 16.84210526 -15 14 C-15.42074378 10.94059163 -15.47999423 8.0540292 -15 5 C-10.58053726 -0.73335706 -6.94670018 -1.6767897 0 0 Z " fill="#e52b50" transform="translate(411,253)"/>
</svg>
